<?xml version="1.0" encoding="UTF-8"?>
<svg width="63px" height="33px" viewBox="0 0 63 33" version="1.1" xmlns="http://www.w3.org/2000/svg" xmlns:xlink="http://www.w3.org/1999/xlink">
    <!-- Generator: sketchtool 54.1 (76490) - https://sketchapp.com -->
    <title>85B60D9C-52A4-4EA0-98F5-1AC6C8B2181F</title>
    <desc>Created with sketchtool.</desc>
    <defs>
        <polygon id="path-1" points="0.189828927 0.162614088 2.23592644 0.162614088 2.23592644 2.18543433 0.189828927 2.18543433"></polygon>
        <polygon id="path-3" points="0.0468976691 0.32437892 12.6752788 0.32437892 12.6752788 16.1640253 0.0468976691 16.1640253"></polygon>
    </defs>
    <g id="Page-1" stroke="none" stroke-width="1" fill="none" fill-rule="evenodd">
        <g id="Mobile-Smallest---Opening" transform="translate(-156.000000, -87.000000)">
            <g id="Group-Copy" transform="translate(156.000000, 87.000000)">
                <g id="Anglian-logo">
                    <path d="M6.91549562,28.0439207 C7.13007076,27.9537471 7.26388331,27.7453884 7.26388331,27.5243671 C7.26388331,27.4203797 7.21043747,27.2776367 7.13007076,27.0573829 L6.32600781,24.9657385 L3.13588509,24.9657385 L1.90267185,28.0439207 L0,28.0439207 C0.429150289,27.8620386 0.737156677,27.3163922 0.898285983,26.9142562 L3.44428738,20.601335 C3.61887712,20.1589087 3.7657542,19.756389 3.7657542,19.4969959 C3.7657542,19.2755909 3.60541668,19.0292442 3.4177624,18.8991639 L5.77650541,18.8991639 L9.00621764,27.0573829 C9.27423863,27.7062492 9.59610134,27.9399332 9.81028059,28.0439207 L6.91549562,28.0439207 Z M4.7309464,20.7954961 L3.56503533,23.7969349 L5.89685746,23.7969349 L4.7309464,20.7954961 Z" id="Fill-1" fill="#FEFEFE"></path>
                    <path d="M15.941706,24.0409765 C15.941706,23.0873166 15.8278014,22.4245308 15.3348375,21.9339989 C14.917312,21.5366406 14.3619807,21.3377657 13.6281367,21.3377657 C12.8569469,21.3377657 12.0226429,21.735124 11.6181884,22.2788981 L11.6181884,21.5628702 L9.81028059,21.5628702 C9.986926,21.6826649 10.0885064,21.8416082 10.1389232,22.0663212 C10.1766424,22.225656 10.1766424,22.4112203 10.1766424,22.6359333 L10.1766424,26.9567641 C10.1766424,27.2088811 10.1639449,27.420675 10.1258522,27.5796183 C10.0754354,27.7655742 9.96153089,27.937828 9.81028059,28.0439207 L11.6305125,28.0439207 L11.6305125,25.1277416 C11.6305125,24.3463356 11.7063244,23.802953 11.8329265,23.4846749 C12.1111523,22.7952681 12.7430424,22.4245308 13.28717,22.4245308 C14.2730978,22.4245308 14.4878359,23.2329494 14.4878359,24.0942186 L14.4878359,26.9567641 C14.4878359,27.2088811 14.4751383,27.420675 14.4374191,27.5796183 C14.3862554,27.7655742 14.2730978,27.937828 14.1211006,28.0439207 L15.941706,28.0439207 L15.941706,24.0409765 Z" id="Fill-3" fill="#FEFEFE"></path>
                    <path d="M43.5331201,24.0409765 C43.5331201,23.0873166 43.4196029,22.4245308 42.9263256,21.9339989 C42.508851,21.5366406 41.9528405,21.3377657 41.2194593,21.3377657 C40.4487368,21.3377657 39.6145344,21.735124 39.2101292,22.2788981 L39.2101292,21.5628702 L37.4016948,21.5628702 C37.5794389,21.6826649 37.6802601,21.8416082 37.7306708,22.0663212 C37.7683854,22.225656 37.7683854,22.4112203 37.7683854,22.6359333 L37.7683854,26.9567641 C37.7683854,27.2088811 37.7556894,27.420675 37.7183482,27.5796183 C37.6675641,27.7655742 37.5536735,27.937828 37.4016948,28.0439207 L39.2220784,28.0439207 L39.2220784,25.1277416 C39.2220784,24.3463356 39.2986278,23.802953 39.4244677,23.4846749 C39.7026596,22.7952681 40.3352196,22.4245308 40.8789075,22.4245308 C41.8643418,22.4245308 42.0794271,23.2329494 42.0794271,24.0942186 L42.0794271,26.9567641 C42.0794271,27.2088811 42.0663577,27.420675 42.0286431,27.5796183 C41.9782325,27.7655742 41.8643418,27.937828 41.7127365,28.0439207 L43.5331201,28.0439207 L43.5331201,24.0409765 Z" id="Fill-5" fill="#FEFEFE"></path>
                    <path d="M23.5136044,22.4748653 L22.358323,22.3206565 C22.8365193,22.5397552 23.1550553,23.1474298 23.1550553,23.7161704 C23.1550553,25.3304014 21.5611985,26.1838941 20.1136643,26.1964903 C20.0073549,26.4552864 19.808466,26.7003411 19.5958472,26.8812693 C19.8214115,26.8556951 20.047368,26.8427171 20.2733246,26.8427171 C21.7208588,26.8427171 23.4473081,27.45001 23.4473081,29.2077621 C23.4473081,30.9265803 21.4286059,31.7018234 19.9810717,31.7018234 C19.0646924,31.7018234 17.9098033,31.4552419 17.2056505,30.8223748 C16.8074805,30.4609 16.5548485,30.0085794 16.5548485,29.4791544 C16.5548485,28.9104138 17.1260165,28.4966454 17.6434413,28.4966454 C17.6838467,29.9177336 18.6665224,30.7322924 20.0073549,30.7322924 C20.857438,30.7322924 21.8934645,30.2543975 21.8934645,29.2848665 C21.8934645,28.0962368 20.8048717,27.7855288 19.8881,27.7855288 C19.2506358,27.7855288 18.7591018,27.9023305 18.2012716,27.9023305 C17.7497507,27.9023305 17.4849579,27.4759659 17.4849579,27.0362416 C18.0157204,26.9721151 18.7857772,26.5071983 19.0250715,26.0418998 C17.8960733,25.8605898 17.019707,25.0593908 17.019707,23.883739 C17.019707,22.2553849 18.6531847,21.36334 20.1136643,21.36334 C21.3752551,21.36334 22.6235082,21.3507437 23.9125589,21.3377657 L23.5136044,22.4748653 Z M20.0740436,22.2294289 C19.1713942,22.2294289 18.6265093,22.9142079 18.6265093,23.7802968 C18.6265093,24.7238719 19.1713942,25.317805 20.1273944,25.317805 C21.0300439,25.317805 21.5482533,24.6456223 21.5482533,23.7677005 C21.5482533,22.8367218 21.0437739,22.2294289 20.0740436,22.2294289 L20.0740436,22.2294289 Z" id="Fill-7" fill="#FEFEFE"></path>
                    <path d="M24.5257015,28.0439207 C24.6803487,27.9399332 24.7958591,27.7710975 24.8471549,27.5892154 C24.8859116,27.4203797 24.8859116,27.2127885 24.8859116,26.9791045 L24.8859116,19.9513175 C24.8859116,19.7180172 24.8859116,19.5357514 24.8471549,19.3930084 C24.7958591,19.1719871 24.7061865,19.0165815 24.5257015,18.8991639 L26.3651291,18.8991639 L26.3651291,28.0439207 L24.5257015,28.0439207 Z" id="Fill-9" fill="#FEFEFE"></path>
                    <path d="M29.2484994,21.3455735 C28.7978413,21.3455735 28.46563,20.909514 28.46563,20.4203622 C28.46563,19.9316008 28.7978413,19.5088144 29.2484994,19.5088144 C29.6995078,19.5088144 30.0439844,19.9316008 30.0439844,20.4203622 C30.0439844,20.909514 29.6872426,21.3455735 29.2484994,21.3455735 L29.2484994,21.3455735 Z M28.2045567,28.6535711 C28.3475337,28.5477769 28.4537152,28.3760078 28.5013742,28.1909655 C28.5367681,28.0324694 28.5367681,27.8216618 28.5367681,27.5698638 L28.5367681,23.2615805 C28.5367681,23.0371094 28.5367681,22.8524576 28.5013742,22.6935711 C28.4537152,22.4687096 28.3710128,22.3102135 28.2045567,22.1915366 L29.9010073,22.1915366 L29.9010073,28.6535711 L28.2045567,28.6535711 Z" id="Fill-11" fill="#FEFEFE"></path>
                    <path d="M33.9081628,28.0439207 C32.7176551,28.0439207 31.2702694,27.6480902 31.2702694,26.2126694 C31.2702694,24.9734125 32.487144,24.3024078 33.556204,23.9723544 C34.083543,23.8275669 34.9628408,23.7084674 35.2329022,23.7084674 L35.2329022,23.4185031 C35.2329022,22.7077986 34.6919803,22.4178342 33.9616957,22.4178342 C33.284944,22.4178342 32.744821,22.6416322 32.4200282,22.8654302 C32.2578315,22.9709071 32.0688684,23.128928 31.9606041,23.3134153 L31.9606041,21.9698491 C32.4743601,21.6137184 33.4882891,21.3377657 34.2049907,21.3377657 C35.1114545,21.3377657 35.8557215,21.5218639 36.3550956,22.075326 C36.6663055,22.4178342 36.7885522,22.9841404 36.7885522,23.6426903 L36.7885522,27.6881792 C36.0990166,27.8726666 34.7866616,28.0439207 33.9081628,28.0439207 L33.9081628,28.0439207 Z M35.2329022,24.6970707 C34.8409935,24.710304 34.2049907,24.8282358 33.7184006,25.0792787 C33.2581775,25.3030767 32.9206007,25.6720515 32.9206007,26.1068034 C32.9206007,26.7789757 33.5158545,27.1082507 34.1782242,27.1082507 C34.6108819,27.1082507 35.0027906,27.0557068 35.2329022,27.0023845 L35.2329022,24.6970707 Z" id="Fill-13" fill="#FEFEFE"></path>
                    <g id="Group-17" transform="translate(60.087969, 17.679863)">
                        <mask id="mask-2" fill="white">
                            <use xlink:href="#path-1"></use>
                        </mask>
                        <g id="Clip-16"></g>
                        <path d="M1.00326472,0.729995451 L1.24852173,0.729995451 C1.37319404,0.729995451 1.50972044,0.754787903 1.50972044,0.911264857 C1.50972044,1.09822433 1.36011367,1.10675944 1.196609,1.10675944 L1.00326472,1.10675944 L1.00326472,0.729995451 Z M0.818504379,1.7639626 L1.00326467,1.7639626 L1.00326467,1.25470126 L1.19947028,1.25470126 L1.52320955,1.7639626 L1.72186773,1.7639626 L1.381778,1.24169539 C1.55836305,1.22299944 1.6944807,1.13358404 1.6944807,0.919799951 C1.6944807,0.692603552 1.56163315,0.581647171 1.27836129,0.581647171 L0.818504379,0.581647171 L0.818504379,1.7639626 Z M0.374589214,1.16853734 C0.374589214,0.684068445 0.739613394,0.310962368 1.21582075,0.310962368 C1.68630544,0.310962368 2.05132962,0.684068445 2.05132962,1.16853734 C2.05132962,1.66357351 1.68630544,2.03749245 1.21582075,2.03749245 C0.739613394,2.03749245 0.374589214,1.66357351 0.374589214,1.16853734 L0.374589214,1.16853734 Z M0.189828927,1.16853735 C0.189828927,1.75055033 0.657861079,2.18543433 1.21582081,2.18543433 C1.77051044,2.18543433 2.23609002,1.75055033 2.23609002,1.16853735 C2.23609002,0.598310953 1.77051044,0.162614088 1.21582081,0.162614088 C0.657861079,0.162614088 0.189828927,0.598310953 0.189828927,1.16853735 L0.189828927,1.16853735 Z" id="Fill-15" fill="#FEFEFE" mask="url(#mask-2)"></path>
                    </g>
                    <polygon id="Fill-18" fill="#FEFEFE" points="6.74456791 29.2632216 7.14629372 29.2632216 7.14629372 30.2681939 8.1822697 30.2681939 8.1822697 29.2632216 8.58399552 29.2632216 8.58399552 31.7018234 8.1822697 31.7018234 8.1822697 30.6383607 7.14629372 30.6383607 7.14629372 31.7018234 6.74456791 31.7018234"></polygon>
                    <path d="M10.1150881,29.872872 C10.6575487,29.872872 11.0365657,30.2498101 11.0365657,30.7875482 C11.0365657,31.3244844 10.6575487,31.7018234 10.1150881,31.7018234 C9.576155,31.7018234 9.19713806,31.3244844 9.19713806,30.7875482 C9.19713806,30.2498101 9.576155,29.872872 10.1150881,29.872872 M10.1150881,31.3457373 C10.389846,31.3457373 10.5846458,31.1147625 10.5846458,30.7875482 C10.5846458,30.456725 10.389846,30.2289582 10.1150881,30.2289582 C9.84385776,30.2289582 9.64905794,30.456725 9.64905794,30.7875482 C9.64905794,31.1147625 9.84385776,31.3457373 10.1150881,31.3457373" id="Fill-20" fill="#FEFEFE"></path>
                    <path d="M11.6497082,29.9168096 L11.9640067,29.9168096 L12.013322,30.1611351 C12.1334848,29.9751192 12.3088668,29.872872 12.5092538,29.872872 C12.7280472,29.872872 12.9069022,29.996472 12.9930304,30.2005557 C13.1315996,29.9894913 13.3198314,29.872872 13.5382775,29.872872 C13.8682041,29.872872 14.1022784,30.1426567 14.1022784,30.5249544 L14.1022784,31.7018234 L13.7077556,31.7018234 L13.7077556,30.5980467 C13.7077556,30.3976587 13.5875929,30.2555803 13.4149892,30.2555803 C13.2149494,30.2555803 13.0732547,30.4337943 13.0732547,30.6892069 L13.0732547,31.7018234 L12.6787319,31.7018234 L12.6787319,30.5980467 C12.6787319,30.3976587 12.5585692,30.2555803 12.3890911,30.2555803 C12.1855785,30.2555803 12.0438837,30.4337943 12.0438837,30.6892069 L12.0438837,31.7018234 L11.6497082,31.7018234 L11.6497082,29.9168096 Z" id="Fill-22" fill="#FEFEFE"></path>
                    <path d="M15.6636629,29.872872 C16.1886662,29.872872 16.5548485,30.2321662 16.5548485,30.7550674 C16.5548485,30.8051921 16.5510164,30.8549159 16.54761,30.9010306 L15.1991222,30.9010306 C15.2327599,31.1785212 15.4673721,31.3637822 15.7845882,31.3637822 C15.9429833,31.3637822 16.1243713,31.3176674 16.3172558,31.217819 L16.4645803,31.5273893 C16.2039947,31.6480897 15.9429833,31.7018234 15.7241255,31.7018234 C15.1271631,31.7018234 14.7154209,31.3244844 14.7154209,30.7875482 C14.7154209,30.2498101 15.1045961,29.872872 15.6636629,29.872872 M15.1991222,30.6275501 L16.0903079,30.6275501 C16.0754051,30.3785304 15.9055135,30.2113142 15.6636629,30.2113142 C15.4145737,30.2113142 15.2289278,30.3785304 15.1991222,30.6275501" id="Fill-24" fill="#FEFEFE"></path>
                    <path d="M24.8300152,29.2632216 C25.0106169,29.2632216 25.138844,29.3736254 25.138844,29.5291237 C25.138844,29.6842332 25.0106169,29.7942482 24.8300152,29.7942482 C24.6539286,29.7942482 24.5257015,29.6842332 24.5257015,29.5291237 C24.5257015,29.3736254 24.6539286,29.2632216 24.8300152,29.2632216 L24.8300152,29.2632216 Z M24.5740124,31.7018234 L25.0864696,31.7018234 L25.0864696,30.0119459 L24.5740124,30.0119459 L24.5740124,31.7018234 Z" id="Fill-26" fill="#FEFEFE"></path>
                    <path d="M25.7519866,29.9168096 L26.0662851,29.9168096 L26.1156004,30.1611351 C26.2357631,29.9751192 26.4111452,29.872872 26.6115322,29.872872 C26.8303256,29.872872 27.0091805,29.996472 27.0953088,30.2005557 C27.2338779,29.9894913 27.4221097,29.872872 27.6405559,29.872872 C27.9704825,29.872872 28.2045567,30.1426567 28.2045567,30.5249544 L28.2045567,31.7018234 L27.810034,31.7018234 L27.810034,30.5980467 C27.810034,30.3976587 27.6898712,30.2555803 27.5172675,30.2555803 C27.3172278,30.2555803 27.175533,30.4337943 27.175533,30.6892069 L27.175533,31.7018234 L26.7810103,31.7018234 L26.7810103,30.5980467 C26.7810103,30.3976587 26.6608475,30.2555803 26.4913694,30.2555803 C26.2878568,30.2555803 26.146162,30.4337943 26.146162,30.6892069 L26.146162,31.7018234 L25.7519866,31.7018234 L25.7519866,29.9168096 Z" id="Fill-28" fill="#FEFEFE"></path>
                    <path d="M28.8176992,29.9142961 L29.1929657,29.9142961 L29.2518473,30.130708 C29.3841235,29.9657859 29.5902091,29.872872 29.8290527,29.872872 C30.3150331,29.872872 30.6571269,30.2371718 30.6571269,30.7559409 C30.6571269,31.2743228 30.3150331,31.6382355 29.8290527,31.6382355 C29.6084541,31.6382355 29.4172963,31.5557744 29.2883373,31.4047894 L29.2883373,32.3114738 L28.8176992,32.3114738 L28.8176992,29.9142961 Z M29.7079723,30.2197505 C29.4575182,30.2197505 29.2812881,30.3947383 29.2812881,30.6425086 L29.2812881,30.8689861 C29.2812881,31.112885 29.4575182,31.2917442 29.7079723,31.2917442 C29.9837205,31.2917442 30.1790249,31.0679766 30.1790249,30.7559409 C30.1790249,30.4396466 29.9837205,30.2197505 29.7079723,30.2197505 L29.7079723,30.2197505 Z" id="Fill-30" fill="#FEFEFE"></path>
                    <path d="M30.6571269,29.9022644 L31.0458442,29.9022644 L31.1068363,30.1812851 C31.2133577,29.9867158 31.4156626,29.872872 31.6592015,29.872872 C31.7240593,29.872872 31.8078161,29.8803236 31.8834119,29.8985386 L31.8383121,30.273188 C31.7738838,30.2582848 31.6935632,30.2475214 31.620974,30.2475214 C31.3310467,30.2475214 31.1446342,30.4640315 31.1446342,30.7728585 L31.1446342,31.7018234 L30.6571269,31.7018234 L30.6571269,29.9022644 Z" id="Fill-32" fill="#FEFEFE"></path>
                    <path d="M32.8011664,29.872872 C33.3439033,29.872872 33.7228395,30.2498101 33.7228395,30.7875482 C33.7228395,31.3244844 33.3439033,31.7018234 32.8011664,31.7018234 C32.26274,31.7018234 31.8834119,31.3244844 31.8834119,30.7875482 C31.8834119,30.2498101 32.26274,29.872872 32.8011664,29.872872 M32.8011664,31.3457373 C33.0762576,31.3457373 33.270624,31.1147625 33.270624,30.7875482 C33.270624,30.456725 33.0762576,30.2289582 32.8011664,30.2289582 C32.5303857,30.2289582 32.3360193,30.456725 32.3360193,30.7875482 C32.3360193,31.1147625 32.5303857,31.3457373 32.8011664,31.3457373" id="Fill-34" fill="#FEFEFE"></path>
                    <polygon id="Fill-36" fill="#FEFEFE" points="34.8519614 31.7018234 34.4331453 31.7018234 33.7228395 29.872872 34.1985122 29.872872 34.6429537 31.1607534 35.0901981 29.872872 35.5622672 29.872872"></polygon>
                    <path d="M36.5102897,29.872872 C37.0351715,29.872872 37.4016948,30.2321662 37.4016948,30.7550674 C37.4016948,30.8051921 37.3978635,30.8549159 37.3940323,30.9010306 L36.0458565,30.9010306 C36.0799121,31.1785212 36.3136186,31.3637822 36.631187,31.3637822 C36.7895455,31.3637822 36.9708915,31.3176674 37.1633056,31.217819 L37.3110218,31.5273893 C37.0504965,31.6480897 36.7895455,31.7018234 36.5707383,31.7018234 C35.9739141,31.7018234 35.5622672,31.3244844 35.5622672,30.7875482 C35.5622672,30.2498101 35.951778,29.872872 36.5102897,29.872872 M36.0458565,30.6275501 L36.9368359,30.6275501 C36.9219366,30.3785304 36.7520844,30.2113142 36.5102897,30.2113142 C36.2612582,30.2113142 36.0760809,30.3785304 36.0458565,30.6275501" id="Fill-38" fill="#FEFEFE"></path>
                    <path d="M37.4016948,29.9168096 L37.7159933,29.9168096 L37.7656559,30.1611351 C37.8858186,29.9751192 38.0608534,29.872872 38.2612404,29.872872 C38.4800338,29.872872 38.6588888,29.996472 38.745017,30.2005557 C38.8839334,29.9894913 39.0718179,29.872872 39.2906114,29.872872 C39.6201907,29.872872 39.8542649,30.1426567 39.8542649,30.5249544 L39.8542649,31.7018234 L39.4600895,31.7018234 L39.4600895,30.5980467 C39.4600895,30.3976587 39.3395794,30.2555803 39.1669757,30.2555803 C38.966936,30.2555803 38.8252412,30.4337943 38.8252412,30.6892069 L38.8252412,31.7018234 L38.4307185,31.7018234 L38.4307185,30.5980467 C38.4307185,30.3976587 38.3105557,30.2555803 38.1410776,30.2555803 C37.9379123,30.2555803 37.7962175,30.4337943 37.7962175,30.6892069 L37.7962175,31.7018234 L37.4016948,31.7018234 L37.4016948,29.9168096 Z" id="Fill-40" fill="#FEFEFE"></path>
                    <path d="M41.41543,29.872872 C41.9398861,29.872872 42.3068351,30.2321662 42.3068351,30.7550674 C42.3068351,30.8051921 42.3030038,30.8549159 42.2987469,30.9010306 L40.9505711,30.9010306 C40.9846267,31.1785212 41.2187589,31.3637822 41.5359016,31.3637822 C41.6946858,31.3637822 41.8760318,31.3176674 42.0684459,31.217819 L42.2157364,31.5273893 C41.9556368,31.6480897 41.6946858,31.7018234 41.4758786,31.7018234 C40.8786287,31.7018234 40.4674075,31.3244844 40.4674075,30.7875482 C40.4674075,30.2498101 40.8564926,29.872872 41.41543,29.872872 M40.9505711,30.6275501 L41.8419762,30.6275501 C41.8270769,30.3785304 41.656799,30.2113142 41.41543,30.2113142 C41.1659728,30.2113142 40.9807955,30.3785304 40.9505711,30.6275501" id="Fill-42" fill="#FEFEFE"></path>
                    <path d="M42.3068351,29.9168096 L42.6994487,29.9168096 L42.7610522,30.1755072 C42.9033476,29.9820999 43.1380481,29.872872 43.4113593,29.872872 C43.8425836,29.872872 44.1462627,30.1533332 44.1462627,30.5541092 L44.1462627,31.7018234 L43.6534349,31.7018234 L43.6534349,30.6267909 C43.6534349,30.4083351 43.4885805,30.2555803 43.261255,30.2555803 C42.9957528,30.2555803 42.7996628,30.4448813 42.7996628,30.7183617 L42.7996628,31.7018234 L42.3068351,31.7018234 L42.3068351,29.9168096 Z" id="Fill-44" fill="#FEFEFE"></path>
                    <path d="M44.8758722,29.8070243 L45.3293422,29.8070243 L45.3293422,30.1729635 L44.8758722,30.1729635 L44.8758722,31.0567492 C44.8758722,31.2112096 44.9694216,31.3171617 45.1058007,31.3171617 C45.169294,31.3171617 45.2395499,31.3052474 45.315817,31.2831209 L45.3725477,31.6452305 C45.2429312,31.6831009 45.1189502,31.7018234 45.0028589,31.7018234 C44.6759998,31.7018234 44.4494526,31.4605588 44.4494526,31.1056829 L44.4494526,30.1729635 L44.1462627,30.1729635 L44.1462627,29.8070243 L44.4494526,29.8070243 L44.4494526,29.2632216 L44.8758722,29.2632216 L44.8758722,29.8070243 Z" id="Fill-46" fill="#FEFEFE"></path>
                    <path d="M46.5974184,29.872872 C46.7759865,29.872872 46.9676377,29.9157788 47.1621177,29.9939734 L47.0744249,30.3215887 C46.9202553,30.253419 46.7667929,30.2113143 46.6285352,30.2113143 C46.4842664,30.2113143 46.3898552,30.2858999 46.3898552,30.3993823 C46.3898552,30.7165716 47.2119754,30.4851958 47.2119754,31.1608773 C47.2119754,31.4776656 46.9609193,31.7018234 46.5974184,31.7018234 C46.4093032,31.7018234 46.2020935,31.6553076 45.9856903,31.5630781 L46.0705543,31.2390718 C46.2494759,31.3208754 46.4184968,31.3637822 46.565948,31.3637822 C46.719764,31.3637822 46.8166505,31.2819786 46.8166505,31.1608773 C46.8166505,30.830054 45.9980663,31.0614298 45.9980663,30.3993823 C45.9980663,30.0938219 46.2427575,29.872872 46.5974184,29.872872" id="Fill-48" fill="#FEFEFE"></path>
                    <path d="M48.8425116,2.88643982 L48.9027714,3.21134126 C48.866772,3.47339291 48.1381763,3.83131713 47.4248411,3.61258566 C47.4901878,3.96269804 47.5551432,4.49674369 47.6247941,4.87242208 C48.54043,4.93420662 49.7737994,4.38808812 49.6568015,3.76349617 C49.5734551,3.3139604 49.5174996,2.86051872 49.4603702,2.40636686 C49.1477236,2.09460351 48.435171,1.76721648 47.9679619,1.83894336 C48.014135,1.93446083 48.0282217,2.00938346 48.0419171,2.083951 C48.1068725,2.43406338 47.887746,2.62225766 47.5297088,2.67658544 C47.4189717,2.69362945 47.3035389,2.6861727 47.2119754,2.64853384 L47.2687135,3.10233061 C47.4804054,3.17299224 47.8200515,3.17192698 48.0403519,3.13819405 C48.3150427,3.09558402 48.5807336,3.00397247 48.8425116,2.88643982" id="Fill-50" fill="#FEFEFE"></path>
                    <path d="M39.5208188,7.3158054 C39.6997934,7.19472284 39.8881234,6.62953122 39.8490744,6.4016111 C39.7843995,6.03082194 38.8504778,6.08486918 38.6279798,6.12509037 C39.0888393,6.30566679 39.4093665,6.83566486 39.5208188,7.3158054" id="Fill-52" fill="#FEFEFE"></path>
                    <path d="M48.6339533,0.78476751 C49.3039437,0.532112942 49.7129584,1.10475129 50.1257885,1.62910303 C50.4958858,2.12115036 51.0640041,2.68324727 52.0109952,2.32551832 C52.7038783,2.0636825 52.8450494,1.32986209 52.6500807,0.748042486 C52.648936,1.0887691 52.4657951,1.44887838 52.0735684,1.5981588 C51.5134624,1.80932769 51.0861337,1.45295893 50.7351136,1.00273733 C50.270012,0.425678379 49.704946,-0.283998721 48.6434919,0.117596226 C47.9738829,0.370250795 47.6282045,1.01871952 47.9422148,1.67772969 C48.0162343,1.26117269 48.2409634,0.933367842 48.6339533,0.78476751" id="Fill-54" fill="#FEFEFE"></path>
                    <g id="Group-58" transform="translate(49.664546, 12.193009)">
                        <mask id="mask-4" fill="white">
                            <use xlink:href="#path-3"></use>
                        </mask>
                        <g id="Clip-57"></g>
                        <path d="M11.5206812,8.74916265 C10.5754319,8.84455908 9.58663133,8.51834068 9.46809645,7.37395754 C9.30335948,5.77803126 10.5231705,4.46754609 10.3739604,3.02163539 C10.2459579,1.78709326 9.26283797,1.21658516 8.13505246,1.33031268 C7.58592922,1.38605412 7.05574127,1.62099123 6.73535626,1.80579845 C6.3778581,1.32507522 5.93136411,0.813301398 5.42541332,0.751200188 C4.76078485,0.67001969 4.04919687,0.956583105 3.48606153,0.956583105 C2.11022379,0.956583105 1.3376642,0.250649471 0.545033215,0.330707658 C0.148907074,0.370736751 -0.00371131515,0.690221289 0.0614260618,1.01868432 L0.0769529947,1.16869989 C0.488984775,1.27980868 0.70598313,1.28878717 0.758623219,1.80056099 C0.811263309,2.31233482 0.742338875,2.83682817 0.794978964,3.348602 C0.832849532,3.70998615 0.903667495,4.09867987 1.06007294,4.4174162 C1.177093,4.64973458 1.38689594,4.90188046 1.41492016,5.17273152 C1.45544167,5.56441806 1.0108412,5.7312683 1.02030884,5.82142729 C1.02939778,5.91158627 1.3376642,5.91158627 1.39863582,5.90485241 C1.97805551,5.84649224 2.41508186,5.01149283 2.65972573,4.98680199 C2.87293703,4.96547808 3.08046774,5.18769566 3.09902432,5.36876184 C3.11190032,5.48922323 2.53399545,6.15550187 2.63965433,7.18017183 C2.82559882,8.98709258 5.02625753,9.70873857 5.68141836,10.9814393 C5.76511231,11.186074 5.82040334,11.424378 5.84198956,11.6353725 C5.90485471,12.2369312 5.83138581,13.9185272 5.51554527,14.4370349 C5.19629638,14.9267366 4.96717944,14.7976709 4.52825956,15.0236295 C4.26581652,15.1725227 4.14614553,15.7931607 4.08517391,16.1036668 C4.33928543,16.1698831 4.58620153,16.1751206 4.82970928,16.1504297 C5.01262412,16.1317246 5.98286808,15.9731046 5.9578735,15.7321818 C5.85448685,14.7381884 6.41004808,15.047198 6.62931867,14.7819585 C6.76375919,14.5855541 6.70013664,13.6787268 6.70278758,13.4045088 C6.72929697,12.762921 6.86790325,12.0184547 7.07959973,11.38809 C7.15837051,11.2597724 7.17616968,11.1359441 7.16102145,10.9848062 C7.14549452,10.8332942 7.10232207,10.716948 6.96826026,10.6084579 C6.48844016,10.139706 6.06883427,9.36007395 5.99725889,8.66723394 C5.77306513,6.49855494 7.43444695,4.68826726 7.28410079,3.24160835 C7.26327198,3.03098798 7.17957803,2.52183288 7.03832081,2.35348623 C7.17882062,2.2180607 7.56320688,2.05794432 7.80633593,2.03287938 C8.6909924,1.9434686 9.07310643,2.66586279 9.14506051,3.3587028 C9.30373819,4.89477249 7.57835511,6.37734535 7.75218102,8.06417882 C7.88018354,9.29909505 8.84929137,10.3278802 10.2205846,10.1890877 C11.4104779,10.0690004 12.2409794,9.16329541 12.6753549,8.29836772 C12.3314901,8.54602435 11.9168074,8.70913355 11.5206812,8.74916265" id="Fill-56" fill="#FEFEFE" mask="url(#mask-4)"></path>
                    </g>
                    <path d="M48.999057,10.6975366 L48.5919629,10.0260171 C48.2229977,10.0904197 47.7253954,9.62001704 47.5170341,9.34658844 C46.5765195,8.17943246 45.8882724,7.18552325 44.9065478,6.48952317 C43.635197,5.59730229 42.5625791,5.44439318 41.1498816,5.69108152 C40.7647405,5.13819834 40.1920357,4.77438012 39.4548757,4.90318533 C39.3632121,4.91900351 39.3019747,4.92992559 39.2411224,4.94084767 C39.6324257,5.18151003 39.8689023,5.60521138 39.9451603,6.02476987 C40.0383644,6.53471798 39.8954771,7.48908173 39.5519312,7.8585493 C39.8689023,8.2057961 40.1065344,8.81441954 40.2109076,9.38500403 C40.3148957,9.95483526 40.2721451,11.1080562 40.1385011,11.9354978 C40.1238658,12.0315368 40.0040869,12.2386797 40.0256548,12.3584459 C40.0418307,12.4480823 40.1558325,12.552407 40.3006455,12.6507057 C40.5652374,12.883459 40.812498,13.0261993 41.0239405,13.1440824 C41.4009936,12.9538876 41.8724063,12.5927057 41.8400544,12.4130563 C41.8073174,12.2326537 41.6513353,12.0744719 41.5019006,11.94529 C41.6490245,11.8895498 41.8030809,11.8620563 41.9567522,11.835316 C42.6319045,11.7170562 42.908821,12.195368 43.1098646,12.7795109 L43.6933534,12.677446 C43.7176172,12.1162771 43.8524166,11.8134718 44.4351351,11.7121601 C44.8953787,11.6311861 45.1961739,11.8891731 45.3286624,12.2680563 C44.5499071,12.6830953 43.9644927,13.466472 44.1343399,14.3967319 C44.2052059,14.7857839 44.538738,15.2237969 44.7524913,15.5269788 C44.5506774,15.8098229 44.1901854,16.0892775 43.8181391,16.3092256 C43.1564667,16.6726672 41.6574976,16.4387841 41.8766428,17.6390829 C42.0796122,18.7497454 43.4869177,19.8660572 43.6344268,20.6761742 C43.716847,21.1254859 44.3461675,21.449382 44.6766186,21.7017197 C44.9304265,21.8738366 44.9519944,21.9939795 45.3198042,21.9299535 C45.6271468,21.876473 45.5570511,21.1450703 45.5189221,20.9356677 C45.4961988,20.8151482 45.4472859,20.5454858 45.3386761,20.471291 C45.0995035,20.2027585 44.4882846,20.4961482 44.4389865,20.2257325 C44.4112563,20.0754598 44.6049823,19.9180312 44.571475,19.7383818 C44.571475,19.7383818 44.5660831,19.708252 44.5610762,19.6788753 C44.0322775,19.2137454 43.2978135,18.660109 43.1668655,17.9396284 C43.1337434,17.7596024 43.1930551,17.5645115 43.3771525,17.5317452 C43.7753884,17.4628231 44.1189343,17.4334465 44.6877876,17.4266673 C44.8599457,17.4308101 45.111828,17.4198881 45.3563926,17.4006803 C45.8940495,17.9388751 46.5738235,18.9858883 47.7223143,18.7862778 C49.0109964,18.5603038 49.8610027,17.6692128 49.6252964,16.3785243 C49.4173202,15.2384852 48.8261286,14.2577578 47.9198917,13.4559266 C48.3551011,12.5441213 48.5029953,11.620264 48.999057,10.6975366 M43.5366008,11.1257574 L43.3836998,11.1524977 C42.9893153,11.2523029 42.2371348,11.2907185 41.844676,11.0496795 C42.3673125,10.6176924 42.8098396,9.9213157 42.6788916,9.20121173 C42.6130325,8.84115974 42.4597463,8.52667919 42.2463782,8.22387396 C42.9989438,8.52592594 43.3756118,9.20347147 43.5131072,9.95332869 C43.583588,10.3438872 43.6247981,10.7385885 43.5366008,11.1257574 M46.7683195,10.9638091 C47.1673257,10.8941338 47.4199782,11.067004 47.5782712,11.4108611 C47.067189,11.5611339 46.5568771,11.7125365 46.0877752,11.9185495 C45.9699221,11.4436274 46.3073057,11.0440299 46.7683195,10.9638091" id="Fill-59" fill="#FEFEFE"></path>
                    <path d="M51.1237419,19.5088144 C51.0616069,19.5150839 50.9986904,19.5217452 50.9357739,19.5287984 C49.8962835,19.6334206 48.9388581,20.5295663 49.0545307,21.6643447 C49.1702033,22.801474 50.7911831,23.1129895 50.875202,23.9331176 C50.9330384,24.5016823 49.7173035,25.9965647 49.4296851,26.5996116 C49.0885291,27.304146 48.2530289,26.9115189 47.7946371,27.4044578 C47.5945547,27.6164451 47.3159244,28.3143181 47.2119754,28.5482486 C47.4734111,28.617213 47.7649374,28.6744221 48.0420045,28.6462094 C48.0455216,28.644642 48.9126754,28.5020111 49.0021654,28.3335184 C48.8810218,27.4526546 49.5801377,27.4448177 50.1999241,27.2857293 C50.3882829,27.2669208 50.6129847,26.3507911 50.6911419,26.1830821 C51.0514465,25.3500232 52.6567948,23.9425219 52.7029075,23.7779477 C52.734952,23.7752048 52.7314349,23.7430736 52.7283086,23.712118 C52.6829775,23.2705105 51.2441039,22.5561801 51.0858356,21.0107499 C51.0342519,20.5068394 51.0811462,20.0229129 51.1237419,19.5088144" id="Fill-61" fill="#FEFEFE"></path>
                    <path d="M43.5331201,14.6316108 C43.096204,14.855357 42.499137,15.0765398 41.9102331,15.175413 C41.2906207,15.279779 40.6682872,15.0230751 40.0478973,15.1278074 C39.3664791,15.2420608 39.3070057,16.275468 39.240924,16.7691012 C39.1254756,17.5102834 38.839381,18.1917756 38.3332734,18.7275214 C38.0673921,19.0131549 37.9690471,19.3310136 38.0343513,19.6807315 C38.0732228,19.8854355 38.4312297,20.7580824 38.6170357,20.7273218 C38.9890364,20.664336 39.2930119,19.7396892 39.2323723,19.4185347 C39.2152688,19.331746 39.1624035,19.2204222 39.1456888,19.1329012 C39.0904912,18.8410424 39.1250868,18.6854088 39.3105041,18.6535497 C39.4341156,18.6326764 39.5328494,18.6465919 39.6572383,18.6257187 C39.7493639,18.6099722 39.8364361,18.5645639 39.9242858,18.520254 C40.1952205,18.2639163 39.7991194,16.3435806 40.7285381,16.1872146 C41.2233729,16.1040879 41.9903085,16.6072422 42.6103096,16.50251 C43.6629511,16.3256369 43.3387624,15.2962579 43.5331201,14.6316108" id="Fill-63" fill="#FEFEFE"></path>
                    <path d="M47.8251179,6.39325768 C48.0216211,7.80082349 48.4045617,8.8980254 48.8807209,9.7544072 C49.1446216,7.16817392 49.941138,5.48839395 50.277688,4.8772036 C48.6868436,5.48998352 47.8251179,6.39325768 47.8251179,6.39325768" id="Fill-65" fill="#FEFEFE"></path>
                    <path d="M53.2686532,7.75060591 C52.5221924,6.99515105 51.6004755,6.12324266 50.7740947,5.48685405 C50.6532005,5.73879675 50.504314,6.08666431 50.3538047,6.52448475 C50.0280395,7.48000079 49.6998401,8.86773853 49.6645455,10.6402954 C51.1250124,12.1530714 52.8260506,12.193009 52.8260506,12.193009 C53.7769768,11.1796394 54.303962,10.1218533 54.5696858,9.12341372 C54.5149183,9.06257423 54.4516314,8.99426976 54.3814479,8.91738058 C54.1055819,8.61766207 53.7169354,8.20484928 53.2686532,7.75060591" id="Fill-67" fill="#FEFEFE"></path>
                    <path d="M53.8198187,7.14618875 C54.0883388,7.42721754 54.3348747,7.69219822 54.5476493,7.92545585 C54.7031083,5.91272238 53.985092,4.38404515 53.985092,4.38404515 C52.7975583,4.1810177 51.7603801,4.26312439 50.8908306,4.47846784 C51.8757966,5.19018353 52.9577281,6.2463741 53.8198187,7.14618875" id="Fill-69" fill="#FEFEFE"></path>
                    <path d="M38.8614198,10.0109404 C36.7242276,9.24194718 34.6544487,8.34853006 32.5338209,7.51294914 C30.1851438,6.59023342 27.9011833,5.54423527 25.5602106,4.58841593 C25.2643628,4.48530007 25.0089629,4.35707112 24.7038699,4.28705888 C24.7038699,4.28705888 24.5347589,4.24786724 24.5266694,4.28059035 C24.503171,4.3795207 24.9107322,4.61238751 25.402271,4.79502815 C27.6939358,5.80868369 29.519101,6.68003173 32.1670929,7.8447463 C33.618211,8.49197906 37.9168641,10.629255 39.7597494,11.5831719 C39.7817068,11.5938259 39.861447,11.1467368 39.8537427,10.6882327 C39.8464235,10.4074228 39.9045915,10.4443314 39.5085869,10.2666373 C39.394177,10.2148891 39.0509473,10.0893236 38.8614198,10.0109404" id="Fill-71" fill="#FEFEFE"></path>
                    <path d="M35.9918524,1.07386621 C36.0855734,1.04272262 36.1442309,1.02391895 36.1642203,1.00100197 C36.197973,0.961337962 36.1501294,0.948116627 36.0904888,0.924318224 C36.0305205,0.900813629 35.8348861,0.862912468 35.7365774,0.844108792 C35.641218,0.825305115 35.3780783,0.761842707 35.2286491,0.72012205 C35.0798752,0.678107585 34.9491246,0.60965045 34.9491246,0.60965045 L34.9697694,1.2193009 C35.559294,1.17758024 35.9109116,1.10236554 35.9721906,1.07827333" id="Fill-73" fill="#FEFEFE"></path>
                    <path d="M31.8839426,2.34351194 C29.5027404,2.87920945 27.1219243,3.94010822 26.3651291,4.30242322 C27.6848873,4.17607947 30.1583722,4.10649322 30.4715156,6.0965045 C30.620944,6.064627 31.2908623,5.83021075 31.8484196,5.59423949 C31.98472,5.48500074 32.0283515,5.28323949 32.0353017,5.14017949 L32.1492071,2.8694907 C32.1557711,2.7108807 32.1577017,2.5678207 32.1214064,2.4869607 C32.0924474,2.42009569 31.9735225,2.36333819 31.8839426,2.34351194 L31.8839426,2.34351194 Z M32.6720138,2.77619082 L32.6349462,3.85069584 L33.5338337,3.57235083 L32.6720138,2.77619082 Z M34.457047,4.44120705 L33.8597193,3.88529456 L32.6303131,4.26549205 L32.581662,5.28634955 C33.0832319,5.07797955 33.5936826,4.87349705 33.9933169,4.7393783 C34.1879214,4.67367955 34.382912,4.6235308 34.5755859,4.5807683 C34.5744275,4.57726955 34.5744275,4.57338205 34.5732692,4.5706608 C34.5589827,4.53839455 34.518054,4.50029705 34.457047,4.44120705 L34.457047,4.44120705 Z M38.800125,1.63248826 C38.3792542,1.56640076 38.976968,1.36075201 39.3345152,1.21924701 C39.6920623,1.07813077 39.958099,0.854599518 40.3585055,0.536602021 C40.7585259,0.217827025 41.08055,0.0611607765 41.08055,0.0611607765 C40.2897761,-0.125050471 39.8530744,0.160680775 39.5820181,0.296743274 C39.3105757,0.433972022 39.0341138,0.448355772 38.3549286,0.413757023 C37.6761296,0.379935773 37.896218,0.280804524 36.271811,0.103923276 C34.2415918,0.140077026 36.1864785,0.790067018 37.030923,1.00815577 C37.8757537,1.22585576 37.2498531,1.53879951 36.596538,1.67758326 C36.3042451,1.73978326 35.7034423,1.83036201 35.0261878,1.90305826 C35.02696,1.90422451 35.02696,1.90500201 35.02696,1.90500201 C35.0153764,1.90539076 35.0030206,1.90616826 34.9910508,1.90655701 C34.6126532,1.94698701 34.2134051,1.9819745 33.8311462,2.0037445 C33.5172306,2.04145325 33.2087207,2.0892695 32.9029137,2.141362 L35.1802497,4.21689823 C35.3524592,4.36928823 35.4930069,4.41088448 35.5906953,4.42371323 C35.959826,4.38833698 36.2965227,4.37356448 36.5691234,4.35607073 C36.6934541,4.34868448 37.0660599,4.30942073 37.1977269,4.27870948 C37.5436904,4.19629448 37.6016084,4.20018198 37.5734217,3.66487324 C37.5711049,3.61666824 37.5131869,2.60902825 37.5131869,2.60902825 C37.5274734,2.60980575 37.5425321,2.610972 37.5572046,2.61136075 C38.7456821,2.676282 39.2596079,2.32290825 39.7804838,2.12309075 C40.308696,1.92016326 40.7554369,1.82686326 40.7554369,1.82686326 C40.1318531,1.52713701 39.2206098,1.69779826 38.800125,1.63248826 L38.800125,1.63248826 Z" id="Fill-75" fill="#FEFEFE"></path>
                </g>
            </g>
        </g>
    </g>
</svg>