<?xml version="1.0" encoding="UTF-8"?>
<svg width="1440px" height="599px" viewBox="0 0 1440 599" version="1.1" xmlns="http://www.w3.org/2000/svg" xmlns:xlink="http://www.w3.org/1999/xlink">
    <!-- Generator: sketchtool 54.1 (76490) - https://sketchapp.com -->
    <title>56276329-7B4E-4330-9868-800343A4418B</title>
    <desc>Created with sketchtool.</desc>
    <g id="Page-1" stroke="none" stroke-width="1" fill="none" fill-rule="evenodd">
        <g id="Desktop_Opening-Button-hover" transform="translate(0.000000, -301.000000)" fill="#293D59">
            <g id="Back-house-layer" transform="translate(-61.000000, 301.000000)">
                <rect id="Rectangle" x="61" y="308" width="1440" height="311"></rect>
                <g id="Left-side">
                    <g id="BG_house1">
                        <path d="M250.136935,268.195763 L260.997101,268.195763 L260.997101,255.936209 L250.136935,255.936209 L250.136935,268.195763 Z M250.136935,318.676278 L260.997101,318.676278 L260.997101,273.243815 L250.136935,273.243815 L250.136935,318.676278 Z M92.0411677,20.1200909 L86.7011657,14.1056981 L86.7011657,14.0263716 L92.106026,20.1200909 L92.0411677,20.1200909 Z M250.136935,217.823421 L250.136935,75.648657 L250.785518,75.648657 L250.136935,74.9563528 L250.136935,74.9275068 L250.108109,74.9275068 L243.579038,67.9900418 L243.579038,20.1200909 L237.093205,20.1200909 L237.093205,6.70669695 L230.607373,6.70669695 L230.607373,20.1200909 L227.004133,20.1200909 L227.004133,6.70669695 L220.5183,6.70669695 L220.5183,20.1200909 L214.032468,20.1200909 L214.032468,36.5839501 L198.538535,20.1200909 L103.131941,20.1200909 L85.2526631,0 L67.3950047,20.1200909 L53.327955,20.1200909 L42.0498131,31.8676278 L41.7975863,31.8676278 L41.7975863,32.1272419 L27.5503746,46.9685132 L27.3846255,46.9685132 L27.3846255,47.1343777 L13.0437295,62.0693986 L12.9716647,62.0693986 L12.9716647,62.1415136 L0.691822118,74.9275068 L0.504453628,74.9275068 L0.504453628,75.1222174 L0,75.648657 L0.504453628,75.648657 L0.504453628,353.291488 L252.068271,353.291488 L252.068271,323.724329 L255.267949,323.724329 L255.267949,353.291488 L257.833456,353.291488 L257.833456,323.724329 L260.997101,323.724329 L260.997101,353.291488 L267.958561,353.291488 L267.958561,255.936209 L271.684311,255.936209 L271.684311,250.888158 L250.136935,217.823421 Z" id="Fill-8"></path>
                        <path d="M800.991124,224.314811 L800.991124,309.363085 L796.641685,309.363085 L796.641685,364.645283 L647.429326,364.645283 L647.429326,309.363085 L643.168208,309.363085 L643.168208,274.201321 L643,224.443396 L645.485393,196.110377 L667.853933,196.092642 L667.853933,186.133962 L666.25618,186.133962 L666.25618,182.409434 L670.472472,182.409434 L670.472472,178.330189 C670.472472,177.576415 671.049438,177 671.803933,177 L675.354494,177 C676.108989,177 676.685955,177.576415 676.685955,178.330189 L676.685955,182.409434 L681.079331,182.409434 L681.079331,186.133962 L679.43764,186.133962 L679.43764,196.07934 L798.337079,195.977358 L800.991124,224.314811 Z" id="Fill-14"></path>
                        <path d="M211.936102,264.956434 C211.936102,264.937396 211.939605,264.915185 211.939605,264.892973 L211.869548,264.892973 L168.090694,223.326618 L72.7822054,223.412289 L72.7822054,213.173004 L69.9162636,213.173004 L69.9162636,210.761521 C69.9162636,210.3173 69.5978256,210 69.151694,210 L67.8142544,210 C67.4002851,210 67.0503217,210.34903 67.0503217,210.761521 L67.0503217,213.173004 L66.0950078,213.173004 L66.0950078,210.761521 C66.0950078,210.3173 65.7765698,210 65.3304382,210 L63.9929986,210 C63.5790292,210 63.2290659,210.34903 63.2290659,210.761521 L63.2290659,213.173004 L61,213.173004 L61,240.778141 L61.0127375,240.778141 L61.0315254,264.892973 L61,264.892973 L61,267.748677 L61.1210064,267.748677 L61.1210064,275.919163 C61.0413969,276.163485 61,276.426844 61,276.696549 L61,362.843615 L196.839275,362.843615 L196.839275,267.748677 L209.073663,267.748677 C209.869758,267.748677 210.602165,267.431377 211.111347,266.923696 C211.58582,266.422362 211.891521,265.778242 211.929733,265.051624 L212.035136,265.051624 L211.936102,264.956434 Z" id="Fill-11"></path>
                        <path d="M650.219599,307.024399 L657.392919,307.024399 L657.392919,298.932399 L650.219599,298.932399 L650.219599,307.024399 Z M650.219599,340.344399 L657.392919,340.344399 L657.392919,310.356399 L650.219599,310.356399 L650.219599,340.344399 Z M545.79472,143.2804 L542.26756,139.31056 L542.26756,139.2582 L545.83756,143.2804 L545.79472,143.2804 Z M650.219599,273.775799 L650.219599,179.9324 L650.647999,179.9324 L650.219599,179.47544 L650.219599,179.4564 L650.200559,179.4564 L645.887999,174.87728 L645.887999,143.2804 L641.603999,143.2804 L641.603999,134.4268 L637.319999,134.4268 L637.319999,143.2804 L634.939999,143.2804 L634.939999,134.4268 L630.655999,134.4268 L630.655999,143.2804 L626.371999,143.2804 L626.371999,154.14748 L616.137999,143.2804 L553.12036,143.2804 L541.3108,130 L529.51552,143.2804 L520.224,143.2804 L512.7746,151.03444 L512.608,151.03444 L512.608,151.2058 L503.19748,161.00188 L503.088,161.00188 L503.088,161.11136 L493.6156,170.96932 L493.568,170.96932 L493.568,171.01692 L485.45696,179.4564 L485.3332,179.4564 L485.3332,179.58492 L485,179.9324 L485.3332,179.9324 L485.3332,363.192398 L651.495279,363.192398 L651.495279,343.676399 L653.608719,343.676399 L653.608719,363.192398 L655.303279,363.192398 L655.303279,343.676399 L657.392919,343.676399 L657.392919,363.192398 L661.991079,363.192398 L661.991079,298.932399 L664.451999,298.932399 L664.451999,295.600399 L650.219599,273.775799 Z" id="Fill-8"></path>
                        <path d="M525.936795,264.254308 L522.140003,261.976712 L522.215939,266.911504 L522.215939,365 L312.936795,365 L312.936795,311.324639 L313.088666,311.324639 L313.088666,301.758733 L372.812196,301.758733 L372.812196,262.151327 L367.610591,265.355147 L367.610591,251.917327 L448.634121,202 L490.171019,228.230321 L490.171019,217.221938 L492.638934,217.221938 L492.638934,212.173265 C492.638934,211.831626 492.943057,211.527946 493.284388,211.527946 L495.410971,211.527946 C495.752303,211.527946 496.056046,211.793666 496.056046,212.135305 L496.056046,217.221938 L497.195083,217.221938 L497.195083,212.173265 C497.195083,211.831626 497.499206,211.527946 497.840538,211.527946 L499.967121,211.527946 C500.308452,211.527946 500.612196,211.793666 500.612196,212.135305 L500.612196,217.221938 L503.08011,217.221938 L503.08011,236.384117 L525.936795,250.816488 L525.936795,264.254308 Z" id="Fill-12"></path>
                        <path d="M351.440005,245.376002 L346.190004,245.376002 L346.190004,362.976004 L154.25,362.976004 L154.25,245.376002 L149,245.376002 L159.08,201.276001 L175.334001,201.276001 L175.334001,183.426 L179.324001,183.426 L179.324001,179.31 C179.324001,178.722 179.786001,178.26 180.332421,178.26 L182.096001,178.26 C182.642421,178.26 183.104001,178.722 183.104001,179.268 L183.104001,183.426 L184.364001,183.426 L184.364001,179.31 C184.364001,178.722 184.826001,178.26 185.372421,178.26 L187.136001,178.26 C187.682421,178.26 188.144001,178.722 188.144001,179.268 L188.144001,183.426 L189.404001,183.426 L189.404001,178.05 C189.404001,177.462 189.866001,177 190.412421,177 L192.176001,177 C192.722421,177 193.184001,177.462 193.184001,178.008 L193.184001,183.426 L197.174001,183.426 L197.174001,201.276001 L300.074003,201.276001 L300.074003,183.426 L304.064004,183.426 L304.064004,178.008 C304.064004,177.462 304.526424,177 305.072424,177 L306.836424,177 C307.424004,177 307.844004,177.462 307.844004,178.05 L307.844004,183.426 L309.104004,183.426 L309.104004,179.268 C309.104004,178.722 309.566424,178.26 310.112424,178.26 L311.876424,178.26 C312.464004,178.26 312.884004,178.722 312.884004,179.31 L312.884004,183.426 L314.144004,183.426 L314.144004,179.268 C314.144004,178.722 314.606424,178.26 315.152424,178.26 L316.916424,178.26 C317.504004,178.26 317.924004,178.722 317.924004,179.31 L317.924004,183.426 L321.914004,183.426 L321.914004,201.276001 L341.360004,201.276001 L351.440005,245.376002 Z" id="Fill-4"></path>
                    </g>
                </g>
                <g id="Right-side" transform="translate(753.000000, 20.000000)">
                    <g id="BG_house5" transform="translate(799.000000, 171.500000) scale(-1, 1) translate(-799.000000, -171.500000) translate(574.000000, 0.000000)">
                        <path d="M450,131.001397 L441.97861,126.208663 L442.139037,136.59292 L442.139037,343 L0,343 L0,230.051234 L0.320855615,230.051234 L0.320855615,209.921751 L126.497326,209.921751 L126.497326,126.576106 L115.508021,133.317885 L115.508021,105.040755 L286.684492,0 L374.438503,55.1963204 L374.438503,32.0314392 L379.652406,32.0314392 L379.652406,21.4075454 C379.652406,20.6886353 380.29492,20.0496041 381.016043,20.0496041 L385.508824,20.0496041 C386.229947,20.0496041 386.871658,20.6087564 386.871658,21.3276665 L386.871658,32.0314392 L389.278075,32.0314392 L389.278075,21.4075454 C389.278075,20.6886353 389.920588,20.0496041 390.641711,20.0496041 L395.134492,20.0496041 C395.855615,20.0496041 396.497326,20.6087564 396.497326,21.3276665 L396.497326,32.0314392 L401.71123,32.0314392 L401.71123,72.3543083 L450,102.724266 L450,131.001397 Z" id="Fill-12"></path>
                    </g>
                    <g id="BG_house10" transform="translate(363.000000, 172.000000)">
                        <path d="M278.600422,142.567617 L278.600422,145.548125 L278.550769,145.548125 L278.550769,232.479599 L0,232.479599 L0,95.7239717 C0,85.739271 8.14301713,77.59255 18.1231784,77.59255 L151.440258,77.59255 L151.440258,0 L220.953819,0 L220.953819,142.567617 L278.600422,142.567617 Z" id="Fill-10"></path>
                    </g>
                    <g id="BG_house3" transform="translate(0.000000, 190.000000)">
                        <path d="M194.618399,86.7299985 L193.66893,86.7299985 L193.66893,88.5814985 C193.785019,88.5254985 193.901108,88.4659985 194.020715,88.4099985 L193.66893,88.9244985 L193.66893,152.529997 L3.00107579,152.529997 L3.00107579,122.251498 L2.93071865,122.324998 L0.890361541,120.399998 C-0.235352725,119.349998 -0.306061653,117.564998 0.749295472,116.444998 L29.3459557,85.4419985 C29.0293486,84.8959986 28.9062236,84.2309986 29.068045,83.5449986 L43.3860751,21.8749996 C44.476259,17.2199997 48.6273304,13.9299998 53.4467946,13.9299998 L147.127329,13.9299998 L147.127329,7.06999988 L145.966436,7.06999988 L145.966436,0 L166.5459,0 L166.5459,7.06999988 L165.420186,7.06999988 L165.420186,13.9299998 L172.843216,13.9299998 C177.66268,13.9299998 181.813751,17.2549997 182.903935,21.9099996 L184.240721,26.5649995 C184.166846,26.6629995 184.089453,26.7574995 184.015578,26.8519995 L197.186787,83.5799986 C197.538572,85.1899985 196.307322,86.7299985 194.618399,86.7299985" id="Fill-2"></path>
                    </g>
                    <g id="BG_house9" transform="translate(315.000000, 237.000000) scale(-1, 1) translate(-315.000000, -237.000000) translate(183.000000, 131.000000)">
                        <polygon id="Fill-13" points="264 108.955769 257.88417 108.955769 257.88417 212 4.28108108 212 4.28108108 79.56625 0 83.8317308 0 66.0461538 66.2548263 0 102.098687 36.5903846 243.511969 36.5903846"></polygon>
                    </g>
                </g>
            </g>
        </g>
    </g>
</svg>