<?xml version="1.0" standalone="no"?><!DOCTYPE svg PUBLIC "-//W3C//DTD SVG 1.1//EN" "http://www.w3.org/Graphics/SVG/1.1/DTD/svg11.dtd" ><svg xmlns="http://www.w3.org/2000/svg"><metadata></metadata><defs><font id="ø" horiz-adv-x="2324"><font-face font-family="ø" font-weight="400" font-stretch="normal" units-per-em="2048" panose-1="2 0 5 4 4 0 0 2 0 4" ascent="1798" descent="-485" x-height="4" bbox="-788 -483 2269 1798" underline-thickness="0" underline-position="0" unicode-range="U+0020-fb02" /><missing-glyph horiz-adv-x="477"  /><glyph glyph-name="" unicode="  " d="" /><glyph glyph-name="" unicode="!" d="M324 283 l182 0 l78 4 q43 -4 43 -62 l-2 -47 l4 -96 q0 -53 -33 -74 q-27 -12 -43 -12 l-117 2 l-35 -4 q-4 0 -8 2 l-38 4 l-7 0 l-119 -2 q-33 0 -63 16 q-30 16 -31 52 l2 53 l-4 78 q0 39 12 61 q12 22 48 33 q16 0 131 -8 ZM205 350 q-37 0 -55 35 q-12 20 -13 49 l-4 96 q-4 76 -22 205 l-19 281 l-20 184 q0 102 71 152 q5 4 13 8 q8 4 19 10 q11 6 46 6 l146 -6 l112 0 q17 2 69 2 q52 0 82 -34 q30 -34 46 -70 q16 -36 16 -136 q0 -101 -41 -249 q-10 -45 -10 -152 l-2 -61 l2 -39 l-8 -113 q-4 -36 -4 -66 l-2 -34 q0 -12 -13 -33 q-18 -39 -94 -39 q-8 0 -61 4 l-60 2 l-16 2 l-133 0 l-25 -2 l-14 -2 q-3 0 -6 0 Z" /><glyph glyph-name="" unicode="&quot;" d="M582 1366 l184 0 q127 0 146 -7 q19 -7 12 -42 l-4 -66 q0 -55 -7 -65 l-18 -66 l-4 -63 l-14 -66 l0 -65 q-19 -92 -27 -100 q-8 -8 -55 -9 l-78 -4 q-111 4 -127 8 q-16 3 -16 13 q-1 10 -3 23 q-2 13 -6 52 q-4 39 -10 83 q-6 44 -8 79 q-2 35 -25 115 l-6 65 q-6 72 -6 86 q0 13 10 21 q10 8 62 8 ZM102 1366 l185 0 q127 0 143 -6 q16 -6 16 -20 q0 -14 -2 -23 l-4 -66 q0 -59 -6 -65 l-18 -66 l-4 -63 l-15 -66 l0 -65 q-20 -94 -27 -102 q-7 -8 -55 -7 l-77 -4 q-106 2 -117 6 q-23 6 -26 26 q-3 20 -9 81 q-14 88 -18 137 q-4 49 -25 123 l-4 65 q-6 72 -6 86 q0 13 9 21 q9 8 60 8 Z" /><glyph glyph-name="" unicode="#" d="M713 745 q0 33 -43 35 q-14 2 -68 2 q-54 0 -72 -10 q-16 -12 -22 -70 q-6 -58 -6 -75 q0 -41 53 -41 l59 2 q56 0 68 7 q12 7 18 64 l7 31 q6 43 6 55 ZM736 53 q-62 1 -82 21 q-20 20 -21 71 q0 51 8 99 q8 48 8 65 q0 29 -59 27 l-51 0 q-8 2 -37 2 q-29 0 -40 -11 q-11 -11 -21 -97 q-10 -86 -33 -136 q-18 -33 -58 -39 q-10 -2 -72 -2 q-62 1 -84 21 q-20 20 -20 72 q0 52 19 167 q0 18 -19 23 q-20 0 -72 5 q-52 5 -63 9 q-12 10 -12 47 q0 37 10 90 q10 53 22 70 q27 35 127 33 q31 0 39 7 q9 7 15 49 q6 42 10 46 q6 40 6 60 q0 20 -16 26 q-2 2 -66 7 q-64 5 -75 13 q-11 8 -11 36 q0 156 57 186 q31 14 127 18 q31 2 33 21 q2 3 10 85 q8 82 17 101 q12 39 53 55 q35 10 97 10 q62 0 89 -22 q34 -23 4 -162 q-10 -55 -10 -61 q0 -35 53 -31 q25 0 60 -2 l20 0 q47 0 56 12 q8 6 18 80 q8 98 16 121 q18 49 56 57 q38 8 100 9 q102 0 103 -72 q1 -39 -11 -105 q-12 -66 -12 -80 q0 -16 10 -18 q10 -2 67 -4 q57 -2 87 -14 q30 -12 31 -66 q0 -54 -27 -133 q-14 -37 -64 -43 l-71 0 q-61 -4 -67 -10 q-6 -6 -14 -55 q-9 -49 -12 -69 q-2 -20 -4 -30 q-2 -8 -2 -10 q0 -14 25 -14 l49 0 q123 0 123 -68 q0 -57 -18 -124 q-18 -67 -103 -66 l-84 4 q-20 0 -30 -11 q-10 -11 -20 -93 q-10 -82 -34 -136 q-18 -33 -57 -39 q-11 -2 -73 -2 Z" /><glyph glyph-name="" unicode="$" d="M401 1417 l0 64 q0 41 41 41 l88 -4 l39 0 q15 -2 33 -2 q18 0 34 2 q16 2 28 -10 q12 -12 12 -15 l-4 -94 q0 -9 74 -13 q131 -8 172 -59 q20 -27 20 -80 l0 -170 q0 -72 -25 -96 q-45 -41 -92 -41 q-10 0 -88 25 l-53 4 q-68 12 -90 12 q-22 0 -35 -11 q-12 -12 -12 -22 q0 -10 13 -22 q13 -12 26 -17 l127 -43 l61 -37 q82 -41 96 -55 q52 -38 115 -100 q8 -12 16 -24 q8 -12 19 -25 l14 -39 q45 -88 45 -172 q0 -14 -7 -86 q-7 -72 -15 -92 q-46 -100 -144 -160 q-98 -61 -121 -70 q-63 -18 -79 -18 q-41 -2 -41 -49 q0 -8 2 -15 l4 -67 q0 -25 -25 -25 l-12 0 q-75 0 -105 4 l-61 4 l-65 -4 q-16 0 -17 35 l4 80 q0 23 -11 32 q-11 9 -48 9 q-37 0 -88 8 l-45 0 q-139 12 -148 70 q0 4 -4 123 l2 20 l-4 127 q0 57 37 86 q20 20 41 20 q21 0 129 -24 l27 -2 l53 -14 l45 -7 l31 -8 q58 -5 77 -10 l11 0 q18 0 34 16 q10 14 11 25 q0 29 -74 49 q-18 6 -90 39 q-72 33 -78 37 l-57 41 q-78 47 -121 104 q-41 45 -55 80 q-39 80 -45 143 l-5 91 q0 45 33 112 q25 63 41 90 q55 72 125 115 q57 39 113 46 q56 7 64 21 q7 14 7 27 Z" /><glyph glyph-name="" unicode="%" d="M1270 397 q-16 29 -45 29 q-29 0 -40 -34 q-11 -34 -11 -56 q0 -88 57 -88 q27 0 41 28 q14 28 14 56 q0 29 -16 65 ZM909 322 l0 32 q2 96 33 154 q49 84 82 114 q33 30 90 54 q114 41 209 6 q57 -20 84 -41 q71 -61 93 -110 q46 -104 46 -202 q0 -98 -49 -192 q-49 -94 -145 -131 q-53 -16 -76 -20 l-45 -4 q-39 0 -95 17 q-56 17 -89 42 q-33 25 -67 70 q-34 45 -39 56 q-5 11 -18 75 q-14 64 -14 80 ZM1251 1372 q31 -4 31 -30 q0 -26 -20 -66 l-13 -21 q-12 -20 -31 -54 q-19 -34 -44 -73 l-52 -92 l-69 -137 l-166 -297 q-19 -36 -57 -102 q-38 -66 -100 -175 q-62 -109 -111 -200 q-48 -90 -66 -109 q-24 -18 -49 -18 l-139 0 q-51 -2 -52 31 q0 4 68 133 l168 301 q61 119 154 281 q93 162 165 303 q72 142 103 193 q31 52 39 67 q35 68 67 67 l56 -4 l73 4 q20 0 45 -2 ZM375 1110 q-55 0 -56 -100 q1 -38 19 -56 q18 -18 40 -18 q22 0 32 16 q20 35 20 68 q0 34 -16 62 q-16 28 -39 28 ZM383 1384 q55 0 123 -26 q18 -8 59 -41 q41 -33 62 -59 q21 -26 45 -103 q24 -77 22 -157 q0 -80 -37 -148 q-37 -68 -51 -84 q-41 -52 -112 -76 q-71 -24 -108 -24 q-38 0 -92 15 q-54 15 -79 32 q-63 43 -115 121 q-18 35 -32 89 q-14 54 -15 83 q0 132 38 198 q38 66 46 76 q88 104 246 104 Z" /><glyph glyph-name="" unicode="&amp;" d="M842 522 q0 6 -3 12 q-3 6 -40 25 q-29 18 -4 92 q9 14 36 61 q27 46 50 64 q39 39 61 39 q22 0 43 -10 l131 -72 l37 -12 q41 -19 96 -33 q86 -23 142 -70 q70 -45 69 -102 q0 -30 -11 -47 l-21 -34 q-8 -15 -32 -61 q-24 -46 -34 -57 q-23 -18 -39 -18 q-16 0 -39 13 q-23 13 -29 14 q-14 0 -32 -40 q-18 -40 -72 -93 q-59 -70 -88 -99 q-23 -16 -80 -49 q-20 -10 -114 -38 q-94 -28 -185 -32 l-37 0 q-10 2 -24 2 l-37 -4 l-13 0 q-63 0 -159 38 q-96 38 -125 67 q-13 8 -30 27 q-17 18 -27 26 q-10 7 -29 23 q-18 16 -35 30 q-8 8 -46 58 q-38 50 -44 63 q-60 113 -60 227 q-1 162 105 281 q57 64 100 83 q43 20 53 27 q10 7 9 17 q0 10 -17 39 q-16 37 -16 72 q0 116 33 161 q41 68 59 84 q60 69 264 95 q25 0 39 2 l27 0 q16 0 35 -2 l49 -5 l76 -24 q49 -16 79 -29 q47 -27 99 -75 q52 -48 70 -79 q20 -32 20 -65 q0 -33 -21 -53 l-59 -43 q-5 5 -33 -35 q-43 -53 -67 -72 q-29 -18 -60 -18 q-31 0 -41 13 q-10 13 -22 59 q-10 29 -46 29 q-36 0 -59 -23 q-16 -23 -16 -44 q0 -21 6 -34 l16 -19 q33 -33 33 -53 q0 -20 -17 -64 q-16 -43 -26 -57 q-10 -14 -22 -16 l-4 0 q-12 -4 -39 -4 q-59 -2 -90 -61 q-31 -59 12 -115 q55 -72 158 -74 q137 0 137 92 Z" /><glyph glyph-name="" unicode="&#39;" d="M102 1366 l185 0 q127 0 143 -6 q16 -6 16 -20 q0 -14 -2 -23 l-4 -66 q0 -59 -6 -65 l-18 -66 l-4 -63 l-15 -66 l0 -65 q-20 -94 -27 -102 q-7 -8 -55 -7 l-77 -4 q-106 2 -117 6 q-23 6 -26 26 q-3 20 -9 81 q-14 88 -18 137 q-4 49 -25 123 l-4 65 q-6 72 -6 86 q0 13 9 21 q9 8 60 8 Z" /><glyph glyph-name="" unicode="(" d="M707 -170 q-14 -8 -37 -8 q-23 0 -32 1 q-9 1 -31 4 q-22 3 -69 8 q-47 5 -94 21 q-47 16 -87 48 q-40 32 -44 36 q-4 4 -11 11 q-7 6 -11 10 q-117 90 -164 213 q-47 98 -51 109 q-8 41 -10 52 q-2 11 -25 84 q-23 73 -23 171 q0 2 5 59 l4 45 l10 58 q3 87 26 161 q27 127 107 207 q2 2 12 19 q100 133 196 184 q52 27 77 29 l69 14 q66 18 120 18 q54 0 73 -20 q16 -23 16 -66 l-4 -57 l0 -12 l4 -211 q0 -35 -16 -51 q-19 -9 -51 -37 q-129 -89 -127 -340 q0 -23 8 -82 q2 -45 12 -76 q18 -42 43 -72 q25 -30 45 -59 q10 -9 49 -35 q39 -26 39 -78 l-4 -69 q-2 -8 -2 -49 l4 -172 q0 -55 -26 -68 Z" /><glyph glyph-name="" unicode=")" d="M113 1085 q2 11 2 61 q0 50 -4 128 l0 35 q0 55 26 67 q14 8 38 8 q25 0 53 -4 q28 -4 48 -6 q160 -14 277 -129 q119 -94 164 -217 q51 -104 53 -110 q2 -6 5 -35 q4 -30 26 -102 q22 -73 22 -167 q0 -2 -4 -59 l-2 -45 l-10 -57 q-2 -84 -10 -106 q-7 -22 -17 -56 q-31 -131 -106 -209 q-12 -12 -38 -47 q-26 -35 -67 -76 q-63 -57 -111 -80 q-48 -23 -71 -24 l-68 -17 q-70 -16 -124 -16 q-54 0 -70 22 q-16 22 -16 64 l4 57 l-2 219 q0 35 8 42 q8 7 59 48 q61 41 88 111 q39 76 39 229 q0 100 -21 150 q-21 50 -87 137 q-2 2 -56 41 q-33 20 -32 74 l4 69 Z" /><glyph glyph-name="" unicode="*" d="M543 1239 q6 0 57 33 q26 10 42 10 q40 0 58 -111 l13 -36 l12 -48 q14 -43 14 -55 q0 -12 -9 -17 q-10 -5 -62 -13 q-52 -8 -52 -21 q0 -2 7 -12 l31 -25 q17 -12 36 -26 q10 -10 10 -26 q0 -16 -24 -38 q-125 -100 -137 -109 q-12 -9 -33 -9 q-21 0 -27 6 q-6 7 -47 83 q-10 16 -18 17 q-18 0 -41 -56 q-23 -56 -49 -57 q-16 0 -38 16 q-21 16 -59 46 q-92 63 -94 65 q-4 12 -4 16 q0 4 4 17 l55 55 q19 26 2 37 q-10 4 -71 12 q-39 2 -39 45 q0 12 24 105 q25 125 58 125 q12 0 46 -20 q34 -20 44 -21 q18 0 18 22 l-12 78 q0 17 12 29 q12 12 133 12 q121 0 127 -2 q16 -10 17 -31 l-19 -80 q0 -16 15 -16 Z" /><glyph glyph-name="" unicode="+" d="M53 586 q0 53 2 112 l0 97 q0 59 33 73 q26 15 59 17 l119 0 q25 0 33 -4 l6 0 q16 0 17 16 l0 70 l6 120 q0 27 16 40 q16 13 33 14 l57 -4 l35 2 l23 0 q10 0 24 -2 l57 0 q27 2 68 2 q41 0 61 -27 q18 -18 19 -35 l-2 -198 q0 -2 188 -2 q27 0 45 -25 q18 -25 19 -59 q0 -34 -8 -101 l0 -4 l6 -117 q0 -51 -22 -67 q-22 -16 -60 -17 l-78 5 q-103 0 -102 -19 l2 -178 q0 -25 -27 -45 q-27 -25 -64 -25 l-8 0 q-16 4 -63 4 l-74 0 l-35 2 q-70 0 -92 13 q-35 16 -35 73 l2 45 l-2 76 q0 16 2 27 l0 8 q0 8 -14 10 l-43 4 l-25 -2 l-30 2 l-70 -4 q-78 0 -78 103 Z" /><glyph glyph-name="" unicode="," d="M555 41 q0 -59 -8 -76 l-15 -31 q-20 -57 -49 -94 q-25 -45 -28 -49 q-23 -20 -53 -20 q-30 0 -87 8 q-29 -2 -51 -2 q-72 0 -71 37 q0 10 14 45 l8 32 q25 49 25 69 q0 20 -21 32 q-10 8 -24 8 l-60 0 q-40 0 -60 36 q-19 36 -3 193 l-9 121 q1 57 17 90 q16 33 59 39 l133 -4 l66 4 q141 0 160 -10 q61 -27 61 -102 l-6 -195 q0 -29 2 -66 l0 -65 Z" /><glyph glyph-name="" unicode="-" d="M557 315 q-24 0 -108 7 l-170 0 q-14 2 -23 2 l-100 -5 q-47 0 -75 28 q-28 28 -34 63 q0 43 -2 114 l-4 183 q0 55 39 98 q23 29 70 35 l106 -6 l92 2 l103 0 l86 2 q63 0 102 -35 q20 -23 20 -51 l-2 -166 q9 -123 9 -157 q0 -34 -17 -60 q-29 -53 -92 -54 Z" /><glyph glyph-name="" unicode="." d="M557 371 l0 -52 q-2 -23 -2 -83 q0 -60 2 -82 l0 -54 q0 -57 -47 -92 q-27 -10 -51 -10 l-72 2 l-51 -4 q-29 0 -64 2 l-133 -2 q-41 4 -55 31 q-2 6 -11 45 q-9 39 -10 43 l7 80 l-7 45 l7 45 l-7 75 q0 8 9 43 q8 35 12 43 q8 23 55 33 l133 -4 l66 4 q139 0 160 -10 q59 -29 59 -98 Z" /><glyph glyph-name="" unicode="/" d="M6 -119 q0 27 17 56 q94 172 141 271 q47 98 139 284 q92 186 162 329 q150 322 162 326 q14 23 26 45 q12 22 20 33 q7 12 29 61 q22 50 39 68 q18 18 56 18 q38 0 172 -6 l78 4 q80 0 79 -57 q0 -20 -10 -45 l-88 -181 l-158 -346 q-4 -5 -15 -29 q-11 -24 -35 -70 q-24 -46 -43 -82 q-19 -36 -44 -88 q-25 -52 -39 -77 l-116 -233 q-25 -57 -42 -85 q-18 -28 -36 -63 q-18 -35 -30 -54 q-12 -20 -30 -66 q-20 -46 -43 -60 q-23 -14 -55 -14 l-154 8 l-108 -2 q-74 0 -74 55 Z" /><glyph glyph-name="" unicode="0" d="M668 469 q73 0 114 82 q0 4 15 59 q14 55 14 75 q1 20 -19 80 q-20 60 -30 75 q-48 55 -106 55 q-26 0 -64 -31 q-37 -31 -47 -57 q-25 -74 -25 -125 q0 -213 148 -213 ZM717 1401 q66 0 96 -15 l64 -24 q75 -27 107 -48 q32 -21 75 -65 q57 -49 80 -75 q45 -59 71 -115 q14 -43 33 -107 l25 -73 q26 -85 26 -221 q0 -136 -45 -263 q-12 -44 -25 -65 q-13 -21 -32 -54 q-34 -70 -74 -116 q-40 -46 -54 -57 q-14 -11 -89 -58 q-25 -13 -67 -27 q-42 -14 -90 -32 q-108 -40 -259 0 l-53 12 l-70 25 q-70 23 -98 40 q-59 43 -85 69 q-26 26 -83 104 q-91 108 -104 215 l-11 55 q-25 106 -25 138 q0 32 9 99 q9 192 47 258 l24 42 q73 137 91 153 q18 16 22 21 q106 106 199 135 l61 22 q66 25 111 27 l82 -2 q6 0 16 2 l25 0 Z" /><glyph glyph-name="" unicode="1" d="M395 364 l15 222 l-4 110 q0 8 6 66 l0 18 q0 56 -38 56 q-38 0 -83 -43 q-45 -43 -65 -43 q-20 0 -44 18 q-10 4 -59 72 q-70 66 -86 84 q-23 32 -23 56 q0 24 25 50 q2 7 98 62 l47 41 q75 54 87 66 q13 13 33 31 q20 18 46 46 q27 28 72 60 q45 32 75 36 q30 4 46 4 l133 -10 q18 0 90 8 l31 0 q118 0 118 -137 l-18 -217 l10 -203 q0 -27 -6 -87 q-6 -60 -6 -126 q0 -66 2 -190 l0 -27 q-8 -73 -8 -145 q0 -72 14 -144 q4 -38 4 -54 q0 -16 -18 -38 q-16 -14 -47 -14 l-189 0 l-65 4 l-27 0 l-84 -4 q-47 0 -74 26 q-16 22 -16 46 q0 24 7 64 q7 40 7 87 l-4 121 q-2 10 -2 28 Z" /><glyph glyph-name="" unicode="2" d="M1149 -4 l-264 4 l-131 0 l-123 -4 l-172 10 l-156 -8 q-80 0 -123 16 q-29 14 -35 34 q-6 20 -6 71 l0 49 q-2 41 -2 91 q0 50 31 81 q14 10 56 30 q42 20 100 57 q58 38 72 48 q13 10 59 55 q16 14 129 99 q26 20 62 83 q36 64 36 114 q0 50 -34 82 q-34 32 -89 32 q-55 0 -90 -29 q-12 -12 -43 -65 q-16 -68 -20 -74 q-16 -18 -39 -18 l-101 8 l-141 -4 q-33 -2 -63 28 q-30 30 -29 56 q0 26 6 63 q2 76 12 113 q29 94 80 156 q37 54 61 76 q24 22 94 65 q70 43 93 49 l61 12 l66 15 q20 0 55 2 l72 4 l51 -4 q74 -5 120 -17 q46 -12 114 -51 q63 -27 83 -43 q20 -16 54 -57 l18 -19 q87 -96 105 -140 q18 -44 18 -81 l4 -80 l4 -33 l-4 -20 q-6 -117 -65 -193 q-35 -49 -47 -59 q-12 -10 -53 -46 q-41 -37 -70 -56 q-61 -37 -62 -56 q0 -20 31 -20 l151 4 q29 2 56 2 q71 0 103 -36 q32 -36 32 -77 l-2 -168 l2 -53 q0 -98 -127 -98 Z" /><glyph glyph-name="" unicode="3" d="M283 1001 l-99 -18 q-43 0 -67 33 q-6 6 -11 31 l-8 38 l4 101 l-4 82 q0 43 22 68 q22 26 103 34 q82 8 84 8 l72 -4 l86 4 q55 0 137 -8 q165 -3 271 -62 q106 -58 149 -120 q12 -20 31 -66 l10 -22 q20 -42 20 -96 q0 -54 -2 -68 q-6 -59 -61 -123 q-10 -10 -62 -51 q-6 -4 -6 -14 q0 -10 10 -20 q10 -10 43 -28 q35 -18 71 -68 q36 -50 38 -75 l16 -82 q14 -45 14 -76 q0 -31 -11 -84 q-7 -55 -25 -88 q-18 -33 -56 -75 q-38 -42 -80 -66 q-127 -74 -173 -90 q-45 -16 -133 -21 l-181 -2 q-113 3 -121 5 q-8 2 -112 15 q-104 13 -152 31 q-48 18 -55 52 q-4 20 -4 41 l8 139 l-4 96 q1 40 23 62 q22 22 48 22 q26 0 87 -26 q31 -10 76 -21 l106 -6 q70 -6 119 -6 q49 0 82 16 q47 29 47 71 q0 42 -41 66 q-31 17 -131 17 l-29 0 q-23 -2 -49 -2 q-68 -1 -68 65 l0 125 l-4 72 q0 33 25 55 q27 20 57 21 q72 0 137 -13 q26 4 46 24 q20 20 20 48 q0 29 -29 45 q-18 12 -35 12 l-53 2 q-41 9 -60 9 q-19 0 -71 -9 l-65 0 Z" /><glyph glyph-name="" unicode="4" d="M505 750 q-40 -54 -40 -95 q0 -41 74 -41 l24 0 q74 4 83 16 q9 12 9 42 q8 47 8 56 q0 9 -6 83 l0 31 q6 72 7 78 q0 25 -21 24 q-12 0 -43 -49 l-25 -35 q-8 -12 -19 -34 q-11 -22 -51 -76 ZM879 0 q-41 0 -181 -8 q-43 0 -59 37 q-16 27 -16 63 l14 92 q0 47 -41 58 q-4 2 -98 2 l-52 -2 l-53 2 l-90 -4 l-123 14 q-100 0 -108 2 q-35 12 -52 43 q-17 31 -8 104 l0 27 l-4 88 l0 55 q0 49 12 70 q8 8 52 66 l84 104 l94 143 l80 111 l43 55 q72 116 83 132 q11 16 42 52 q30 36 54 52 q24 14 71 16 l176 -2 q21 -2 139 -4 q118 -2 135 -12 q58 -28 60 -109 l0 -145 l2 -33 l2 -207 l-9 -176 q0 -62 14 -76 q14 -14 48 -18 q47 -4 47 -41 l-2 -123 l6 -133 q0 -45 -19 -56 q-19 -11 -69 -14 q-25 -6 -20 -41 l0 -14 l8 -98 q0 -25 -32 -52 q-32 -27 -85 -26 l-49 0 l-88 6 l-8 0 Z" /><glyph glyph-name="" unicode="5" d="M47 369 q-1 39 19 58 q20 19 31 19 q11 0 67 -18 l43 -10 l37 -15 l86 -16 q35 -6 95 -6 q60 1 103 23 q43 22 43 59 q0 37 -14 57 q-29 47 -94 47 l-64 -2 q-80 8 -100 8 l-59 -4 q-146 0 -146 76 l12 182 l0 41 l-4 199 l0 59 q0 34 1 58 q1 24 -1 30 l-4 84 q0 28 24 50 q24 22 71 22 l86 -4 l8 2 l69 2 l66 0 l90 -4 l88 4 q10 0 25 -2 l100 0 l76 -4 l110 8 q35 0 47 -24 q10 -16 11 -70 l-4 -111 l2 -69 q0 -54 -26 -76 q-26 -22 -46 -23 l-131 2 q-35 -2 -66 -2 l-149 7 q-37 0 -37 -45 q0 -27 9 -42 q9 -15 67 -8 l28 0 l201 -28 q68 -20 146 -80 q111 -78 137 -234 l8 -26 q8 -31 8 -78 q0 -106 -47 -195 q-31 -72 -57 -107 q-26 -35 -64 -63 l-35 -20 q-66 -47 -133 -71 q-67 -24 -215 -32 l-80 -2 q-23 -2 -34 -2 l-62 7 q-66 6 -129 16 l-72 10 q-92 12 -127 45 q-18 14 -18 58 l6 188 q0 23 -2 33 l0 39 Z" /><glyph glyph-name="" unicode="6" d="M754 574 q-46 16 -56 16 q-10 0 -61 -10 q-51 -10 -59 -21 q-33 -25 -33 -67 q0 -42 41 -74 q41 -32 102 -31 q61 0 106 29 q46 30 46 70 q0 40 -33 67 q-7 5 -53 21 ZM1176 1253 q0 -14 -7 -82 l0 -57 q0 -62 -10 -80 q-10 -18 -34 -38 q-24 -20 -31 -17 l-150 47 q-61 12 -63 12 l-123 0 q-109 0 -162 -55 q-23 -23 -23 -41 q0 -27 25 -27 q16 1 60 13 q44 12 110 12 q211 0 348 -98 q6 -8 23 -17 q47 -27 90 -116 q43 -89 53 -125 l8 -88 l-6 -50 l-4 -71 q0 -25 -2 -33 q-2 -8 -4 -17 q-2 -9 -5 -15 q-3 -6 -15 -30 q-12 -24 -52 -73 q-45 -68 -65 -88 q-41 -37 -54 -45 l-43 -23 q-57 -33 -96 -45 q-57 -12 -125 -18 q-169 -34 -297 -6 q-14 2 -92 36 l-47 19 l-64 35 q-49 27 -69 45 q-69 62 -100 116 q-12 31 -48 127 q-41 90 -49 140 q-8 50 -8 100 l4 74 l4 106 q9 74 17 104 q8 30 28 72 q32 66 40 91 q8 25 15 34 q7 11 12 21 q25 52 150 151 q106 92 195 113 q20 6 96 18 l53 9 l62 4 l78 2 l116 -13 l31 -6 l27 -4 l51 -12 q92 -20 122 -43 q30 -23 30 -68 Z" /><glyph glyph-name="" unicode="7" d="M573 -8 q-86 0 -118 8 l-9 0 l-231 -4 q-35 0 -63 29 q-29 35 -29 71 q0 36 6 54 q6 18 59 100 q51 82 111 264 l33 72 l22 53 l41 86 l21 63 q43 88 43 103 q1 27 -27 27 l-188 -5 q-53 -4 -88 -4 q-35 -1 -56 13 q-21 14 -39 51 q-18 37 -18 74 l0 79 q0 53 -4 123 l0 27 q0 45 27 78 q18 20 59 20 l51 -4 q8 -2 33 -2 q25 0 127 6 l39 -2 l160 -14 q23 0 79 8 q56 8 97 8 l139 -8 q4 0 151 12 q35 -16 43 -35 q10 -16 11 -43 l0 -184 q-4 -66 -94 -231 l-41 -92 l-17 -52 q0 -2 -35 -65 q-50 -113 -114 -294 q-64 -181 -64 -220 l-2 -62 q-4 -109 -115 -108 Z" /><glyph glyph-name="" unicode="8" d="M522 954 q0 -68 92 -77 q51 -10 54 -11 q55 0 102 41 q23 23 23 63 q0 40 -39 64 q-29 14 -49 19 l-50 4 l-39 2 q-38 -2 -66 -33 q-28 -31 -28 -72 ZM811 492 q0 40 -37 67 q-23 21 -74 27 q-50 6 -66 6 q-16 0 -48 -13 q-32 -13 -54 -34 q-20 -21 -20 -64 q0 -43 61 -75 q31 -16 56 -21 l43 0 l41 -2 q37 0 67 35 q30 34 31 74 ZM635 1399 l57 0 q210 -23 326 -90 q55 -29 96 -79 q41 -50 54 -73 q14 -23 16 -53 q2 -30 10 -74 l0 -8 q0 -74 -57 -168 q-14 -20 -58 -55 q-8 -9 -8 -17 q0 -8 4 -20 q6 -8 42 -26 q36 -18 106 -99 q35 -39 49 -109 q14 -70 14 -96 q0 -26 -18 -94 q-18 -68 -32 -96 q-14 -28 -30 -50 q-16 -20 -67 -75 l-37 -29 q-43 -33 -45 -34 q-2 -1 -66 -23 q-82 -35 -104 -43 q-126 -19 -174 -19 q-49 0 -103 4 q-120 2 -198 27 q-201 65 -324 252 q-20 37 -37 96 q-10 61 -10 92 q0 31 6 60 l21 57 q18 61 38 86 q61 74 132 92 q22 11 22 27 q0 16 -53 57 q-39 41 -61 99 q-22 58 -23 90 q0 31 13 86 q12 54 24 70 q12 16 41 48 l20 29 l35 35 q47 48 88 68 q40 20 148 38 q108 18 143 17 Z" /><glyph glyph-name="" unicode="9" d="M670 791 q53 1 83 31 q29 30 29 70 q0 40 -50 69 q-50 29 -107 29 q-57 0 -91 -35 q-34 -35 -34 -77 q0 -42 49 -71 q24 -12 65 -16 l56 0 ZM766 426 q0 18 -10 28 q-10 10 -24 11 q-14 -1 -62 -19 q-48 -18 -107 -18 q-59 0 -137 14 q-66 8 -107 23 q-41 15 -133 86 q-23 18 -43 49 q-20 23 -32 41 q-57 117 -65 145 q-8 28 -7 60 q0 68 14 168 q27 84 76 151 q35 55 47 65 q12 10 30 24 q18 13 62 43 q44 30 72 41 q28 11 76 22 l55 16 l35 4 q103 22 130 19 q50 -7 128 -10 q78 -2 178 -56 q67 -27 93 -51 q26 -24 44 -39 q51 -39 70 -80 l33 -67 l26 -70 l33 -76 l14 -59 q20 -74 21 -90 l-2 -101 l2 -110 q0 -32 -18 -106 q-18 -74 -33 -103 l-33 -55 q-4 -10 -35 -82 q-10 -18 -51 -60 q-41 -42 -80 -69 q-115 -88 -225 -117 q-45 -14 -83 -19 q-38 -5 -164 -6 q-126 -1 -146 5 q-22 6 -44 11 l-49 11 q-101 18 -121 34 q-20 16 -20 42 q0 26 6 80 l0 20 l-8 115 q0 47 31 71 q23 23 55 23 q32 0 66 -16 l47 -23 q27 -12 55 -12 l63 2 l60 -4 q10 -2 26 -2 l101 12 l31 14 q59 27 59 70 Z" /><glyph glyph-name="" unicode=":" d="M272 1063 q35 2 62 2 q27 0 53 -2 l70 0 q27 0 53 -14 q47 -29 47 -93 l0 -51 q-2 -23 -2 -83 q0 -60 2 -83 l0 -53 q0 -59 -47 -90 q-23 -14 -53 -14 l-70 0 q-27 -2 -53 -2 q-26 0 -62 2 l-133 -2 q-41 4 -55 32 q-2 6 -11 45 q-9 39 -10 43 l7 80 l-7 45 l7 45 l-7 76 q0 8 9 43 q8 35 12 43 q8 27 55 33 l133 -2 ZM557 371 l0 -52 q-2 -23 -2 -83 q0 -60 2 -82 l0 -54 q0 -57 -47 -92 q-27 -10 -51 -10 l-72 2 l-51 -4 q-29 0 -64 2 l-133 -2 q-41 4 -55 31 q-2 6 -11 45 q-9 39 -10 43 l7 80 l-7 45 l7 45 l-7 75 q0 8 9 43 q8 35 12 43 q8 23 55 33 l133 -4 l66 4 q139 0 160 -10 q59 -29 59 -98 Z" /><glyph glyph-name="" unicode=";&#x37e;" d="M457 582 l-70 0 q-25 -2 -51 -2 q-26 0 -62 2 l-133 -2 q-43 4 -55 32 q-4 8 -13 45 q-9 37 -7 43 l6 80 l-6 45 l6 45 l-6 74 q0 6 9 44 q9 38 11 44 q8 27 55 33 l133 -2 q35 2 62 2 q27 0 53 -2 l68 0 q31 0 53 -14 q49 -29 49 -93 l-4 -135 l4 -135 q0 -63 -49 -90 q-23 -14 -53 -14 ZM559 367 l0 -48 q-6 -104 -6 -147 l4 -131 q0 -59 -8 -76 l-14 -31 q-20 -57 -50 -94 q-23 -41 -30 -49 q-23 -20 -53 -20 q-30 0 -87 8 q-27 -2 -51 -2 q-70 0 -69 37 q0 8 12 45 l10 32 q25 49 25 69 q0 20 -18 30 q-18 10 -29 10 l-60 0 q-13 0 -31 11 q-18 11 -28 30 q-10 19 -10 53 q0 34 6 135 l-6 121 q0 57 16 90 q16 33 59 39 l133 -4 l66 4 q139 0 160 -10 q59 -29 59 -102 Z" /><glyph glyph-name="" unicode="&lt;" d="M954 1391 l0 -445 l-413 -254 l413 -252 l0 -440 l-886 510 l0 371 l886 510 Z" /><glyph glyph-name="" unicode="=" d="M322 610 q47 2 99 2 q52 0 103 -2 l82 0 q4 0 123 4 l78 -2 l72 2 q45 0 73 -28 q16 -20 17 -39 l-2 -131 q8 -96 8 -123 q0 -27 -12 -47 q-25 -41 -74 -41 q-4 0 -66 4 l-51 0 q-45 0 -151 -4 l-52 0 l-129 4 q-72 0 -159 2 l-101 0 l-30 -2 q-50 0 -70 22 q-20 22 -23 48 l-4 90 l-2 141 q0 14 10 43 q11 29 25 40 q14 11 80 21 l156 -4 ZM61 793 q-10 19 -10 41 q0 22 6 129 l-2 131 q2 31 29 49 q27 18 68 18 l67 -2 l78 2 q88 -6 121 -6 l190 4 q47 0 101 -2 l151 4 q63 -6 84 -26 q8 -6 20 -35 q12 -29 11 -45 l-4 -142 q-4 -94 -8 -106 q-18 -53 -86 -53 l-54 4 l-12 0 q-31 -2 -164 -2 l-190 -6 q-35 0 -111 6 l-145 0 l-66 -4 q-49 0 -74 41 Z" /><glyph glyph-name="" unicode="&gt;" d="M68 0 l0 442 l415 254 l-415 252 l0 443 l888 -510 l0 -373 l-888 -508 Z" /><glyph glyph-name="" unicode="?" d="M399 61 q0 33 2 66 l0 23 q0 37 -2 63 l0 18 q1 46 50 58 l221 2 q8 0 16 -2 l23 -4 l139 8 q18 0 47 -35 q8 -14 8 -74 l6 -98 q0 -45 -28 -74 q-23 -16 -62 -16 l-172 4 l-160 -4 q-88 0 -88 65 ZM610 858 q0 63 -67 64 q-37 0 -73 -30 q-36 -30 -40 -32 q-4 -6 -43 -80 q-12 -27 -43 -41 q-16 -10 -32 -10 q-35 0 -124 84 l-98 74 q-51 51 -54 61 q-3 10 -3 21 q0 33 84 172 q57 57 67 71 q78 94 197 134 q7 2 65 12 q58 10 136 12 l98 2 q82 0 147 -26 q125 -57 146 -72 q82 -57 114 -119 q14 -25 38 -91 q24 -66 24 -83 l-2 -33 l2 -47 q0 -55 -55 -143 l-23 -41 q-13 -31 -69 -79 q-56 -48 -82 -89 q-26 -41 -31 -101 q-4 -60 -15 -80 q-11 -20 -43 -20 l-83 2 l-72 0 l-43 -2 q-51 8 -76 8 l-82 -4 q-73 0 -73 87 q-1 87 26 159 q2 2 39 49 q25 50 35 58 l57 55 q51 49 51 98 Z" /><glyph glyph-name="" unicode="@" d="M801 723 q-19 6 -56 6 q-37 0 -63 -18 q-47 -29 -47 -66 q0 -18 22 -45 q17 -16 59 -16 q42 0 66 12 q55 27 56 70 q0 43 -37 57 ZM1133 967 q39 0 38 -33 q0 -23 -20 -107 q-21 -84 -23 -92 q-2 -8 -4 -21 q-2 -12 -6 -30 q-4 -18 -15 -64 q-11 -46 -11 -69 q0 -25 11 -39 q11 -14 23 -14 q50 0 92 90 q42 90 42 206 q0 116 -33 184 q-33 70 -109 132 q-111 84 -205 102 q-103 25 -184 7 q-96 -11 -114 -17 q-17 -6 -78 -49 q-61 -43 -84 -51 q-43 -23 -52 -35 l-20 -39 q-4 -8 -36 -52 q-32 -44 -44 -85 l-14 -51 q-20 -68 -21 -72 q-10 -92 -10 -112 q0 -85 37 -175 l49 -129 l33 -26 l31 -43 q45 -68 149 -105 q104 -37 184 -37 q160 1 223 11 q62 10 119 25 q57 15 68 16 q19 0 29 -37 l18 -76 q4 -20 4 -30 q0 -10 -22 -23 q-22 -12 -224 -41 q-16 -2 -135 -6 l-57 -3 l-47 0 q-39 0 -144 27 q-131 29 -235 113 q-78 59 -105 92 q-27 33 -73 123 q-42 76 -54 102 q-12 26 -25 106 q-13 80 -13 112 q0 32 9 106 q9 74 12 112 q3 38 85 164 q82 125 109 152 q78 78 163 123 q8 3 94 33 q86 30 127 39 q41 9 161 9 q120 0 268 -67 q76 -33 129 -84 q125 -113 168 -229 q43 -116 43 -166 q0 -50 -14 -130 q-14 -80 -21 -106 q-51 -133 -209 -229 q-70 -41 -170 -41 q-100 0 -141 41 q-23 23 -31 23 q-8 0 -24 -12 q-16 -10 -69 -32 q-52 -22 -128 -22 q-135 0 -201 84 q-16 18 -24 28 q-8 10 -17 21 q-33 39 -33 125 q0 127 101 233 q77 92 213 136 q58 16 124 16 q66 0 113 -31 q15 -10 25 -10 q10 0 14 12 q8 14 21 15 l43 0 l51 -2 l53 4 l23 0 Z" /><glyph glyph-name="" unicode="a" d="M621 645 q0 -53 45 -53 l49 0 q84 0 99 18 q15 18 7 52 l-12 53 q-31 150 -60 179 q-11 11 -27 11 q-16 0 -26 -9 q-10 -8 -18 -36 q-8 -28 -15 -53 q-7 -25 -11 -35 q-4 -10 -11 -43 q-6 -33 -13 -54 q-7 -21 -7 -30 ZM1464 88 l0 -14 q0 -75 -92 -78 l-16 0 l-25 2 l-22 0 l-125 2 q-89 0 -117 -2 q-28 -2 -49 0 q-37 10 -57 57 l-17 35 q-25 47 -57 60 q-11 12 -73 6 q-62 -6 -79 -4 l-69 4 q-50 4 -76 4 q-26 0 -38 -16 q-11 -16 -13 -17 l-33 -57 q-27 -49 -40 -62 q-13 -13 -44 -8 l-16 0 l-97 -4 l-43 0 l-121 4 l-35 0 q-79 0 -108 27 q-29 27 -29 72 q0 45 18 94 q18 49 35 121 q17 72 37 123 q19 50 28 82 q9 32 34 112 q30 97 43 174 q12 77 39 151 l26 76 q6 18 28 100 q22 82 36 130 q14 50 50 76 q35 26 101 28 q66 4 76 1 q10 -3 49 1 l93 4 l63 -2 l35 -2 q33 -2 133 -2 l64 2 q75 0 115 -30 q40 -30 67 -130 l10 -41 q8 -31 33 -92 q25 -61 37 -106 l20 -82 l7 -31 q3 -14 5 -19 q2 -5 2 -10 q10 -17 23 -55 l8 -22 q6 -24 26 -118 q20 -94 48 -175 l12 -37 q12 -37 33 -132 q21 -95 39 -139 q18 -43 18 -61 Z" /><glyph glyph-name="" unicode="b" d="M885 924 q-1 75 -143 75 q-142 0 -142 -74 q0 -69 53 -69 l88 4 l72 -6 q31 0 51 26 q20 26 21 44 ZM793 410 q14 0 33 -1 q19 -1 34 1 q15 2 41 17 q27 15 27 52 q0 37 -31 56 q-49 29 -97 29 q-48 0 -59 -5 q-12 -4 -16 -4 l-25 0 q-56 0 -78 -16 q-22 -16 -22 -54 q0 -80 92 -82 q16 0 49 5 l21 2 l31 0 ZM596 1370 l166 0 l112 2 q158 0 287 -61 q67 -31 137 -122 q70 -91 76 -173 l0 -33 q-4 -127 -65 -186 q-23 -23 -41 -37 q-18 -14 -17 -25 l0 -6 l64 -41 q20 -14 57 -58 q37 -44 58 -118 q20 -72 20 -108 q0 -36 -22 -100 q-46 -138 -110 -191 q-65 -52 -121 -75 q-56 -23 -84 -34 q-28 -11 -66 -7 q-38 3 -185 3 l-41 0 l-90 -2 l-41 0 l-41 -2 l-131 4 l-289 0 q-4 0 -45 -2 q-41 -2 -59 10 q-53 35 -51 103 q0 18 9 80 q9 62 9 122 l-2 47 l0 31 l-4 36 q0 12 0 24 l6 120 q0 35 -1 119 q-1 84 3 138 q4 54 2 69 l-10 221 q-2 46 5 106 q7 60 20 83 q35 66 157 65 l62 -6 l96 0 l84 8 q20 2 40 -1 q20 -3 46 -3 Z" /><glyph glyph-name="" unicode="c" d="M38 564 q-15 114 -15 190 q0 76 34 180 q61 164 125 235 q90 95 199 149 q109 54 350 54 q8 0 35 1 q27 1 44 0 q17 -1 45 -2 q124 -4 144 -52 q6 -18 7 -41 l0 -29 l-9 -110 l0 -52 q1 -33 7 -87 q6 -54 3 -82 q-3 -28 -23 -51 q-20 -22 -56 -21 l-76 6 l-64 -4 q-24 -2 -54 -1 q-30 1 -60 -2 q-30 -3 -66 -32 q-59 -47 -59 -117 q0 -197 219 -194 q66 10 133 18 l17 0 q94 0 96 -125 l-4 -98 l0 -57 l8 -101 l0 -22 l2 -13 q0 -32 -31 -62 q-31 -30 -76 -41 q-45 -11 -147 -13 l-23 0 q-335 5 -478 132 q-26 24 -54 62 q-28 38 -72 94 q-44 57 -64 115 q-21 59 -37 173 Z" /><glyph glyph-name="" unicode="d" d="M606 588 q0 -46 14 -66 q14 -20 48 -24 l8 0 q12 2 46 11 q34 9 62 9 q8 4 21 4 l12 6 l4 0 l15 4 q81 23 86 152 q0 78 -50 123 q-50 45 -104 45 l-90 10 q-36 0 -60 -32 q-24 -32 -18 -91 l6 -75 l2 -29 l-2 -31 l0 -16 ZM387 1367 q31 5 157 5 q126 0 249 -16 q123 -16 159 -32 q36 -16 70 -37 q43 -28 108 -55 q66 -26 102 -63 q36 -37 98 -119 q62 -82 75 -108 q45 -90 45 -242 q0 -152 -43 -266 q-84 -223 -285 -317 q-141 -65 -243 -91 q-102 -26 -261 -26 l-182 4 l-43 0 q-29 0 -57 -2 l-80 -4 q-115 0 -154 39 q-30 37 -28 73 q2 36 7 64 q5 28 5 188 l0 101 l-12 235 l0 97 l8 231 l-4 207 q0 76 33 104 q31 31 75 29 l131 -4 q39 0 70 5 Z" /><glyph glyph-name="" unicode="e" d="M1053 430 q39 0 59 -18 q39 -35 39 -103 l0 -22 l-2 -14 l0 -27 l2 -39 q8 -125 -10 -165 q-18 -40 -72 -44 l-47 0 l-59 6 l-31 0 q-29 0 -32 -5 q-3 -5 -81 -5 l-31 -2 l-90 8 l-57 0 q-35 -2 -133 -2 l-170 2 l-162 -8 l-10 0 q-92 0 -90 88 l2 29 q2 16 2 49 l6 225 l6 98 q0 85 -6 143 q-6 58 -4 91 q2 33 0 53 l-8 170 l8 123 l0 59 l-8 127 q-2 66 35 99 q37 33 104 32 l104 -10 l160 4 l80 -2 l39 0 l53 -2 l25 0 l88 -2 l88 4 l37 0 l104 6 q113 0 113 -98 l-2 -43 l0 -82 l8 -94 q0 -98 -82 -96 l-61 4 l-15 0 l-30 -2 l-7 0 q-29 0 -59 4 l-27 4 q-16 2 -49 -2 q-33 -4 -45 -4 l-78 4 q-59 0 -59 -51 q0 -27 18 -40 q18 -13 95 -14 l34 0 l56 6 l106 0 l94 7 q55 0 73 -29 q18 -29 18 -55 l4 -113 l6 -82 q0 -72 -66 -74 l-41 0 q-37 0 -79 -5 q-42 -5 -89 -3 l-94 2 l-20 0 q-10 -1 -38 0 q-28 2 -46 -16 q-31 -42 8 -68 q23 -18 70 -18 l206 10 l86 0 l33 2 l21 0 Z" /><glyph glyph-name="" unicode="f" d="M78 1283 q0 29 4 35 q4 7 8 20 q4 14 11 16 q7 2 17 11 q10 9 25 6 q14 -3 33 -1 l23 -2 l18 0 l86 -2 q45 0 113 5 q68 5 146 0 q78 -5 83 -5 l150 0 l137 8 q121 -6 133 -92 l0 -4 l2 -82 l0 -76 l6 -76 q0 -47 -34 -67 q-34 -20 -62 -21 l-103 -2 l-86 -6 q-31 0 -48 4 q-17 4 -23 4 l-35 2 q-66 0 -68 -49 q0 -15 14 -33 q14 -18 31 -18 l123 2 q16 0 25 -2 l63 0 l80 8 l31 2 q29 0 48 -19 q19 -19 20 -52 l-2 -33 l0 -33 l2 -20 l0 -9 l8 -147 q2 -49 -53 -82 q-33 -18 -160 -18 l-66 0 q-16 0 -42 1 q-26 1 -44 -1 q-18 -2 -53 -23 q-35 -21 -35 -104 l0 -41 l8 -66 l2 -117 l0 -4 l2 -22 l0 -12 q0 -26 -16 -46 q-16 -20 -31 -20 l-104 4 l-14 0 q-10 -4 -17 -4 l-31 0 l-34 -2 l-93 4 l-102 -4 q-98 0 -96 88 l2 102 l2 43 l-4 115 l8 156 q0 37 -6 92 l-4 43 q-6 53 2 177 q8 124 8 177 l0 41 l-4 60 l-4 159 l0 32 Z" /><glyph glyph-name="" unicode="g" d="M964 901 q-40 0 -63 2 l-82 6 q-90 0 -180 -73 q-51 -38 -63 -86 q-12 -48 -13 -88 q0 -98 90 -175 q53 -43 148 -43 q33 0 49 14 q16 14 16 27 q0 13 -8 23 q-8 10 -20 10 l-58 0 q-18 0 -34 16 q-16 16 -15 29 l0 12 l2 21 l0 6 q0 8 2 28 q2 20 0 42 l-2 47 l2 43 q1 11 11 19 q10 7 22 17 q12 10 53 11 l23 0 q16 0 49 -4 l31 -2 l90 -2 l49 -2 l141 4 q37 0 77 -33 q40 -33 40 -106 q0 -20 -4 -66 l-2 -31 l0 -88 l2 -30 q2 -35 2 -103 l0 -119 l2 -90 q0 -80 -37 -113 q-37 -33 -88 -32 l-47 0 q-18 0 -45 5 q-27 5 -43 3 l-131 -8 q-23 -2 -42 0 q-18 2 -38 2 q-20 0 -54 -2 q-34 -2 -71 0 q-264 4 -351 76 q-10 8 -30 22 q-20 14 -43 32 q-23 18 -45 32 q-22 16 -25 18 q-53 42 -111 150 q-58 108 -78 172 q-20 64 -19 159 l14 127 q1 82 25 161 q24 81 60 131 q36 50 102 116 q66 66 119 92 q52 26 172 60 q120 34 329 34 l96 -2 q70 0 96 2 l51 2 q131 4 166 -63 q19 -35 15 -125 l-4 -92 l8 -107 q0 -47 -25 -69 q-25 -22 -110 -23 l-111 4 l-62 0 Z" /><glyph glyph-name="" unicode="h" d="M76 408 l0 165 q0 47 5 77 q5 30 3 79 l-2 51 l0 144 l2 108 q0 14 2 21 l0 49 l-12 164 q0 42 22 68 q22 26 54 26 l36 0 l95 6 q57 2 113 0 q56 -2 79 2 l53 4 q39 2 65 -19 q26 -21 25 -67 l-12 -90 l0 -16 l6 -39 l0 -13 l-2 -88 q0 -41 28 -57 q28 -16 95 -20 l57 -5 q55 -4 97 37 q14 15 16 27 q2 12 2 61 l0 203 q0 40 25 62 q25 22 55 22 l43 -2 q4 0 20 -2 q16 -2 58 1 q42 3 54 0 q12 -3 30 -2 q18 1 33 1 l45 0 l80 6 q41 0 65 -29 q20 -20 19 -55 l-3 -35 l-6 -41 q0 -66 -2 -102 l-2 -41 q-2 -23 4 -89 q6 -66 0 -156 q-6 -90 -6 -117 l0 -95 q4 -45 4 -85 l0 -50 l2 -71 q0 -12 2 -35 q2 -23 0 -55 q-2 -32 -2 -52 l0 -108 l6 -56 l0 -8 q-1 -40 -27 -68 q-26 -28 -59 -28 l-104 2 l-68 -2 l-94 4 q-16 2 -48 0 q-32 -2 -46 -2 q-80 0 -82 84 l2 68 l0 14 l-4 49 q-4 16 -2 43 q2 27 2 35 l0 37 q0 66 -64 89 q-11 3 -25 1 q-14 -2 -17 -2 l-58 2 q-20 2 -44 -6 l-27 -9 q-22 0 -38 -14 q-16 -14 -16 -41 l0 -160 l2 -86 l0 -10 q0 -94 -90 -96 l-20 0 q-37 4 -60 4 l-153 0 l-60 -2 l-47 0 q-108 0 -106 88 l2 84 l0 39 l6 59 q2 18 -2 68 q-4 50 -4 72 Z" /><glyph glyph-name="" unicode="i" d="M629 1227 l0 -33 l-8 -135 q-2 -27 4 -97 q6 -70 6 -106 l-10 -170 l0 -176 l6 -125 l0 -55 l-6 -92 q0 -8 5 -53 q5 -45 6 -55 q1 -10 3 -9 q2 0 2 -17 l0 -18 q-6 -49 -31 -70 q-25 -21 -74 -20 l-38 2 l-33 0 l-27 2 l-98 0 l-139 -6 q-63 -4 -97 29 q-18 18 -18 69 l6 92 q2 27 0 60 q-2 33 -2 57 l0 78 q0 6 5 85 q5 79 0 133 q-5 54 -5 108 l0 274 l2 72 l-2 65 l-6 154 q-2 49 25 76 q27 27 73 26 l125 -10 q49 0 86 6 l39 4 q115 10 158 -24 q43 -34 43 -121 Z" /><glyph glyph-name="" unicode="j" d="M252 1159 l-10 129 q0 82 105 82 q26 0 70 -1 q44 -1 124 1 l65 2 q29 -2 66 1 q38 3 70 -21 q32 -24 32 -76 l-8 -254 l4 -74 l0 -180 q0 -14 -4 -45 q-4 -31 -2 -53 q2 -22 10 -183 l0 -77 q-4 -115 -26 -189 q-22 -75 -90 -151 q-70 -76 -234 -76 l-84 6 l-45 -2 l-74 0 l-100 -8 q-133 0 -133 143 l6 152 l-6 108 q0 55 24 88 q25 33 43 38 q18 5 35 5 l72 -12 l14 0 q6 0 22 7 q58 24 58 134 q0 10 -8 168 l0 33 q4 33 4 68 l0 36 q0 16 -4 52 q-4 36 0 87 q4 50 4 62 Z" /><glyph glyph-name="" unicode="k" d="M88 993 l0 45 q0 109 -7 142 q-7 34 -7 80 q0 46 22 75 q23 29 62 29 l57 -2 l72 0 q20 0 70 4 q50 4 126 2 q76 -2 99 -18 q25 -23 24 -60 l0 -10 l-6 -37 l0 -65 l-4 -97 q0 -80 39 -80 q20 0 54 40 q34 40 52 73 q19 33 23 38 q8 8 14 13 q7 5 23 34 q16 28 25 41 q10 14 14 22 l13 25 q32 61 56 73 q9 4 31 8 q22 4 215 4 l131 0 l68 6 q52 0 72 -12 q20 -12 20 -58 q0 -46 -78 -161 q-12 -16 -30 -42 q-18 -25 -38 -51 q-20 -26 -52 -79 q-32 -53 -46 -72 l-82 -119 q-20 -35 -6 -61 q20 -29 43 -56 q23 -27 61 -96 q39 -69 51 -82 q12 -13 21 -26 l37 -43 q66 -89 82 -144 q5 -14 23 -34 q18 -20 27 -32 q9 -12 41 -49 q32 -36 32 -66 q0 -31 -18 -63 q-18 -32 -70 -32 l-64 0 q-68 0 -129 6 l-75 0 l-117 -8 q-66 0 -82 8 q-31 16 -86 115 l-29 49 q-4 6 -7 13 q-9 22 -21 34 q-11 13 -20 25 q-9 12 -20 24 q-11 12 -45 52 q-34 40 -44 47 q-10 7 -36 7 q-26 0 -42 -30 q-23 -37 -23 -88 l0 -66 l8 -108 q0 -46 -15 -64 q-15 -18 -93 -22 l-33 0 l-84 6 l-131 0 l-78 -6 q-37 0 -55 10 q-41 23 -41 98 l0 25 l8 139 l-2 96 l0 146 q-6 160 -6 162 l4 100 q2 100 2 223 Z" /><glyph glyph-name="" unicode="l" d="M604 1051 l-8 -213 l0 -19 l2 -55 l0 -31 l-2 -90 q0 -117 88 -117 l96 6 l51 -6 l66 4 q31 0 51 -32 q20 -32 23 -72 l0 -25 q-4 -111 -4 -163 l6 -115 q0 -53 -26 -88 q-26 -35 -77 -35 l-88 6 l-24 0 l-238 -6 l-82 2 l-106 0 q-6 0 -96 -8 l-25 0 q-98 7 -119 57 q-12 29 -12 65 q0 36 2 48 l2 33 l0 225 l-10 203 l0 41 l2 86 l0 30 l6 136 l0 36 l-4 148 q0 174 20 220 q20 46 107 46 l127 -6 l63 6 q41 4 58 4 q93 0 121 -35 q28 -35 30 -96 l0 -190 Z" /><glyph glyph-name="" unicode="m" d="M516 1372 q63 0 94 -31 q14 -14 46 -65 q32 -51 70 -93 q40 -42 71 -79 q31 -31 42 -39 q11 -8 23 -8 q39 0 123 137 q76 113 80 119 q47 57 96 57 l13 0 q7 0 65 -4 l37 0 l45 2 l16 0 l140 4 q80 2 112 -37 q16 -25 17 -51 l0 -10 q0 -16 -7 -62 l-4 -53 l-2 -69 l0 -21 l2 -47 l0 -16 l2 -105 q2 -37 -5 -130 q-7 -93 -3 -208 l8 -217 l0 -100 l7 -123 q4 -81 -27 -105 q-31 -24 -82 -24 l-22 0 l-123 6 l-31 0 l-141 -8 q-59 -2 -85 20 q-26 22 -26 56 l2 102 q0 20 -6 70 l0 22 l2 19 l0 8 l2 45 q2 16 0 49 q-2 33 0 49 l2 51 q2 51 -29 52 q-20 0 -49 -31 q-30 -31 -39 -39 l-24 -23 q-68 -63 -86 -63 q-18 0 -56 24 l-32 21 q-12 8 -60 61 q-27 27 -47 27 q-31 0 -31 -35 l9 -59 l0 -107 l2 -84 q0 -29 -4 -36 q-4 -7 -5 -25 l5 -113 q0 -53 -66 -53 l-119 2 l-37 -2 l-41 0 l-47 2 l-55 0 l-80 -2 q-106 0 -104 117 l12 125 l4 53 q8 103 8 111 q0 8 -6 94 l-2 94 l8 188 l0 174 l2 45 l0 39 q-2 59 -6 85 q-4 26 -6 69 l-2 45 q-4 86 37 119 q27 25 82 20 l106 -6 q117 -4 151 -2 q34 2 54 2 Z" /><glyph glyph-name="" unicode="n" d="M96 26 q-22 26 -22 58 q0 32 8 110 q8 76 8 177 l-2 231 q0 95 8 283 l8 176 q2 37 -9 94 q-11 57 -11 92 q0 80 32 108 q32 28 138 15 q88 -4 143 1 q55 5 110 5 q55 0 80 -18 q25 -18 50 -55 q25 -37 41 -65 q16 -28 24 -40 l54 -76 q26 -39 28 -50 q2 -11 37 -58 l49 -66 q10 -14 33 -14 q29 0 29 41 l0 29 l-2 14 l0 149 l-6 97 l0 14 q3 94 106 94 l35 0 q25 0 70 -4 l30 -2 l33 0 l33 2 q41 2 74 2 l22 0 q131 0 131 -135 l-12 -199 l0 -43 l4 -100 l-2 -51 l0 -35 l-8 -109 q0 -6 6 -86 l4 -94 l0 -10 l-4 -197 l0 -114 l2 -43 l8 -66 l0 -20 q-2 -33 -29 -56 q-31 -18 -55 -18 l-4 0 l-37 2 l-33 4 l-38 0 l-140 -6 l-16 0 q-74 0 -95 11 q-21 11 -47 42 q-26 30 -44 48 q-18 17 -62 87 q-45 70 -74 103 q-29 33 -38 51 q-9 18 -23 37 l-14 18 q-6 8 -22 34 q-16 26 -46 28 q-15 0 -25 -27 q-10 -27 -6 -76 l4 -61 q0 -14 -2 -60 l-2 -32 l0 -52 l8 -79 q0 -68 -90 -68 l-209 4 l-161 -2 q-38 0 -60 26 Z" /><glyph glyph-name="" unicode="o" d="M1034 680 q0 60 -28 110 q-28 50 -70 72 q-94 49 -147 49 q-53 0 -87 -18 q-36 -17 -40 -21 q-4 -4 -28 -12 q-24 -8 -45 -27 q-19 -18 -41 -69 q-22 -51 -22 -92 q0 -42 31 -88 q31 -46 43 -60 q12 -14 51 -38 q39 -24 71 -23 q32 0 101 6 l35 2 q39 0 70 31 q106 95 106 178 ZM840 -33 q-289 1 -421 63 q-132 62 -212 158 q-29 37 -78 95 q-49 58 -57 70 q-8 12 -9 25 q-2 14 -23 87 q-20 71 -20 141 q0 70 13 175 q13 105 23 130 q9 25 20 45 q10 20 22 47 q12 27 25 52 q12 25 20 42 q8 17 22 32 q14 15 29 27 q16 10 78 68 q62 58 97 76 q176 95 401 99 q164 0 282 -49 q24 -10 76 -33 q52 -23 102 -43 q48 -20 68 -34 q20 -15 48 -46 q125 -152 155 -223 q55 -129 55 -256 l-10 -107 q-2 -20 -3 -62 q-1 -42 -9 -67 q-8 -25 -30 -73 q-22 -48 -46 -114 q-25 -67 -51 -92 q-26 -26 -102 -80 q-77 -54 -95 -62 q-18 -8 -58 -22 q-40 -13 -103 -36 q-115 -33 -209 -33 Z" /><glyph glyph-name="" unicode="p" d="M897 814 q0 92 -143 116 q-33 4 -47 4 q-65 0 -81 -24 q-16 -24 -16 -53 l2 -46 l-4 -59 q0 -29 15 -39 q30 -30 151 0 q6 2 18 3 q53 4 79 33 q26 27 26 65 ZM90 446 l0 9 l-10 157 l0 13 l6 157 l-2 146 q0 18 3 65 q3 47 1 74 l-4 104 q-2 19 -6 53 q-4 34 -4 42 q0 53 31 80 q31 27 85 26 l95 -6 l131 8 l55 0 l139 4 q138 0 198 -11 q60 -11 160 -37 q100 -26 129 -37 q29 -11 109 -75 q80 -64 103 -90 q31 -31 41 -59 l16 -43 q29 -80 31 -94 l6 -80 q2 -16 -12 -112 q-14 -96 -17 -103 q-18 -72 -69 -123 l-82 -82 q-94 -94 -258 -135 q-100 -23 -205 -18 l-33 2 q-43 3 -76 -15 q-33 -18 -33 -55 q0 -37 3 -55 l4 -27 l10 -53 l0 -10 q-2 -33 -23 -46 q-29 -23 -80 -22 l-71 2 l-101 -6 l-57 6 l-55 0 l-90 -6 q-40 0 -62 22 q-22 22 -22 60 l10 147 l-2 107 l6 78 q2 12 2 38 Z" /><glyph glyph-name="" unicode="q" d="M770 565 q0 55 70 97 q36 20 66 20 q30 0 85 -59 q12 -12 21 -13 q12 0 24 33 q29 81 -7 139 q-36 57 -40 62 q-23 20 -51 26 l-53 13 q-59 20 -121 20 q-62 0 -160 -69 q-18 -18 -42 -53 q-24 -35 -23 -53 q0 -19 2 -30 l0 -24 q0 -23 17 -68 q17 -45 28 -53 l35 -27 q27 -25 51 -39 q41 -18 74 -18 q33 0 49 12 q8 9 8 11 l-25 43 q-8 14 -8 30 ZM1565 700 q-1 -66 -21 -138 q-20 -72 -26 -79 l-43 -59 q-9 -8 -9 -31 q0 -23 19 -22 l82 2 q7 0 29 -17 q22 -17 22 -47 l2 -76 l2 -45 l-2 -65 l4 -64 q0 -41 -20 -60 q-20 -19 -43 -19 l-117 2 l-141 -2 q-44 0 -127 65 q-16 10 -28 10 q-12 1 -70 -25 q-60 -26 -130 -34 l-80 -14 q-88 -8 -95 -8 q-7 0 -105 6 q-98 8 -132 18 q-35 10 -65 27 l-104 67 q-76 41 -136 93 q-60 52 -115 147 q-54 96 -61 123 q-33 137 -33 191 q0 54 7 138 q8 41 22 97 q18 113 139 245 l31 37 l37 31 q124 124 246 165 q74 26 201 32 l106 6 l4 2 q4 1 95 -11 q91 -12 143 -22 q117 -34 164 -68 q2 -2 11 -8 q9 -6 22 -16 q13 -10 54 -40 q41 -30 91 -87 q37 -49 51 -69 q14 -20 45 -81 q29 -49 39 -82 q35 -149 35 -215 Z" /><glyph glyph-name="" unicode="r" d="M610 821 q0 -41 4 -65 l0 -17 q7 -37 56 -38 q49 -1 116 24 q82 35 82 102 q0 47 -33 71 q-33 24 -40 24 l-70 6 l-43 8 q-40 0 -56 -20 q-16 -20 -16 -35 l0 -60 ZM1395 96 q0 -96 -90 -96 l-146 0 q-111 0 -170 28 q-59 28 -142 87 q-83 59 -119 89 q-37 29 -64 29 q-49 0 -50 -63 q0 -23 4 -35 l7 -22 q2 -2 2 -9 l6 -26 l0 -15 q-8 -67 -74 -67 l-8 0 l-70 4 l-104 -4 q-20 -2 -53 3 q-33 5 -66 5 l-8 0 l-55 -6 l-25 0 q-45 0 -71 26 q-26 26 -21 62 l4 35 q6 49 6 160 l-6 90 q-2 0 0 30 l0 29 q10 197 8 268 l-2 183 l0 45 q0 4 -4 41 l-6 106 l0 74 l-4 86 q0 93 56 116 q56 23 177 23 l33 0 l166 -6 l135 10 l94 -8 l119 0 q220 -4 348 -121 q51 -45 85 -109 q34 -64 47 -86 q43 -72 43 -175 q-1 -103 -50 -191 l-41 -74 q-29 -53 -117 -94 l-49 -24 q-14 -4 -14 -22 q0 -48 90 -48 q54 0 70 5 q16 5 43 5 q86 0 86 -96 l0 -37 q-4 -40 -4 -57 l-5 -49 q-4 -43 2 -53 q6 -10 7 -46 Z" /><glyph glyph-name="" unicode="s" d="M940 1041 q0 -41 -35 -71 q-35 -30 -66 -30 q-31 0 -75 12 q-43 12 -69 13 q-25 0 -53 8 q-28 8 -40 8 q-12 0 -36 -10 q-22 -10 -21 -23 q0 -10 12 -24 q12 -14 26 -18 q14 -4 24 -9 q11 -6 46 -15 q35 -10 42 -12 q7 -2 89 -48 q82 -46 113 -68 q63 -50 85 -78 q22 -28 40 -66 q16 -38 29 -62 q13 -24 21 -61 q9 -35 9 -53 q0 -18 -3 -38 q-3 -20 -8 -80 q-5 -58 -7 -64 q-14 -68 -98 -137 q-85 -70 -151 -104 q-66 -34 -204 -34 q-26 -1 -55 1 q-29 2 -80 0 q-51 -2 -163 11 q-112 13 -158 17 q-46 4 -64 20 q-18 16 -28 26 q-10 11 -11 59 l2 129 l0 34 l-4 33 q-8 66 20 102 q28 35 57 35 q30 0 70 -11 q40 -11 64 -13 q24 -2 52 -9 q30 -7 99 -20 l44 -8 q25 -4 34 -4 q55 0 56 41 q0 20 -25 29 l-53 18 q-85 28 -157 74 q-71 47 -93 61 q-22 14 -45 34 q-23 20 -60 66 q-36 45 -38 50 q-54 111 -56 237 q0 45 18 92 q18 47 36 86 q18 39 59 83 q41 44 82 69 q123 80 399 80 l84 -8 l60 -2 q41 0 96 -21 q92 -31 92 -90 l-4 -74 l-2 -63 l2 -100 Z" /><glyph glyph-name="" unicode="t" d="M266 1364 l35 0 q35 0 71 3 q36 3 72 1 l281 -6 q47 0 81 5 q34 5 118 5 q84 0 118 -23 q34 -23 33 -75 q0 -10 -8 -100 l0 -54 l6 -127 q0 -67 -76 -67 l-77 6 q-62 0 -98 -27 q-36 -27 -36 -118 q0 -91 5 -111 q1 -30 -5 -64 q-6 -34 -6 -202 l0 -195 q0 -33 7 -70 q7 -37 7 -63 q0 -26 -22 -50 q-24 -26 -42 -31 q-18 -5 -77 -5 l-133 4 l-88 0 l-74 -2 q-55 0 -82 29 q-26 29 -26 71 q0 42 4 70 q4 27 2 108 l-2 115 q0 11 -3 37 q-3 26 4 91 q7 66 7 102 l-4 67 l6 137 q4 53 -28 82 q-14 14 -60 19 l-47 4 q-66 6 -85 12 q-51 16 -48 96 l4 103 l0 39 l-6 94 q0 59 26 81 q26 22 86 21 l99 -8 q41 -4 61 -4 Z" /><glyph glyph-name="" unicode="u" d="M420 1368 q2 0 63 2 q109 3 109 -106 l0 -15 l-8 -129 l6 -41 l0 -35 l-8 -63 q-2 -14 -1 -62 q1 -48 -5 -87 q-7 -40 -7 -68 l4 -64 l0 -18 q0 -97 5 -102 l0 -11 q0 -20 17 -50 q36 -64 171 -64 q42 0 104 52 q23 19 23 68 l0 91 l4 225 l-10 59 l0 109 l4 59 l0 123 q-20 69 0 99 q20 30 84 34 l6 0 l51 -2 q20 -2 62 -2 l84 -4 l129 10 l20 0 q104 -4 105 -125 l-2 -67 l2 -105 q0 -39 -10 -88 q-10 -49 -9 -108 l6 -135 l0 -72 q-4 -238 -14 -281 q-10 -43 -16 -55 l-13 -31 q-2 -6 -5 -18 q-3 -11 -6 -21 q-3 -10 -25 -44 q-22 -34 -40 -68 q-18 -34 -42 -57 q-143 -131 -355 -126 l-145 -8 l-84 8 l-17 0 l-55 -4 q-160 0 -250 67 q-26 20 -72 48 q-46 28 -80 55 q-34 27 -63 80 q-29 53 -38 67 q-9 14 -27 81 q-18 67 -15 135 l0 86 l4 67 q0 2 -4 78 q-4 76 -2 158 q2 82 -1 133 q-3 51 -3 84 l4 104 l-2 39 l0 25 q2 90 84 90 l150 -2 l49 2 l84 0 Z" /><glyph glyph-name="" unicode="v" d="M-16 1286 q0 44 28 62 q28 18 82 18 l88 -4 l86 2 q66 -6 79 -6 q13 0 71 6 l10 0 q43 0 73 -34 q30 -34 42 -85 l12 -47 q37 -105 53 -219 l49 -176 q19 -113 25 -121 q6 -8 16 -8 q10 0 14 14 q4 14 7 31 q4 17 7 31 q3 14 4 20 q1 6 2 10 q1 4 1 6 l41 111 q24 105 46 167 q22 62 23 74 q1 12 7 66 q18 90 28 110 q10 20 33 36 q29 16 47 16 l111 -2 l72 8 l88 -4 l57 2 l37 0 q41 -2 63 -31 q29 -29 5 -102 l-50 -145 q-6 -33 -12 -79 q-6 -46 -51 -171 l-27 -86 l-53 -146 l-22 -78 q-40 -84 -46 -100 q-6 -16 -16 -84 q-10 -68 -45 -145 q-25 -70 -47 -148 q-16 -43 -40 -50 q-24 -7 -40 -7 l-96 -2 q-49 -6 -84 -6 q-35 0 -148 10 l-30 0 l-101 -8 q-77 0 -101 30 q-24 30 -40 74 l-20 74 l-21 45 l-20 86 q-38 99 -41 112 q-2 13 -6 35 q-4 22 -13 59 q-8 38 -46 123 q-38 85 -54 142 q-16 57 -53 232 q-23 93 -37 126 l-35 82 q-12 29 -12 74 Z" /><glyph glyph-name="" unicode="w" d="M-8 1352 q8 14 24 14 q16 0 23 -2 l12 0 l193 4 l118 2 q84 -2 103 -10 q31 -16 43 -56 q12 -40 20 -102 l50 -147 q0 -12 14 -82 l49 -144 q8 -38 15 -62 q6 -25 10 -39 q4 -14 6 -18 q2 -4 4 -12 q10 -36 35 -38 q18 -1 32 26 q61 133 62 199 q0 25 -27 110 q-14 70 -19 85 q-5 15 -28 63 l-22 86 q-27 75 -27 99 q0 24 18 31 q18 7 113 11 l45 -2 l14 2 l74 -4 q43 2 116 2 q72 0 102 -6 q30 -6 46 -37 q4 -10 31 -182 q2 -14 35 -94 q6 -20 24 -123 q25 -104 27 -117 q18 -115 57 -115 q14 0 20 8 q6 8 20 66 q12 57 42 150 q4 20 10 51 q6 31 17 79 q10 48 47 162 q0 128 39 146 q29 16 213 16 l43 -4 l166 2 q37 0 57 -27 q44 -44 -8 -185 q-30 -79 -33 -81 l-18 -98 q-4 -20 -33 -99 q-29 -79 -37 -108 l-12 -43 q-2 -14 -21 -104 q-4 -10 -49 -129 q-33 -122 -39 -136 q-6 -14 -13 -35 q-7 -21 -34 -85 q-59 -162 -79 -194 q-20 -32 -42 -40 q-22 -8 -62 -8 q-40 0 -87 2 l-76 0 q-11 -2 -33 -2 q-22 0 -45 2 l-51 0 l-92 -4 q-48 0 -62 14 q-14 14 -42 86 l-23 64 q-8 18 -16 68 q-8 50 -29 71 q-4 4 -8 4 q-12 0 -23 -24 q-6 -23 -16 -49 q-9 -26 -23 -72 q-14 -45 -39 -90 q-25 -46 -37 -58 q-12 -12 -73 -12 l-160 8 l-170 -10 q-96 0 -129 57 q-12 31 -35 99 q-25 125 -27 134 q-2 10 -39 116 q-38 106 -65 216 q-27 110 -35 125 l-43 115 q-68 257 -99 331 q-31 74 -31 107 q-1 33 22 56 Z" /><glyph glyph-name="" unicode="x" d="M843 1350 q27 22 87 22 q60 0 104 -4 l47 0 l47 -2 q48 -2 92 4 q44 6 72 6 q28 0 52 -22 q22 -22 22 -66 q0 -43 -55 -123 l-18 -24 q-11 -17 -37 -63 q-26 -46 -37 -62 l-35 -49 q-6 -10 -24 -32 q-70 -89 -70 -110 q-6 -12 -37 -54 q-31 -42 -35 -77 l0 -12 q4 -43 41 -93 q37 -50 59 -81 l29 -37 l45 -76 q24 -43 50 -75 q26 -32 40 -62 q14 -31 27 -49 l37 -57 q41 -68 40 -99 q0 -53 -65 -53 l-150 0 l-141 4 q-20 2 -62 -2 q-42 -4 -76 -4 q-67 0 -98 69 q-9 19 -12 21 l-30 49 q-6 19 -35 78 q-29 60 -53 59 q-16 0 -91 -110 q-14 -20 -22 -33 l-64 -94 q-10 -18 -34 -33 q-27 -10 -47 -10 l-103 6 l-65 -4 l-43 2 l-35 0 l-94 -6 q-42 0 -64 32 q-22 32 -22 78 q0 46 49 117 l174 254 q18 29 39 64 q20 35 64 97 q44 62 42 78 q-1 44 -93 165 q-13 17 -31 41 q-18 24 -34 45 l-34 43 q-14 16 -39 60 q-25 44 -49 83 l-35 53 q-35 35 -35 80 q0 46 20 66 q20 20 80 20 l78 -2 l66 2 l57 0 l61 -2 l23 0 l92 2 q51 0 72 -15 q21 -15 41 -61 l33 -78 q33 -74 51 -84 l10 -4 q14 0 35 41 q2 2 35 52 l16 22 q8 10 28 48 q20 38 47 61 Z" /><glyph glyph-name="" unicode="y" d="M418 162 q2 12 2 97 q0 85 -4 131 q-9 105 -125 294 l-139 227 q-82 131 -102 189 q-20 58 -57 111 q-36 54 -36 89 q1 34 21 54 q20 20 79 20 l27 0 l66 -8 l49 4 l22 -2 q23 -2 70 -2 l35 0 l108 6 q10 0 43 -22 q29 -29 43 -90 q6 -16 13 -28 q7 -12 61 -116 q54 -106 68 -115 q12 -6 20 -6 q23 0 94 113 q12 20 44 64 q32 44 60 94 q28 50 36 62 q9 12 42 26 q34 16 54 16 q20 0 38 -2 q18 -2 124 0 l45 0 q45 -2 82 2 q37 4 38 4 q66 0 87 -26 q21 -26 8 -82 q-4 -12 -20 -37 q-16 -25 -23 -46 q-8 -21 -36 -57 q-29 -35 -55 -91 q-26 -56 -142 -224 q-181 -261 -200 -365 q-10 -78 -10 -184 q0 -106 6 -130 q19 -78 -6 -109 q-26 -32 -76 -31 l-67 8 q-19 4 -67 0 q-48 -4 -64 -4 l-94 2 l-80 -4 q-94 0 -94 88 l12 80 Z" /><glyph glyph-name="" unicode="z" d="M45 55 q-6 27 -6 67 q0 40 2 100 q2 60 -1 105 q-3 44 -3 56 q-1 13 25 55 q26 42 48 64 q22 22 32 42 q10 20 16 27 l53 68 q12 18 49 87 q37 69 51 93 l25 49 q0 23 -4 29 q-13 32 -68 16 l-16 0 q-22 0 -44 -8 q-22 -8 -73 -8 q-51 0 -69 14 q-18 14 -21 60 l0 164 l-2 65 l0 43 q4 53 22 80 q33 45 127 49 l31 0 l162 -10 l201 8 l92 -4 l225 2 q55 0 92 -33 q38 -29 27 -171 q-6 -79 -8 -120 q-2 -42 -27 -72 q-25 -30 -43 -48 q-18 -18 -28 -30 q-10 -12 -27 -48 q-18 -35 -57 -85 q-50 -64 -50 -73 q0 -22 -84 -144 q-38 -55 -4 -69 q12 -4 70 -4 l61 2 l27 -2 q44 -6 92 -2 l12 0 q6 0 8 -1 q2 -1 21 -5 q17 -4 33 -27 q16 -23 18 -37 l0 -14 q0 -8 5 -49 q5 -41 5 -142 q0 -100 -7 -130 q-11 -47 -58 -62 q-14 -6 -41 -6 q-27 0 -66 3 q-40 3 -104 2 q-64 -1 -104 -1 l-70 2 l-260 -2 l-86 4 l-43 -2 l-35 2 l-51 -2 q-58 0 -72 53 Z" /><glyph glyph-name="" unicode="[" d="M76 1260 q0 106 127 106 l90 0 q43 0 94 2 l29 0 q33 0 76 -2 l170 2 q68 0 86 -68 q10 -35 10 -213 q0 -72 -37 -100 q-27 -16 -82 -16 l-51 0 q-55 0 -64 -70 q-6 -49 -6 -174 l0 -207 l-2 -74 q0 -113 8 -159 q8 -70 64 -70 l12 0 q16 2 58 2 q100 0 100 -119 q0 -194 -15 -223 q-23 -53 -81 -53 l-170 2 q-41 -2 -84 -2 q-43 0 -115 2 l-90 0 q-127 0 -127 106 l0 111 l4 96 q0 39 -2 90 l0 199 q0 37 2 88 l-2 59 q-2 57 -2 95 l4 125 q0 45 -2 73 l0 74 q0 35 2 86 l0 21 l-4 98 l0 113 Z" /><glyph glyph-name="" unicode="\" d="M45 1313 q0 57 80 57 q44 0 78 -4 q133 6 171 6 q38 0 56 -18 q18 -18 40 -68 q22 -50 28 -61 q8 -12 20 -34 q12 -22 27 -44 q12 -4 162 -326 q69 -143 161 -328 q92 -185 140 -285 q48 -100 141 -271 q16 -29 16 -56 q1 -55 -73 -55 l-109 2 l-154 -8 q-33 0 -55 14 q-22 14 -57 98 q-3 8 -15 28 q-12 20 -30 54 q-18 35 -36 63 q-18 28 -42 85 l-117 233 q-12 25 -39 76 q-28 51 -46 88 l-41 83 q-24 46 -35 70 q-11 24 -15 29 l-158 346 l-88 181 q-10 25 -10 45 Z" /><glyph glyph-name="" unicode="]" d="M727 141 q0 -14 6 -98 l0 -111 q0 -106 -129 -106 l-88 0 q-74 -2 -117 -2 q-43 0 -84 2 l-168 -2 q-70 0 -88 65 q-6 33 -8 142 l0 71 q0 74 37 101 q26 16 62 16 q36 0 57 -2 l14 0 q43 0 56 42 q13 42 14 267 l0 41 q0 35 -2 68 l2 35 l0 57 q0 133 -8 174 q-8 70 -64 70 l-55 0 q-55 1 -84 25 q-29 24 -29 91 l0 70 q4 133 12 158 q23 53 84 53 l168 -2 q43 2 78 2 l29 0 q51 -2 94 -2 l88 0 q129 0 129 -106 l0 -113 q-6 -82 -6 -98 l4 -88 l0 -23 q0 -43 -2 -70 l0 -71 l4 -129 l-4 -148 l2 -94 q0 -88 0 -176 l-4 -90 l0 -19 Z" /><glyph glyph-name="" unicode="^" d="M387 672 l-387 0 l264 704 l496 0 l264 -704 l-385 0 l-127 403 l-125 -403 Z" /><glyph glyph-name="" unicode="_" d="M0 -84 l1024 0 l0 -258 l-1024 0 l0 258 Z" /><glyph glyph-name="" unicode="`" d="M594 1444 q35 0 70 -48 q10 -15 42 -71 q32 -56 31 -70 q0 -25 -32 -24 l-54 2 l-49 -2 q-67 1 -107 17 q-40 16 -67 24 l-86 24 q-14 4 -46 16 q-32 12 -81 25 q-49 14 -63 25 q-14 12 -15 37 q0 45 49 47 l21 0 l67 -2 l86 0 l58 -2 q49 -4 164 2 l12 0 Z" /><glyph glyph-name="" unicode="a" d="M645 311 q37 -1 59 21 q22 22 21 50 q1 28 -23 43 q-24 15 -47 15 l-75 4 q-38 4 -62 -22 q-24 -26 -24 -51 q0 -64 67 -66 l45 6 l39 0 ZM791 43 l0 12 q-1 9 -7 17 q-6 8 -19 -1 q-13 -9 -21 -13 q-8 -4 -37 -21 l-19 -10 q-85 -47 -188 -47 q-103 0 -118 5 q-15 5 -30 11 q-15 6 -81 25 q-66 20 -85 32 q-159 129 -159 301 q0 64 39 148 q37 84 85 128 q48 44 97 54 l55 14 q41 10 64 22 q23 12 107 11 q100 0 160 -12 q60 -12 86 -12 q26 1 26 27 q-1 37 -74 69 q-16 6 -74 8 l-80 4 q-58 0 -117 -10 l-82 -14 q-20 -5 -35 -9 q-15 -4 -38 -4 q-23 0 -39 14 q-17 14 -23 29 q-6 14 -6 88 l0 39 l-2 25 l0 12 l-2 39 q0 41 29 57 q29 15 87 23 q58 8 210 16 l43 2 q6 0 23 2 q17 2 40 -1 q23 -3 45 -3 l51 -2 l50 0 q40 0 112 -9 q72 -9 110 -25 q38 -16 98 -61 q60 -45 80 -69 q20 -24 46 -88 q26 -64 23 -139 l-7 -119 q-2 -35 1 -85 q3 -50 4 -97 l0 -78 l-11 -178 l11 -84 q0 -51 -29 -74 q-25 -16 -53 -16 l-58 4 l-94 0 q-51 0 -100 -4 l-56 -4 q-38 0 -38 51 Z" /><glyph glyph-name="" unicode="b" d="M784 674 q-38 14 -72 14 q-34 0 -83 -24 q-63 -30 -63 -86 q0 -56 9 -78 q11 -22 45 -42 q34 -22 85 -20 l32 2 q37 2 54 11 q77 35 77 113 q0 78 -84 110 ZM502 1374 q29 0 47 -19 q18 -19 18 -46 l-4 -62 q-2 -14 0 -43 q2 -29 0 -43 l-4 -55 q0 -33 23 -33 q6 0 19 5 l39 15 q90 31 147 31 q57 0 157 -15 q100 -15 189 -85 q20 -16 40 -30 q20 -14 39 -33 q20 -25 64 -101 q12 -25 32 -81 q20 -56 32 -83 q12 -27 20 -53 q8 -26 8 -89 q0 -62 -25 -144 q-25 -82 -54 -118 q-29 -36 -41 -60 q-12 -24 -50 -76 q-37 -52 -120 -96 q-83 -44 -134 -60 q-51 -16 -78 -18 q-27 -2 -82 -2 q-56 0 -126 15 q-70 15 -107 46 l-23 18 q-16 16 -26 7 q-6 -12 -10 -25 l-9 -29 q-12 -35 -92 -18 l-33 6 l-47 -4 l-172 -8 q-76 0 -76 75 l3 52 l4 288 l10 152 l0 41 q0 68 -7 88 q-7 20 -7 100 l0 86 l8 160 l0 19 q0 43 -2 81 l-6 130 l0 18 q0 64 26 80 q26 16 68 16 l147 -8 l37 0 l86 6 l45 0 l14 2 l13 0 Z" /><glyph glyph-name="" unicode="c" d="M872 770 q0 -66 -24 -90 q-13 -16 -31 -16 l-184 -5 q-67 1 -97 -35 q-30 -36 -30 -91 q0 -92 106 -99 l60 -2 l65 -4 l64 6 q31 0 50 -22 q19 -22 19 -54 l-8 -137 q-2 -18 6 -80 l4 -41 q6 -68 -79 -102 q-37 -12 -144 -12 q-107 0 -139 7 q-34 7 -56 9 q-22 2 -82 20 q-60 18 -118 66 q-25 18 -39 36 q-14 18 -61 57 q-114 97 -134 286 q-6 68 -6 125 q0 57 25 119 q25 62 31 82 l14 28 q16 29 64 91 q48 62 80 92 q30 30 83 57 q96 53 281 53 l160 0 q118 0 116 -78 l-2 -168 l6 -75 l0 -23 Z" /><glyph glyph-name="" unicode="d" d="M568 646 q-50 -38 -50 -96 q0 -58 60 -91 q49 -31 99 -31 q50 0 106 25 q57 25 57 89 q0 64 -31 95 q-31 31 -66 35 l-73 12 q-52 0 -102 -38 ZM823 1075 q29 0 29 35 l0 94 l-8 80 q0 40 25 66 q25 26 75 26 l100 -6 l46 0 l61 4 l70 0 l49 2 q35 0 54 -26 q19 -26 19 -64 l0 -31 q0 -29 -7 -86 q-7 -57 -7 -125 l0 -24 l6 -80 l4 -47 l0 -37 l-2 -29 l-2 -55 q-2 -62 -2 -106 q0 -44 -2 -76 l0 -19 l4 -67 q2 -51 -1 -75 q-3 -23 -1 -61 q2 -38 2 -60 q0 -22 -2 -69 q-2 -46 0 -71 l2 -33 l0 -12 l2 -43 q0 -90 -80 -90 l-55 4 q-78 0 -102 2 l-53 4 q-25 2 -45 -4 q-20 -6 -58 -6 l-6 0 q-56 0 -69 26 q-3 8 -3 23 l0 12 q0 25 -18 25 q-8 0 -60 -47 l-10 -4 q-48 -27 -64 -29 q-16 -2 -34 -3 q-18 -1 -35 -3 l-29 -4 q-86 -12 -190 18 l-41 12 q-72 23 -90 41 l-62 60 q-4 4 -32 26 q-28 22 -74 90 l-57 93 q-56 96 -56 189 q0 163 72 319 q29 58 93 122 q121 122 243 150 q16 4 147 14 l62 4 q12 0 88 -14 l35 -8 q20 -4 40 -16 q20 -12 29 -11 Z" /><glyph glyph-name="" unicode="e" d="M610 805 q-129 1 -129 -45 q0 -50 51 -51 l70 2 l66 4 l32 -4 l17 0 q17 0 35 11 q18 12 18 28 q0 16 -26 36 q-26 20 -91 23 l-6 0 l-14 -2 l-4 0 l-19 -2 ZM1180 787 q20 -75 20 -99 q0 -24 6 -61 l6 -49 q4 -25 -5 -59 q-19 -73 -87 -73 l-92 -2 l-147 -8 l-19 0 q-53 0 -80 4 q-27 4 -39 4 l-36 -4 l-58 0 l-76 2 q-66 2 -65 -41 q0 -19 35 -41 q35 -22 94 -22 l65 0 l99 -8 l133 0 q51 0 92 10 l45 10 q41 10 61 -12 q20 -22 19 -40 q0 -18 -4 -53 q-4 -34 -2 -61 l6 -78 q6 -74 -31 -92 q-47 -27 -153 -32 l-72 -5 l-158 -8 q-47 0 -129 15 l-39 6 q-98 16 -148 34 q-50 18 -124 56 q-133 72 -225 244 q-57 106 -58 237 q0 37 12 86 q16 67 26 117 q11 51 38 92 q26 41 74 99 q48 59 76 74 q28 15 58 25 q30 10 51 23 q21 12 45 21 q24 8 34 10 q10 2 21 6 l22 6 q51 14 131 14 q80 0 277 -44 q49 -10 151 -86 q31 -23 81 -82 q49 -59 69 -135 Z" /><glyph glyph-name="" unicode="f" d="M66 662 l0 192 q0 43 -5 113 l0 59 q4 123 35 174 q12 20 49 62 q37 42 61 60 q24 20 52 28 q28 8 52 12 q24 4 71 14 q47 10 84 10 l67 -4 l72 0 q52 0 94 -14 q72 -14 84 -68 l0 -4 q4 -8 4 -28 l2 -62 l0 -37 q0 -145 -88 -145 q-24 0 -60 10 q-36 10 -48 10 q-12 0 -24 -14 q-11 -14 -11 -29 q0 -55 66 -51 l24 2 l33 2 q43 0 58 -14 q15 -14 18 -43 l12 -186 q6 -86 -37 -129 q-14 -16 -24 -19 l-9 0 l-18 -2 l-72 4 q-20 0 -35 -10 q-20 -16 -20 -39 l4 -186 q0 -28 -5 -94 q-5 -66 1 -115 l4 -53 q0 -35 -18 -54 q-23 -18 -39 -18 l-199 4 l-18 -2 l-13 0 l-32 -2 l-23 0 l-53 -2 q-66 0 -85 28 q-19 28 -20 117 l0 25 l6 137 l-2 129 l7 88 l0 25 q-2 56 -2 119 Z" /><glyph glyph-name="" unicode="g" d="M661 549 q81 0 115 39 q18 20 18 52 q0 32 -45 56 q-46 24 -69 25 l-86 4 q-55 0 -78 -29 q-23 -29 -22 -57 q0 -55 43 -73 q43 -18 124 -17 ZM805 -176 l-71 -8 q-29 0 -59 2 q-30 2 -115 5 q-85 3 -152 13 l-70 12 q-28 4 -34 6 q-6 3 -8 4 q-3 1 -8 4 q-5 3 -62 17 q-56 13 -82 39 q-26 26 -27 46 q0 20 7 79 q7 60 6 76 q-1 16 -1 28 q0 12 13 32 q14 20 48 20 q34 0 74 -15 l90 -30 q63 -23 97 -25 l67 -4 l84 -8 l76 8 q70 6 83 17 q13 11 13 24 q0 33 -35 35 l-10 0 q-6 0 -11 -1 q-5 -1 -39 -4 q-34 -3 -53 -6 q-18 -4 -46 3 l-45 2 q-70 3 -168 31 q-211 61 -293 192 q-60 94 -60 182 q0 88 6 131 q6 43 8 65 q0 22 26 71 q26 49 44 67 l39 41 q58 60 94 84 q14 6 42 14 q28 8 75 31 q25 10 149 10 q125 0 155 -5 q30 -5 67 -24 l35 -18 q14 -7 38 -29 q24 -22 32 -22 q10 0 14 24 q4 24 6 27 q16 35 74 35 l8 0 l114 -8 l23 0 l55 6 q25 4 45 4 q74 0 101 -39 q23 -29 22 -59 l-6 -129 q-2 -17 2 -61 q4 -44 4 -64 l2 -41 q2 -41 -3 -77 q-5 -36 -5 -63 l0 -28 q0 -14 2 -42 q2 -28 4 -65 l2 -51 l-4 -127 l0 -45 q0 -90 -8 -126 q-8 -37 -24 -63 q-16 -26 -40 -58 q-23 -32 -26 -38 q-36 -44 -89 -66 q-57 -24 -97 -26 q-40 -3 -140 -8 l-55 -4 Z" /><glyph glyph-name="" unicode="h" d="M229 1376 q49 0 87 -5 q38 -5 59 -3 l94 8 q53 4 73 -28 q20 -32 19 -64 l-2 -45 l2 -35 q0 -10 -3 -28 q-3 -18 -2 -30 q1 -12 1 -28 l-4 -53 q0 -31 22 -31 q12 0 34 16 q21 16 43 25 q22 9 40 19 q39 22 105 22 l28 -2 q106 0 142 -14 q36 -14 51 -21 q14 -8 18 -10 q4 -2 14 -8 q10 -6 22 -20 q13 -13 29 -24 q15 -11 49 -83 q34 -72 45 -138 q11 -66 13 -212 l2 -90 l2 -56 l-8 -53 l0 -94 l-6 -70 l0 -14 l12 -96 l2 -25 q6 -45 -22 -70 q-28 -25 -72 -24 l-108 8 l-35 0 l-103 -6 q-158 0 -159 74 l0 4 l6 41 l0 82 l6 69 l0 23 l-8 55 l2 141 q0 66 -39 107 q-18 22 -55 22 q-37 0 -49 -24 q-12 -24 -20 -68 q-7 -44 -5 -59 l4 -39 l2 -64 q0 -14 -7 -87 q-7 -73 1 -115 l4 -31 q-2 -25 3 -42 q5 -17 -3 -31 q-8 -14 -9 -22 q-2 -10 -14 -16 q-12 -6 -19 -10 q-7 -4 -27 -4 l-39 0 l-218 0 l-30 -2 l-19 0 l-24 -2 q-55 0 -74 33 q-20 41 -14 143 l4 61 q2 35 2 56 l-2 51 l0 10 l-4 96 q0 27 4 65 q4 38 2 56 l-8 172 q-2 43 6 123 l0 70 l4 108 l-2 103 l-2 35 l2 47 l0 35 l-2 34 q0 35 18 59 q18 24 78 23 l61 0 Z" /><glyph glyph-name="" unicode="i" d="M481 1407 q79 0 82 -59 l4 -95 q4 -79 -63 -79 l-27 2 l-33 2 q-26 2 -54 0 q-28 -2 -62 -2 l-72 4 l-39 -2 l-70 -2 q-39 0 -50 18 q-11 18 -11 70 l2 77 q0 35 15 51 q15 16 38 13 l27 -2 l65 4 q39 0 70 -4 q31 -4 42 -2 q11 2 17 2 l93 4 l26 0 ZM479 1114 q96 0 88 -131 l-8 -233 l4 -148 l0 -20 l-6 -111 l0 -127 l-2 -135 l0 -27 l6 -69 q4 -55 -28 -87 q-32 -32 -91 -32 l-75 6 l-33 0 q-78 0 -170 -6 l-25 0 q-27 2 -51 31 q-24 29 -25 90 l7 141 l-7 117 l0 12 q0 16 7 81 q7 65 4 193 l-4 80 l8 236 l0 16 l-2 29 l0 22 q0 70 98 70 l6 0 l29 -2 q19 -2 27 -1 q8 1 20 1 l96 -4 l117 8 l10 0 Z" /><glyph glyph-name="" unicode="j" d="M147 1178 q-43 0 -55 20 q-12 20 -12 78 l0 65 q0 31 26 48 q26 17 70 16 l135 -8 q27 0 43 2 q16 2 68 4 l49 2 l6 0 l12 2 l3 0 q53 0 65 -31 q8 -18 8 -73 l0 -35 q0 -56 -14 -70 q-14 -14 -53 -16 l-70 0 l-51 -4 l-39 -2 l-88 4 l-57 -2 l-46 0 ZM88 877 q0 18 -3 25 q-3 7 -5 46 l-2 47 q0 51 34 85 q34 34 76 34 l70 -10 l53 -6 l27 0 l156 6 q77 0 75 -133 l-10 -269 q-2 -28 2 -66 q4 -38 4 -63 l-4 -180 q0 -91 6 -127 l2 -22 l0 -15 l2 -24 l-4 -43 q-2 -14 -3 -47 q-1 -33 -5 -54 l-6 -26 q-52 -170 -356 -170 l-81 8 q-28 0 -71 18 q-43 18 -57 41 q-14 23 -15 88 l0 146 l-4 45 l0 18 q0 83 45 93 l9 0 q14 0 14 -4 q0 -4 18 -3 l4 0 q12 0 17 11 q4 12 4 53 l-2 59 l4 166 l-6 78 l0 25 l12 157 l0 13 Z" /><glyph glyph-name="" unicode="k" d="M565 862 q0 -59 34 -59 q34 0 68 45 q34 45 50 135 q16 90 55 113 q20 10 51 10 l35 0 q31 0 45 2 l47 6 l62 -8 q25 -2 49 -2 l22 0 l33 4 l33 2 q35 0 57 -28 q22 -28 22 -52 q0 -24 -16 -74 l-28 -75 q-2 -7 -10 -25 q-8 -18 -29 -74 q-21 -56 -38 -81 q-17 -25 -21 -31 q-4 -6 -16 -23 q-13 -17 -21 -33 q-29 -43 -29 -67 q0 -24 28 -60 q28 -35 31 -41 l56 -84 q18 -29 28 -53 l13 -30 q12 -33 58 -103 q46 -70 46 -98 q0 -88 -123 -82 l-164 4 q-67 2 -109 -4 q-42 -6 -56 -6 q-43 0 -77 49 q-33 49 -71 100 l-47 82 q-14 27 -37 27 q-43 0 -43 -47 l0 -17 l2 -39 l0 -30 l2 -21 l0 -8 l2 -16 q1 -30 -23 -52 q-24 -22 -71 -22 l-33 2 l-102 4 l-47 -2 l-62 -4 l-28 -2 l-25 0 q-53 0 -78 27 q-25 27 -24 71 l4 96 q0 23 -2 35 q-2 12 0 45 l2 56 q0 55 -5 108 q-5 53 3 100 l2 31 l4 119 q0 2 -6 168 l0 37 l12 192 l0 60 l-6 98 q0 55 12 86 q23 51 92 51 l96 -6 l109 4 q69 6 107 4 q38 -2 60 -26 q22 -24 21 -121 l0 -12 l-6 -66 l4 -70 l2 -80 l-6 -106 l0 -33 Z" /><glyph glyph-name="" unicode="l" d="M76 1124 q2 37 -4 83 q-6 46 -6 78 q0 31 28 59 q28 28 58 28 l96 0 l69 2 l70 -6 l88 8 q61 0 80 -28 q19 -28 18 -68 l-6 -82 l0 -108 l6 -132 l-10 -184 l8 -158 l-6 -61 l6 -119 l-2 -22 l0 -8 l-2 -58 l0 -39 q0 -55 7 -101 q7 -46 8 -56 l2 -46 q2 -28 -14 -60 q-16 -32 -35 -41 q-20 -9 -74 -9 l-10 0 l-35 2 l-29 2 l-47 -2 l-107 -6 l-32 0 q-138 0 -138 131 q0 2 7 131 l2 39 q4 88 2 168 l-2 125 l2 41 l2 73 l2 31 l0 19 l-6 104 l0 74 l4 196 Z" /><glyph glyph-name="" unicode="m" d="M1165 80 q0 -96 -108 -90 l-41 2 l-43 4 q-43 4 -76 4 l-100 -8 l-31 0 q-84 0 -84 67 l2 56 l-6 55 l6 262 l0 17 q4 12 4 32 q0 133 -78 133 q-23 0 -42 -22 q-19 -22 -19 -68 l0 -53 q0 -37 4 -111 l0 -26 l-12 -135 l6 -47 q0 -92 -14 -123 q-14 -31 -64 -31 l-129 8 l-162 -8 l-20 0 q-61 0 -82 33 q-12 18 -13 67 l0 31 q4 41 5 61 l-5 314 l5 123 l8 86 q0 51 -5 75 q-5 24 -5 54 l0 193 q0 27 16 48 q18 33 80 33 l12 0 l145 -6 l105 6 q41 0 68 -14 q12 -7 24 -64 q4 -18 21 -22 q18 8 33 27 q16 19 24 25 q8 6 30 16 q22 10 38 19 q14 9 22 11 l23 2 q53 4 69 10 l10 9 q33 -3 111 -25 q77 -22 103 -36 q26 -14 65 -48 q29 -20 49 -4 l37 29 q66 51 139 65 l27 6 q12 4 35 4 l20 9 q88 -4 182 -48 q42 -18 94 -63 q52 -45 66 -64 q14 -19 45 -110 l25 -68 q16 -47 16 -133 l0 -14 l-2 -31 l0 -10 l-2 -43 q-2 -47 0 -109 q2 -62 2 -103 q0 -42 -2 -67 l-4 -61 q-2 -25 7 -72 q9 -47 9 -88 q0 -68 -71 -63 l-31 2 l-55 6 l-82 -6 l-105 6 l-8 0 l-92 -8 l-12 0 q-16 4 -35 22 q-20 25 -19 76 l7 111 l0 28 q-1 23 -5 98 q-4 76 -1 145 q3 69 -23 107 q-18 23 -43 23 q-25 0 -43 -25 q-18 -25 -24 -39 q-6 -14 -2 -46 q3 -34 3 -46 l0 -92 q0 -57 -14 -127 l6 -53 l4 -29 q2 -16 2 -61 Z" /><glyph glyph-name="" unicode="n" d="M84 684 q0 51 -8 125 q-8 74 -10 104 l-3 35 q-4 82 46 135 q30 35 114 31 l45 -2 q20 0 38 -4 q18 -4 48 -2 l64 4 q16 2 25 -1 q9 -3 14 -3 l16 0 q48 0 57 -39 l9 -41 q4 -23 10 -25 l2 0 q6 0 29 26 q23 26 28 30 q29 25 109 51 q80 26 112 27 l74 -19 l33 0 q26 0 46 -3 q20 -3 71 -36 q51 -33 71 -57 q20 -24 55 -83 q35 -59 36 -72 q2 -13 9 -57 q7 -44 7 -108 l0 -65 l8 -96 l4 -125 q0 -6 -1 -16 q-1 -10 -2 -32 q-1 -24 -6 -95 q-5 -71 -3 -93 l8 -88 q6 -55 -27 -84 q-16 -16 -44 -16 l-38 2 l-55 2 l-88 -6 l-90 8 l-76 -2 q-47 -2 -76 26 q-18 24 -18 46 q0 22 4 43 l6 49 q4 40 4 135 l0 24 q4 41 4 51 q0 10 -4 19 l-4 27 q-2 14 -2 46 q0 32 -3 40 q-3 8 -5 25 q-2 17 -14 41 q-12 24 -33 36 q-25 12 -35 12 q-51 0 -63 -69 l-4 -41 l-5 -25 q-6 -49 -6 -57 l8 -80 l-6 -137 l0 -45 l17 -92 q0 -35 -28 -55 q-28 -20 -60 -19 l-56 6 l-67 6 q-12 2 -35 -2 q-23 -4 -33 -4 l-20 0 q-16 2 -45 2 l-115 -2 q-25 0 -45 25 q-18 25 -19 57 l0 27 l11 132 l6 97 l0 70 l-6 122 l10 134 l0 20 Z" /><glyph glyph-name="" unicode="o" d="M862 545 q0 51 -48 93 q-48 42 -101 44 l-31 -2 l-47 2 q-1 0 -23 -6 q-22 -6 -39 -21 q-66 -51 -65 -106 q0 -35 17 -62 q17 -27 35 -35 q90 -36 120 -36 l31 6 l32 4 q39 8 60 21 q19 13 39 45 q20 32 20 53 ZM43 391 q-1 23 -15 65 q-14 42 -14 89 q0 47 9 82 q37 154 75 211 q98 147 181 190 q94 54 140 68 q47 14 131 26 q84 12 147 12 q63 0 120 -12 q57 -14 79 -19 q22 -5 36 -5 q34 0 72 -25 q115 -68 157 -115 l76 -84 q30 -33 34 -56 q7 -35 25 -57 q17 -21 33 -90 q33 -142 4 -231 l-16 -55 q-25 -83 -53 -121 q-28 -38 -45 -67 q-18 -29 -31 -41 q-4 -8 -6 -10 q-2 -2 -105 -76 l-67 -50 q-8 -6 -95 -28 q-87 -22 -147 -23 l-57 -2 l-56 2 q-88 0 -100 2 l-51 9 q-68 10 -150 50 q-82 40 -98 54 l-88 88 q-85 82 -119 179 q-6 17 -6 40 Z" /><glyph glyph-name="" unicode="p" d="M885 565 q0 45 -64 90 q-23 13 -36 17 q-13 4 -50 4 l-45 2 q-51 2 -100 -47 q-31 -37 -31 -88 q0 -51 34 -77 q34 -26 73 -28 l32 -2 l54 -8 q66 0 110 61 q22 31 23 76 ZM520 1056 q13 -22 23 -22 q10 0 18 5 l24 15 q15 9 33 17 l46 19 q60 24 166 24 q178 -1 276 -70 l86 -57 l31 -35 q73 -79 87 -106 q15 -27 22 -47 q7 -20 16 -37 l14 -31 q31 -63 31 -158 q0 -95 -21 -163 q-18 -76 -72 -165 q-54 -89 -61 -102 q-35 -47 -137 -98 q-111 -51 -147 -59 q-37 -8 -149 -8 q-112 0 -154 15 q-58 23 -86 23 q-23 0 -23 -28 l4 -49 q2 -19 4 -29 q2 -10 2 -29 q-1 -19 -21 -38 q-20 -19 -63 -19 l-129 6 l-49 -2 l-51 0 l-35 2 l-70 -2 q-37 0 -41 2 q-25 8 -28 74 l0 16 l8 76 l0 18 l-4 72 l4 152 q2 34 -1 80 q-3 46 -3 55 l2 24 l0 13 l2 51 l0 71 l-2 70 l2 254 l0 23 l-8 90 l-3 24 q-4 61 28 88 q32 27 83 27 l45 -2 q28 -4 37 -4 l76 4 l63 0 l47 2 q46 0 78 -52 Z" /><glyph glyph-name="" unicode="q" d="M706 659 q-85 0 -133 -28 q-49 -41 -49 -96 q0 -55 43 -91 q45 -35 105 -34 q4 0 39 6 q61 4 92 22 q59 41 59 105 q0 35 -31 65 q-20 25 -40 31 l-27 6 q-44 14 -58 14 ZM814 1060 q38 -34 45 -34 q7 0 9 2 l25 53 q16 31 127 31 q35 0 82 -2 l74 0 q86 4 92 4 q89 0 92 -80 q0 -16 -8 -71 l0 -33 l-6 -88 q0 -8 3 -40 q3 -32 7 -208 l2 -39 l0 -131 l2 -111 l-6 -73 l-2 -39 q-4 -111 -4 -141 q0 -30 4 -60 l14 -70 q2 -4 2 -14 q0 -84 -82 -84 l-80 2 l-51 -2 l-111 2 q-60 -2 -122 -2 q-62 0 -62 53 l6 90 q0 25 -15 37 q-15 12 -27 12 q-12 0 -76 -24 q-64 -24 -168 -24 q-104 0 -181 28 q-76 29 -149 92 q-74 53 -121 119 q-51 59 -59 92 q-48 147 -52 163 q-4 16 -4 50 q0 34 3 79 q3 44 36 134 q36 122 72 152 l35 41 q59 78 164 127 q119 68 225 67 q16 2 49 -6 q74 0 126 -10 q52 -10 90 -44 Z" /><glyph glyph-name="" unicode="r" d="M428 1114 q72 0 77 -60 q1 -11 3 -18 q0 -18 17 -18 q17 0 54 40 q37 40 91 48 q53 8 104 10 l51 0 q47 -4 69 -33 q22 -29 21 -61 l-2 -33 l0 -20 q0 -27 -3 -53 q-3 -26 -1 -99 l0 -67 q0 -70 -32 -97 q-31 -27 -67 -27 q-36 0 -75 12 q-39 11 -79 11 q-40 0 -64 -26 q-25 -26 -25 -50 l2 -51 l0 -184 q-4 -29 -4 -55 l8 -90 l2 -21 q4 -25 5 -47 q0 -127 -78 -131 l-15 0 l-159 8 l-144 -12 q-70 0 -94 28 q-24 28 -27 78 l0 15 q0 2 7 69 l8 94 l0 43 l-6 207 q0 54 6 156 l2 35 q2 31 -5 91 q-7 60 -9 144 l0 47 q2 72 30 94 q29 22 78 21 l100 -4 l29 0 l96 6 l29 0 Z" /><glyph glyph-name="" unicode="s" d="M834 844 q0 -88 -16 -109 q-39 -50 -210 19 q-45 18 -64 9 q-19 -9 -20 -28 l0 -6 q4 -12 27 -23 q23 -11 83 -33 q60 -22 114 -50 q54 -28 64 -39 q8 -12 26 -32 q18 -20 40 -46 q22 -26 29 -50 q5 -24 15 -60 q10 -36 10 -60 q0 -128 -107 -247 q-8 -9 -21 -18 q-13 -9 -17 -13 q-4 -4 -38 -19 q-150 -68 -321 -68 q-104 -1 -166 13 q-62 14 -96 22 q-34 8 -56 12 q-24 4 -53 20 q-29 16 -35 32 q-6 18 -2 57 q4 39 0 119 l-2 78 q0 29 11 47 q10 25 32 41 q25 16 35 16 q10 0 140 -39 q130 -39 150 -39 q42 0 28 43 q-6 15 -46 27 q-40 12 -50 16 q-9 4 -16 7 q-7 3 -17 9 q-9 6 -57 26 q-48 20 -68 34 q-20 14 -67 64 q-46 50 -56 109 q-10 59 -11 70 q-1 11 -2 18 q-1 7 -1 13 q0 199 168 279 q21 9 55 27 q78 41 217 42 q138 1 227 -22 q94 -20 120 -42 q26 -22 28 -65 l-4 -94 l0 -67 Z" /><glyph glyph-name="" unicode="t" d="M102 702 q0 45 -12 53 q-12 9 -14 11 q-2 2 -25 6 q-37 12 -39 45 l0 8 q6 78 4 101 l-2 73 q-4 84 15 107 q19 23 67 41 q48 19 67 35 q19 16 47 40 q28 24 54 44 q26 20 62 55 q51 49 88 53 l57 0 l27 2 l22 0 q41 -2 50 -14 q9 -12 10 -55 l-2 -131 q0 -61 38 -62 l105 8 q29 0 35 -55 q2 -21 1 -73 q-1 -52 1 -95 q2 -43 2 -78 q0 -68 -66 -67 l-10 0 l-53 4 q-43 0 -48 -45 q-5 -45 -1 -119 l0 -131 q0 -70 34 -70 l56 6 q68 0 84 -55 l0 -12 q-4 -25 -4 -39 l0 -107 l8 -63 l0 -12 q-2 -33 -20 -63 q-18 -30 -44 -40 q-72 -27 -254 -26 q-40 0 -122 13 q-174 27 -205 118 q-18 51 -19 163 l6 89 l-6 77 q-2 16 -2 47 l8 181 l0 32 Z" /><glyph glyph-name="" unicode="u" d="M422 1110 q11 0 51 4 q104 0 102 -121 l0 -6 l-6 -88 l2 -108 l-10 -146 q-1 -57 13 -101 q14 -44 26 -57 q12 -12 39 -12 q45 0 61 68 l11 100 q2 25 2 53 l-2 119 l6 96 l-6 129 q0 39 21 58 q22 18 48 18 l74 -6 q14 0 60 4 q46 4 58 2 q12 -2 17 -2 l37 2 l25 -2 l69 4 q41 0 73 -24 q32 -24 32 -68 q0 -14 -2 -34 q-2 -20 -6 -65 q-3 -46 -7 -81 q-4 -35 -4 -84 q0 -49 4 -129 q4 -80 2 -111 l-6 -73 l2 -105 q0 -6 -5 -85 q-5 -79 -2 -87 q19 -50 20 -113 q0 -19 -27 -41 q-27 -22 -72 -22 l-166 4 q-18 0 -51 -4 l-24 -2 q-92 -2 -105 29 q0 2 -5 8 q-5 6 -10 18 q-5 12 -13 29 q-4 4 -13 4 q-9 0 -28 -22 q-19 -22 -40 -41 q-21 -20 -102 -32 q-81 -13 -111 -13 q-30 0 -100 11 q-70 12 -114 35 q-47 20 -71 39 q-24 19 -50 59 q-27 40 -35 72 q-8 32 -14 174 q-6 144 -7 148 l5 74 l4 32 l-2 50 l0 63 l-2 98 l4 54 q-11 196 34 221 q20 10 70 10 l80 -4 q26 -2 54 0 q28 2 40 2 l64 -2 l8 0 Z" /><glyph glyph-name="" unicode="v" d="M-39 1053 q0 51 55 55 l123 0 l64 2 l73 -4 l7 0 l96 8 q47 0 77 -34 q30 -34 47 -167 q4 -37 14 -77 q9 -39 12 -67 q3 -28 18 -82 q15 -54 24 -111 q7 -56 23 -56 q16 0 16 37 q0 7 3 23 q3 16 9 78 q6 62 19 114 q22 91 29 134 q21 146 59 184 q23 23 68 26 l26 0 l47 -2 l93 0 q37 -4 57 -4 l86 6 q42 0 64 -26 q22 -26 22 -69 q0 -42 -28 -109 q-28 -66 -39 -134 q-11 -68 -30 -115 q-19 -47 -26 -89 q-7 -41 -16 -56 q-11 -36 -22 -80 q-11 -43 -33 -88 q-22 -45 -50 -129 q-28 -84 -33 -94 q-23 -98 -63 -121 q-23 -12 -51 -12 l-51 2 q-37 6 -113 4 l-98 -2 l-72 0 l-61 -2 q-76 0 -101 43 q-9 15 -27 66 q-18 51 -42 113 q-24 62 -32 109 q-9 46 -31 94 q-21 48 -54 138 l-37 103 l-13 32 q-9 22 -13 34 q-4 11 -12 38 q-7 27 -12 40 q-5 13 -13 37 q-8 24 -16 62 q-9 39 -19 61 q-24 56 -23 87 Z" /><glyph glyph-name="" unicode="w" d="M715 -8 l-118 8 q-40 0 -99 -6 q-90 0 -99 2 q-39 2 -61 29 q-18 18 -35 67 l-24 80 l-23 53 q-65 192 -75 237 q-11 46 -48 116 l-37 90 l-30 63 l-39 109 q-57 114 -67 146 q-10 32 -9 62 q0 30 35 54 q20 10 47 10 l127 -6 q63 0 121 8 l32 0 q76 0 103 -57 l28 -84 l11 -21 l14 -39 l10 -20 l41 -113 q53 -160 66 -180 q10 -10 22 -10 q12 0 29 16 q18 28 18 48 q0 20 -12 63 l-10 41 l-23 65 l-30 117 q-6 16 -14 36 q-20 49 -21 60 l-2 35 q0 23 12 35 q16 12 23 10 l73 -2 l8 -2 l140 0 l119 4 q44 0 70 -36 q26 -36 28 -56 l10 -68 l10 -49 l4 -22 q31 -88 44 -166 q13 -78 40 -78 q14 1 16 19 q2 18 6 39 q3 21 4 38 q1 17 5 64 l4 41 l4 63 l11 37 q12 96 16 117 q23 53 65 53 l105 0 l51 4 l84 -4 l107 0 q70 0 69 -72 q0 -29 -10 -55 l-27 -57 q-10 -39 -26 -121 q-12 -98 -24 -141 q-12 -43 -18 -66 q-5 -23 -7 -35 q-1 -12 -5 -20 q-4 -8 -58 -170 q-54 -162 -62 -188 q-8 -26 -33 -132 q-14 -63 -92 -63 l-45 4 l-74 -2 l-86 2 q-76 -6 -88 -6 q-74 0 -111 39 q-14 18 -16 26 l-27 80 q-10 25 -21 25 q-11 0 -22 -10 q-12 -35 -37 -111 q-16 -47 -67 -47 Z" /><glyph glyph-name="" unicode="x" d="M166 -4 q-10 0 -30 2 q-20 2 -47 -1 q-25 -3 -59 -3 q-34 0 -47 18 q-36 50 12 115 q9 12 11 16 q2 5 10 17 q8 12 20 35 q12 23 32 51 l36 57 q16 25 37 65 q21 40 49 83 l29 43 q18 27 23 44 q4 17 10 27 q4 4 4 13 l0 10 q-4 23 -25 51 l-24 37 q-37 56 -83 110 q-46 54 -77 113 l-61 123 q-23 37 6 65 q2 1 6 9 q9 18 35 18 l65 -2 l127 2 l56 0 q18 -2 53 -2 l65 2 q37 0 51 -12 q14 -12 27 -38 q12 -26 17 -30 l22 -35 q4 -6 17 -35 q13 -29 26 -42 q16 -11 31 31 q4 11 6 15 q2 4 7 16 q5 13 19 31 q15 18 36 51 q21 33 37 42 q17 8 49 8 l92 -4 l143 -2 l100 6 q55 0 78 -29 q25 -25 25 -63 q0 -38 -54 -104 q-8 -10 -16 -24 q-8 -14 -50 -88 q-42 -73 -71 -104 q-28 -32 -35 -40 q-7 -8 -28 -52 l-37 -73 l0 -2 l-2 -2 l0 -11 q2 -6 22 -37 l35 -49 q51 -72 74 -98 l20 -29 q25 -28 42 -72 q18 -43 34 -63 q16 -20 20 -24 q4 -2 7 -10 q5 -8 21 -31 q16 -22 16 -49 q0 -26 -20 -46 q-20 -20 -60 -20 l-92 4 l-76 -4 l-23 2 l-133 -2 l-18 0 q-61 0 -74 24 q-4 6 -9 14 q-5 8 -11 18 q-6 9 -15 24 l-14 28 q-23 39 -29 56 q-6 18 -12 26 q-6 8 -6 12 q0 4 -5 10 q-5 5 -11 5 q-14 0 -28 -26 q-14 -25 -18 -31 q-4 -6 -10 -14 q-6 -8 -11 -16 q-5 -9 -13 -22 l-13 -20 q-6 -12 -11 -28 q-5 -16 -9 -23 q-16 -39 -76 -39 l-94 4 q-12 0 -62 -4 l-20 0 l-33 2 l-8 0 Z" /><glyph glyph-name="" unicode="y" d="M543 686 q0 -24 11 -24 q11 0 14 5 q3 5 8 52 q5 47 16 82 l20 78 q4 16 15 45 q13 38 15 50 q1 11 3 17 l8 45 q0 33 13 46 q26 28 90 28 l10 0 l86 -8 l41 0 l129 10 q46 0 72 -26 q26 -26 26 -44 q0 -18 -12 -61 l-12 -43 q-10 -20 -29 -94 q-19 -74 -29 -109 l-43 -133 l-57 -139 q-45 -112 -45 -116 q0 -5 -3 -12 q-3 -7 -9 -34 q-6 -27 -11 -41 l-49 -147 q-29 -89 -55 -129 q-92 -146 -268 -154 l-31 0 q-14 0 -49 2 q-35 2 -51 0 l-93 -4 q-74 0 -124 10 q-78 16 -78 111 q0 10 3 53 q3 43 1 61 l-4 64 q-6 91 46 125 q18 12 27 12 l9 0 q31 -2 45 -10 q14 -8 32 -8 q27 0 27 26 l0 4 q-2 25 -17 56 q-15 31 -49 119 q-34 88 -55 126 q-23 39 -37 77 q-14 38 -38 94 q-24 56 -33 86 q-8 29 -38 94 q-30 65 -30 100 q0 79 119 86 l26 0 l82 -8 l54 -2 l131 6 q35 0 52 -20 q17 -20 41 -83 q24 -62 23 -85 l19 -66 q14 -43 17 -76 q3 -33 10 -49 l8 -45 Z" /><glyph glyph-name="" unicode="z" d="M913 382 l-6 -138 l0 -47 l6 -80 q0 -121 -75 -121 l-58 2 l-51 -2 l-16 0 l-47 -2 l-129 6 l-322 0 q-35 -2 -99 -2 q-64 0 -87 41 q-7 14 -7 37 q0 23 1 98 l-5 64 q0 66 43 108 q11 12 43 39 q32 27 46 45 l63 82 q94 123 94 141 q0 29 -28 29 l-39 -2 q-2 0 -58 6 l-35 0 q-16 -2 -47 -2 q-49 0 -53 100 l0 52 l2 47 l0 135 q2 45 27 72 q25 27 65 26 l123 -10 l37 0 l150 8 l43 0 q41 0 155 -8 l37 0 l70 6 l39 0 l43 2 q63 0 51 -131 q-4 -29 0 -51 q4 -22 4 -33 q0 -115 -31 -153 q-30 -38 -54 -78 q-24 -40 -34 -54 q-10 -14 -34 -45 q-24 -31 -50 -67 q-26 -36 -26 -62 q0 -26 30 -24 l33 2 l31 0 l96 8 q20 0 40 -14 q20 -14 19 -30 Z" /><glyph glyph-name="" unicode="{" d="M649 1370 q158 0 191 -12 q51 -21 51 -127 l0 -76 l4 -70 q0 -74 -39 -100 q-26 -20 -106 -20 q-80 1 -94 -23 q-14 -24 -13 -70 l8 -133 q0 -47 -13 -66 q-13 -19 -49 -35 q-36 -16 -36 -42 q0 -27 39 -44 q39 -17 49 -38 q10 -21 10 -61 l-8 -136 q0 -47 14 -67 q14 -25 68 -25 q111 1 141 -27 q30 -28 29 -92 l-4 -71 l0 -72 q0 -106 -51 -127 q-33 -12 -203 -12 q-170 0 -287 35 q-96 31 -123 112 q-20 76 -20 135 l4 148 q0 139 -37 164 q-4 4 -39 20 q-59 35 -59 117 l0 84 q0 57 30 92 q8 8 60 37 q45 22 45 170 l-4 145 q0 127 51 193 q76 94 391 94 Z" /><glyph glyph-name="" unicode="|" d="M287 1366 l450 0 l0 -1706 l-450 0 l0 1706 Z" /><glyph glyph-name="" unicode="}" d="M51 1231 q0 106 51 127 q35 12 206 12 q172 0 274 -32 q102 -32 133 -117 q20 -66 20 -138 l-4 -145 q0 -141 37 -166 l6 -2 q9 -9 33 -18 q59 -31 59 -113 l0 -84 q0 -59 -30 -94 q-10 -10 -58 -34 q-48 -24 -47 -173 l4 -145 q2 -49 -13 -105 q-15 -56 -38 -86 q-76 -94 -391 -94 q-158 0 -191 12 q-51 20 -51 127 l0 72 l-4 71 q0 72 33 96 q34 24 112 23 q78 1 92 25 q14 24 15 67 l-8 136 q0 47 11 63 q11 16 44 35 q43 18 43 45 q0 27 -39 44 q-39 17 -49 37 q-10 20 -10 62 l8 133 q0 49 -15 71 q-15 22 -67 22 q-113 1 -141 29 q-28 28 -29 91 l4 70 l0 76 Z" /><glyph glyph-name="" unicode="~" d="M1159 1321 q0 -75 -112 -162 q-33 -27 -87 -53 q-54 -26 -104 -29 l-12 0 q-41 2 -107 32 q-67 30 -104 57 q-37 26 -89 42 q-52 16 -84 17 q-32 1 -79 -73 q-25 -40 -54 -40 q-35 0 -61 65 q-8 22 -16 37 l-21 41 q-43 85 -43 129 q0 76 113 162 q23 20 81 51 q58 31 98 31 q40 0 75 -14 q35 -14 69 -26 q34 -12 64 -30 q132 -77 179 -77 q46 0 77 41 q8 10 29 40 q21 30 48 31 q37 0 60 -64 q9 -22 17 -38 l20 -41 q43 -86 43 -129 Z" /><glyph glyph-name="" unicode="¡" d="M420 1083 l-27 0 q-43 -2 -82 -2 l-16 0 q-23 2 -37 2 l-76 -4 q-6 -1 -18 9 q-12 10 -18 23 q-6 13 -5 75 l-2 98 q0 51 33 72 q27 14 41 14 l117 0 l37 2 l6 0 q27 -2 142 -2 q115 0 116 -76 l0 -47 q2 -41 2 -81 q0 -40 -8 -54 q-7 -14 -23 -26 q-16 -12 -27 -11 q-124 8 -155 8 ZM401 -4 q-29 2 -61 2 q-32 0 -51 -2 l-49 0 q-72 0 -107 37 q-25 31 -43 67 q-34 71 -4 265 q4 16 31 116 q6 31 10 154 l2 61 l-2 37 l8 113 q5 104 21 138 q16 34 90 34 q35 0 61 -2 l60 -4 l149 0 q30 2 56 2 q26 0 41 -29 q15 -29 16 -53 l4 -98 q4 -76 22 -205 l19 -281 l20 -184 q0 -100 -71 -150 q-37 -24 -68 -24 l-154 6 Z" /><glyph glyph-name="" unicode="¢" d="M365 27 l0 116 q0 12 -33 21 q-78 35 -127 94 q-8 8 -19 16 q-86 74 -104 117 q-41 87 -54 153 q-14 66 -14 142 q0 76 39 180 q27 88 142 224 q63 68 155 108 q25 10 29 16 q0 41 2 117 q0 39 45 39 q6 0 14 -2 l129 0 q55 0 67 -11 q12 -11 15 -24 l0 -88 q-2 -4 1 -6 q3 -2 28 -3 q25 -1 84 -2 q58 -2 82 -26 q24 -24 24 -53 l-2 -119 l2 -166 q-2 -88 -73 -88 l-101 4 q-102 0 -143 -22 q-49 -31 -49 -98 q0 -67 47 -97 q25 -10 41 -10 l53 -2 l8 0 q16 -4 60 -4 l26 0 l54 4 q33 1 54 -21 q21 -22 21 -51 l-8 -100 l0 -37 l8 -125 q0 -109 -158 -114 q-58 -1 -63 -7 q-4 -6 -4 -10 l2 -78 q0 -12 -14 -26 q-14 -14 -31 -15 l-59 4 q-135 2 -152 9 q-24 21 -24 41 Z" /><glyph glyph-name="" unicode="£" d="M977 1346 q31 -18 31 -68 q0 -50 -8 -100 q-8 -48 -13 -105 q0 -82 -18 -98 q-19 -17 -37 -17 q-18 0 -127 13 q-39 2 -77 2 q-38 1 -71 -19 q-33 -20 -33 -69 q0 -49 9 -59 q8 -10 106 -9 l54 2 q35 -4 45 -53 l0 -203 q-6 -37 -39 -39 q-11 0 -31 1 q-20 1 -57 -3 l-33 -4 q-6 -6 -6 -14 q4 -70 2 -78 l-8 -66 q0 -6 7 -12 q7 -6 13 -6 l59 0 l5 -2 l28 -2 q10 -2 42 -2 q32 0 153 14 l12 0 q76 0 76 -86 l-2 -100 q2 -26 2 -82 q0 -56 -39 -74 q-68 -26 -165 -26 q-97 0 -259 11 q-162 11 -213 11 q-51 0 -154 -4 l-120 -18 q-43 0 -54 34 q-10 40 -10 94 q0 54 2 95 l-2 80 q0 20 9 27 q9 7 76 35 q67 28 67 110 q0 45 -17 55 q-2 2 -86 2 q-31 0 -30 43 l0 10 q0 39 4 51 l0 9 l-11 135 q0 33 25 49 q10 4 32 5 q22 1 21 10 q0 10 -3 16 q-3 6 -11 133 q0 172 90 274 q25 29 80 61 q55 32 127 52 q72 20 203 22 l94 2 q12 -4 33 -4 q36 -6 65 -6 q152 -27 162 -30 Z" /><glyph glyph-name="" unicode="¤" d="M944 690 q-6 59 -6 77 q0 18 -37 71 q-37 53 -73 74 q-36 21 -99 26 q-88 -6 -106 -10 q-55 -23 -87 -62 q-32 -39 -38 -51 l-13 -35 q-20 -43 -21 -50 q-1 -7 -1 -44 l-6 -27 l8 -43 l2 -26 l20 -37 q12 -35 21 -43 q71 -82 165 -82 q95 0 146 24 q51 24 109 113 q10 16 14 86 l2 39 ZM1020 160 q-8 8 -26 8 q-18 0 -98 -37 q-81 -37 -159 -37 q-177 0 -245 38 q-68 38 -85 38 q-17 0 -38 -20 q-21 -20 -88 -93 q-31 -33 -60 -33 q-29 0 -40 11 q-11 10 -18 18 q-7 7 -21 21 q-14 14 -25 28 q-53 48 -65 64 q-12 16 -13 43 q0 27 35 57 q80 80 98 96 q31 29 -3 94 q-34 66 -45 102 q-11 36 -11 101 q0 162 69 287 q6 16 6 30 q0 14 -28 36 q-28 20 -66 62 q-39 42 -43 44 q-14 20 -14 43 q0 23 18 43 l11 8 q24 30 64 68 q40 39 54 49 q14 10 36 10 q22 0 44 -16 q2 -4 86 -84 q35 -47 56 -47 q22 0 59 20 q37 20 109 36 q135 29 262 -1 q59 -13 96 -33 q38 -20 58 -20 q20 0 61 47 q86 98 129 98 q25 0 57 -32 l47 -41 q47 -55 60 -72 q33 -44 -7 -82 q-23 -27 -74 -72 q-51 -45 -51 -75 q0 -12 38 -85 q38 -74 38 -170 q0 -176 -49 -255 q-20 -39 -20 -55 q0 -16 9 -28 q8 -14 26 -28 q18 -14 56 -54 q38 -40 46 -51 q8 -11 8 -35 q0 -24 -16 -40 q-16 -16 -56 -64 q-60 -57 -74 -66 q-14 -9 -38 -9 q-24 0 -58 34 l-67 62 l-35 39 Z" /><glyph glyph-name="" unicode="¥" d="M94 397 q-78 0 -86 64 q0 29 -2 80 l-4 121 q0 16 10 42 q10 26 18 31 q8 7 36 17 q29 10 36 10 l74 -4 q4 0 13 11 q9 11 9 22 q0 11 -20 39 q-20 28 -39 69 l-98 219 q-70 131 -74 152 q-8 16 -8 30 q0 51 41 68 q6 4 76 6 l57 -8 l45 4 l21 -2 q63 -2 87 -2 q24 0 105 6 q31 -14 49 -33 q6 -8 29 -79 q2 -20 55 -125 q54 -117 64 -128 q10 -11 24 -12 q29 0 86 113 q20 37 70 113 q49 100 59 110 q40 39 93 39 l26 -2 l17 -2 l94 2 l80 0 q49 6 67 6 q90 0 90 -69 q0 -29 -10 -54 l-24 -45 l-21 -49 q-49 -73 -69 -121 q-20 -48 -80 -149 q-62 -101 -62 -109 q0 -20 29 -20 l24 0 q6 2 25 2 q113 0 113 -62 l-2 -116 q6 -98 6 -115 q0 -17 -11 -37 q-20 -37 -65 -37 l-57 4 l-138 0 q-70 0 -82 -12 q-16 -23 -16 -170 l14 -115 q0 -45 -16 -77 q-16 -32 -68 -31 l-92 8 l-88 -4 l-6 0 q-8 4 -35 4 l-18 0 l-74 -4 q-8 -2 -22 -2 q-45 0 -68 29 q-23 29 -23 57 l21 98 q0 182 -8 201 q-9 19 -71 19 q-62 0 -134 1 l-25 0 q-16 0 -22 -2 l-25 0 Z" /><glyph glyph-name="" unicode="¦" d="M287 313 l450 0 l0 -653 l-450 0 l0 653 ZM287 1366 l450 0 l0 -756 l-450 0 l0 756 Z" /><glyph glyph-name="" unicode="§" d="M657 539 q0 43 -83 82 q-83 39 -112 56 q-28 17 -38 17 q-10 0 -27 -24 q-10 -16 -10 -42 q0 -49 125 -96 q34 -16 62 -32 q28 -16 44 -17 q16 1 28 19 q11 18 11 37 ZM868 1067 q-21 -29 -48 -29 q-27 0 -75 9 l-49 8 q-94 20 -122 20 q-57 0 -60 -41 q0 -27 59 -57 q1 0 11 -4 l29 -12 q19 -8 38 -17 l51 -22 q150 -61 228 -145 q78 -83 78 -210 q0 -66 -20 -115 q-20 -49 -42 -73 q-2 -4 -35 -38 q-33 -34 -33 -43 q0 -9 7 -22 q39 -80 39 -172 q0 -92 -35 -153 q-78 -129 -180 -168 q-45 -18 -168 -35 q-57 -4 -113 -4 q-56 0 -168 22 q-110 22 -138 51 q-28 29 -28 69 q0 40 6 114 l0 66 q0 31 18 48 q18 17 36 17 q18 0 43 -6 q175 -55 237 -55 q62 0 89 24 q27 24 -1 41 q-22 22 -167 86 q-146 65 -181 98 q-129 131 -129 271 q1 58 25 118 q24 60 44 89 q20 29 56 61 q20 20 20 30 q0 10 -8 25 q-47 78 -47 154 q0 127 90 211 q121 115 367 115 q117 1 202 -29 q85 -30 95 -40 q10 -10 10 -24 l-10 -159 q0 -45 -21 -74 Z" /><glyph glyph-name="" unicode="¨" d="M905 1231 l-71 6 l-37 0 l-72 -2 q-31 -2 -48 -1 q-17 1 -38 1 l-29 -2 q-26 0 -48 18 q-22 18 -17 66 l2 41 q4 68 15 84 q20 29 128 16 l137 0 l29 2 l23 0 q61 -2 73 -21 q12 -19 17 -102 l0 -32 q-2 -74 -64 -74 ZM88 1239 q-8 0 -20 12 q-12 12 -17 33 l0 16 l6 80 q0 51 17 64 q35 20 86 20 l67 -4 l56 0 l88 -4 l22 2 q47 0 65 -14 q18 -14 19 -74 l0 -63 q0 -43 -29 -58 q-29 -16 -75 -16 l-43 4 l-45 0 l-66 4 q-13 2 -31 -2 q-18 -4 -32 -4 l-62 4 l-6 0 Z" /><glyph glyph-name="" unicode="©" d="M780 264 q-16 0 -106 11 q-90 11 -142 41 q-52 30 -67 46 q-88 110 -100 136 q-13 26 -23 100 q-10 74 -10 133 q0 60 20 103 l21 45 q42 113 196 190 q86 33 225 33 q139 0 160 -35 q14 -14 2 -115 l0 -10 l9 -100 q0 -70 -58 -70 l-49 4 l-39 -4 q-59 0 -83 -5 q-24 -5 -40 -26 q-23 -23 -22 -51 q0 -106 133 -106 l8 2 l64 8 l12 0 q78 0 78 -80 l-4 -80 l8 -94 q0 -76 -193 -76 ZM745 133 q74 12 110 12 q36 0 48 5 l47 26 l47 21 l43 30 l45 25 l33 43 l43 33 l25 51 l28 43 l21 51 l22 47 q7 12 9 54 q2 42 5 74 q3 32 3 46 q0 76 -41 199 l-14 51 q-3 8 -21 28 q-18 20 -49 62 q-31 41 -111 105 l-39 35 q-18 10 -49 16 q-37 2 -53 8 l-45 23 l-53 0 q-61 12 -87 12 q-26 0 -116 -29 l-49 -14 l-45 -33 q-2 0 -8 -3 q-6 -3 -42 -13 q-36 -10 -45 -22 q-9 -11 -29 -42 q-20 -31 -45 -55 q-24 -24 -26 -33 l-18 -51 q-39 -56 -41 -64 q-35 -149 -35 -159 l0 -4 q4 -7 5 -27 q1 -20 3 -55 q10 -121 64 -203 q8 -8 22 -48 q14 -40 27 -48 l41 -37 l37 -37 l84 -63 q8 -4 51 -19 l49 -16 q104 -29 149 -25 ZM950 4 q-141 -37 -157 -37 q-16 0 -58 12 q-42 12 -51 9 l-70 0 q-66 4 -171 60 q-105 56 -133 76 q-28 20 -85 90 q-57 70 -78 108 q-43 86 -57 112 q-10 27 -27 111 l-16 78 l2 59 q2 88 5 104 q3 16 34 101 q14 75 34 113 q20 38 38 67 q29 39 55 63 l41 58 l55 39 q53 51 109 83 q56 32 63 29 q69 25 95 31 q26 6 78 8 q52 2 86 12 q33 10 38 11 l107 -23 l67 -8 l62 -33 q68 -29 94 -49 q44 -27 80 -60 q36 -34 62 -54 q26 -20 37 -31 q11 -11 34 -67 q23 -56 59 -112 q36 -56 37 -73 l8 -70 l19 -69 l-4 -70 l4 -72 q0 -12 -12 -48 q-12 -36 -23 -84 q-10 -46 -22 -66 l-35 -60 q-27 -65 -38 -80 q-65 -85 -111 -122 q-46 -38 -126 -101 q-3 1 -21 -7 q-18 -8 -108 -38 Z" /><glyph glyph-name="" unicode="ª" d="M401 719 q0 20 -45 22 l-18 0 q-16 0 -26 -9 q-10 -9 -9 -19 q0 -27 23 -23 l24 2 q51 0 51 27 ZM311 909 q-18 0 -55 -4 l-76 -12 q-16 0 -33 16 q-6 8 -6 68 l-2 35 q0 29 58 39 l22 4 l10 2 l23 2 l47 0 q14 2 33 2 l30 0 q76 -4 119 -8 q43 -4 82 -29 q39 -24 63 -58 q24 -34 24 -78 q0 -44 -3 -67 l2 -80 l-4 -90 q-2 -14 -2 -28 l0 -5 q6 -12 6 -36 q0 -24 -15 -34 q-15 -11 -28 -11 l-33 2 l-81 0 q-16 -2 -33 -2 q-25 0 -29 36 l-4 0 l-25 -16 q-63 -31 -94 -27 l-43 2 q-37 4 -71 17 q-43 10 -66 35 q-59 58 -59 122 q0 64 49 115 q15 19 31 27 q16 8 63 20 q47 12 76 15 l20 0 l19 -2 l22 0 q36 -6 51 -11 q12 0 13 9 q0 30 -101 30 Z" /><glyph glyph-name="" unicode="«" d="M334 125 q-27 0 -121 94 l-12 10 l-23 23 q-4 4 -13 11 q-9 7 -13 11 q-4 4 -8 6 q-4 2 -8 8 q-6 6 -36 30 q-30 24 -38 40 q-8 16 -7 97 l0 90 l-4 157 q0 33 21 54 q2 4 91 86 q89 82 115 108 q26 25 50 25 q41 0 41 -37 l-2 -49 l2 -51 l0 -27 l-2 -25 l-2 -67 l2 -64 q1 -31 -9 -40 q-10 -9 -94 -48 q-14 -8 -14 -23 q0 -14 47 -36 q47 -22 59 -31 q12 -9 13 -33 l-4 -125 l4 -137 q-1 -25 -11 -41 q-10 -16 -24 -16 ZM717 125 q-27 0 -121 94 q-25 25 -84 74 q-59 49 -68 63 q-6 19 -6 99 l0 90 q0 57 -4 119 l0 38 q0 32 12 46 q12 14 172 161 l31 31 q35 35 62 35 q39 0 39 -37 l0 -49 l2 -51 l-2 -27 l0 -25 l-5 -67 l5 -64 q0 -31 -13 -43 q-63 -31 -92 -45 q-14 -8 -14 -23 q0 -16 46 -36 q46 -20 54 -26 q17 -12 19 -38 l0 -28 q-4 -57 -5 -97 l7 -137 q0 -25 -10 -41 q-10 -16 -25 -16 Z" /><glyph glyph-name="" unicode="¬" d="M518 0 l0 229 l-450 0 l0 392 l886 0 l0 -621 l-436 0 Z" /><glyph glyph-name="" unicode="®" d="M676 766 l0 -39 q0 -27 26 -27 q50 0 72 22 q22 22 22 48 q0 25 -12 37 q-14 12 -42 15 q-28 3 -41 3 q-13 0 -19 -9 q-6 -9 -6 -50 ZM399 614 q4 62 4 120 q0 58 -10 177 l0 60 q-2 18 -2 37 q0 59 39 73 q37 17 135 17 l121 0 q147 0 184 -11 q121 -23 177 -139 q43 -76 43 -146 q0 -70 -18 -120 q-18 -50 -30 -68 q-14 -18 -34 -36 q-20 -18 -21 -21 q0 -16 60 -20 q27 -4 26 -58 l0 -8 q-4 -20 -4 -76 l4 -57 q0 -20 -9 -38 q-9 -18 -22 -21 q-72 -11 -87 -9 q-15 2 -79 36 q-64 34 -110 70 q-45 36 -66 36 q-21 0 -20 -31 l10 -59 q0 -14 -12 -33 q-12 -19 -37 -19 l-88 0 l-49 4 l-43 -4 q-66 0 -66 60 l6 92 q0 14 -2 45 l-4 55 q0 16 2 35 l2 57 ZM1274 715 q0 14 -18 90 q-18 76 -27 90 l-31 43 l-18 51 q-8 16 -34 43 q-26 28 -42 54 q-16 26 -25 30 q-8 12 -48 24 q-40 12 -48 19 l-43 33 l-49 12 q-85 31 -115 31 q-30 0 -90 -14 l-51 0 l-47 -21 q-14 -4 -40 -8 q-62 -10 -61 -18 l-38 -33 q-66 -51 -128 -130 q-13 -19 -33 -41 q-20 -22 -20 -26 l-14 -51 q-41 -123 -41 -199 l8 -90 q0 -69 8 -82 l25 -49 l18 -51 l29 -43 l25 -51 l43 -33 l30 -43 l47 -25 l43 -30 l48 -21 l47 -26 q16 -4 52 -4 q36 0 103 -13 q114 11 155 26 q42 15 66 22 q24 7 31 12 l39 32 l45 31 l37 37 l41 37 q9 8 21 38 q12 30 55 103 q35 84 37 158 l4 53 q0 19 4 29 l0 4 ZM792 -35 l-110 21 l-68 0 q-53 14 -104 28 q-111 41 -199 121 l-55 41 l-41 57 q-51 55 -73 93 q-22 38 -36 67 l-10 43 l-8 41 q-33 79 -34 93 q-1 14 -5 110 l-2 61 l16 78 q17 85 25 103 q8 18 28 56 l31 62 q27 40 41 58 q14 18 50 65 q36 47 60 67 q24 20 185 107 q80 41 149 41 q68 0 108 10 q40 10 54 11 q16 0 122 -32 q106 -32 163 -54 q117 -88 156 -127 q39 -39 74 -88 q12 -12 45 -88 l35 -58 q12 -20 20 -67 q14 -51 18 -66 q23 -55 19 -67 l-4 -72 l4 -70 l-19 -67 l-8 -70 q3 -11 -35 -71 q-38 -60 -61 -115 q-23 -55 -39 -71 q-16 -16 -50 -42 q-34 -26 -48 -43 q-48 -41 -76 -59 q-28 -18 -94 -47 l-62 -29 l-67 -8 q-79 -23 -95 -23 Z" /><glyph glyph-name="" unicode="¯&#x2c9;" d="M844 1454 q35 0 44 -10 q9 -10 9 -47 l-6 -60 l4 -55 q0 -42 -28 -47 q-11 -2 -36 -2 l-69 0 l-111 -2 l-73 6 l-66 -4 l-94 2 l-56 -4 l-106 6 l-84 -4 q-47 0 -47 29 l0 2 q0 8 4 20 l0 49 l2 35 l-2 31 l0 22 q4 33 51 33 l107 -4 q43 0 63 3 q20 3 72 1 l164 -4 l221 4 l37 0 Z" /><glyph glyph-name="" unicode="°" d="M416 999 q18 -59 76 -59 q58 0 80 18 q44 37 44 86 l2 17 l-4 33 q0 8 -8 22 q-8 6 -10 17 q-31 43 -76 42 q-82 -2 -106 -73 q-8 -18 -8 -41 l-3 -12 q2 -12 3 -27 l10 -23 ZM604 729 q-78 -10 -128 -10 q-50 0 -143 39 q-93 39 -134 131 q-35 75 -35 149 q0 74 18 127 q18 53 29 73 q10 20 51 62 q41 42 45 46 q89 55 213 55 q32 0 81 -9 q50 -9 74 -23 q24 -14 36 -22 q12 -8 20 -15 q8 -7 29 -25 l16 -17 q8 -10 18 -21 q10 -11 13 -17 q4 -6 4 -7 q0 -2 2 -7 q2 -5 6 -13 q4 -8 8 -17 l13 -22 q14 -49 14 -74 q6 -39 6 -49 l-2 -33 q0 -68 -35 -141 q-35 -78 -129 -127 q-39 -23 -90 -33 Z" /><glyph glyph-name="" unicode="±" d="M418 406 q55 0 106 -3 l82 0 q4 0 123 5 l78 -2 l67 2 q49 0 78 -29 q16 -20 17 -39 l-2 -131 q8 -98 8 -125 q0 -27 -12 -45 q-25 -39 -72 -39 l-68 0 q-9 2 -79 2 q-70 0 -123 -2 l-181 0 q-68 0 -159 2 l-101 0 q-18 -2 -50 -2 q-32 0 -50 22 q-20 22 -23 50 l-4 90 l-2 139 q0 18 10 46 q11 27 25 39 q14 12 80 22 l149 -5 q25 0 64 3 l39 0 ZM315 717 q0 8 -59 12 l-53 0 l-72 -2 q-78 0 -78 100 l4 113 l-2 98 q0 55 35 72 q23 14 60 16 l75 0 l41 2 l33 -2 l6 -2 q14 0 17 15 l0 53 q0 16 8 51 q0 73 10 93 q10 20 39 20 l55 -4 l60 2 l22 0 q10 -2 33 -2 l24 0 q27 2 75 2 q77 0 77 -94 l-14 -120 q0 -22 14 -22 l184 0 q25 0 43 -24 q18 -24 19 -58 q0 -35 -8 -100 l0 -4 l6 -119 q1 -47 -19 -64 q-20 -17 -61 -18 l-31 0 q-22 2 -48 2 q-26 0 -65 -1 q-39 -1 -38 -13 l4 -156 q0 -23 -29 -45 q-29 -22 -61 -22 l-9 0 q-16 4 -65 4 l-72 0 l-37 2 q-51 0 -71 4 q-41 8 -52 59 q-4 37 -4 117 l4 35 Z" /><glyph glyph-name="" unicode="²" d="M197 995 q-37 0 -81 -3 q-44 -4 -66 18 q-21 22 -21 49 l4 28 q9 110 65 162 q33 39 54 54 q59 37 88 49 q29 12 75 18 l45 10 q48 0 56 2 l35 0 q16 0 34 -2 q84 0 164 -39 q65 -21 96 -61 q6 -4 40 -36 q59 -54 61 -109 l6 -68 l-2 -12 q-6 -72 -49 -117 q-11 -11 -21 -24 q-21 -25 -137 -99 l29 -6 q12 0 24 2 l66 0 q18 2 56 2 q38 0 60 -24 q22 -24 21 -48 l-2 -100 l2 -35 q0 -63 -94 -63 q-12 0 -141 6 l-39 -4 l-90 2 l-86 -4 q-98 8 -121 8 l-29 0 q-67 -6 -99 -6 q-32 0 -67 10 q-23 10 -29 33 q-2 6 -2 35 l0 28 q-2 31 -2 59 q0 28 25 50 q6 4 42 18 q35 14 73 38 q38 24 49 26 q19 18 31 28 q12 10 92 60 q23 14 44 50 q42 69 -1 105 q-23 17 -57 17 q-34 0 -49 -10 q-15 -10 -36 -43 q-2 -8 -14 -45 q-12 -12 -33 -13 l-47 4 l-22 0 Z" /><glyph glyph-name="" unicode="³" d="M84 721 q-2 20 -2 45 q0 25 18 38 q18 13 34 13 q16 0 43 -9 q28 -9 75 -20 l72 -4 q62 -4 86 -4 q24 0 51 14 q27 14 27 34 q0 20 -25 32 q-48 8 -88 8 l-19 0 q-14 -2 -34 -2 q-54 0 -54 45 l0 76 l-4 43 q0 23 18 37 q18 14 46 14 q27 0 37 -2 l57 -6 q14 2 28 12 q13 11 13 23 q0 28 -76 29 q-33 6 -41 6 l-47 -4 q-35 -1 -69 -7 q-34 -6 -46 -6 q-55 0 -61 43 l-4 23 l2 61 l-2 47 q0 32 16 46 q16 14 65 20 q49 6 70 6 l19 0 q16 -2 29 -2 q13 0 34 2 l25 0 q144 0 207 -14 q64 -14 141 -62 q86 -62 86 -158 q0 -42 -6 -58 q-7 -16 -25 -37 q-18 -21 -38 -33 q-20 -12 -19 -20 q0 -8 37 -21 q14 -10 43 -37 q29 -35 31 -47 l12 -49 q8 -28 8 -48 q0 -76 -29 -106 q-57 -73 -116 -95 q-7 -3 -51 -25 q-44 -22 -72 -26 q-28 -4 -189 -8 q-99 2 -133 8 q-34 6 -99 14 q-65 10 -75 28 q-10 18 -10 43 l4 84 l0 16 Z" /><glyph glyph-name="" unicode="´" d="M743 1444 l68 2 l20 0 q49 -2 50 -47 q1 -25 -13 -35 q-14 -10 -40 -18 q-26 -8 -50 -16 q-24 -6 -56 -18 q-32 -12 -46 -16 l-86 -24 q-2 0 -64 -22 q-62 -22 -98 -21 l-61 4 l-54 -2 q-33 0 -32 24 q0 24 73 141 q31 46 70 48 l12 0 q115 -6 164 -2 l57 2 l86 0 Z" /><glyph glyph-name="" unicode="µ" d="M958 0 q-74 -6 -112 -6 q-38 0 -66 22 q-10 10 -30 62 q-4 4 -14 4 q-10 0 -50 -45 q-31 -25 -65 -37 q-94 -23 -179 -27 q-45 -2 -45 -30 q0 -18 21 -95 l6 -65 q6 -69 6 -87 q0 -18 -16 -23 q-16 -5 -144 -5 l-96 0 q-129 0 -144 6 q-15 6 -16 21 l2 22 q2 63 14 121 q41 205 42 426 l-4 139 l0 48 q2 12 2 28 q0 16 -4 58 l6 90 l0 104 l-2 92 q0 20 2 41 l-2 152 q0 43 32 69 q23 23 72 23 l117 -8 l18 0 q53 6 70 6 q17 0 35 -2 l10 0 l51 4 q43 0 80 -31 q23 -23 23 -59 q0 -36 -7 -125 l2 -109 q0 -14 -6 -47 q-6 -33 -6 -79 q0 -46 11 -92 q11 -48 16 -60 q14 -31 49 -31 q35 0 49 31 q16 29 19 51 l2 53 l6 33 l-4 139 l10 148 l-8 104 q0 40 22 58 q22 18 49 18 l47 -4 q7 -2 25 -2 q18 0 31 2 l63 4 q38 0 56 -4 l6 0 l112 8 q51 0 80 -34 q29 -34 25 -60 l-17 -131 l-4 -133 l11 -209 l-9 -98 l2 -105 l-6 -156 l17 -131 q-2 -17 -26 -39 q-24 -22 -71 -22 l-166 4 Z" /><glyph glyph-name="" unicode="¶" d="M739 1020 l-24 0 q-35 0 -41 -12 q-4 -16 -4 -55 q0 -39 -6 -158 l4 -60 l0 -143 l4 -86 l-2 -94 q4 -139 4 -168 l-6 -146 l4 -102 l-4 -84 l2 -84 q0 -29 -11 -39 q-8 -6 -28 -6 l-168 0 q-37 0 -41 9 q-4 9 -8 106 l4 96 l0 137 q2 14 2 41 q0 27 -8 125 l0 2 l2 15 l2 28 q2 25 2 113 l-4 96 l4 70 q0 20 -12 27 q-12 7 -68 14 q-111 29 -127 40 q-156 104 -156 306 q0 202 154 295 q109 66 336 65 q6 0 125 -4 l53 0 q23 0 106 6 l72 -4 l72 6 l69 -8 l41 4 q18 0 29 -10 q6 -10 6 -48 q0 -38 -6 -71 l0 -6 l6 -176 q0 -23 -8 -31 q-6 -2 -35 -5 q-29 -3 -34 -14 q-5 -11 -7 -104 l8 -108 l-4 -33 q-4 -45 -4 -47 l2 -92 l-4 -70 l2 -72 l-2 -69 l6 -70 l-6 -70 l8 -73 l-2 -68 l2 -96 l-4 -82 q2 -47 2 -97 q0 -50 -6 -62 q-6 -12 -31 -11 l-90 2 l-84 -2 q-29 0 -39 12 q-2 4 -8 129 l6 72 l0 67 l2 68 l-6 96 l0 2 l2 16 l2 27 q2 14 2 39 l-8 142 l4 88 l-2 82 l4 69 l-4 70 l0 139 l2 78 q0 25 -8 33 q-8 8 -37 8 Z" /><glyph glyph-name="" unicode="·&#x2219;&#x22c5;" d="M850 768 q59 -29 59 -96 l0 -54 q-2 -24 -2 -82 q0 -58 2 -81 l0 -54 q0 -57 -49 -92 q-20 -12 -51 -12 l-70 0 q-27 -2 -53 -2 l-20 0 q-25 2 -41 2 l-133 -2 q-41 0 -56 31 q-4 6 -12 43 q-8 37 -8 45 l6 82 l-6 45 l6 45 l-6 73 q0 45 18 89 q13 24 58 30 l133 -2 q35 2 119 2 q85 0 106 -10 Z" /><glyph glyph-name="" unicode="¸" d="M479 -45 q0 20 -8 45 l125 0 l0 -45 q0 -37 13 -49 q13 -12 31 -28 q18 -16 34 -34 q14 -20 14 -65 q0 -82 -63 -108 q-63 -25 -105 -25 q-42 0 -47 2 q-10 3 -43 6 q-33 3 -70 29 q-35 27 -24 100 l4 35 q4 40 25 52 q19 13 29 13 q10 0 40 -6 l15 0 q16 0 24 7 q8 7 8 48 l-2 15 l0 8 Z" /><glyph glyph-name="" unicode="¹" d="M735 1036 l-8 -118 q0 -45 2 -117 l-6 -94 q0 -43 7 -79 q7 -36 7 -52 q0 -16 -18 -26 q-18 -9 -94 -9 l-70 -2 l-47 4 l-16 0 l-62 -4 q-33 0 -50 16 q-18 17 -18 31 q0 14 6 40 q6 26 7 56 l-4 68 l0 18 l8 133 q0 8 -4 49 q6 57 6 64 q0 25 -23 24 q-20 0 -45 -18 q-35 -33 -52 -33 q-17 0 -29 8 q-12 8 -50 47 q-35 27 -59 52 q-17 24 -17 38 q0 14 19 33 l70 37 l32 25 q45 27 87 61 q42 34 98 72 q20 10 67 10 l76 -4 l14 0 l62 4 l24 0 q86 0 86 -88 l-14 -127 l8 -119 Z" /><glyph glyph-name="" unicode="º" d="M385 844 l-14 0 q-27 0 -35 -4 q-43 -20 -43 -52 q0 -32 29 -40 q38 -16 61 -13 q68 10 68 51 q0 26 -28 42 q-28 16 -38 16 ZM45 791 q0 73 49 141 q49 68 123 98 q75 30 119 31 q44 0 80 -2 l45 -10 q96 -12 160 -88 q31 -29 38 -49 q7 -20 20 -42 q13 -24 13 -93 q0 -69 -37 -120 q-37 -51 -45 -57 q-8 -6 -26 -18 q-20 -12 -36 -28 q-42 -36 -163 -36 l-27 0 q-80 0 -133 24 q-53 24 -57 27 l-21 21 q-22 19 -41 41 q-41 41 -49 98 q-12 41 -12 62 Z" /><glyph glyph-name="" unicode="»" d="M498 975 q27 0 118 -94 q14 -15 80 -69 q66 -54 72 -70 q6 -16 6 -97 l0 -90 q0 -57 4 -119 l0 -39 q0 -33 -11 -46 q-11 -13 -93 -88 q-82 -75 -114 -107 q-32 -32 -56 -31 q-41 0 -41 37 l2 51 l-2 49 l0 29 l2 22 l2 68 l-2 63 q0 29 10 43 q63 31 92 45 q14 8 15 25 q0 16 -54 40 q-54 24 -60 35 q-5 11 -5 23 l4 127 l-4 136 q0 57 35 57 ZM117 975 q27 0 119 -94 q2 -2 63 -56 l27 -22 q55 -45 61 -61 q6 -16 6 -97 l0 -90 q0 -49 4 -119 l0 -39 q0 -33 -16 -51 q-16 -18 -168 -156 q-6 -10 -31 -30 q-35 -35 -59 -35 q-41 0 -41 37 l2 51 l-2 49 l0 29 l2 22 l2 68 l-2 63 q0 29 10 43 q63 31 92 45 q14 8 15 25 q0 16 -54 40 q-54 24 -61 36 q-4 12 -4 22 l4 127 l-4 136 q0 57 35 57 Z" /><glyph glyph-name="" unicode="¼" d="M1819 549 q-1 8 -7 8 q-6 0 -24 -27 l-2 -2 q-2 -4 -8 -10 q-6 -6 -18 -24 q-12 -19 -38 -49 q-26 -30 -26 -49 q0 -19 39 -19 l22 0 q45 0 51 4 q13 9 13 57 l-4 58 q0 18 2 49 l0 4 ZM1790 825 l39 0 q65 0 105 -3 q40 -3 122 -1 q53 -4 76 -20 q16 -15 20 -31 l7 -131 l0 -90 l2 -37 q-7 -80 -7 -108 q0 -28 13 -35 q6 -2 22 -7 q39 -2 39 -30 l0 -90 q4 -55 2 -72 q0 -31 -41 -35 l-28 -4 q-4 -4 -4 -16 q0 -12 2 -35 l4 -33 q-1 -13 -23 -31 q-22 -18 -80 -18 q-58 0 -78 2 l-8 0 q-54 -4 -104 -4 q-50 0 -66 22 q-12 23 -12 36 q0 13 8 48 l0 13 q0 29 -28 28 l-60 0 l-37 -2 l-35 2 l-61 -2 l-86 9 q-77 0 -101 13 q-24 13 -24 41 q0 28 2 42 l0 16 l-4 84 q0 27 10 43 q10 9 18 19 q8 10 19 20 l57 64 l66 83 l84 99 q61 84 82 104 q47 47 88 47 ZM1595 1371 q29 -3 29 -27 q0 -24 -14 -53 q-14 -29 -94 -163 l-54 -92 l-69 -137 l-166 -297 q-139 -246 -163 -292 q-24 -46 -43 -73 q-18 -27 -63 -115 q-45 -87 -63 -106 q-24 -18 -51 -18 l-139 0 q-51 -2 -52 31 q0 4 68 133 l170 301 q37 78 139 258 q201 356 250 463 q43 68 72 123 q33 68 67 67 l54 -4 l75 4 q18 0 47 -3 ZM735 1036 l-8 -118 q0 -45 2 -117 l-6 -94 q0 -43 7 -79 q7 -36 7 -52 q0 -16 -18 -26 q-18 -9 -94 -9 l-70 -2 l-47 4 l-16 0 l-62 -4 q-33 0 -50 16 q-18 17 -18 31 q0 14 6 40 q6 26 7 56 l-4 68 l0 18 l8 133 q0 8 -4 49 q6 57 6 64 q0 25 -23 24 q-20 0 -45 -18 q-35 -33 -52 -33 q-17 0 -29 8 q-12 8 -50 47 q-35 27 -59 52 q-17 24 -17 38 q0 14 19 33 l70 37 l32 25 q45 27 87 61 q42 34 98 72 q20 10 67 10 l76 -4 l14 0 l62 4 l24 0 q86 0 86 -88 l-14 -127 l8 -119 Z" /><glyph glyph-name="" unicode="½" d="M1380 471 q-14 14 -14 56 q0 42 12 81 q29 72 58 97 q80 94 217 120 l45 9 q58 4 88 4 q110 0 201 -43 q53 -17 89 -53 l19 -19 q61 -57 75 -84 q14 -27 13 -51 l2 -45 l2 -23 l-2 -12 q-2 -70 -47 -117 q-8 -8 -15 -17 q-19 -24 -57 -46 q-27 -27 -86 -60 l29 -8 l2 0 l23 4 l63 0 q20 2 55 2 q35 0 62 -22 q23 -23 22 -49 l-2 -101 l2 -35 q0 -61 -96 -61 q-55 0 -139 2 l-129 0 l-86 -2 q-111 6 -121 6 l-104 -4 q-53 0 -82 6 q-39 12 -39 49 l0 49 q-2 31 -2 60 q0 29 15 41 q15 12 52 26 q37 14 66 35 q62 34 76 48 q14 14 102 71 q23 14 44 49 q22 35 22 62 q0 27 -23 43 q-22 16 -58 16 q-36 0 -48 -8 q-12 -8 -35 -43 q-14 -65 -47 -60 q-15 2 -26 3 q-10 1 -20 3 q-10 2 -24 1 l-100 -5 q-25 0 -54 25 ZM1595 1371 q29 -3 29 -27 q0 -24 -14 -53 q-14 -29 -94 -163 l-54 -92 l-69 -137 l-166 -297 q-139 -246 -163 -292 q-24 -46 -43 -73 q-18 -27 -63 -115 q-45 -87 -63 -106 q-24 -18 -51 -18 l-139 0 q-51 -2 -52 31 q0 4 68 133 l170 301 q37 78 139 258 q201 356 250 463 q43 68 72 123 q33 68 67 67 l54 -4 l75 4 q18 0 47 -3 ZM735 1036 l-8 -118 q0 -45 2 -117 l-6 -94 q0 -43 7 -79 q7 -36 7 -52 q0 -16 -18 -26 q-18 -9 -94 -9 l-70 -2 l-47 4 l-16 0 l-62 -4 q-33 0 -50 16 q-18 17 -18 31 q0 14 6 40 q6 26 7 56 l-4 68 l0 18 l8 133 q0 8 -4 49 q6 57 6 64 q0 25 -23 24 q-20 0 -45 -18 q-35 -33 -52 -33 q-17 0 -29 8 q-12 8 -50 47 q-35 27 -59 52 q-17 24 -17 38 q0 14 19 33 l70 37 l32 25 q45 27 87 61 q42 34 98 72 q20 10 67 10 l76 -4 l14 0 l62 4 l24 0 q86 0 86 -88 l-14 -127 l8 -119 Z" /><glyph glyph-name="" unicode="¾" d="M1819 549 q-1 8 -7 8 q-6 0 -24 -27 l-16 -20 q-12 -12 -18 -24 q-6 -12 -32 -41 q-26 -30 -26 -49 q0 -19 39 -19 l22 0 q45 0 51 4 q6 5 10 29 q4 24 3 28 q0 4 -6 47 l0 9 l4 51 l0 4 ZM1790 825 l39 0 q65 0 105 -3 q40 -3 122 -1 q53 -4 76 -20 q16 -15 20 -31 l7 -131 l0 -90 l2 -37 l-7 -74 l0 -18 q0 -43 10 -48 q10 -5 25 -10 q39 -2 39 -26 l-2 -78 l6 -72 q0 -51 -43 -51 l-28 -4 q-4 -4 -4 -16 q0 -12 2 -35 l4 -33 q-1 -13 -23 -31 q-22 -18 -80 -18 q-58 0 -78 2 l-8 0 q-54 -4 -104 -4 q-50 0 -66 22 q-12 23 -12 36 q0 13 8 48 l0 13 q0 29 -28 28 l-60 0 l-37 -2 l-35 2 l-61 -2 l-86 9 q-77 0 -101 13 q-24 13 -24 43 q0 30 2 40 l0 18 l-4 82 q0 27 10 43 q10 9 18 19 q8 10 19 20 l57 64 l66 83 l84 99 q61 84 82 104 q47 47 88 47 ZM1595 1371 q29 -3 29 -27 q0 -24 -14 -53 q-14 -29 -94 -163 l-54 -92 l-69 -137 l-45 -80 l-45 -88 l-76 -129 q-148 -260 -168 -299 q-20 -39 -41 -72 l-45 -86 q-61 -111 -72 -120 q-26 -27 -57 -27 l-139 0 q-51 -2 -52 31 q0 4 68 133 l170 301 q37 78 141 260 q104 182 169 307 q65 125 79 152 q14 26 39 68 q25 42 33 57 q33 68 67 67 l54 -4 l75 4 q18 0 47 -3 ZM84 721 q-2 20 -2 45 q0 25 18 38 q18 13 34 13 q16 0 43 -9 q28 -9 75 -20 l72 -4 q62 -4 86 -4 q24 0 51 14 q27 14 27 34 q0 20 -25 32 q-48 8 -88 8 l-19 0 q-14 -2 -34 -2 q-54 0 -54 45 l0 76 l-4 43 q0 23 18 37 q18 14 46 14 q27 0 37 -2 l57 -6 q14 2 28 12 q13 11 13 23 q0 28 -76 29 q-33 6 -41 6 l-47 -4 q-35 -1 -69 -7 q-34 -6 -46 -6 q-55 0 -61 43 l-4 23 l2 61 l-2 47 q0 32 16 46 q16 14 65 20 q49 6 70 6 l19 0 q16 -2 29 -2 q13 0 34 2 l25 0 q144 0 207 -14 q64 -14 141 -62 q86 -62 86 -158 q0 -42 -6 -58 q-7 -16 -25 -37 q-18 -21 -38 -33 q-20 -12 -19 -20 q0 -8 37 -21 q14 -10 43 -37 q29 -35 31 -47 l12 -49 q8 -28 8 -48 q0 -76 -29 -106 q-57 -73 -116 -95 q-7 -3 -51 -25 q-44 -22 -72 -26 q-28 -4 -189 -8 q-99 2 -133 8 q-34 6 -99 14 q-65 10 -75 28 q-10 18 -10 43 l4 84 l0 16 Z" /><glyph glyph-name="" unicode="¿" d="M377 1372 q8 0 172 -6 l158 4 q88 0 88 -70 q0 -29 -2 -63 l0 -23 q0 -39 2 -61 l0 -18 q0 -58 -66 -58 l-199 -2 l-45 4 l-135 -6 q-8 0 -26 11 q-18 10 -26 24 q-8 14 -7 74 l-6 98 q0 44 24 68 q24 24 68 24 ZM584 506 q0 -61 67 -62 q37 0 73 30 q36 30 40 32 q2 2 43 80 q13 23 35 36 q22 13 38 13 q42 0 126 -84 l98 -74 q47 -47 52 -58 q5 -11 5 -24 q0 -33 -84 -172 q-55 -51 -89 -93 q-34 -42 -92 -75 q-60 -33 -86 -37 q-26 -4 -105 -18 q-37 -2 -93 -2 l-100 -6 q-78 0 -168 38 q-90 38 -123 62 q-80 51 -115 119 q-14 23 -38 89 q-24 66 -23 85 l2 33 l-2 47 q0 55 55 141 l23 41 q14 31 72 82 q61 51 90 100 q18 37 22 129 q2 48 55 58 l101 0 l55 -2 l43 2 q51 -8 76 -8 l82 6 q29 0 51 -20 q22 -20 22 -74 q0 -54 -10 -97 q-10 -43 -14 -50 q-4 -7 -41 -54 q-4 -9 -11 -21 q-7 -12 -10 -17 q-6 -10 -14 -22 l-57 -55 q-51 -45 -51 -98 Z" /><glyph glyph-name="" unicode="à" d="M342 1624 q0 45 49 47 l21 0 l67 -2 l86 0 l58 -2 q49 -4 163 2 l13 0 q38 1 69 -47 q74 -115 74 -141 q0 -25 -33 -25 l-53 2 l-49 -2 q-70 0 -109 16 q-38 16 -65 25 l-86 25 q-14 4 -46 15 q-32 11 -79 24 q-47 13 -63 26 q-17 12 -17 37 ZM621 645 q0 -53 45 -53 l49 0 q84 0 99 18 q15 18 7 52 l-12 53 q-31 150 -60 179 q-11 11 -27 11 q-16 0 -26 -9 q-10 -8 -18 -36 q-8 -28 -15 -53 q-7 -25 -11 -35 q-4 -10 -11 -43 q-6 -33 -13 -54 q-7 -21 -7 -30 ZM1464 88 l0 -14 q0 -75 -92 -78 l-16 0 l-25 2 l-22 0 l-125 2 q-89 0 -117 -2 q-28 -2 -49 0 q-37 10 -57 57 l-17 35 q-25 47 -57 60 q-11 12 -73 6 q-62 -6 -79 -4 l-69 4 q-50 4 -76 4 q-26 0 -38 -16 q-11 -16 -13 -17 l-33 -57 q-27 -49 -40 -62 q-13 -13 -44 -8 l-16 0 l-97 -4 l-43 0 l-121 4 l-35 0 q-79 0 -108 27 q-29 27 -29 72 q0 45 18 94 q18 49 35 121 q17 72 37 123 q19 50 28 82 q9 32 34 112 q30 97 43 174 q12 77 39 151 l26 76 q6 18 28 100 q22 82 36 130 q14 50 50 76 q35 26 101 28 q66 4 76 1 q10 -3 49 1 l93 4 l63 -2 l35 -2 q33 -2 133 -2 l64 2 q75 0 115 -30 q40 -30 67 -130 l10 -41 q8 -31 33 -92 q25 -61 37 -106 l20 -82 l7 -31 q3 -14 5 -19 q2 -5 2 -10 q10 -17 23 -55 l8 -22 q6 -24 26 -118 q20 -94 48 -175 l12 -37 q12 -37 33 -132 q21 -95 39 -139 q18 -43 18 -61 Z" /><glyph glyph-name="" unicode="á" d="M1085 1624 q0 -25 -13 -35 q-12 -10 -38 -18 q-26 -7 -51 -15 q-25 -8 -57 -19 q-32 -11 -45 -15 l-86 -25 q-16 -3 -61 -21 q-45 -18 -81 -18 l-32 -2 l-50 2 l-53 -2 q-33 0 -33 25 q-1 13 31 69 q32 56 43 71 q32 48 70 48 l12 0 q115 -6 164 -2 l57 2 l86 0 l68 2 l20 0 q49 -2 49 -47 ZM621 645 q0 -53 45 -53 l49 0 q84 0 99 18 q15 18 7 52 l-12 53 q-31 150 -60 179 q-11 11 -27 11 q-16 0 -26 -9 q-10 -8 -18 -36 q-8 -28 -15 -53 q-7 -25 -11 -35 q-4 -10 -11 -43 q-6 -33 -13 -54 q-7 -21 -7 -30 ZM1464 88 l0 -14 q0 -75 -92 -78 l-16 0 l-25 2 l-22 0 l-125 2 q-89 0 -117 -2 q-28 -2 -49 0 q-37 10 -57 57 l-17 35 q-25 47 -57 60 q-11 12 -73 6 q-62 -6 -79 -4 l-69 4 q-50 4 -76 4 q-26 0 -38 -16 q-11 -16 -13 -17 l-33 -57 q-27 -49 -40 -62 q-13 -13 -44 -8 l-16 0 l-97 -4 l-43 0 l-121 4 l-35 0 q-79 0 -108 27 q-29 27 -29 72 q0 45 18 94 q18 49 35 121 q17 72 37 123 q19 50 28 82 q9 32 34 112 q30 97 43 174 q12 77 39 151 l26 76 q6 18 28 100 q22 82 36 130 q14 50 50 76 q35 26 101 28 q66 4 76 1 q10 -3 49 1 l93 4 l63 -2 l35 -2 q33 -2 133 -2 l64 2 q75 0 115 -30 q40 -30 67 -130 l10 -41 q8 -31 33 -92 q25 -61 37 -106 l20 -82 l7 -31 q3 -14 5 -19 q2 -5 2 -10 q10 -17 23 -55 l8 -22 q6 -24 26 -118 q20 -94 48 -175 l12 -37 q12 -37 33 -132 q21 -95 39 -139 q18 -43 18 -61 Z" /><glyph glyph-name="" unicode="â" d="M1112 1489 q0 -39 -76 -33 q-27 2 -41 2 l-90 0 q-29 0 -99 33 q-70 33 -103 33 q-33 0 -95 -32 q-62 -32 -114 -32 l-23 0 l-70 2 l-32 -2 l-17 0 q-31 2 -30 27 q0 24 19 42 q19 18 44 38 q110 110 156 110 l24 -2 l23 0 q20 4 39 4 l20 0 l111 -4 l94 2 q54 0 66 -7 q12 -7 21 -11 q9 -4 30 -27 q22 -24 40 -36 q19 -12 61 -56 q42 -44 42 -51 ZM621 645 q0 -53 45 -53 l49 0 q84 0 99 18 q15 18 7 52 l-12 53 q-31 150 -60 179 q-11 11 -27 11 q-16 0 -26 -9 q-10 -8 -18 -36 q-8 -28 -15 -53 q-7 -25 -11 -35 q-4 -10 -11 -43 q-6 -33 -13 -54 q-7 -21 -7 -30 ZM1464 88 l0 -14 q0 -75 -92 -78 l-16 0 l-25 2 l-22 0 l-125 2 q-89 0 -117 -2 q-28 -2 -49 0 q-37 10 -57 57 l-17 35 q-25 47 -57 60 q-11 12 -73 6 q-62 -6 -79 -4 l-69 4 q-50 4 -76 4 q-26 0 -38 -16 q-11 -16 -13 -17 l-33 -57 q-27 -49 -40 -62 q-13 -13 -44 -8 l-16 0 l-97 -4 l-43 0 l-121 4 l-35 0 q-79 0 -108 27 q-29 27 -29 72 q0 45 18 94 q18 49 35 121 q17 72 37 123 q19 50 28 82 q9 32 34 112 q30 97 43 174 q12 77 39 151 l26 76 q6 18 28 100 q22 82 36 130 q14 50 50 76 q35 26 101 28 q66 4 76 1 q10 -3 49 1 l93 4 l63 -2 l35 -2 q33 -2 133 -2 l64 2 q75 0 115 -30 q40 -30 67 -130 l10 -41 q8 -31 33 -92 q25 -61 37 -106 l20 -82 l7 -31 q3 -14 5 -19 q2 -5 2 -10 q10 -17 23 -55 l8 -22 q6 -24 26 -118 q20 -94 48 -175 l12 -37 q12 -37 33 -132 q21 -95 39 -139 q18 -43 18 -61 Z" /><glyph glyph-name="" unicode="ã" d="M350 1474 q-22 8 -22 34 q0 26 25 72 q25 46 71 75 q46 29 116 29 q72 0 197 -25 q125 -25 143 -25 q18 0 38 18 q20 18 29 22 q9 3 73 3 q64 0 74 -13 q12 -13 12 -38 q0 -24 -29 -70 q-63 -100 -180 -100 q-72 0 -132 14 q-60 14 -97 21 l-43 8 q-47 10 -72 10 q-25 0 -50 -21 q-25 -21 -40 -22 l-29 0 l-51 2 q-11 -2 -33 6 ZM621 645 q0 -53 45 -53 l49 0 q84 0 99 18 q15 18 7 52 l-12 53 q-31 150 -60 179 q-11 11 -27 11 q-16 0 -26 -9 q-10 -8 -18 -36 q-8 -28 -15 -53 q-7 -25 -11 -35 q-4 -10 -11 -43 q-6 -33 -13 -54 q-7 -21 -7 -30 ZM1464 88 l0 -14 q0 -75 -92 -78 l-16 0 l-25 2 l-22 0 l-125 2 q-89 0 -117 -2 q-28 -2 -49 0 q-37 10 -57 57 l-17 35 q-25 47 -57 60 q-11 12 -73 6 q-62 -6 -79 -4 l-69 4 q-50 4 -76 4 q-26 0 -38 -16 q-11 -16 -13 -17 l-33 -57 q-27 -49 -40 -62 q-13 -13 -44 -8 l-16 0 l-97 -4 l-43 0 l-121 4 l-35 0 q-79 0 -108 27 q-29 27 -29 72 q0 45 18 94 q18 49 35 121 q17 72 37 123 q19 50 28 82 q9 32 34 112 q30 97 43 174 q12 77 39 151 l26 76 q6 18 28 100 q22 82 36 130 q14 50 50 76 q35 26 101 28 q66 4 76 1 q10 -3 49 1 l93 4 l63 -2 l35 -2 q33 -2 133 -2 l64 2 q75 0 115 -30 q40 -30 67 -130 l10 -41 q8 -31 33 -92 q25 -61 37 -106 l20 -82 l7 -31 q3 -14 5 -19 q2 -5 2 -10 q10 -17 23 -55 l8 -22 q6 -24 26 -118 q20 -94 48 -175 l12 -37 q12 -37 33 -132 q21 -95 39 -139 q18 -43 18 -61 Z" /><glyph glyph-name="" unicode="ä" d="M1034 1683 q11 0 29 3 l22 0 q61 -2 73 -22 q12 -20 18 -101 l0 -33 q-2 -74 -64 -74 l-72 6 l-36 0 l-72 -2 q-31 -2 -48 -1 q-17 1 -38 1 l-29 -2 q-27 0 -49 18 q-22 18 -16 66 l2 41 q4 68 15 84 q18 27 112 19 l16 -3 q0 -2 29 0 l108 0 ZM295 1464 q-9 0 -21 12 q-12 12 -16 33 l0 17 l6 80 q0 51 17 63 q35 20 86 21 l67 -4 l55 0 l89 -5 l22 2 q48 0 66 -14 q18 -14 18 -74 l0 -63 q0 -31 -12 -43 q-12 -11 -29 -21 q-17 -10 -63 -10 l-43 4 l-45 0 l-66 4 q-12 2 -30 -2 q-18 -4 -34 -4 l-61 4 l-6 0 ZM621 645 q0 -53 45 -53 l49 0 q84 0 99 18 q15 18 7 52 l-12 53 q-31 150 -60 179 q-11 11 -27 11 q-16 0 -26 -9 q-10 -8 -18 -36 q-8 -28 -15 -53 q-7 -25 -11 -35 q-4 -10 -11 -43 q-6 -33 -13 -54 q-7 -21 -7 -30 ZM1464 88 l0 -14 q0 -75 -92 -78 l-16 0 l-25 2 l-22 0 l-125 2 q-89 0 -117 -2 q-28 -2 -49 0 q-37 10 -57 57 l-17 35 q-25 47 -57 60 q-11 12 -73 6 q-62 -6 -79 -4 l-69 4 q-50 4 -76 4 q-26 0 -38 -16 q-11 -16 -13 -17 l-33 -57 q-27 -49 -40 -62 q-13 -13 -44 -8 l-16 0 l-97 -4 l-43 0 l-121 4 l-35 0 q-79 0 -108 27 q-29 27 -29 72 q0 45 18 94 q18 49 35 121 q17 72 37 123 q19 50 28 82 q9 32 34 112 q30 97 43 174 q12 77 39 151 l26 76 q6 18 28 100 q22 82 36 130 q14 50 50 76 q35 26 101 28 q66 4 76 1 q10 -3 49 1 l93 4 l63 -2 l35 -2 q33 -2 133 -2 l64 2 q75 0 115 -30 q40 -30 67 -130 l10 -41 q8 -31 33 -92 q25 -61 37 -106 l20 -82 l7 -31 q3 -14 5 -19 q2 -5 2 -10 q10 -17 23 -55 l8 -22 q6 -24 26 -118 q20 -94 48 -175 l12 -37 q12 -37 33 -132 q21 -95 39 -139 q18 -43 18 -61 Z" /><glyph glyph-name="" unicode="å" d="M719 1677 q-86 0 -86 -52 q0 -52 92 -52 q45 0 63 16 q34 34 0 68 q-25 20 -69 20 ZM993 1624 q0 -84 -78 -126 q-78 -42 -215 -42 q-48 0 -116 17 q-68 17 -106 63 q-38 46 -38 108 q0 62 77 108 q77 46 196 46 q119 0 199 -45 q80 -45 81 -129 ZM621 645 q0 -53 45 -53 l49 0 q84 0 99 18 q15 18 7 52 l-12 53 q-31 150 -60 179 q-11 11 -27 11 q-16 0 -26 -9 q-10 -8 -18 -36 q-8 -28 -15 -53 q-7 -25 -11 -35 q-4 -10 -11 -43 q-6 -33 -13 -54 q-7 -21 -7 -30 ZM1464 88 l0 -14 q0 -75 -92 -78 l-16 0 l-25 2 l-22 0 l-125 2 q-89 0 -117 -2 q-28 -2 -49 0 q-37 10 -57 57 l-17 35 q-25 47 -57 60 q-11 12 -73 6 q-62 -6 -79 -4 l-69 4 q-50 4 -76 4 q-26 0 -38 -16 q-11 -16 -13 -17 l-33 -57 q-27 -49 -40 -62 q-13 -13 -44 -8 l-16 0 l-97 -4 l-43 0 l-121 4 l-35 0 q-79 0 -108 27 q-29 27 -29 72 q0 45 18 94 q18 49 35 121 q17 72 37 123 q19 50 28 82 q9 32 34 112 q30 97 43 174 q12 77 39 151 l26 76 q6 18 28 100 q22 82 36 130 q14 50 50 76 q35 26 101 28 q66 4 76 1 q10 -3 49 1 l93 4 l63 -2 l35 -2 q33 -2 133 -2 l64 2 q75 0 115 -30 q40 -30 67 -130 l10 -41 q8 -31 33 -92 q25 -61 37 -106 l20 -82 l7 -31 q3 -14 5 -19 q2 -5 2 -10 q10 -17 23 -55 l8 -22 q6 -24 26 -118 q20 -94 48 -175 l12 -37 q12 -37 33 -132 q21 -95 39 -139 q18 -43 18 -61 Z" /><glyph glyph-name="" unicode="æ" d="M612 618 q0 -38 72 -38 q39 -6 45 -7 q66 0 66 99 l0 57 q-2 33 0 51 q0 193 -45 193 q-12 0 -31 -22 q-19 -22 -21 -36 l-45 -167 q-41 -117 -41 -130 ZM1726 965 q-155 0 -231 8 l-43 -6 l-27 0 l-51 4 l-24 0 q-70 0 -70 -53 q0 -53 96 -54 q41 0 99 8 q153 0 223 7 q47 -1 61 -25 q14 -24 19 -61 l0 -80 q6 -80 6 -120 q0 -40 -29 -56 q-14 -8 -76 -9 l-61 -4 q-78 -4 -123 -4 q-45 0 -86 2 l-37 0 q-74 0 -74 -43 q0 -61 97 -61 q33 0 121 8 l88 2 l41 2 l55 0 q55 0 65 -2 q35 -6 58 -59 q10 -31 10 -58 l0 -80 q0 -47 2 -98 q-6 -84 -18 -102 q-3 -11 -21 -21 q-18 -10 -31 -10 l-176 6 q-90 -10 -135 -10 l-8 0 q-152 4 -176 4 l-158 -4 l-117 4 l-73 0 q-18 -2 -50 -2 q-32 0 -51 16 q-6 6 -24 74 q-23 35 -38 44 q-15 9 -52 9 l-60 6 l-18 -2 l-92 -6 l-19 -2 l-35 2 q-37 -2 -71 -86 q-12 -29 -39 -43 q-37 -16 -68 -16 l-45 4 l-92 0 q-63 -2 -125 0 l-82 -4 q-15 0 -27 12 q-12 12 -12 28 q0 16 37 116 l35 104 l131 354 l82 211 q117 332 151 410 q34 78 66 100 q41 41 104 41 l134 -4 q35 0 184 6 l37 0 l96 -4 q98 0 203 6 q56 -8 165 -8 q109 0 197 6 l27 2 q121 10 174 -10 q15 -8 29 -36 q14 -28 14 -50 l-2 -121 q8 -63 8 -84 q0 -109 -68 -108 Z" /><glyph glyph-name="" unicode="ç" d="M1024 109 q0 -61 -68 -99 q-48 -22 -122 -22 q-138 1 -138 -62 q0 -14 16 -23 q16 -10 32 -23 q18 -13 32 -45 q14 -32 15 -60 q0 -63 -60 -99 q-39 -24 -109 -24 q-70 0 -113 13 q-44 13 -59 29 q-15 16 -12 36 l2 28 q2 80 18 102 q16 22 29 21 l70 -6 q8 0 16 17 q28 60 -34 108 q-14 10 -75 22 q-60 12 -132 54 q-72 42 -113 100 l-33 45 q-5 5 -11 14 q-6 9 -19 27 q-103 134 -109 303 q-14 113 -14 167 q0 54 16 147 q2 14 42 113 q40 99 63 130 q47 68 102 107 q122 86 150 98 q28 12 169 41 q27 4 175 4 q148 0 193 -12 q43 -12 57 -30 q14 -18 14 -54 l-10 -164 q0 -18 12 -135 l0 -29 q0 -104 -78 -104 q-14 0 -70 8 l-10 0 q-2 0 -49 -6 l-80 2 q-86 0 -130 -51 q-44 -51 -44 -105 q0 -90 57 -147 q53 -43 162 -43 l131 16 q43 0 79 -18 q36 -18 36 -105 q0 -18 -2 -28 l-2 -129 l-2 -19 l4 -45 q6 -37 6 -65 Z" /><glyph glyph-name="" unicode="è" d="M682 1669 q37 0 70 -48 q10 -15 42 -71 q32 -56 31 -69 q0 -25 -32 -25 l-54 2 l-49 -2 q-69 0 -108 16 q-39 16 -66 25 l-86 25 q-14 4 -46 15 q-32 11 -56 18 q-24 7 -50 15 q-26 8 -39 19 q-13 10 -14 35 q0 45 49 47 l21 0 l67 -2 l87 0 l57 -2 q49 -4 164 2 l12 0 ZM1053 430 q39 0 59 -18 q39 -35 39 -103 l0 -22 l-2 -14 l0 -27 l2 -39 q8 -125 -10 -165 q-18 -40 -72 -44 l-47 0 l-59 6 l-31 0 q-29 0 -32 -5 q-3 -5 -81 -5 l-31 -2 l-90 8 l-57 0 q-35 -2 -133 -2 l-170 2 l-162 -8 l-10 0 q-92 0 -90 88 l2 29 q2 16 2 49 l6 225 l6 98 q0 85 -6 143 q-6 58 -4 91 q2 33 0 53 l-8 170 l8 123 l0 59 l-8 127 q-2 66 35 99 q37 33 104 32 l104 -10 l160 4 l80 -2 l39 0 l53 -2 l25 0 l88 -2 l88 4 l37 0 l104 6 q113 0 113 -98 l-2 -43 l0 -82 l8 -94 q0 -98 -82 -96 l-61 4 l-15 0 l-30 -2 l-7 0 q-29 0 -59 4 l-27 4 q-16 2 -49 -2 q-33 -4 -45 -4 l-78 4 q-59 0 -59 -51 q0 -27 18 -40 q18 -13 95 -14 l34 0 l56 6 l106 0 l94 7 q55 0 73 -29 q18 -29 18 -55 l4 -113 l6 -82 q0 -72 -66 -74 l-41 0 q-37 0 -79 -5 q-42 -5 -89 -3 l-94 2 l-20 0 q-10 -1 -38 0 q-28 2 -46 -16 q-31 -42 8 -68 q23 -18 70 -18 l206 10 l86 0 l33 2 l21 0 Z" /><glyph glyph-name="" unicode="é" d="M969 1624 q1 -25 -13 -35 q-14 -10 -40 -18 q-26 -7 -50 -15 q-24 -8 -56 -19 q-32 -11 -46 -15 l-86 -25 q-16 -3 -61 -21 q-45 -18 -80 -18 l-33 -2 l-49 2 l-54 -2 q-33 0 -32 25 q-1 13 31 69 q32 56 42 71 q32 48 70 48 l12 0 q115 -6 164 -2 l57 2 l86 0 l68 2 l21 0 q49 -2 49 -47 ZM1053 430 q39 0 59 -18 q39 -35 39 -103 l0 -22 l-2 -14 l0 -27 l2 -39 q8 -125 -10 -165 q-18 -40 -72 -44 l-47 0 l-59 6 l-31 0 q-29 0 -32 -5 q-3 -5 -81 -5 l-31 -2 l-90 8 l-57 0 q-35 -2 -133 -2 l-170 2 l-162 -8 l-10 0 q-92 0 -90 88 l2 29 q2 16 2 49 l6 225 l6 98 q0 85 -6 143 q-6 58 -4 91 q2 33 0 53 l-8 170 l8 123 l0 59 l-8 127 q-2 66 35 99 q37 33 104 32 l104 -10 l160 4 l80 -2 l39 0 l53 -2 l25 0 l88 -2 l88 4 l37 0 l104 6 q113 0 113 -98 l-2 -43 l0 -82 l8 -94 q0 -98 -82 -96 l-61 4 l-15 0 l-30 -2 l-7 0 q-29 0 -59 4 l-27 4 q-16 2 -49 -2 q-33 -4 -45 -4 l-78 4 q-59 0 -59 -51 q0 -27 18 -40 q18 -13 95 -14 l34 0 l56 6 l106 0 l94 7 q55 0 73 -29 q18 -29 18 -55 l4 -113 l6 -82 q0 -72 -66 -74 l-41 0 q-37 0 -79 -5 q-42 -5 -89 -3 l-94 2 l-20 0 q-10 -1 -38 0 q-28 2 -46 -16 q-31 -42 8 -68 q23 -18 70 -18 l206 10 l86 0 l33 2 l21 0 Z" /><glyph glyph-name="" unicode="ê" d="M995 1489 q0 -39 -75 -33 q-27 2 -41 2 l-91 0 q-29 0 -99 33 q-70 33 -103 33 q-32 0 -94 -32 q-62 -32 -115 -32 l-23 0 l-69 2 l-33 -2 l-16 0 q-31 2 -31 26 q0 24 13 38 q14 12 28 24 q14 12 36 33 q98 96 142 96 l25 -2 l22 0 q20 4 39 4 l20 0 l111 -4 l94 2 q54 0 66 -7 q12 -7 21 -11 q9 -4 30 -27 q22 -24 38 -34 q16 -10 60 -55 q45 -46 45 -54 ZM1053 430 q39 0 59 -18 q39 -35 39 -103 l0 -22 l-2 -14 l0 -27 l2 -39 q8 -125 -10 -165 q-18 -40 -72 -44 l-47 0 l-59 6 l-31 0 q-29 0 -32 -5 q-3 -5 -81 -5 l-31 -2 l-90 8 l-57 0 q-35 -2 -133 -2 l-170 2 l-162 -8 l-10 0 q-92 0 -90 88 l2 29 q2 16 2 49 l6 225 l6 98 q0 85 -6 143 q-6 58 -4 91 q2 33 0 53 l-8 170 l8 123 l0 59 l-8 127 q-2 66 35 99 q37 33 104 32 l104 -10 l160 4 l80 -2 l39 0 l53 -2 l25 0 l88 -2 l88 4 l37 0 l104 6 q113 0 113 -98 l-2 -43 l0 -82 l8 -94 q0 -98 -82 -96 l-61 4 l-15 0 l-30 -2 l-7 0 q-29 0 -59 4 l-27 4 q-16 2 -49 -2 q-33 -4 -45 -4 l-78 4 q-59 0 -59 -51 q0 -27 18 -40 q18 -13 95 -14 l34 0 l56 6 l106 0 l94 7 q55 0 73 -29 q18 -29 18 -55 l4 -113 l6 -82 q0 -72 -66 -74 l-41 0 q-37 0 -79 -5 q-42 -5 -89 -3 l-94 2 l-20 0 q-10 -1 -38 0 q-28 2 -46 -16 q-31 -42 8 -68 q23 -18 70 -18 l206 10 l86 0 l33 2 l21 0 Z" /><glyph glyph-name="" unicode="ë" d="M918 1683 q16 0 28 3 l23 0 q61 -2 73 -22 q12 -20 17 -101 l0 -33 q-2 -74 -64 -74 l-71 6 l-37 0 l-72 -2 q-31 -2 -48 -1 q-17 1 -38 1 l-29 -2 q-26 0 -48 18 q-22 18 -17 66 l2 41 q4 68 15 84 q18 27 112 19 l16 -3 q0 -2 31 0 l107 0 ZM178 1464 q-8 0 -20 12 q-12 12 -17 33 l0 17 l6 80 q0 51 17 63 q35 20 86 21 l67 -4 l56 0 l88 -5 l22 2 q47 0 65 -14 q18 -14 19 -74 l0 -63 q0 -31 -12 -43 q-12 -11 -29 -21 q-17 -10 -63 -10 l-43 4 l-45 0 l-66 4 q-12 2 -30 -2 q-18 -4 -33 -4 l-62 4 l-6 0 ZM1053 430 q39 0 59 -18 q39 -35 39 -103 l0 -22 l-2 -14 l0 -27 l2 -39 q8 -125 -10 -165 q-18 -40 -72 -44 l-47 0 l-59 6 l-31 0 q-29 0 -32 -5 q-3 -5 -81 -5 l-31 -2 l-90 8 l-57 0 q-35 -2 -133 -2 l-170 2 l-162 -8 l-10 0 q-92 0 -90 88 l2 29 q2 16 2 49 l6 225 l6 98 q0 85 -6 143 q-6 58 -4 91 q2 33 0 53 l-8 170 l8 123 l0 59 l-8 127 q-2 66 35 99 q37 33 104 32 l104 -10 l160 4 l80 -2 l39 0 l53 -2 l25 0 l88 -2 l88 4 l37 0 l104 6 q113 0 113 -98 l-2 -43 l0 -82 l8 -94 q0 -98 -82 -96 l-61 4 l-15 0 l-30 -2 l-7 0 q-29 0 -59 4 l-27 4 q-16 2 -49 -2 q-33 -4 -45 -4 l-78 4 q-59 0 -59 -51 q0 -27 18 -40 q18 -13 95 -14 l34 0 l56 6 l106 0 l94 7 q55 0 73 -29 q18 -29 18 -55 l4 -113 l6 -82 q0 -72 -66 -74 l-41 0 q-37 0 -79 -5 q-42 -5 -89 -3 l-94 2 l-20 0 q-10 -1 -38 0 q-28 2 -46 -16 q-31 -42 8 -68 q23 -18 70 -18 l206 10 l86 0 l33 2 l21 0 Z" /><glyph glyph-name="" unicode="ì" d="M-16 1624 q0 45 49 47 l20 0 l68 -2 l86 0 l57 -2 q49 -4 164 2 l12 0 q37 0 70 -48 q10 -15 42 -71 q32 -56 32 -69 q0 -25 -33 -25 l-53 2 l-49 -2 q-70 0 -109 16 q-39 16 -66 25 l-86 25 q-14 4 -46 15 q-32 11 -56 18 q-24 7 -50 15 q-26 8 -39 19 q-13 10 -13 35 ZM629 1227 l0 -33 l-8 -135 q-2 -27 4 -97 q6 -70 6 -106 l-10 -170 l0 -176 l6 -125 l0 -55 l-6 -92 q0 -8 5 -53 q5 -45 6 -55 q1 -10 3 -9 q2 0 2 -17 l0 -18 q-6 -49 -31 -70 q-25 -21 -74 -20 l-38 2 l-33 0 l-27 2 l-98 0 l-139 -6 q-63 -4 -97 29 q-18 18 -18 69 l6 92 q2 27 0 60 q-2 33 -2 57 l0 78 q0 6 5 85 q5 79 0 133 q-5 54 -5 108 l0 274 l2 72 l-2 65 l-6 154 q-2 49 25 76 q27 27 73 26 l125 -10 q49 0 86 6 l39 4 q115 10 158 -24 q43 -34 43 -121 Z" /><glyph glyph-name="" unicode="í" d="M727 1624 q0 -25 -13 -35 q-12 -10 -38 -18 q-26 -7 -51 -15 q-25 -8 -57 -19 q-32 -11 -46 -15 l-86 -25 q-19 -5 -63 -22 q-44 -17 -78 -17 l-33 -2 l-49 2 l-53 -2 q-33 0 -33 25 q0 14 38 81 q38 67 61 87 q23 20 44 20 l13 0 q115 -6 163 -2 l58 2 l86 0 l67 2 l21 0 q49 -2 49 -47 ZM629 1227 l0 -33 l-8 -135 q-2 -27 4 -97 q6 -70 6 -106 l-10 -170 l0 -176 l6 -125 l0 -55 l-6 -92 q0 -8 5 -53 q5 -45 6 -55 q1 -10 3 -9 q2 0 2 -17 l0 -18 q-6 -49 -31 -70 q-25 -21 -74 -20 l-38 2 l-33 0 l-27 2 l-98 0 l-139 -6 q-63 -4 -97 29 q-18 18 -18 69 l6 92 q2 27 0 60 q-2 33 -2 57 l0 78 q0 6 5 85 q5 79 0 133 q-5 54 -5 108 l0 274 l2 72 l-2 65 l-6 154 q-2 49 25 76 q27 27 73 26 l125 -10 q49 0 86 6 l39 4 q115 10 158 -24 q43 -34 43 -121 Z" /><glyph glyph-name="" unicode="î" d="M637 1458 l-90 0 q-29 0 -99 33 q-70 33 -103 33 q-34 0 -95 -32 q-61 -32 -115 -32 l-22 0 l-70 2 l-33 -2 l-16 0 q-31 2 -31 27 q-1 25 13 37 q37 33 51 43 q110 110 155 110 l25 -2 l22 0 q20 4 39 4 l21 0 l110 -4 l138 0 q18 -2 26 -7 q8 -5 17 -8 q9 -3 31 -28 q21 -24 39 -35 q18 -11 60 -55 q43 -45 44 -53 q0 -39 -76 -33 q-27 2 -41 2 ZM629 1227 l0 -33 l-8 -135 q-2 -27 4 -97 q6 -70 6 -106 l-10 -170 l0 -176 l6 -125 l0 -55 l-6 -92 q0 -8 5 -53 q5 -45 6 -55 q1 -10 3 -9 q2 0 2 -17 l0 -18 q-6 -49 -31 -70 q-25 -21 -74 -20 l-38 2 l-33 0 l-27 2 l-98 0 l-139 -6 q-63 -4 -97 29 q-18 18 -18 69 l6 92 q2 27 0 60 q-2 33 -2 57 l0 78 q0 6 5 85 q5 79 0 133 q-5 54 -5 108 l0 274 l2 72 l-2 65 l-6 154 q-2 49 25 76 q27 27 73 26 l125 -10 q49 0 86 6 l39 4 q115 10 158 -24 q43 -34 43 -121 Z" /><glyph glyph-name="" unicode="ï" d="M676 1683 q14 0 29 3 l22 0 q61 -2 73 -22 q12 -20 17 -101 l0 -33 q-2 -74 -63 -74 l-72 6 l-37 0 l-72 -2 q-31 -2 -48 -1 q-17 1 -38 1 l-28 -2 q-27 0 -49 18 q-22 18 -17 66 l2 41 q3 68 15 84 q25 34 129 16 q0 -2 30 0 l107 0 ZM-63 1464 q-9 0 -21 12 q-12 12 -16 33 l0 17 l6 80 q0 51 16 63 q35 20 86 21 l68 -4 l55 0 l88 -5 l23 2 q47 0 65 -14 q18 -14 19 -74 l0 -63 q0 -30 -12 -42 q-12 -12 -30 -22 q-16 -10 -63 -10 l-43 4 l-45 0 l-65 4 q-12 2 -30 -2 q-18 -4 -34 -4 l-61 4 l-6 0 ZM629 1227 l0 -33 l-8 -135 q-2 -27 4 -97 q6 -70 6 -106 l-10 -170 l0 -176 l6 -125 l0 -55 l-6 -92 q0 -8 5 -53 q5 -45 6 -55 q1 -10 3 -9 q2 0 2 -17 l0 -18 q-6 -49 -31 -70 q-25 -21 -74 -20 l-38 2 l-33 0 l-27 2 l-98 0 l-139 -6 q-63 -4 -97 29 q-18 18 -18 69 l6 92 q2 27 0 60 q-2 33 -2 57 l0 78 q0 6 5 85 q5 79 0 133 q-5 54 -5 108 l0 274 l2 72 l-2 65 l-6 154 q-2 49 25 76 q27 27 73 26 l125 -10 q49 0 86 6 l39 4 q115 10 158 -24 q43 -34 43 -121 Z" /><glyph glyph-name="" unicode="ð" d="M848 743 l0 -22 q-2 -15 -2 -31 l0 -37 q0 -53 -64 -53 l-104 4 q-35 0 -64 -4 q-16 -4 -16 -31 q0 -90 18 -104 q18 -14 82 -14 q103 0 162 22 q125 76 125 236 q0 61 -46 119 q-45 58 -81 74 q-36 15 -90 18 q-51 8 -86 8 q-35 0 -55 -15 q-29 -16 -29 -86 q0 -18 5 -23 q5 -5 77 -5 l82 4 q86 0 86 -60 ZM90 909 q6 13 6 67 q0 54 -6 161 q4 150 10 166 q25 63 121 63 q4 0 74 -4 l207 10 l2 0 l45 -6 l201 0 q46 0 120 -17 q74 -17 94 -25 q20 -8 50 -24 q30 -16 44 -24 q14 -8 91 -46 q75 -38 99 -62 q24 -24 95 -119 q66 -80 80 -117 q39 -90 39 -221 q0 -131 -12 -181 q-28 -104 -54 -160 q-26 -56 -62 -94 q-36 -36 -51 -54 q-16 -18 -24 -29 q-8 -11 -9 -12 q-1 -1 -7 -5 q-6 -4 -8 -6 q-2 -2 -119 -59 q-117 -57 -141 -65 q-24 -8 -144 -26 l-63 -12 q-76 -10 -127 -10 l-215 8 l-180 -8 q-156 0 -156 133 l12 168 l-2 66 l0 149 q0 72 -14 84 q-12 6 -43 6 l-55 -4 q-39 0 -39 41 l4 55 l0 68 q0 39 33 39 l69 -6 q37 -1 37 32 l-2 76 l0 4 Z" /><glyph glyph-name="" unicode="ñ" d="M377 1508 q-1 26 25 72 q26 46 71 77 q45 27 117 27 q72 0 196 -25 q124 -25 142 -25 q18 0 38 18 q20 18 30 22 q8 3 72 3 q64 0 76 -13 q12 -13 11 -38 q0 -24 -29 -70 q-63 -100 -180 -100 q-72 0 -132 14 q-60 14 -97 21 l-43 8 q-47 10 -72 10 q-25 0 -50 -21 q-25 -21 -40 -22 l-29 0 l-51 2 q-12 -2 -34 6 q-22 8 -21 34 ZM96 26 q-22 26 -22 58 q0 32 8 110 q8 76 8 177 l-2 231 q0 95 8 283 l8 176 q2 37 -9 94 q-11 57 -11 92 q0 80 32 108 q32 28 138 15 q88 -4 143 1 q55 5 110 5 q55 0 80 -18 q25 -18 50 -55 q25 -37 41 -65 q16 -28 24 -40 l54 -76 q26 -39 28 -50 q2 -11 37 -58 l49 -66 q10 -14 33 -14 q29 0 29 41 l0 29 l-2 14 l0 149 l-6 97 l0 14 q3 94 106 94 l35 0 q25 0 70 -4 l30 -2 l33 0 l33 2 q41 2 74 2 l22 0 q131 0 131 -135 l-12 -199 l0 -43 l4 -100 l-2 -51 l0 -35 l-8 -109 q0 -6 6 -86 l4 -94 l0 -10 l-4 -197 l0 -114 l2 -43 l8 -66 l0 -20 q-2 -33 -29 -56 q-31 -18 -55 -18 l-4 0 l-37 2 l-33 4 l-38 0 l-140 -6 l-16 0 q-74 0 -95 11 q-21 11 -47 42 q-26 30 -44 48 q-18 17 -62 87 q-45 70 -74 103 q-29 33 -38 51 q-9 18 -23 37 l-14 18 q-6 8 -22 34 q-16 26 -46 28 q-15 0 -25 -27 q-10 -27 -6 -76 l4 -61 q0 -14 -2 -60 l-2 -32 l0 -52 l8 -79 q0 -68 -90 -68 l-209 4 l-161 -2 q-38 0 -60 26 Z" /><glyph glyph-name="" unicode="ò" d="M414 1624 q0 45 49 47 l20 0 l68 -2 l86 0 l57 -2 q49 -4 164 2 l12 0 q37 0 70 -48 q10 -15 42 -71 q32 -56 32 -69 q0 -25 -33 -25 l-53 2 l-49 -2 q-70 0 -109 16 q-38 16 -65 25 l-87 25 q-14 4 -46 15 q-32 11 -56 18 q-24 7 -50 15 q-26 8 -39 19 q-13 10 -13 35 ZM1034 680 q0 60 -28 110 q-28 50 -70 72 q-94 49 -147 49 q-53 0 -87 -18 q-36 -17 -40 -21 q-4 -4 -28 -12 q-24 -8 -45 -27 q-19 -18 -41 -69 q-22 -51 -22 -92 q0 -42 31 -88 q31 -46 43 -60 q12 -14 51 -38 q39 -24 71 -23 q32 0 101 6 l35 2 q39 0 70 31 q106 95 106 178 ZM840 -33 q-289 1 -421 63 q-132 62 -212 158 q-29 37 -78 95 q-49 58 -57 70 q-8 12 -9 25 q-2 14 -23 87 q-20 71 -20 141 q0 70 13 175 q13 105 23 130 q9 25 20 45 q10 20 22 47 q12 27 25 52 q12 25 20 42 q8 17 22 32 q14 15 29 27 q16 10 78 68 q62 58 97 76 q176 95 401 99 q164 0 282 -49 q24 -10 76 -33 q52 -23 102 -43 q48 -20 68 -34 q20 -15 48 -46 q125 -152 155 -223 q55 -129 55 -256 l-10 -107 q-2 -20 -3 -62 q-1 -42 -9 -67 q-8 -25 -30 -73 q-22 -48 -46 -114 q-25 -67 -51 -92 q-26 -26 -102 -80 q-77 -54 -95 -62 q-18 -8 -58 -22 q-40 -13 -103 -36 q-115 -33 -209 -33 Z" /><glyph glyph-name="" unicode="ó" d="M1157 1624 q0 -25 -13 -35 q-12 -10 -38 -18 q-26 -7 -51 -15 q-25 -8 -57 -19 q-32 -11 -46 -15 l-86 -25 q-19 -5 -63 -22 q-44 -17 -78 -17 l-33 -2 l-49 2 l-53 -2 q-33 0 -33 25 q0 14 38 81 q38 67 61 87 q23 20 44 20 l13 0 q115 -6 164 -2 l57 2 l86 0 l67 2 l21 0 q49 -2 49 -47 ZM1034 680 q0 60 -28 110 q-28 50 -70 72 q-94 49 -147 49 q-53 0 -87 -18 q-36 -17 -40 -21 q-4 -4 -28 -12 q-24 -8 -45 -27 q-19 -18 -41 -69 q-22 -51 -22 -92 q0 -42 31 -88 q31 -46 43 -60 q12 -14 51 -38 q39 -24 71 -23 q32 0 101 6 l35 2 q39 0 70 31 q106 95 106 178 ZM840 -33 q-289 1 -421 63 q-132 62 -212 158 q-29 37 -78 95 q-49 58 -57 70 q-8 12 -9 25 q-2 14 -23 87 q-20 71 -20 141 q0 70 13 175 q13 105 23 130 q9 25 20 45 q10 20 22 47 q12 27 25 52 q12 25 20 42 q8 17 22 32 q14 15 29 27 q16 10 78 68 q62 58 97 76 q176 95 401 99 q164 0 282 -49 q24 -10 76 -33 q52 -23 102 -43 q48 -20 68 -34 q20 -15 48 -46 q125 -152 155 -223 q55 -129 55 -256 l-10 -107 q-2 -20 -3 -62 q-1 -42 -9 -67 q-8 -25 -30 -73 q-22 -48 -46 -114 q-25 -67 -51 -92 q-26 -26 -102 -80 q-77 -54 -95 -62 q-18 -8 -58 -22 q-40 -13 -103 -36 q-115 -33 -209 -33 Z" /><glyph glyph-name="" unicode="ô" d="M1067 1458 l-90 0 q-29 0 -99 33 q-70 33 -103 33 q-34 0 -95 -32 q-61 -32 -115 -32 l-22 0 l-70 2 l-33 -2 l-16 0 q-31 2 -31 27 q-1 25 13 37 q38 33 51 43 q110 110 155 110 l25 -2 l22 0 q20 4 39 4 l21 0 l110 -4 l95 2 q54 0 66 -7 q12 -7 20 -10 q9 -3 31 -28 q21 -24 39 -35 q18 -11 60 -55 q43 -45 44 -53 q0 -39 -76 -33 q-27 2 -41 2 ZM1034 680 q0 60 -28 110 q-28 50 -70 72 q-94 49 -147 49 q-53 0 -87 -18 q-36 -17 -40 -21 q-4 -4 -28 -12 q-24 -8 -45 -27 q-19 -18 -41 -69 q-22 -51 -22 -92 q0 -42 31 -88 q31 -46 43 -60 q12 -14 51 -38 q39 -24 71 -23 q32 0 101 6 l35 2 q39 0 70 31 q106 95 106 178 ZM840 -33 q-289 1 -421 63 q-132 62 -212 158 q-29 37 -78 95 q-49 58 -57 70 q-8 12 -9 25 q-2 14 -23 87 q-20 71 -20 141 q0 70 13 175 q13 105 23 130 q9 25 20 45 q10 20 22 47 q12 27 25 52 q12 25 20 42 q8 17 22 32 q14 15 29 27 q16 10 78 68 q62 58 97 76 q176 95 401 99 q164 0 282 -49 q24 -10 76 -33 q52 -23 102 -43 q48 -20 68 -34 q20 -15 48 -46 q125 -152 155 -223 q55 -129 55 -256 l-10 -107 q-2 -20 -3 -62 q-1 -42 -9 -67 q-8 -25 -30 -73 q-22 -48 -46 -114 q-25 -67 -51 -92 q-26 -26 -102 -80 q-77 -54 -95 -62 q-18 -8 -58 -22 q-40 -13 -103 -36 q-115 -33 -209 -33 Z" /><glyph glyph-name="" unicode="õ" d="M1020 1674 q8 3 72 3 q64 0 77 -18 q9 -8 9 -33 q0 -24 -29 -70 q-63 -100 -180 -100 q-72 0 -132 14 q-61 14 -98 21 l-43 8 q-47 10 -63 10 q-33 0 -58 -21 q-26 -21 -40 -22 l-29 0 l-51 2 q-14 -2 -34 6 q-20 8 -21 34 q-2 26 24 72 q26 46 72 75 q46 29 116 29 q72 0 197 -25 q125 -25 142 -25 q17 0 39 18 q22 18 30 22 ZM1034 680 q0 60 -28 110 q-28 50 -70 72 q-94 49 -147 49 q-53 0 -87 -18 q-36 -17 -40 -21 q-4 -4 -28 -12 q-24 -8 -45 -27 q-19 -18 -41 -69 q-22 -51 -22 -92 q0 -42 31 -88 q31 -46 43 -60 q12 -14 51 -38 q39 -24 71 -23 q32 0 101 6 l35 2 q39 0 70 31 q106 95 106 178 ZM840 -33 q-289 1 -421 63 q-132 62 -212 158 q-29 37 -78 95 q-49 58 -57 70 q-8 12 -9 25 q-2 14 -23 87 q-20 71 -20 141 q0 70 13 175 q13 105 23 130 q9 25 20 45 q10 20 22 47 q12 27 25 52 q12 25 20 42 q8 17 22 32 q14 15 29 27 q16 10 78 68 q62 58 97 76 q176 95 401 99 q164 0 282 -49 q24 -10 76 -33 q52 -23 102 -43 q48 -20 68 -34 q20 -15 48 -46 q125 -152 155 -223 q55 -129 55 -256 l-10 -107 q-2 -20 -3 -62 q-1 -42 -9 -67 q-8 -25 -30 -73 q-22 -48 -46 -114 q-25 -67 -51 -92 q-26 -26 -102 -80 q-77 -54 -95 -62 q-18 -8 -58 -22 q-40 -13 -103 -36 q-115 -33 -209 -33 Z" /><glyph glyph-name="" unicode="ö" d="M1106 1683 q14 0 29 3 l22 0 q61 -2 73 -22 q12 -20 17 -101 l0 -33 q-2 -74 -63 -74 l-72 6 l-37 0 l-71 -2 q-30 -2 -48 -1 q-18 1 -38 1 l-29 -2 q-27 0 -49 18 q-22 18 -17 66 l2 41 q3 68 15 84 q25 34 129 16 q0 -2 30 0 l107 0 ZM367 1464 q-9 0 -21 12 q-12 12 -16 33 l0 17 l6 80 q0 51 16 63 q35 20 86 21 l68 -4 l55 0 l88 -5 l23 2 q47 0 65 -14 q18 -14 19 -74 l0 -63 q0 -32 -12 -44 q-12 -10 -30 -20 q-16 -10 -63 -10 l-43 4 l-45 0 l-65 4 q-12 2 -30 -2 q-18 -4 -34 -4 l-61 4 l-6 0 ZM1034 680 q0 60 -28 110 q-28 50 -70 72 q-94 49 -147 49 q-53 0 -87 -18 q-36 -17 -40 -21 q-4 -4 -28 -12 q-24 -8 -45 -27 q-19 -18 -41 -69 q-22 -51 -22 -92 q0 -42 31 -88 q31 -46 43 -60 q12 -14 51 -38 q39 -24 71 -23 q32 0 101 6 l35 2 q39 0 70 31 q106 95 106 178 ZM840 -33 q-289 1 -421 63 q-132 62 -212 158 q-29 37 -78 95 q-49 58 -57 70 q-8 12 -9 25 q-2 14 -23 87 q-20 71 -20 141 q0 70 13 175 q13 105 23 130 q9 25 20 45 q10 20 22 47 q12 27 25 52 q12 25 20 42 q8 17 22 32 q14 15 29 27 q16 10 78 68 q62 58 97 76 q176 95 401 99 q164 0 282 -49 q24 -10 76 -33 q52 -23 102 -43 q48 -20 68 -34 q20 -15 48 -46 q125 -152 155 -223 q55 -129 55 -256 l-10 -107 q-2 -20 -3 -62 q-1 -42 -9 -67 q-8 -25 -30 -73 q-22 -48 -46 -114 q-25 -67 -51 -92 q-26 -26 -102 -80 q-77 -54 -95 -62 q-18 -8 -58 -22 q-40 -13 -103 -36 q-115 -33 -209 -33 Z" /><glyph glyph-name="" unicode="×" d="M291 217 q-23 0 -55 33 q-12 10 -86 90 q-82 82 -89 92 q-10 25 -10 40 q-1 14 15 38 q16 24 76 84 q60 60 74 72 q15 14 15 20 q1 6 -31 38 q-32 32 -81 89 q-59 59 -63 69 q-4 10 -5 22 q0 13 8 28 q16 16 47 43 l23 22 q-1 1 21 23 q22 22 35 34 q13 12 20 19 q71 78 107 78 q36 0 108 -84 q78 -98 94 -98 q16 0 41 26 q121 145 162 145 q41 0 78 -36 q12 -12 57 -70 q0 -2 62 -54 q62 -52 61 -84 q-1 -34 -57 -85 q-56 -51 -64 -60 q-8 -9 -34 -35 q-26 -26 -27 -36 q-1 -10 73 -78 q74 -68 88 -90 q37 -59 -16 -111 q-16 -16 -51 -47 l-51 -51 l-27 -22 q-59 -61 -90 -61 q-31 0 -103 73 q-66 63 -83 83 q-17 20 -21 19 q-4 0 -51 -45 l-60 -57 q-57 -59 -72 -67 q-15 -8 -38 -9 Z" /><glyph glyph-name="" unicode="ø" d="M717 459 q0 -23 106 -8 q70 6 107 22 q41 25 92 88 q41 59 41 107 q0 14 -6 46 q-6 32 -10 54 q-3 23 -13 23 q-10 0 -131 -127 l-41 -48 l-45 -45 l-31 -36 l-30 -31 q-39 -39 -39 -45 ZM842 922 q-24 8 -56 8 q-32 0 -94 -28 q-62 -28 -87 -44 q-25 -16 -55 -73 q-30 -55 -30 -93 q0 -38 8 -78 q15 -77 66 -6 q12 16 66 70 q54 54 106 123 l74 76 q26 25 26 31 q0 6 -24 14 ZM643 1393 q95 12 111 12 q16 0 28 -1 q12 -1 43 -4 q31 -3 91 -5 q60 -2 124 -29 q117 -43 138 -58 q22 -16 30 -16 q8 0 36 26 q28 26 54 58 q26 32 50 33 q25 0 100 -78 q20 -20 20 -35 q0 -22 -45 -65 q-45 -44 -45 -55 q0 -10 29 -35 q16 -20 61 -93 q45 -73 50 -81 l18 -70 l16 -47 q28 -81 2 -254 l2 -41 q0 -48 -47 -158 q-37 -104 -63 -148 q-26 -44 -72 -83 q-59 -45 -78 -57 q-68 -55 -123 -69 q-55 -14 -88 -32 q-39 -14 -137 -31 q-98 -10 -128 -10 q-30 0 -111 8 q-157 5 -223 32 q-18 7 -53 19 q-36 12 -50 23 q-13 10 -21 10 q-8 0 -64 -56 q-56 -56 -77 -56 q-21 0 -51 33 q-22 20 -44 40 q-22 20 -22 39 q0 18 25 47 q25 28 50 53 q26 25 26 30 q1 5 -27 39 q-28 34 -42 47 q-14 13 -22 23 q-9 10 -15 18 q-6 7 -9 14 q-2 6 -4 10 q-2 4 -24 72 q-22 68 -28 90 q-5 22 -9 110 l-2 62 q0 24 9 74 q9 50 10 68 q1 18 2 26 q1 10 1 17 l4 21 q0 7 4 15 q5 10 47 112 q42 102 111 160 q99 99 158 136 q115 59 274 90 Z" /><glyph glyph-name="" unicode="ù" d="M367 1624 q0 45 49 47 l20 0 l68 -2 l86 0 l57 -2 q49 -4 164 2 l12 0 q37 0 70 -48 q10 -15 42 -71 q32 -56 32 -69 q0 -25 -33 -25 l-53 2 l-50 -2 q-70 0 -108 16 q-39 16 -66 25 l-86 25 q-13 4 -45 15 q-32 11 -57 18 q-25 7 -51 15 q-26 8 -38 19 q-13 10 -13 35 ZM420 1368 q2 0 63 2 q109 3 109 -106 l0 -15 l-8 -129 l6 -41 l0 -35 l-8 -63 q-2 -14 -1 -62 q1 -48 -5 -87 q-7 -40 -7 -68 l4 -64 l0 -18 q0 -97 5 -102 l0 -11 q0 -20 17 -50 q36 -64 171 -64 q42 0 104 52 q23 19 23 68 l0 91 l4 225 l-10 59 l0 109 l4 59 l0 123 q-20 69 0 99 q20 30 84 34 l6 0 l51 -2 q20 -2 62 -2 l84 -4 l129 10 l20 0 q104 -4 105 -125 l-2 -67 l2 -105 q0 -39 -10 -88 q-10 -49 -9 -108 l6 -135 l0 -72 q-4 -238 -14 -281 q-10 -43 -16 -55 l-13 -31 q-2 -6 -5 -18 q-3 -11 -6 -21 q-3 -10 -25 -44 q-22 -34 -40 -68 q-18 -34 -42 -57 q-143 -131 -355 -126 l-145 -8 l-84 8 l-17 0 l-55 -4 q-160 0 -250 67 q-26 20 -72 48 q-46 28 -80 55 q-34 27 -63 80 q-29 53 -38 67 q-9 14 -27 81 q-18 67 -15 135 l0 86 l4 67 q0 2 -4 78 q-4 76 -2 158 q2 82 -1 133 q-3 51 -3 84 l4 104 l-2 39 l0 25 q2 90 84 90 l150 -2 l49 2 l84 0 Z" /><glyph glyph-name="" unicode="ú" d="M1110 1624 q0 -25 -13 -35 q-13 -10 -39 -18 q-26 -7 -50 -15 q-24 -8 -57 -19 q-32 -11 -46 -15 l-86 -25 q-19 -5 -63 -22 q-44 -17 -78 -17 l-33 -2 l-49 2 l-53 -2 q-33 0 -33 25 q0 14 38 81 q38 67 61 87 q23 20 44 20 l13 0 q115 -6 163 -2 l58 2 l86 0 l67 2 l21 0 q49 -2 49 -47 ZM420 1368 q2 0 63 2 q109 3 109 -106 l0 -15 l-8 -129 l6 -41 l0 -35 l-8 -63 q-2 -14 -1 -62 q1 -48 -5 -87 q-7 -40 -7 -68 l4 -64 l0 -18 q0 -97 5 -102 l0 -11 q0 -20 17 -50 q36 -64 171 -64 q42 0 104 52 q23 19 23 68 l0 91 l4 225 l-10 59 l0 109 l4 59 l0 123 q-20 69 0 99 q20 30 84 34 l6 0 l51 -2 q20 -2 62 -2 l84 -4 l129 10 l20 0 q104 -4 105 -125 l-2 -67 l2 -105 q0 -39 -10 -88 q-10 -49 -9 -108 l6 -135 l0 -72 q-4 -238 -14 -281 q-10 -43 -16 -55 l-13 -31 q-2 -6 -5 -18 q-3 -11 -6 -21 q-3 -10 -25 -44 q-22 -34 -40 -68 q-18 -34 -42 -57 q-143 -131 -355 -126 l-145 -8 l-84 8 l-17 0 l-55 -4 q-160 0 -250 67 q-26 20 -72 48 q-46 28 -80 55 q-34 27 -63 80 q-29 53 -38 67 q-9 14 -27 81 q-18 67 -15 135 l0 86 l4 67 q0 2 -4 78 q-4 76 -2 158 q2 82 -1 133 q-3 51 -3 84 l4 104 l-2 39 l0 25 q2 90 84 90 l150 -2 l49 2 l84 0 Z" /><glyph glyph-name="" unicode="û" d="M1020 1458 l-90 0 q-29 0 -99 33 q-70 33 -103 33 q-34 0 -95 -32 q-61 -32 -115 -32 l-22 0 l-70 2 l-33 -2 l-16 0 q-31 2 -31 27 q0 25 14 37 q38 33 50 43 q110 110 155 110 l25 -2 l22 0 q20 4 39 4 l21 0 l110 -4 l138 0 q18 -2 26 -7 q8 -5 18 -9 q10 -4 30 -27 q21 -24 37 -34 q16 -10 60 -55 q45 -46 46 -54 q0 -39 -76 -33 q-27 2 -41 2 ZM420 1368 q2 0 63 2 q109 3 109 -106 l0 -15 l-8 -129 l6 -41 l0 -35 l-8 -63 q-2 -14 -1 -62 q1 -48 -5 -87 q-7 -40 -7 -68 l4 -64 l0 -18 q0 -97 5 -102 l0 -11 q0 -20 17 -50 q36 -64 171 -64 q42 0 104 52 q23 19 23 68 l0 91 l4 225 l-10 59 l0 109 l4 59 l0 123 q-20 69 0 99 q20 30 84 34 l6 0 l51 -2 q20 -2 62 -2 l84 -4 l129 10 l20 0 q104 -4 105 -125 l-2 -67 l2 -105 q0 -39 -10 -88 q-10 -49 -9 -108 l6 -135 l0 -72 q-4 -238 -14 -281 q-10 -43 -16 -55 l-13 -31 q-2 -6 -5 -18 q-3 -11 -6 -21 q-3 -10 -25 -44 q-22 -34 -40 -68 q-18 -34 -42 -57 q-143 -131 -355 -126 l-145 -8 l-84 8 l-17 0 l-55 -4 q-160 0 -250 67 q-26 20 -72 48 q-46 28 -80 55 q-34 27 -63 80 q-29 53 -38 67 q-9 14 -27 81 q-18 67 -15 135 l0 86 l4 67 q0 2 -4 78 q-4 76 -2 158 q2 82 -1 133 q-3 51 -3 84 l4 104 l-2 39 l0 25 q2 90 84 90 l150 -2 l49 2 l84 0 Z" /><glyph glyph-name="" unicode="ü" d="M1057 1683 q16 0 28 3 l23 0 q62 -2 74 -22 q12 -20 16 -101 l0 -33 q-2 -74 -63 -74 l-72 6 l-37 0 l-72 -2 q-31 -2 -48 -1 q-17 1 -38 1 l-28 -2 q-26 0 -48 18 q-22 18 -18 66 l2 41 q4 68 16 84 q25 34 128 16 l137 0 ZM317 1464 q-8 0 -20 12 q-12 12 -16 33 l0 17 l6 80 q0 51 16 63 q35 20 86 21 l68 -4 l55 0 l88 -5 l23 2 q47 0 65 -14 q18 -14 19 -74 l0 -63 q-1 -30 -13 -42 q-12 -12 -28 -22 q-16 -10 -64 -10 l-43 4 l-45 0 l-65 4 q-13 2 -31 -2 q-18 -4 -33 -4 l-61 4 l-7 0 ZM420 1368 q2 0 63 2 q109 3 109 -106 l0 -15 l-8 -129 l6 -41 l0 -35 l-8 -63 q-2 -14 -1 -62 q1 -48 -5 -87 q-7 -40 -7 -68 l4 -64 l0 -18 q0 -97 5 -102 l0 -11 q0 -20 17 -50 q36 -64 171 -64 q42 0 104 52 q23 19 23 68 l0 91 l4 225 l-10 59 l0 109 l4 59 l0 123 q-20 69 0 99 q20 30 84 34 l6 0 l51 -2 q20 -2 62 -2 l84 -4 l129 10 l20 0 q104 -4 105 -125 l-2 -67 l2 -105 q0 -39 -10 -88 q-10 -49 -9 -108 l6 -135 l0 -72 q-4 -238 -14 -281 q-10 -43 -16 -55 l-13 -31 q-2 -6 -5 -18 q-3 -11 -6 -21 q-3 -10 -25 -44 q-22 -34 -40 -68 q-18 -34 -42 -57 q-143 -131 -355 -126 l-145 -8 l-84 8 l-17 0 l-55 -4 q-160 0 -250 67 q-26 20 -72 48 q-46 28 -80 55 q-34 27 -63 80 q-29 53 -38 67 q-9 14 -27 81 q-18 67 -15 135 l0 86 l4 67 q0 2 -4 78 q-4 76 -2 158 q2 82 -1 133 q-3 51 -3 84 l4 104 l-2 39 l0 25 q2 90 84 90 l150 -2 l49 2 l84 0 Z" /><glyph glyph-name="" unicode="ý" d="M1065 1624 q0 -25 -13 -35 q-13 -10 -39 -18 q-27 -7 -51 -15 q-24 -8 -56 -19 q-32 -11 -46 -15 l-86 -25 q-19 -5 -63 -22 q-44 -17 -78 -17 l-33 -2 l-49 2 l-53 -2 q-33 0 -33 25 q0 14 38 81 q38 67 61 87 q23 20 44 20 l13 0 q115 -6 163 -2 l58 2 l86 0 l67 2 l21 0 q49 -2 49 -47 ZM418 162 q2 12 2 97 q0 85 -4 131 q-9 105 -125 294 l-139 227 q-82 131 -102 189 q-20 58 -57 111 q-36 54 -36 89 q1 34 21 54 q20 20 79 20 l27 0 l66 -8 l49 4 l22 -2 q23 -2 70 -2 l35 0 l108 6 q10 0 43 -22 q29 -29 43 -90 q6 -16 13 -28 q7 -12 61 -116 q54 -106 68 -115 q12 -6 20 -6 q23 0 94 113 q12 20 44 64 q32 44 60 94 q28 50 36 62 q9 12 42 26 q34 16 54 16 q20 0 38 -2 q18 -2 124 0 l45 0 q45 -2 82 2 q37 4 38 4 q66 0 87 -26 q21 -26 8 -82 q-4 -12 -20 -37 q-16 -25 -23 -46 q-8 -21 -36 -57 q-29 -35 -55 -91 q-26 -56 -142 -224 q-181 -261 -200 -365 q-10 -78 -10 -184 q0 -106 6 -130 q19 -78 -6 -109 q-26 -32 -76 -31 l-67 8 q-19 4 -67 0 q-48 -4 -64 -4 l-94 2 l-80 -4 q-94 0 -94 88 l12 80 Z" /><glyph glyph-name="" unicode="þ" d="M678 590 q10 0 82 13 q72 13 80 18 q57 27 57 86 q0 59 -54 91 q-54 32 -130 32 q-76 0 -88 -24 q-12 -23 -13 -34 l0 -67 l-4 -60 q0 -55 70 -55 ZM670 1249 q10 2 87 2 q77 0 212 -39 q133 -29 198 -84 q121 -94 143 -118 q43 -46 56 -103 q37 -78 37 -174 q0 -25 -8 -99 q-17 -159 -76 -222 q-2 -2 -15 -16 q-13 -14 -35 -37 l-46 -46 l-47 -37 q-53 -39 -99 -61 q-104 -41 -139 -45 q-206 -14 -283 -14 q-22 -4 -22 -37 l0 -45 q0 -37 -23 -60 q-23 -16 -69 -16 q-46 0 -80 2 q-81 -6 -93 -6 q-12 0 -65 6 l-55 0 q-74 -6 -84 -6 q-90 0 -90 82 l10 147 l-2 107 q8 104 8 137 l-10 143 q0 12 6 158 l-2 160 l4 139 q0 80 -6 138 q-6 58 -6 86 q0 27 26 53 q26 26 58 26 l127 -4 l176 8 q81 0 115 -16 q34 -16 42 -56 q8 -40 11 -46 q4 -6 18 -7 l21 0 Z" /><glyph glyph-name="" unicode="ß" d="M590 152 q-6 57 -6 94 q0 37 6 49 l0 59 q0 12 18 24 q18 12 28 13 q10 0 34 -12 q24 -12 41 -12 q57 0 57 79 q0 34 -16 62 q-16 28 -56 70 l-47 53 q-47 37 -57 51 q-12 24 -12 48 q0 24 11 39 q11 15 50 54 q39 39 39 85 q0 46 -29 75 q-13 14 -35 14 q-22 0 -43 -14 q-37 -20 -36 -72 l6 -98 l-8 -125 l0 -78 q8 -90 8 -104 q0 -14 -4 -64 l0 -219 l-7 -80 q12 -84 13 -88 q0 -59 -76 -59 l-6 0 l-33 4 l-141 0 q-14 2 -42 2 q-28 0 -46 -2 l-72 0 q-47 0 -59 27 q-12 27 -6 88 q6 61 6 127 q0 66 6 145 l0 29 l-8 151 q0 37 2 58 l4 151 l-4 150 q0 84 12 124 q12 40 52 112 q40 72 55 88 q15 17 57 49 q42 32 61 38 q137 49 248 49 q18 0 117 -10 l69 -6 q94 -18 120 -28 q26 -10 83 -50 q57 -41 76 -61 q24 -31 54 -95 q30 -64 33 -90 q3 -26 3 -60 q0 -34 -29 -130 q-27 -48 -27 -66 q0 -18 71 -96 q70 -78 75 -114 l14 -52 q18 -43 23 -75 l0 -60 q0 -80 -5 -119 q-5 -39 -67 -147 q-31 -53 -100 -96 q-25 -14 -88 -29 l-70 -12 l-90 -4 l-24 -2 q-30 5 -104 16 q-73 10 -91 45 q-4 12 -8 107 Z" /><glyph glyph-name="" unicode="à" d="M721 1444 q35 0 70 -48 q9 -15 41 -71 q32 -56 32 -70 q0 -25 -33 -24 l-53 2 l-49 -2 q-68 1 -108 17 q-39 16 -66 24 l-86 24 q-14 4 -46 16 q-32 12 -81 25 q-49 14 -63 25 q-14 12 -15 37 q0 45 49 47 l21 0 l67 -2 l86 0 l58 -2 q49 -4 164 2 l12 0 ZM645 311 q37 -1 59 21 q22 22 21 50 q1 28 -23 43 q-24 15 -47 15 l-75 4 q-38 4 -62 -22 q-24 -26 -24 -51 q0 -64 67 -66 l45 6 l39 0 ZM791 43 l0 12 q-1 9 -7 17 q-6 8 -19 -1 q-13 -9 -21 -13 q-8 -4 -37 -21 l-19 -10 q-85 -47 -188 -47 q-103 0 -118 5 q-15 5 -30 11 q-15 6 -81 25 q-66 20 -85 32 q-159 129 -159 301 q0 64 39 148 q37 84 85 128 q48 44 97 54 l55 14 q41 10 64 22 q23 12 107 11 q100 0 160 -12 q60 -12 86 -12 q26 1 26 27 q-1 37 -74 69 q-16 6 -74 8 l-80 4 q-58 0 -117 -10 l-82 -14 q-20 -5 -35 -9 q-15 -4 -38 -4 q-23 0 -39 14 q-17 14 -23 29 q-6 14 -6 88 l0 39 l-2 25 l0 12 l-2 39 q0 41 29 57 q29 15 87 23 q58 8 210 16 l43 2 q6 0 23 2 q17 2 40 -1 q23 -3 45 -3 l51 -2 l50 0 q40 0 112 -9 q72 -9 110 -25 q38 -16 98 -61 q60 -45 80 -69 q20 -24 46 -88 q26 -64 23 -139 l-7 -119 q-2 -35 1 -85 q3 -50 4 -97 l0 -78 l-11 -178 l11 -84 q0 -51 -29 -74 q-25 -16 -53 -16 l-58 4 l-94 0 q-51 0 -100 -4 l-56 -4 q-38 0 -38 51 Z" /><glyph glyph-name="" unicode="á" d="M870 1444 l68 2 l20 0 q49 -2 50 -47 q0 -25 -14 -35 q-14 -10 -38 -18 q-26 -8 -51 -16 q-25 -6 -57 -18 q-32 -12 -45 -16 l-86 -24 q-2 0 -64 -22 q-62 -22 -98 -21 l-61 4 l-54 -2 q-33 0 -32 24 q0 24 73 141 q31 46 70 48 l12 0 q115 -6 164 -2 l57 2 l86 0 ZM645 311 q37 -1 59 21 q22 22 21 50 q1 28 -23 43 q-24 15 -47 15 l-75 4 q-38 4 -62 -22 q-24 -26 -24 -51 q0 -64 67 -66 l45 6 l39 0 ZM791 43 l0 12 q-1 9 -7 17 q-6 8 -19 -1 q-13 -9 -21 -13 q-8 -4 -37 -21 l-19 -10 q-85 -47 -188 -47 q-103 0 -118 5 q-15 5 -30 11 q-15 6 -81 25 q-66 20 -85 32 q-159 129 -159 301 q0 64 39 148 q37 84 85 128 q48 44 97 54 l55 14 q41 10 64 22 q23 12 107 11 q100 0 160 -12 q60 -12 86 -12 q26 1 26 27 q-1 37 -74 69 q-16 6 -74 8 l-80 4 q-58 0 -117 -10 l-82 -14 q-20 -5 -35 -9 q-15 -4 -38 -4 q-23 0 -39 14 q-17 14 -23 29 q-6 14 -6 88 l0 39 l-2 25 l0 12 l-2 39 q0 41 29 57 q29 15 87 23 q58 8 210 16 l43 2 q6 0 23 2 q17 2 40 -1 q23 -3 45 -3 l51 -2 l50 0 q40 0 112 -9 q72 -9 110 -25 q38 -16 98 -61 q60 -45 80 -69 q20 -24 46 -88 q26 -64 23 -139 l-7 -119 q-2 -35 1 -85 q3 -50 4 -97 l0 -78 l-11 -178 l11 -84 q0 -51 -29 -74 q-25 -16 -53 -16 l-58 4 l-94 0 q-51 0 -100 -4 l-56 -4 q-38 0 -38 51 Z" /><glyph glyph-name="" unicode="â" d="M1034 1264 q0 -39 -76 -33 q-26 2 -40 2 l-91 0 q-29 1 -97 33 q-68 32 -103 32 q-35 0 -97 -32 q-62 -32 -114 -31 l-23 0 l-69 2 l-33 -2 l-17 0 q-31 2 -30 27 q0 24 18 42 q18 18 45 37 q111 111 156 111 l24 -2 l23 0 q20 4 39 4 l20 0 l111 -4 l137 0 q33 -4 47 -18 q12 -8 30 -28 q18 -20 38 -34 q20 -14 61 -56 q41 -42 41 -50 ZM645 311 q37 -1 59 21 q22 22 21 50 q1 28 -23 43 q-24 15 -47 15 l-75 4 q-38 4 -62 -22 q-24 -26 -24 -51 q0 -64 67 -66 l45 6 l39 0 ZM791 43 l0 12 q-1 9 -7 17 q-6 8 -19 -1 q-13 -9 -21 -13 q-8 -4 -37 -21 l-19 -10 q-85 -47 -188 -47 q-103 0 -118 5 q-15 5 -30 11 q-15 6 -81 25 q-66 20 -85 32 q-159 129 -159 301 q0 64 39 148 q37 84 85 128 q48 44 97 54 l55 14 q41 10 64 22 q23 12 107 11 q100 0 160 -12 q60 -12 86 -12 q26 1 26 27 q-1 37 -74 69 q-16 6 -74 8 l-80 4 q-58 0 -117 -10 l-82 -14 q-20 -5 -35 -9 q-15 -4 -38 -4 q-23 0 -39 14 q-17 14 -23 29 q-6 14 -6 88 l0 39 l-2 25 l0 12 l-2 39 q0 41 29 57 q29 15 87 23 q58 8 210 16 l43 2 q6 0 23 2 q17 2 40 -1 q23 -3 45 -3 l51 -2 l50 0 q40 0 112 -9 q72 -9 110 -25 q38 -16 98 -61 q60 -45 80 -69 q20 -24 46 -88 q26 -64 23 -139 l-7 -119 q-2 -35 1 -85 q3 -50 4 -97 l0 -78 l-11 -178 l11 -84 q0 -51 -29 -74 q-25 -16 -53 -16 l-58 4 l-94 0 q-51 0 -100 -4 l-56 -4 q-38 0 -38 51 Z" /><glyph glyph-name="" unicode="ã" d="M272 1248 q-22 7 -22 34 q0 27 26 73 q26 46 70 77 q45 26 117 26 q73 0 197 -24 q124 -24 142 -25 q18 1 38 19 q20 18 29 21 q9 3 74 3 q65 0 77 -18 q8 -8 8 -33 q0 -25 -28 -71 q-63 -101 -181 -99 q-67 0 -229 35 l-43 8 q-47 10 -72 10 q-25 0 -44 -16 q-19 -16 -26 -22 q-7 -6 -20 -5 l-29 0 l-51 2 q-11 -2 -33 5 ZM645 311 q37 -1 59 21 q22 22 21 50 q1 28 -23 43 q-24 15 -47 15 l-75 4 q-38 4 -62 -22 q-24 -26 -24 -51 q0 -64 67 -66 l45 6 l39 0 ZM791 43 l0 12 q-1 9 -7 17 q-6 8 -19 -1 q-13 -9 -21 -13 q-8 -4 -37 -21 l-19 -10 q-85 -47 -188 -47 q-103 0 -118 5 q-15 5 -30 11 q-15 6 -81 25 q-66 20 -85 32 q-159 129 -159 301 q0 64 39 148 q37 84 85 128 q48 44 97 54 l55 14 q41 10 64 22 q23 12 107 11 q100 0 160 -12 q60 -12 86 -12 q26 1 26 27 q-1 37 -74 69 q-16 6 -74 8 l-80 4 q-58 0 -117 -10 l-82 -14 q-20 -5 -35 -9 q-15 -4 -38 -4 q-23 0 -39 14 q-17 14 -23 29 q-6 14 -6 88 l0 39 l-2 25 l0 12 l-2 39 q0 41 29 57 q29 15 87 23 q58 8 210 16 l43 2 q6 0 23 2 q17 2 40 -1 q23 -3 45 -3 l51 -2 l50 0 q40 0 112 -9 q72 -9 110 -25 q38 -16 98 -61 q60 -45 80 -69 q20 -24 46 -88 q26 -64 23 -139 l-7 -119 q-2 -35 1 -85 q3 -50 4 -97 l0 -78 l-11 -178 l11 -84 q0 -51 -29 -74 q-25 -16 -53 -16 l-58 4 l-94 0 q-51 0 -100 -4 l-56 -4 q-38 0 -38 51 Z" /><glyph glyph-name="" unicode="ä" d="M1032 1231 l-71 6 l-37 0 l-72 -2 q-31 -2 -48 -1 q-17 1 -38 1 l-29 -2 q-27 0 -49 18 q-22 18 -16 66 l2 41 q4 68 15 84 q20 29 128 16 l137 0 l29 2 l23 0 q61 -2 73 -21 q12 -19 17 -102 l0 -32 q-2 -74 -64 -74 ZM215 1239 q-8 0 -20 12 q-12 12 -17 33 l0 16 l6 80 q0 51 17 64 q35 20 86 20 l67 -4 l56 0 l88 -4 l22 2 q48 0 66 -14 q18 -14 18 -74 l0 -63 q0 -43 -29 -58 q-29 -16 -75 -16 l-43 4 l-45 0 l-66 4 q-12 2 -30 -2 q-18 -4 -33 -4 l-62 4 l-6 0 ZM645 311 q37 -1 59 21 q22 22 21 50 q1 28 -23 43 q-24 15 -47 15 l-75 4 q-38 4 -62 -22 q-24 -26 -24 -51 q0 -64 67 -66 l45 6 l39 0 ZM791 43 l0 12 q-1 9 -7 17 q-6 8 -19 -1 q-13 -9 -21 -13 q-8 -4 -37 -21 l-19 -10 q-85 -47 -188 -47 q-103 0 -118 5 q-15 5 -30 11 q-15 6 -81 25 q-66 20 -85 32 q-159 129 -159 301 q0 64 39 148 q37 84 85 128 q48 44 97 54 l55 14 q41 10 64 22 q23 12 107 11 q100 0 160 -12 q60 -12 86 -12 q26 1 26 27 q-1 37 -74 69 q-16 6 -74 8 l-80 4 q-58 0 -117 -10 l-82 -14 q-20 -5 -35 -9 q-15 -4 -38 -4 q-23 0 -39 14 q-17 14 -23 29 q-6 14 -6 88 l0 39 l-2 25 l0 12 l-2 39 q0 41 29 57 q29 15 87 23 q58 8 210 16 l43 2 q6 0 23 2 q17 2 40 -1 q23 -3 45 -3 l51 -2 l50 0 q40 0 112 -9 q72 -9 110 -25 q38 -16 98 -61 q60 -45 80 -69 q20 -24 46 -88 q26 -64 23 -139 l-7 -119 q-2 -35 1 -85 q3 -50 4 -97 l0 -78 l-11 -178 l11 -84 q0 -51 -29 -74 q-25 -16 -53 -16 l-58 4 l-94 0 q-51 0 -100 -4 l-56 -4 q-38 0 -38 51 Z" /><glyph glyph-name="" unicode="å" d="M641 1452 q-86 0 -86 -52 q0 -52 92 -52 q45 0 64 16 q16 16 16 34 q0 18 -16 34 q-25 20 -70 20 ZM915 1399 q0 -84 -78 -126 q-78 -42 -214 -42 q-49 0 -117 17 q-68 16 -106 62 q-38 46 -38 108 q0 62 77 109 q77 46 196 46 q119 0 199 -45 q80 -45 81 -129 ZM645 311 q37 -1 59 21 q22 22 21 50 q1 28 -23 43 q-24 15 -47 15 l-75 4 q-38 4 -62 -22 q-24 -26 -24 -51 q0 -64 67 -66 l45 6 l39 0 ZM791 43 l0 12 q-1 9 -7 17 q-6 8 -19 -1 q-13 -9 -21 -13 q-8 -4 -37 -21 l-19 -10 q-85 -47 -188 -47 q-103 0 -118 5 q-15 5 -30 11 q-15 6 -81 25 q-66 20 -85 32 q-159 129 -159 301 q0 64 39 148 q37 84 85 128 q48 44 97 54 l55 14 q41 10 64 22 q23 12 107 11 q100 0 160 -12 q60 -12 86 -12 q26 1 26 27 q-1 37 -74 69 q-16 6 -74 8 l-80 4 q-58 0 -117 -10 l-82 -14 q-20 -5 -35 -9 q-15 -4 -38 -4 q-23 0 -39 14 q-17 14 -23 29 q-6 14 -6 88 l0 39 l-2 25 l0 12 l-2 39 q0 41 29 57 q29 15 87 23 q58 8 210 16 l43 2 q6 0 23 2 q17 2 40 -1 q23 -3 45 -3 l51 -2 l50 0 q40 0 112 -9 q72 -9 110 -25 q38 -16 98 -61 q60 -45 80 -69 q20 -24 46 -88 q26 -64 23 -139 l-7 -119 q-2 -35 1 -85 q3 -50 4 -97 l0 -78 l-11 -178 l11 -84 q0 -51 -29 -74 q-25 -16 -53 -16 l-58 4 l-94 0 q-51 0 -100 -4 l-56 -4 q-38 0 -38 51 Z" /><glyph glyph-name="" unicode="æ" d="M1462 745 q0 59 -125 60 q-88 0 -116 -6 q-43 -8 -43 -49 q0 -41 57 -41 q29 0 86 2 l35 4 q8 0 42 -4 q34 -4 56 14 q8 8 8 20 ZM674 315 q51 17 51 61 q0 44 -32 55 q-32 11 -94 11 q-105 0 -105 -77 q0 -59 71 -60 q12 0 49 6 q47 0 60 4 ZM27 332 q0 156 110 280 q51 58 162 82 q111 35 215 35 l70 -4 q27 0 116 -20 l9 0 q37 0 36 26 q1 27 -35 51 q-36 24 -51 23 l-61 4 q-70 4 -106 4 q-36 0 -43 -2 l-52 -10 l-41 -6 q-84 -19 -112 -19 q-28 0 -47 23 q-20 20 -21 55 l2 92 l-4 78 q0 41 32 55 q32 14 173 33 l110 6 l86 4 q4 0 62 -4 q137 0 264 -55 q33 -19 45 -19 q12 0 105 35 q69 31 109 41 q40 10 142 10 q102 0 195 -24 q92 -24 113 -35 l104 -63 q64 -38 124 -138 q24 -38 26 -47 q4 -7 16 -61 q12 -54 14 -107 l13 -114 q0 -43 -30 -74 q-30 -31 -83 -31 q-18 0 -33 2 l-28 0 l-105 -4 q-25 -2 -65 -2 l-123 10 l-76 -4 l-100 4 q-63 0 -64 -41 q0 -19 37 -41 q37 -22 88 -22 l53 0 q12 0 49 -6 q37 -6 138 -6 l112 0 l99 20 q31 0 48 -17 q17 -17 17 -42 l-6 -129 l4 -62 q2 -6 2 -32 q0 -26 -22 -50 q-51 -39 -148 -39 l-143 0 l-121 -6 q-2 0 -39 4 l-33 4 l-45 9 l-121 16 q-35 6 -139 45 q-64 37 -80 37 q-16 0 -90 -43 q-121 -55 -215 -57 l-39 -4 l-59 -7 l-6 0 q-31 1 -193 21 l-63 20 q-63 16 -107 45 q-97 79 -137 193 q-14 37 -14 80 Z" /><glyph glyph-name="" unicode="ç" d="M862 207 q8 -80 8 -120 q0 -40 -32 -66 q-32 -27 -92 -35 q-58 -8 -88 -20 q-67 -26 16 -87 q47 -35 47 -96 q0 -123 -154 -133 q-37 -4 -44 -4 q-7 0 -46 8 l-33 4 q-41 16 -51 25 q-25 19 -25 71 q1 105 35 119 q15 10 21 10 q6 0 43 -6 l12 0 q33 0 33 35 q0 36 -66 66 q-66 30 -102 57 q-82 39 -133 94 q-73 61 -99 93 q-26 32 -50 92 q-24 60 -33 108 l-9 39 q-6 109 -6 129 q0 20 29 129 q27 75 43 103 q16 28 41 61 q74 121 192 184 q53 29 125 38 q72 9 234 9 l86 0 q60 0 82 -24 q22 -24 22 -54 l-2 -151 l4 -111 q0 -113 -73 -112 l-56 2 l-22 -2 q-99 -2 -117 -4 q-18 -2 -43 -17 q-51 -27 -51 -92 q0 -65 29 -90 q29 -25 61 -25 l72 2 q49 -6 59 -6 l14 0 l56 4 q33 0 55 -22 q14 -16 14 -37 l-6 -168 Z" /><glyph glyph-name="" unicode="è" d="M238 1399 q0 45 49 47 l20 0 l68 -2 l86 0 l57 -2 q49 -4 164 2 l12 0 q35 0 70 -48 q10 -15 42 -71 q32 -56 32 -70 q0 -25 -33 -24 l-53 2 l-50 -2 q-67 1 -107 17 q-40 16 -67 24 l-86 24 q-14 4 -46 16 q-32 12 -80 25 q-49 14 -63 25 q-15 12 -15 37 ZM610 805 q-129 1 -129 -45 q0 -50 51 -51 l70 2 l66 4 l32 -4 l17 0 q17 0 35 11 q18 12 18 28 q0 16 -26 36 q-26 20 -91 23 l-6 0 l-14 -2 l-4 0 l-19 -2 ZM1180 787 q20 -75 20 -99 q0 -24 6 -61 l6 -49 q4 -25 -5 -59 q-19 -73 -87 -73 l-92 -2 l-147 -8 l-19 0 q-53 0 -80 4 q-27 4 -39 4 l-36 -4 l-58 0 l-76 2 q-66 2 -65 -41 q0 -19 35 -41 q35 -22 94 -22 l65 0 l99 -8 l133 0 q51 0 92 10 l45 10 q41 10 61 -12 q20 -22 19 -40 q0 -18 -4 -53 q-4 -34 -2 -61 l6 -78 q6 -74 -31 -92 q-47 -27 -153 -32 l-72 -5 l-158 -8 q-47 0 -129 15 l-39 6 q-98 16 -148 34 q-50 18 -124 56 q-133 72 -225 244 q-57 106 -58 237 q0 37 12 86 q16 67 26 117 q11 51 38 92 q26 41 74 99 q48 59 76 74 q28 15 58 25 q30 10 51 23 q21 12 45 21 q24 8 34 10 q10 2 21 6 l22 6 q51 14 131 14 q80 0 277 -44 q49 -10 151 -86 q31 -23 81 -82 q49 -59 69 -135 Z" /><glyph glyph-name="" unicode="é" d="M981 1399 q0 -25 -15 -36 q-15 -11 -63 -26 q-49 -13 -81 -25 q-32 -12 -46 -16 l-86 -24 q-2 0 -64 -22 q-62 -22 -98 -21 l-61 4 l-53 -2 q-33 0 -33 24 q-1 13 31 69 q32 56 42 72 q32 47 70 48 l13 0 q115 -6 163 -2 l58 2 l86 0 l67 2 l21 0 q49 -2 49 -47 ZM610 805 q-129 1 -129 -45 q0 -50 51 -51 l70 2 l66 4 l32 -4 l17 0 q17 0 35 11 q18 12 18 28 q0 16 -26 36 q-26 20 -91 23 l-6 0 l-14 -2 l-4 0 l-19 -2 ZM1180 787 q20 -75 20 -99 q0 -24 6 -61 l6 -49 q4 -25 -5 -59 q-19 -73 -87 -73 l-92 -2 l-147 -8 l-19 0 q-53 0 -80 4 q-27 4 -39 4 l-36 -4 l-58 0 l-76 2 q-66 2 -65 -41 q0 -19 35 -41 q35 -22 94 -22 l65 0 l99 -8 l133 0 q51 0 92 10 l45 10 q41 10 61 -12 q20 -22 19 -40 q0 -18 -4 -53 q-4 -34 -2 -61 l6 -78 q6 -74 -31 -92 q-47 -27 -153 -32 l-72 -5 l-158 -8 q-47 0 -129 15 l-39 6 q-98 16 -148 34 q-50 18 -124 56 q-133 72 -225 244 q-57 106 -58 237 q0 37 12 86 q16 67 26 117 q11 51 38 92 q26 41 74 99 q48 59 76 74 q28 15 58 25 q30 10 51 23 q21 12 45 21 q24 8 34 10 q10 2 21 6 l22 6 q51 14 131 14 q80 0 277 -44 q49 -10 151 -86 q31 -23 81 -82 q49 -59 69 -135 Z" /><glyph glyph-name="" unicode="ê" d="M891 1233 l-90 0 q-29 1 -97 33 q-68 32 -104 32 q-35 0 -96 -32 q-61 -32 -115 -31 l-22 0 l-70 2 l-33 -2 l-16 0 q-31 2 -31 27 q-1 25 13 37 q40 35 51 42 q111 111 155 111 l25 -2 l22 0 q20 4 39 4 l21 0 l110 -4 l95 2 q54 0 76 -11 q22 -11 42 -35 q20 -22 40 -36 q20 -14 60 -56 q41 -42 42 -50 q0 -39 -76 -33 q-27 2 -41 2 ZM610 805 q-129 1 -129 -45 q0 -50 51 -51 l70 2 l66 4 l32 -4 l17 0 q17 0 35 11 q18 12 18 28 q0 16 -26 36 q-26 20 -91 23 l-6 0 l-14 -2 l-4 0 l-19 -2 ZM1180 787 q20 -75 20 -99 q0 -24 6 -61 l6 -49 q4 -25 -5 -59 q-19 -73 -87 -73 l-92 -2 l-147 -8 l-19 0 q-53 0 -80 4 q-27 4 -39 4 l-36 -4 l-58 0 l-76 2 q-66 2 -65 -41 q0 -19 35 -41 q35 -22 94 -22 l65 0 l99 -8 l133 0 q51 0 92 10 l45 10 q41 10 61 -12 q20 -22 19 -40 q0 -18 -4 -53 q-4 -34 -2 -61 l6 -78 q6 -74 -31 -92 q-47 -27 -153 -32 l-72 -5 l-158 -8 q-47 0 -129 15 l-39 6 q-98 16 -148 34 q-50 18 -124 56 q-133 72 -225 244 q-57 106 -58 237 q0 37 12 86 q16 67 26 117 q11 51 38 92 q26 41 74 99 q48 59 76 74 q28 15 58 25 q30 10 51 23 q21 12 45 21 q24 8 34 10 q10 2 21 6 l22 6 q51 14 131 14 q80 0 277 -44 q49 -10 151 -86 q31 -23 81 -82 q49 -59 69 -135 Z" /><glyph glyph-name="" unicode="ë" d="M1008 1231 l-72 6 l-37 0 l-72 -2 q-31 -2 -48 -1 q-17 1 -38 1 l-28 -2 q-27 0 -49 18 q-22 18 -17 66 l2 41 q3 68 15 84 q21 29 129 16 l137 0 l28 2 l23 0 q61 -2 73 -21 q12 -19 17 -102 l0 -32 q-2 -74 -63 -74 ZM580 1307 q0 -74 -105 -74 l-43 4 l-45 0 l-65 4 q-12 2 -30 -2 q-18 -4 -34 -4 l-61 4 l-7 0 q-8 0 -20 12 q-12 12 -16 33 l0 16 l6 80 q0 51 16 64 q35 20 86 20 l68 -4 l55 0 l88 -4 l23 2 q47 0 65 -14 q18 -14 19 -74 l0 -63 ZM610 805 q-129 1 -129 -45 q0 -50 51 -51 l70 2 l66 4 l32 -4 l17 0 q17 0 35 11 q18 12 18 28 q0 16 -26 36 q-26 20 -91 23 l-6 0 l-14 -2 l-4 0 l-19 -2 ZM1180 787 q20 -75 20 -99 q0 -24 6 -61 l6 -49 q4 -25 -5 -59 q-19 -73 -87 -73 l-92 -2 l-147 -8 l-19 0 q-53 0 -80 4 q-27 4 -39 4 l-36 -4 l-58 0 l-76 2 q-66 2 -65 -41 q0 -19 35 -41 q35 -22 94 -22 l65 0 l99 -8 l133 0 q51 0 92 10 l45 10 q41 10 61 -12 q20 -22 19 -40 q0 -18 -4 -53 q-4 -34 -2 -61 l6 -78 q6 -74 -31 -92 q-47 -27 -153 -32 l-72 -5 l-158 -8 q-47 0 -129 15 l-39 6 q-98 16 -148 34 q-50 18 -124 56 q-133 72 -225 244 q-57 106 -58 237 q0 37 12 86 q16 67 26 117 q11 51 38 92 q26 41 74 99 q48 59 76 74 q28 15 58 25 q30 10 51 23 q21 12 45 21 q24 8 34 10 q10 2 21 6 l22 6 q51 14 131 14 q80 0 277 -44 q49 -10 151 -86 q31 -23 81 -82 q49 -59 69 -135 Z" /><glyph glyph-name="" unicode="ì" d="M-57 1399 q0 45 49 47 l20 0 l68 -2 l86 0 l57 -2 q49 -4 164 2 l12 0 q35 0 70 -48 q10 -15 42 -71 q32 -56 32 -70 q0 -25 -33 -24 l-53 2 l-49 -2 q-68 1 -108 17 q-40 16 -67 24 l-86 24 q-13 4 -45 16 q-32 12 -81 25 q-49 14 -63 25 q-15 12 -15 37 ZM334 0 q-117 0 -191 -6 l-10 0 q-18 4 -44 30 q-26 26 -26 101 l7 131 l-2 47 q-4 90 2 137 q6 47 6 154 l-6 149 l6 220 l0 79 q6 70 102 70 l45 -2 l33 0 l96 -4 l117 8 l10 0 q47 0 67 -27 q20 -27 21 -104 l-4 -369 l0 -32 l-6 -111 l0 -201 l-2 -73 l6 -84 q0 -119 -119 -119 l-12 0 l-63 6 l-33 0 Z" /><glyph glyph-name="" unicode="í" d="M686 1399 q0 -25 -13 -35 q-13 -10 -39 -18 q-26 -8 -50 -16 q-25 -6 -57 -18 q-32 -12 -46 -16 l-86 -24 q-2 0 -64 -22 q-62 -22 -98 -21 l-61 4 l-53 -2 q-33 0 -33 24 q0 13 32 69 q32 56 42 72 q32 47 69 48 l13 0 q115 -6 164 -2 l57 2 l86 0 l67 2 l21 0 q49 -2 49 -47 ZM334 0 q-117 0 -191 -6 l-10 0 q-18 4 -44 30 q-26 26 -26 101 l7 131 l-2 47 q-4 90 2 137 q6 47 6 154 l-6 149 l6 220 l0 79 q6 70 102 70 l45 -2 l33 0 l96 -4 l117 8 l10 0 q47 0 67 -27 q20 -27 21 -104 l-4 -369 l0 -32 l-6 -111 l0 -201 l-2 -73 l6 -84 q0 -119 -119 -119 l-12 0 l-63 6 l-33 0 Z" /><glyph glyph-name="" unicode="î" d="M596 1233 l-90 0 q-29 1 -97 33 q-68 32 -104 32 q-35 0 -96 -32 q-61 -32 -115 -31 l-22 0 l-70 2 l-33 -2 l-16 0 q-31 2 -31 27 q0 25 14 37 q40 35 50 42 q111 111 155 111 l25 -2 l22 0 q20 4 39 4 l21 0 l110 -4 l138 0 q33 -4 47 -18 q12 -8 30 -28 q18 -20 39 -36 q21 -15 61 -55 q39 -41 40 -49 q0 -39 -76 -33 q-27 2 -41 2 ZM334 0 q-117 0 -191 -6 l-10 0 q-18 4 -44 30 q-26 26 -26 101 l7 131 l-2 47 q-4 90 2 137 q6 47 6 154 l-6 149 l6 220 l0 79 q6 70 102 70 l45 -2 l33 0 l96 -4 l117 8 l10 0 q47 0 67 -27 q20 -27 21 -104 l-4 -369 l0 -32 l-6 -111 l0 -201 l-2 -73 l6 -84 q0 -119 -119 -119 l-12 0 l-63 6 l-33 0 Z" /><glyph glyph-name="" unicode="ï" d="M711 1231 l-72 6 l-37 0 l-72 -2 q-31 -2 -48 -1 q-17 1 -38 1 l-28 -2 q-26 0 -48 18 q-22 18 -18 66 l2 41 q4 68 16 84 q21 29 128 16 l137 0 l29 2 l22 0 q62 -2 74 -21 q12 -19 16 -102 l0 -32 q-2 -74 -63 -74 ZM283 1307 q0 -74 -105 -74 l-43 4 l-45 0 l-65 4 q-13 2 -31 -2 q-18 -4 -33 -4 l-61 4 l-6 0 q-8 0 -21 12 q-12 12 -16 33 l0 16 l6 80 q0 51 16 64 q35 20 86 20 l68 -4 l55 0 l88 -4 l23 2 q47 0 65 -14 q18 -14 19 -74 l0 -63 ZM334 0 q-117 0 -191 -6 l-10 0 q-18 4 -44 30 q-26 26 -26 101 l7 131 l-2 47 q-4 90 2 137 q6 47 6 154 l-6 149 l6 220 l0 79 q6 70 102 70 l45 -2 l33 0 l96 -4 l117 8 l10 0 q47 0 67 -27 q20 -27 21 -104 l-4 -369 l0 -32 l-6 -111 l0 -201 l-2 -73 l6 -84 q0 -119 -119 -119 l-12 0 l-63 6 l-33 0 Z" /><glyph glyph-name="" unicode="ð" d="M508 529 q0 -62 61 -89 q2 0 51 -13 q49 -13 56 -11 l35 4 q59 6 105 30 q46 24 46 68 q0 43 -39 68 q-65 41 -110 43 l-31 -2 q-59 0 -78 -6 q-31 -16 -43 -23 q-53 -29 -53 -69 ZM655 -33 q-74 0 -151 13 q-29 0 -43 4 q-14 4 -74 24 q-97 41 -111 49 q-14 8 -50 38 q-36 30 -55 48 q-19 17 -35 33 q-16 16 -54 70 q-37 54 -43 121 q-17 49 -21 71 q-4 22 -4 85 q0 63 8 97 q8 34 46 109 q8 13 34 41 q26 28 31 38 q6 10 10 13 q4 4 5 7 q0 4 4 6 q4 2 7 4 q3 2 11 7 q8 5 16 11 q98 78 186 96 q88 18 87 54 q0 36 -74 57 q-20 3 -88 25 q-68 22 -78 22 q-49 18 -49 58 q0 40 45 167 q26 92 84 90 q41 0 82 -14 q41 -14 67 -20 q26 -5 46 -13 q20 -8 75 -32 q55 -24 69 -23 q14 0 39 5 q24 5 81 67 q54 53 76 53 q22 0 49 -23 q43 -57 108 -116 q23 -23 23 -35 q0 -20 -52 -54 q-52 -34 -52 -50 q0 -16 34 -36 q35 -20 113 -83 q78 -63 98 -86 q90 -92 150 -256 q41 -107 41 -199 q0 -92 -13 -125 l-16 -49 q-13 -59 -69 -130 q-56 -71 -68 -82 q-12 -12 -43 -28 q-35 -18 -75 -52 q-40 -34 -144 -54 q-44 -10 -70 -14 q-26 -4 -137 -9 l-56 0 Z" /><glyph glyph-name="" unicode="ñ" d="M286 1248 q-22 7 -22 34 q0 27 26 73 q26 46 70 77 q45 26 117 26 q72 0 197 -24 q125 -24 142 -25 q16 1 38 19 q22 18 30 21 q8 3 74 3 q64 0 76 -18 q8 -8 8 -33 q0 -25 -28 -71 q-63 -101 -180 -99 q-68 0 -230 35 l-43 8 q-45 10 -62 10 q-17 0 -30 -4 q-13 -4 -35 -21 q-22 -18 -35 -18 l-28 0 l-52 2 q-11 -2 -33 5 ZM84 684 q0 51 -8 125 q-8 74 -10 104 l-3 35 q-4 82 46 135 q30 35 114 31 l45 -2 q20 0 38 -4 q18 -4 48 -2 l64 4 q16 2 25 -1 q9 -3 14 -3 l16 0 q48 0 57 -39 l9 -41 q4 -23 10 -25 l2 0 q6 0 29 26 q23 26 28 30 q29 25 109 51 q80 26 112 27 l74 -19 l33 0 q26 0 46 -3 q20 -3 71 -36 q51 -33 71 -57 q20 -24 55 -83 q35 -59 36 -72 q2 -13 9 -57 q7 -44 7 -108 l0 -65 l8 -96 l4 -125 q0 -6 -1 -16 q-1 -10 -2 -32 q-1 -24 -6 -95 q-5 -71 -3 -93 l8 -88 q6 -55 -27 -84 q-16 -16 -44 -16 l-38 2 l-55 2 l-88 -6 l-90 8 l-76 -2 q-47 -2 -76 26 q-18 24 -18 46 q0 22 4 43 l6 49 q4 40 4 135 l0 24 q4 41 4 51 q0 10 -4 19 l-4 27 q-2 14 -2 46 q0 32 -3 40 q-3 8 -5 25 q-2 17 -14 41 q-12 24 -33 36 q-25 12 -35 12 q-51 0 -63 -69 l-4 -41 l-5 -25 q-6 -49 -6 -57 l8 -80 l-6 -137 l0 -45 l17 -92 q0 -35 -28 -55 q-28 -20 -60 -19 l-56 6 l-67 6 q-12 2 -35 -2 q-23 -4 -33 -4 l-20 0 q-16 2 -45 2 l-115 -2 q-25 0 -45 25 q-18 25 -19 57 l0 27 l11 132 l6 97 l0 70 l-6 122 l10 134 l0 20 Z" /><glyph glyph-name="" unicode="ò" d="M305 1399 q0 45 49 47 l21 0 l67 -2 l86 0 l58 -2 q49 -4 164 2 l12 0 q37 0 69 -48 q10 -15 42 -71 q32 -56 32 -70 q0 -25 -33 -24 l-53 2 l-49 -2 q-68 1 -108 17 q-39 16 -66 24 l-86 24 q-14 4 -46 16 q-32 12 -81 25 q-49 14 -63 25 q-15 12 -15 37 ZM862 545 q0 51 -48 93 q-48 42 -101 44 l-31 -2 l-47 2 q-1 0 -23 -6 q-22 -6 -39 -21 q-66 -51 -65 -106 q0 -35 17 -62 q17 -27 35 -35 q90 -36 120 -36 l31 6 l32 4 q39 8 60 21 q19 13 39 45 q20 32 20 53 ZM43 391 q-1 23 -15 65 q-14 42 -14 89 q0 47 9 82 q37 154 75 211 q98 147 181 190 q94 54 140 68 q47 14 131 26 q84 12 147 12 q63 0 120 -12 q57 -14 79 -19 q22 -5 36 -5 q34 0 72 -25 q115 -68 157 -115 l76 -84 q30 -33 34 -56 q7 -35 25 -57 q17 -21 33 -90 q33 -142 4 -231 l-16 -55 q-25 -83 -53 -121 q-28 -38 -45 -67 q-18 -29 -31 -41 q-4 -8 -6 -10 q-2 -2 -105 -76 l-67 -50 q-8 -6 -95 -28 q-87 -22 -147 -23 l-57 -2 l-56 2 q-88 0 -100 2 l-51 9 q-68 10 -150 50 q-82 40 -98 54 l-88 88 q-85 82 -119 179 q-6 17 -6 40 Z" /><glyph glyph-name="" unicode="ó" d="M911 1444 l68 2 l20 0 q49 -2 50 -47 q1 -25 -13 -35 q-14 -10 -40 -18 q-26 -8 -50 -16 q-24 -6 -56 -18 q-32 -12 -46 -16 l-86 -24 q-2 0 -64 -22 q-62 -22 -98 -21 l-61 4 l-54 -2 q-33 0 -32 24 q0 24 73 141 q31 46 70 48 l12 0 q115 -6 164 -2 l57 2 l86 0 ZM862 545 q0 51 -48 93 q-48 42 -101 44 l-31 -2 l-47 2 q-1 0 -23 -6 q-22 -6 -39 -21 q-66 -51 -65 -106 q0 -35 17 -62 q17 -27 35 -35 q90 -36 120 -36 l31 6 l32 4 q39 8 60 21 q19 13 39 45 q20 32 20 53 ZM43 391 q-1 23 -15 65 q-14 42 -14 89 q0 47 9 82 q37 154 75 211 q98 147 181 190 q94 54 140 68 q47 14 131 26 q84 12 147 12 q63 0 120 -12 q57 -14 79 -19 q22 -5 36 -5 q34 0 72 -25 q115 -68 157 -115 l76 -84 q30 -33 34 -56 q7 -35 25 -57 q17 -21 33 -90 q33 -142 4 -231 l-16 -55 q-25 -83 -53 -121 q-28 -38 -45 -67 q-18 -29 -31 -41 q-4 -8 -6 -10 q-2 -2 -105 -76 l-67 -50 q-8 -6 -95 -28 q-87 -22 -147 -23 l-57 -2 l-56 2 q-88 0 -100 2 l-51 9 q-68 10 -150 50 q-82 40 -98 54 l-88 88 q-85 82 -119 179 q-6 17 -6 40 Z" /><glyph glyph-name="" unicode="ô" d="M1075 1264 q0 -39 -76 -33 q-27 2 -41 2 l-90 0 q-29 1 -97 33 q-68 32 -103 32 q-34 0 -96 -32 q-62 -32 -115 -31 l-23 0 l-69 2 l-33 -2 l-17 0 q-31 2 -30 27 q0 24 18 42 q18 18 45 37 q111 111 156 111 l24 -2 l23 0 q20 4 39 4 l20 0 l111 -4 l94 2 q70 0 90 -20 q13 -8 31 -28 q18 -20 38 -34 q20 -14 60 -56 q41 -42 41 -50 ZM862 545 q0 51 -48 93 q-48 42 -101 44 l-31 -2 l-47 2 q-1 0 -23 -6 q-22 -6 -39 -21 q-66 -51 -65 -106 q0 -35 17 -62 q17 -27 35 -35 q90 -36 120 -36 l31 6 l32 4 q39 8 60 21 q19 13 39 45 q20 32 20 53 ZM43 391 q-1 23 -15 65 q-14 42 -14 89 q0 47 9 82 q37 154 75 211 q98 147 181 190 q94 54 140 68 q47 14 131 26 q84 12 147 12 q63 0 120 -12 q57 -14 79 -19 q22 -5 36 -5 q34 0 72 -25 q115 -68 157 -115 l76 -84 q30 -33 34 -56 q7 -35 25 -57 q17 -21 33 -90 q33 -142 4 -231 l-16 -55 q-25 -83 -53 -121 q-28 -38 -45 -67 q-18 -29 -31 -41 q-4 -8 -6 -10 q-2 -2 -105 -76 l-67 -50 q-8 -6 -95 -28 q-87 -22 -147 -23 l-57 -2 l-56 2 q-88 0 -100 2 l-51 9 q-68 10 -150 50 q-82 40 -98 54 l-88 88 q-85 82 -119 179 q-6 17 -6 40 Z" /><glyph glyph-name="" unicode="õ" d="M291 1282 q-1 27 25 73 q26 46 71 77 q45 26 117 26 q72 0 196 -24 q124 -24 142 -25 q18 1 38 19 q20 18 30 21 q8 3 72 3 q64 0 76 -13 q12 -13 11 -38 q0 -25 -29 -71 q-64 -101 -180 -99 q-67 0 -229 35 l-43 8 q-47 10 -72 10 q-25 0 -51 -22 q-25 -22 -39 -21 l-29 0 l-51 2 q-12 -2 -34 5 q-22 7 -21 34 ZM862 545 q0 51 -48 93 q-48 42 -101 44 l-31 -2 l-47 2 q-1 0 -23 -6 q-22 -6 -39 -21 q-66 -51 -65 -106 q0 -35 17 -62 q17 -27 35 -35 q90 -36 120 -36 l31 6 l32 4 q39 8 60 21 q19 13 39 45 q20 32 20 53 ZM43 391 q-1 23 -15 65 q-14 42 -14 89 q0 47 9 82 q37 154 75 211 q98 147 181 190 q94 54 140 68 q47 14 131 26 q84 12 147 12 q63 0 120 -12 q57 -14 79 -19 q22 -5 36 -5 q34 0 72 -25 q115 -68 157 -115 l76 -84 q30 -33 34 -56 q7 -35 25 -57 q17 -21 33 -90 q33 -142 4 -231 l-16 -55 q-25 -83 -53 -121 q-28 -38 -45 -67 q-18 -29 -31 -41 q-4 -8 -6 -10 q-2 -2 -105 -76 l-67 -50 q-8 -6 -95 -28 q-87 -22 -147 -23 l-57 -2 l-56 2 q-88 0 -100 2 l-51 9 q-68 10 -150 50 q-82 40 -98 54 l-88 88 q-85 82 -119 179 q-6 17 -6 40 Z" /><glyph glyph-name="" unicode="ö" d="M1073 1231 l-72 6 l-36 0 l-72 -2 q-31 -2 -48 -1 q-17 1 -38 1 l-29 -2 q-26 0 -48 18 q-22 18 -17 66 l2 41 q4 68 15 84 q20 29 128 16 l137 0 l29 2 l23 0 q61 -2 73 -21 q12 -19 17 -102 l0 -32 q-2 -74 -64 -74 ZM256 1239 q-8 0 -20 12 q-12 12 -17 33 l0 16 l6 80 q0 51 17 64 q35 20 86 20 l67 -4 l56 0 l88 -4 l22 2 q47 0 65 -14 q18 -14 19 -74 l0 -63 q0 -43 -29 -58 q-29 -16 -75 -16 l-43 4 l-45 0 l-66 4 q-13 2 -31 -2 q-18 -4 -32 -4 l-62 4 l-6 0 ZM862 545 q0 51 -48 93 q-48 42 -101 44 l-31 -2 l-47 2 q-1 0 -23 -6 q-22 -6 -39 -21 q-66 -51 -65 -106 q0 -35 17 -62 q17 -27 35 -35 q90 -36 120 -36 l31 6 l32 4 q39 8 60 21 q19 13 39 45 q20 32 20 53 ZM43 391 q-1 23 -15 65 q-14 42 -14 89 q0 47 9 82 q37 154 75 211 q98 147 181 190 q94 54 140 68 q47 14 131 26 q84 12 147 12 q63 0 120 -12 q57 -14 79 -19 q22 -5 36 -5 q34 0 72 -25 q115 -68 157 -115 l76 -84 q30 -33 34 -56 q7 -35 25 -57 q17 -21 33 -90 q33 -142 4 -231 l-16 -55 q-25 -83 -53 -121 q-28 -38 -45 -67 q-18 -29 -31 -41 q-4 -8 -6 -10 q-2 -2 -105 -76 l-67 -50 q-8 -6 -95 -28 q-87 -22 -147 -23 l-57 -2 l-56 2 q-88 0 -100 2 l-51 9 q-68 10 -150 50 q-82 40 -98 54 l-88 88 q-85 82 -119 179 q-6 17 -6 40 Z" /><glyph glyph-name="" unicode="÷" d="M698 408 q61 -18 62 -70 l0 -35 q-2 -16 -2 -57 q0 -41 2 -60 l0 -32 q0 -47 -49 -68 q-23 -8 -54 -8 l-67 0 q-26 -2 -54 -2 q-28 0 -63 2 l-131 -2 q-41 0 -57 22 q-20 35 -21 64 l8 55 l-8 31 l8 33 l-8 51 q0 6 8 30 q8 24 13 31 q12 21 57 23 l131 -2 q35 2 121 2 q85 0 104 -8 ZM698 1282 q61 -18 62 -72 l0 -32 q-2 -16 -2 -58 q0 -42 2 -59 l0 -33 q0 -45 -49 -67 q-27 -10 -54 -11 l-67 2 q-26 -2 -54 -2 q-28 0 -63 2 l-131 -2 q-41 0 -57 23 q-20 35 -21 61 l8 58 l-8 30 l8 31 l-8 51 q0 29 21 64 q14 18 57 20 l131 0 q35 2 121 2 q85 0 104 -8 ZM180 483 q-18 -2 -50 -2 q-32 1 -50 23 q-20 22 -23 49 l-4 88 l-2 141 q0 18 10 45 q10 27 26 41 q16 14 79 21 l149 -4 q25 0 64 2 l37 0 l192 -4 q31 0 121 6 l78 -2 l67 2 q51 0 78 -31 q16 -16 17 -37 l-2 -133 q8 -96 8 -122 q-1 -26 -19 -58 q-18 -32 -65 -31 l-68 4 q-11 2 -67 2 q-56 0 -135 -6 l-52 0 l-129 4 q-68 0 -159 2 l-101 0 Z" /><glyph glyph-name="" unicode="ø" d="M649 401 q1 -8 59 -8 q58 1 96 23 q38 22 66 63 q28 41 27 70 q1 29 -19 49 q-20 20 -27 20 q-7 0 -15 -14 q-16 -12 -50 -49 q-137 -139 -137 -154 ZM696 702 q1 15 -44 15 q-45 0 -110 -38 q-65 -39 -65 -103 q0 -64 23 -87 q197 209 196 213 ZM201 -70 q-11 0 -55 37 q-44 37 -44 56 q0 19 20 43 q20 24 64 71 q4 7 4 15 q0 8 -15 20 q-15 12 -38 41 q-41 41 -61 85 q-20 44 -35 122 q-23 82 -25 94 q-2 12 -2 54 q0 42 12 81 q12 39 17 62 q6 23 10 35 q4 12 10 31 q6 18 46 69 l16 24 q37 57 99 111 q62 54 132 84 q62 31 98 40 q36 9 156 24 q120 15 174 0 q14 -3 86 -17 q72 -14 115 -29 q27 -14 39 -14 q4 0 80 82 q16 16 26 16 q10 0 20 -9 q10 -9 17 -15 q7 -6 11 -9 q4 -3 6 -6 q55 -43 55 -65 q0 -8 -38 -52 q-38 -44 -38 -49 q0 -5 80 -88 q27 -33 43 -83 q62 -131 64 -259 q0 -45 -32 -154 q-32 -109 -126 -224 q-6 -8 -107 -82 q-33 -31 -55 -43 q-22 -12 -49 -25 l-29 -4 l-32 -8 l-35 -10 l-33 -7 q-41 -8 -102 -8 l-60 0 l-39 2 l-49 0 l-57 6 l-41 7 q-74 0 -131 43 l-31 22 q-129 -117 -141 -117 Z" /><glyph glyph-name="" unicode="ù" d="M725 1444 q35 0 70 -48 q9 -15 41 -71 q32 -56 32 -70 q0 -25 -32 -24 l-54 2 l-49 -2 q-67 1 -107 17 q-40 16 -67 24 l-86 24 q-13 4 -45 16 q-32 12 -81 25 q-49 14 -63 25 q-15 12 -16 37 q0 45 49 47 l21 0 l68 -2 l86 0 l57 -2 q49 -4 164 2 l12 0 ZM422 1110 q11 0 51 4 q104 0 102 -121 l0 -6 l-6 -88 l2 -108 l-10 -146 q-1 -57 13 -101 q14 -44 26 -57 q12 -12 39 -12 q45 0 61 68 l11 100 q2 25 2 53 l-2 119 l6 96 l-6 129 q0 39 21 58 q22 18 48 18 l74 -6 q14 0 60 4 q46 4 58 2 q12 -2 17 -2 l37 2 l25 -2 l69 4 q41 0 73 -24 q32 -24 32 -68 q0 -14 -2 -34 q-2 -20 -6 -65 q-3 -46 -7 -81 q-4 -35 -4 -84 q0 -49 4 -129 q4 -80 2 -111 l-6 -73 l2 -105 q0 -6 -5 -85 q-5 -79 -2 -87 q19 -50 20 -113 q0 -19 -27 -41 q-27 -22 -72 -22 l-166 4 q-18 0 -51 -4 l-24 -2 q-92 -2 -105 29 q0 2 -5 8 q-5 6 -10 18 q-5 12 -13 29 q-4 4 -13 4 q-9 0 -28 -22 q-19 -22 -40 -41 q-21 -20 -102 -32 q-81 -13 -111 -13 q-30 0 -100 11 q-70 12 -114 35 q-47 20 -71 39 q-24 19 -50 59 q-27 40 -35 72 q-8 32 -14 174 q-6 144 -7 148 l5 74 l4 32 l-2 50 l0 63 l-2 98 l4 54 q-11 196 34 221 q20 10 70 10 l80 -4 q26 -2 54 0 q28 2 40 2 l64 -2 l8 0 Z" /><glyph glyph-name="" unicode="ú" d="M1012 1399 q0 -25 -14 -35 q-14 -10 -38 -18 q-26 -8 -51 -16 q-25 -6 -57 -18 q-32 -12 -45 -16 l-86 -24 q-2 0 -64 -22 q-62 -22 -98 -21 l-61 4 l-54 -2 q-33 0 -32 24 q0 24 73 141 q31 46 70 48 l12 0 q115 -6 164 -2 l57 2 l86 0 l68 2 l21 0 q49 -2 49 -47 ZM422 1110 q11 0 51 4 q104 0 102 -121 l0 -6 l-6 -88 l2 -108 l-10 -146 q-1 -57 13 -101 q14 -44 26 -57 q12 -12 39 -12 q45 0 61 68 l11 100 q2 25 2 53 l-2 119 l6 96 l-6 129 q0 39 21 58 q22 18 48 18 l74 -6 q14 0 60 4 q46 4 58 2 q12 -2 17 -2 l37 2 l25 -2 l69 4 q41 0 73 -24 q32 -24 32 -68 q0 -14 -2 -34 q-2 -20 -6 -65 q-3 -46 -7 -81 q-4 -35 -4 -84 q0 -49 4 -129 q4 -80 2 -111 l-6 -73 l2 -105 q0 -6 -5 -85 q-5 -79 -2 -87 q19 -50 20 -113 q0 -19 -27 -41 q-27 -22 -72 -22 l-166 4 q-18 0 -51 -4 l-24 -2 q-92 -2 -105 29 q0 2 -5 8 q-5 6 -10 18 q-5 12 -13 29 q-4 4 -13 4 q-9 0 -28 -22 q-19 -22 -40 -41 q-21 -20 -102 -32 q-81 -13 -111 -13 q-30 0 -100 11 q-70 12 -114 35 q-47 20 -71 39 q-24 19 -50 59 q-27 40 -35 72 q-8 32 -14 174 q-6 144 -7 148 l5 74 l4 32 l-2 50 l0 63 l-2 98 l4 54 q-11 196 34 221 q20 10 70 10 l80 -4 q26 -2 54 0 q28 2 40 2 l64 -2 l8 0 Z" /><glyph glyph-name="" unicode="û" d="M1038 1264 q0 -39 -75 -33 q-27 2 -41 2 l-91 0 q-29 1 -97 33 q-68 32 -103 32 q-35 0 -97 -32 q-62 -32 -114 -31 l-23 0 l-69 2 l-33 -2 l-16 0 q-31 3 -31 27 q0 24 18 42 q18 18 45 37 q111 111 156 111 l25 -2 l22 0 q20 4 39 4 l20 0 l111 -4 l137 0 q33 -4 47 -18 q12 -8 30 -28 q18 -20 38 -34 q20 -14 61 -56 q41 -42 41 -50 ZM422 1110 q11 0 51 4 q104 0 102 -121 l0 -6 l-6 -88 l2 -108 l-10 -146 q-1 -57 13 -101 q14 -44 26 -57 q12 -12 39 -12 q45 0 61 68 l11 100 q2 25 2 53 l-2 119 l6 96 l-6 129 q0 39 21 58 q22 18 48 18 l74 -6 q14 0 60 4 q46 4 58 2 q12 -2 17 -2 l37 2 l25 -2 l69 4 q41 0 73 -24 q32 -24 32 -68 q0 -14 -2 -34 q-2 -20 -6 -65 q-3 -46 -7 -81 q-4 -35 -4 -84 q0 -49 4 -129 q4 -80 2 -111 l-6 -73 l2 -105 q0 -6 -5 -85 q-5 -79 -2 -87 q19 -50 20 -113 q0 -19 -27 -41 q-27 -22 -72 -22 l-166 4 q-18 0 -51 -4 l-24 -2 q-92 -2 -105 29 q0 2 -5 8 q-5 6 -10 18 q-5 12 -13 29 q-4 4 -13 4 q-9 0 -28 -22 q-19 -22 -40 -41 q-21 -20 -102 -32 q-81 -13 -111 -13 q-30 0 -100 11 q-70 12 -114 35 q-47 20 -71 39 q-24 19 -50 59 q-27 40 -35 72 q-8 32 -14 174 q-6 144 -7 148 l5 74 l4 32 l-2 50 l0 63 l-2 98 l4 54 q-11 196 34 221 q20 10 70 10 l80 -4 q26 -2 54 0 q28 2 40 2 l64 -2 l8 0 Z" /><glyph glyph-name="" unicode="ü" d="M1036 1231 l-71 6 l-37 0 l-72 -2 q-31 -2 -48 -1 q-17 1 -38 1 l-29 -2 q-27 0 -49 18 q-22 18 -16 66 l2 41 q4 68 15 84 q20 29 128 16 q0 -2 31 0 l106 0 l29 2 l23 0 q61 -2 73 -21 q12 -19 17 -102 l0 -32 q-2 -74 -64 -74 ZM219 1239 q-8 0 -20 12 q-12 12 -17 33 l0 16 l6 80 q0 51 17 64 q35 20 86 20 l67 -4 l56 0 l88 -4 l22 2 q48 0 66 -14 q18 -14 18 -74 l0 -63 q0 -43 -29 -58 q-29 -16 -75 -16 l-43 4 l-45 0 l-66 4 q-12 2 -30 -2 q-18 -4 -33 -4 l-62 4 l-6 0 ZM422 1110 q11 0 51 4 q104 0 102 -121 l0 -6 l-6 -88 l2 -108 l-10 -146 q-1 -57 13 -101 q14 -44 26 -57 q12 -12 39 -12 q45 0 61 68 l11 100 q2 25 2 53 l-2 119 l6 96 l-6 129 q0 39 21 58 q22 18 48 18 l74 -6 q14 0 60 4 q46 4 58 2 q12 -2 17 -2 l37 2 l25 -2 l69 4 q41 0 73 -24 q32 -24 32 -68 q0 -14 -2 -34 q-2 -20 -6 -65 q-3 -46 -7 -81 q-4 -35 -4 -84 q0 -49 4 -129 q4 -80 2 -111 l-6 -73 l2 -105 q0 -6 -5 -85 q-5 -79 -2 -87 q19 -50 20 -113 q0 -19 -27 -41 q-27 -22 -72 -22 l-166 4 q-18 0 -51 -4 l-24 -2 q-92 -2 -105 29 q0 2 -5 8 q-5 6 -10 18 q-5 12 -13 29 q-4 4 -13 4 q-9 0 -28 -22 q-19 -22 -40 -41 q-21 -20 -102 -32 q-81 -13 -111 -13 q-30 0 -100 11 q-70 12 -114 35 q-47 20 -71 39 q-24 19 -50 59 q-27 40 -35 72 q-8 32 -14 174 q-6 144 -7 148 l5 74 l4 32 l-2 50 l0 63 l-2 98 l4 54 q-11 196 34 221 q20 10 70 10 l80 -4 q26 -2 54 0 q28 2 40 2 l64 -2 l8 0 Z" /><glyph glyph-name="" unicode="ý" d="M907 1399 q0 -25 -13 -35 q-12 -10 -38 -18 q-26 -8 -51 -16 q-25 -6 -57 -18 q-32 -12 -46 -16 l-86 -24 q-2 0 -64 -22 q-62 -22 -97 -21 l-62 4 l-53 -2 q-33 0 -33 24 q-1 13 31 69 q32 56 42 72 q32 47 71 48 l12 0 q115 -6 164 -2 l57 2 l86 0 l68 2 l20 0 q49 -2 49 -47 ZM543 686 q0 -24 11 -24 q11 0 14 5 q3 5 8 52 q5 47 16 82 l20 78 q4 16 15 45 q13 38 15 50 q1 11 3 17 l8 45 q0 33 13 46 q26 28 90 28 l10 0 l86 -8 l41 0 l129 10 q46 0 72 -26 q26 -26 26 -44 q0 -18 -12 -61 l-12 -43 q-10 -20 -29 -94 q-19 -74 -29 -109 l-43 -133 l-57 -139 q-45 -112 -45 -116 q0 -5 -3 -12 q-3 -7 -9 -34 q-6 -27 -11 -41 l-49 -147 q-29 -89 -55 -129 q-92 -146 -268 -154 l-31 0 q-14 0 -49 2 q-35 2 -51 0 l-93 -4 q-74 0 -124 10 q-78 16 -78 111 q0 10 3 53 q3 43 1 61 l-4 64 q-6 91 46 125 q18 12 27 12 l9 0 q31 -2 45 -10 q14 -8 32 -8 q27 0 27 26 l0 4 q-2 25 -17 56 q-15 31 -49 119 q-34 88 -55 126 q-23 39 -37 77 q-14 38 -38 94 q-24 56 -33 86 q-8 29 -38 94 q-30 65 -30 100 q0 79 119 86 l26 0 l82 -8 l54 -2 l131 6 q35 0 52 -20 q17 -20 41 -83 q24 -62 23 -85 l19 -66 q14 -43 17 -76 q3 -33 10 -49 l8 -45 Z" /><glyph glyph-name="" unicode="þ" d="M598 639 q-39 -39 -39 -83 q0 -44 13 -68 q26 -47 124 -52 q41 -8 64 -8 q23 0 49 16 q76 46 76 110 q0 64 -66 101 q-29 20 -51 21 l-33 0 l-47 2 q-51 0 -90 -39 ZM68 1171 q0 10 -5 64 l0 33 q0 104 101 104 l100 -4 l66 4 l127 0 q43 0 61 -8 q41 -18 41 -84 q0 -4 -4 -90 l0 -37 q-6 -59 -6 -66 q0 -37 20 -36 q16 0 56 20 q94 51 189 51 q95 0 167 -24 q72 -24 83 -28 q11 -4 65 -39 q54 -34 63 -42 q8 -10 31 -37 q33 -33 57 -63 q41 -66 68 -127 l14 -31 q31 -67 31 -153 q0 -182 -93 -334 q-47 -82 -61 -101 q-59 -61 -145 -103 q-86 -42 -132 -52 q-46 -10 -160 -10 q-114 0 -163 18 q-49 20 -65 20 q-16 0 -24 -7 q-7 -7 -7 -13 l10 -100 q0 -72 -84 -72 q-2 0 -129 6 q-39 -2 -72 -2 l-28 0 q-35 2 -64 2 l-6 0 q-35 -2 -61 -2 q-43 0 -43 78 q0 20 8 67 l0 50 l-4 63 l4 152 l-4 110 l4 164 l-4 90 l2 223 l2 86 l-6 185 l0 75 Z" /><glyph glyph-name="" unicode="ÿ" d="M934 1231 l-72 6 l-37 0 l-71 -2 q-31 -2 -48 -1 q-17 1 -38 1 l-29 -2 q-27 0 -49 18 q-22 18 -17 66 l2 41 q3 68 15 84 q21 29 129 16 q0 -2 31 0 l106 0 l29 2 l22 0 q61 -2 73 -21 q12 -19 17 -102 l0 -32 q-2 -74 -63 -74 ZM506 1307 q0 -74 -105 -74 l-43 4 l-45 0 l-65 4 q-12 2 -30 -2 q-18 -4 -34 -4 l-61 4 l-6 0 q-8 0 -21 12 q-12 12 -16 33 l0 16 l6 80 q0 51 16 64 q35 20 86 20 l68 -4 l55 0 l88 -4 l23 2 q47 0 65 -14 q18 -14 19 -74 l0 -63 ZM543 686 q0 -24 11 -24 q11 0 14 5 q3 5 8 52 q5 47 16 82 l20 78 q4 16 15 45 q13 38 15 50 q1 11 3 17 l8 45 q0 33 13 46 q26 28 90 28 l10 0 l86 -8 l41 0 l129 10 q46 0 72 -26 q26 -26 26 -44 q0 -18 -12 -61 l-12 -43 q-10 -20 -29 -94 q-19 -74 -29 -109 l-43 -133 l-57 -139 q-45 -112 -45 -116 q0 -5 -3 -12 q-3 -7 -9 -34 q-6 -27 -11 -41 l-49 -147 q-29 -89 -55 -129 q-92 -146 -268 -154 l-31 0 q-14 0 -49 2 q-35 2 -51 0 l-93 -4 q-74 0 -124 10 q-78 16 -78 111 q0 10 3 53 q3 43 1 61 l-4 64 q-6 91 46 125 q18 12 27 12 l9 0 q31 -2 45 -10 q14 -8 32 -8 q27 0 27 26 l0 4 q-2 25 -17 56 q-15 31 -49 119 q-34 88 -55 126 q-23 39 -37 77 q-14 38 -38 94 q-24 56 -33 86 q-8 29 -38 94 q-30 65 -30 100 q0 79 119 86 l26 0 l82 -8 l54 -2 l131 6 q35 0 52 -20 q17 -20 41 -83 q24 -62 23 -85 l19 -66 q14 -43 17 -76 q3 -33 10 -49 l8 -45 Z" /><glyph glyph-name="" unicode="&#x100;" d="M1049 1679 q35 0 44 -10 q9 -10 9 -47 l-6 -59 l4 -56 q0 -49 -44 -49 l-89 0 l-111 -2 l-74 6 l-65 -4 l-94 2 l-56 -4 l-106 6 l-84 -4 q-47 0 -47 29 l0 2 q0 8 4 20 l0 50 l2 34 l-2 31 l0 23 q4 33 51 32 l107 -4 q44 0 64 3 q20 3 71 1 l164 -4 l221 4 l37 0 ZM621 645 q0 -53 45 -53 l49 0 q84 0 99 18 q15 18 7 52 l-12 53 q-31 150 -60 179 q-11 11 -27 11 q-16 0 -26 -9 q-10 -8 -18 -36 q-8 -28 -15 -53 q-7 -25 -11 -35 q-4 -10 -11 -43 q-6 -33 -13 -54 q-7 -21 -7 -30 ZM1464 88 l0 -14 q0 -75 -92 -78 l-16 0 l-25 2 l-22 0 l-125 2 q-89 0 -117 -2 q-28 -2 -49 0 q-37 10 -57 57 l-17 35 q-25 47 -57 60 q-11 12 -73 6 q-62 -6 -79 -4 l-69 4 q-50 4 -76 4 q-26 0 -38 -16 q-11 -16 -13 -17 l-33 -57 q-27 -49 -40 -62 q-13 -13 -44 -8 l-16 0 l-97 -4 l-43 0 l-121 4 l-35 0 q-79 0 -108 27 q-29 27 -29 72 q0 45 18 94 q18 49 35 121 q17 72 37 123 q19 50 28 82 q9 32 34 112 q30 97 43 174 q12 77 39 151 l26 76 q6 18 28 100 q22 82 36 130 q14 50 50 76 q35 26 101 28 q66 4 76 1 q10 -3 49 1 l93 4 l63 -2 l35 -2 q33 -2 133 -2 l64 2 q75 0 115 -30 q40 -30 67 -130 l10 -41 q8 -31 33 -92 q25 -61 37 -106 l20 -82 l7 -31 q3 -14 5 -19 q2 -5 2 -10 q10 -17 23 -55 l8 -22 q6 -24 26 -118 q20 -94 48 -175 l12 -37 q12 -37 33 -132 q21 -95 39 -139 q18 -43 18 -61 Z" /><glyph glyph-name="" unicode="&#x101;" d="M971 1454 q35 0 44 -10 q9 -10 9 -47 l-6 -60 l4 -55 q0 -42 -28 -47 q-11 -2 -36 -2 l-69 0 l-111 -2 l-73 6 l-66 -4 l-94 2 l-56 -4 l-106 6 l-84 -4 q-47 0 -47 29 l0 2 q0 8 4 20 l0 49 l2 35 l-2 31 l0 22 q4 33 51 33 l107 -4 q44 0 64 3 q20 3 71 1 l164 -4 l221 4 l37 0 ZM645 311 q37 -1 59 21 q22 22 21 50 q1 28 -23 43 q-24 15 -47 15 l-75 4 q-38 4 -62 -22 q-24 -26 -24 -51 q0 -64 67 -66 l45 6 l39 0 ZM791 43 l0 12 q-1 9 -7 17 q-6 8 -19 -1 q-13 -9 -21 -13 q-8 -4 -37 -21 l-19 -10 q-85 -47 -188 -47 q-103 0 -118 5 q-15 5 -30 11 q-15 6 -81 25 q-66 20 -85 32 q-159 129 -159 301 q0 64 39 148 q37 84 85 128 q48 44 97 54 l55 14 q41 10 64 22 q23 12 107 11 q100 0 160 -12 q60 -12 86 -12 q26 1 26 27 q-1 37 -74 69 q-16 6 -74 8 l-80 4 q-58 0 -117 -10 l-82 -14 q-20 -5 -35 -9 q-15 -4 -38 -4 q-23 0 -39 14 q-17 14 -23 29 q-6 14 -6 88 l0 39 l-2 25 l0 12 l-2 39 q0 41 29 57 q29 15 87 23 q58 8 210 16 l43 2 q6 0 23 2 q17 2 40 -1 q23 -3 45 -3 l51 -2 l50 0 q40 0 112 -9 q72 -9 110 -25 q38 -16 98 -61 q60 -45 80 -69 q20 -24 46 -88 q26 -64 23 -139 l-7 -119 q-2 -35 1 -85 q3 -50 4 -97 l0 -78 l-11 -178 l11 -84 q0 -51 -29 -74 q-25 -16 -53 -16 l-58 4 l-94 0 q-51 0 -100 -4 l-56 -4 q-38 0 -38 51 Z" /><glyph glyph-name="" unicode="&#x102;" d="M575 1681 q29 -45 138 -45 q109 0 143 39 l16 21 q12 12 28 12 q16 0 30 -3 q12 -3 28 -1 l56 2 l47 4 q31 2 31 -27 l0 -12 q-6 -43 -31 -78 q-68 -96 -184 -123 q-61 -14 -191 -14 q-130 0 -215 45 q-51 25 -80 64 q-49 67 -49 105 q0 38 29 38 q12 0 49 -4 l31 -2 l84 6 q28 0 34 -12 q6 -12 6 -15 ZM621 645 q0 -53 45 -53 l49 0 q84 0 99 18 q15 18 7 52 l-12 53 q-31 150 -60 179 q-11 11 -27 11 q-16 0 -26 -9 q-10 -8 -18 -36 q-8 -28 -15 -53 q-7 -25 -11 -35 q-4 -10 -11 -43 q-6 -33 -13 -54 q-7 -21 -7 -30 ZM1464 88 l0 -14 q0 -75 -92 -78 l-16 0 l-25 2 l-22 0 l-125 2 q-89 0 -117 -2 q-28 -2 -49 0 q-37 10 -57 57 l-17 35 q-25 47 -57 60 q-11 12 -73 6 q-62 -6 -79 -4 l-69 4 q-50 4 -76 4 q-26 0 -38 -16 q-11 -16 -13 -17 l-33 -57 q-27 -49 -40 -62 q-13 -13 -44 -8 l-16 0 l-97 -4 l-43 0 l-121 4 l-35 0 q-79 0 -108 27 q-29 27 -29 72 q0 45 18 94 q18 49 35 121 q17 72 37 123 q19 50 28 82 q9 32 34 112 q30 97 43 174 q12 77 39 151 l26 76 q6 18 28 100 q22 82 36 130 q14 50 50 76 q35 26 101 28 q66 4 76 1 q10 -3 49 1 l93 4 l63 -2 l35 -2 q33 -2 133 -2 l64 2 q75 0 115 -30 q40 -30 67 -130 l10 -41 q8 -31 33 -92 q25 -61 37 -106 l20 -82 l7 -31 q3 -14 5 -19 q2 -5 2 -10 q10 -17 23 -55 l8 -22 q6 -24 26 -118 q20 -94 48 -175 l12 -37 q12 -37 33 -132 q21 -95 39 -139 q18 -43 18 -61 Z" /><glyph glyph-name="" unicode="&#x103;" d="M498 1456 q29 -45 138 -45 q109 0 142 39 l17 20 q19 19 44 13 q25 -6 42 -4 l55 2 l47 4 q31 2 31 -27 l0 -12 q-6 -43 -31 -78 q-68 -96 -184 -123 q-61 -14 -191 -14 q-130 0 -215 45 q-51 25 -80 63 q-49 68 -49 106 q0 38 29 38 q12 0 49 -4 l31 -2 l84 6 q27 -1 34 -13 q7 -12 7 -14 ZM645 311 q37 -1 59 21 q22 22 21 50 q1 28 -23 43 q-24 15 -47 15 l-75 4 q-38 4 -62 -22 q-24 -26 -24 -51 q0 -64 67 -66 l45 6 l39 0 ZM791 43 l0 12 q-1 9 -7 17 q-6 8 -19 -1 q-13 -9 -21 -13 q-8 -4 -37 -21 l-19 -10 q-85 -47 -188 -47 q-103 0 -118 5 q-15 5 -30 11 q-15 6 -81 25 q-66 20 -85 32 q-159 129 -159 301 q0 64 39 148 q37 84 85 128 q48 44 97 54 l55 14 q41 10 64 22 q23 12 107 11 q100 0 160 -12 q60 -12 86 -12 q26 1 26 27 q-1 37 -74 69 q-16 6 -74 8 l-80 4 q-58 0 -117 -10 l-82 -14 q-20 -5 -35 -9 q-15 -4 -38 -4 q-23 0 -39 14 q-17 14 -23 29 q-6 14 -6 88 l0 39 l-2 25 l0 12 l-2 39 q0 41 29 57 q29 15 87 23 q58 8 210 16 l43 2 q6 0 23 2 q17 2 40 -1 q23 -3 45 -3 l51 -2 l50 0 q40 0 112 -9 q72 -9 110 -25 q38 -16 98 -61 q60 -45 80 -69 q20 -24 46 -88 q26 -64 23 -139 l-7 -119 q-2 -35 1 -85 q3 -50 4 -97 l0 -78 l-11 -178 l11 -84 q0 -51 -29 -74 q-25 -16 -53 -16 l-58 4 l-94 0 q-51 0 -100 -4 l-56 -4 q-38 0 -38 51 Z" /><glyph glyph-name="" unicode="&#x104;" d="M621 645 q0 -53 45 -53 l49 0 q84 0 99 18 q15 18 7 52 l-12 53 q-31 150 -60 179 q-11 11 -27 11 q-16 0 -26 -9 q-10 -8 -18 -36 q-8 -28 -15 -53 q-7 -25 -11 -35 q-4 -10 -11 -43 q-6 -33 -13 -54 q-7 -21 -7 -30 ZM1464 88 l0 -14 q0 -75 -92 -78 l-16 0 l-47 2 q-63 0 -93 -29 q-30 -29 -28 -57 q0 -28 14 -41 q14 -14 35 -14 l51 10 q31 10 60 10 q45 0 46 -56 q1 -56 -34 -87 q-52 -41 -178 -41 q-126 0 -176 40 q-100 79 -7 201 q13 16 17 20 q4 4 10 11 q18 23 -10 35 q-37 14 -55 55 l-17 35 q-25 47 -57 60 q-11 12 -73 6 q-62 -6 -79 -4 l-69 4 q-50 4 -76 4 q-26 0 -38 -16 q-11 -16 -13 -17 l-33 -57 q-27 -49 -40 -62 q-13 -13 -44 -8 l-16 0 l-97 -4 l-43 0 l-121 4 l-35 0 q-79 0 -108 27 q-29 27 -29 72 q0 45 18 94 q18 49 35 121 q17 72 37 123 q19 50 28 82 q9 32 34 112 q30 97 43 174 q12 77 39 151 l26 76 q6 18 28 100 q22 82 37 134 q15 54 50 78 q34 24 100 27 q66 3 76 0 q10 -3 49 1 l93 4 l63 -2 l35 -2 q33 -2 133 -2 l64 2 q73 0 113 -29 q40 -29 69 -135 l10 -41 q8 -31 33 -92 q25 -61 37 -106 l20 -82 l7 -31 q3 -14 5 -19 q2 -5 2 -10 q10 -17 23 -55 l8 -22 q6 -24 26 -118 q20 -94 48 -175 l12 -37 q12 -37 33 -132 q21 -95 39 -139 q18 -43 18 -61 Z" /><glyph glyph-name="" unicode="&#x105;" d="M645 311 q37 -1 59 21 q22 22 21 50 q1 28 -23 43 q-24 15 -47 15 l-75 4 q-38 4 -62 -22 q-24 -26 -24 -51 q0 -64 67 -66 l45 6 l39 0 ZM1133 -121 q45 0 46 -56 q1 -56 -42 -90 q-43 -34 -163 -34 q-120 0 -177 41 q-49 39 -49 92 q0 54 38 98 q38 44 38 51 q0 7 -17 17 q-16 10 -16 45 l0 12 q-1 9 -7 17 q-6 8 -19 -1 q-13 -9 -21 -13 q-8 -4 -37 -21 l-19 -10 q-85 -47 -188 -47 q-103 0 -118 5 q-15 5 -30 11 q-15 6 -81 25 q-66 20 -85 32 q-159 129 -159 301 q0 64 39 148 q37 84 85 128 q48 44 97 54 l55 14 q41 10 64 22 q23 12 107 11 q100 0 160 -12 q60 -12 86 -12 q26 1 26 27 q-1 37 -74 69 q-16 6 -74 8 l-80 4 q-58 0 -117 -10 l-82 -14 q-20 -5 -35 -9 q-15 -4 -38 -4 q-23 0 -39 14 q-17 14 -23 29 q-6 14 -6 88 l0 39 l-2 25 l0 12 l-2 39 q0 41 29 57 q29 15 87 23 q58 8 210 16 l43 2 q6 0 23 2 q17 2 40 -1 q23 -3 45 -3 l51 -2 l50 0 q40 0 112 -9 q72 -9 110 -25 q38 -16 98 -61 q60 -45 80 -69 q20 -24 46 -88 q26 -64 23 -139 l-7 -119 q-2 -35 1 -85 q3 -50 4 -97 l0 -78 l-11 -178 l11 -84 q0 -51 -29 -74 q-24 -16 -50 -16 q-26 0 -36 2 l-25 2 q-39 0 -71 -30 q-32 -30 -31 -56 q0 -26 14 -41 q13 -14 33 -14 q20 0 51 10 q31 10 58 10 Z" /><glyph glyph-name="" unicode="&#x106;" d="M991 1624 q0 -25 -13 -35 q-12 -10 -38 -18 q-26 -7 -51 -15 q-25 -8 -57 -19 q-32 -11 -46 -15 l-86 -25 q-16 -3 -60 -21 q-44 -18 -81 -18 l-33 -2 l-49 2 l-53 -2 q-33 0 -33 25 q-1 13 31 69 q32 56 43 71 q32 48 70 48 l12 0 q115 -6 164 -2 l57 2 l86 0 l68 2 l20 0 q49 -2 49 -47 ZM38 564 q-15 114 -15 190 q0 76 34 180 q61 164 125 235 q90 95 199 149 q109 54 350 54 q8 0 35 1 q27 1 44 0 q17 -1 45 -2 q124 -4 144 -52 q6 -18 7 -41 l0 -29 l-9 -110 l0 -52 q1 -33 7 -87 q6 -54 3 -82 q-3 -28 -23 -51 q-20 -22 -56 -21 l-76 6 l-64 -4 q-24 -2 -54 -1 q-30 1 -60 -2 q-30 -3 -66 -32 q-59 -47 -59 -117 q0 -197 219 -194 q66 10 133 18 l17 0 q94 0 96 -125 l-4 -98 l0 -57 l8 -101 l0 -22 l2 -13 q0 -32 -31 -62 q-31 -30 -76 -41 q-45 -11 -147 -13 l-23 0 q-335 5 -478 132 q-26 24 -54 62 q-28 38 -72 94 q-44 57 -64 115 q-21 59 -37 173 Z" /><glyph glyph-name="" unicode="&#x107;" d="M862 1399 q0 -25 -13 -35 q-13 -10 -39 -18 q-26 -8 -50 -16 q-25 -6 -57 -18 q-32 -12 -46 -16 l-86 -24 q-2 0 -64 -22 q-62 -22 -97 -21 l-62 4 l-53 -2 q-33 0 -33 24 q0 13 32 69 q32 56 42 72 q32 47 70 48 l12 0 q115 -6 164 -2 l57 2 l86 0 l68 2 l20 0 q49 -2 49 -47 ZM872 770 q0 -66 -24 -90 q-13 -16 -31 -16 l-184 -5 q-67 1 -97 -35 q-30 -36 -30 -91 q0 -92 106 -99 l60 -2 l65 -4 l64 6 q31 0 50 -22 q19 -22 19 -54 l-8 -137 q-2 -18 6 -80 l4 -41 q6 -68 -79 -102 q-37 -12 -144 -12 q-107 0 -139 7 q-34 7 -56 9 q-22 2 -82 20 q-60 18 -118 66 q-25 18 -39 36 q-14 18 -61 57 q-114 97 -134 286 q-6 68 -6 125 q0 57 25 119 q25 62 31 82 l14 28 q16 29 64 91 q48 62 80 92 q30 30 83 57 q96 53 281 53 l160 0 q118 0 116 -78 l-2 -168 l6 -75 l0 -23 Z" /><glyph glyph-name="" unicode="&#x108;" d="M1036 1489 q0 -39 -75 -33 q-27 2 -41 2 l-91 0 q-29 0 -99 33 q-70 33 -103 33 q-33 0 -95 -32 q-62 -32 -114 -32 l-23 0 l-69 2 l-33 -2 l-17 0 q-31 2 -30 27 q0 25 13 37 q13 12 27 24 q14 12 36 33 q98 96 143 96 l24 -2 l23 0 q20 4 39 4 l20 0 l111 -4 l94 2 q54 0 66 -7 q12 -7 21 -11 q9 -4 30 -27 q22 -24 38 -34 q16 -10 60 -55 q45 -46 45 -54 ZM38 564 q-15 114 -15 190 q0 76 34 180 q61 164 125 235 q90 95 199 149 q109 54 350 54 q8 0 35 1 q27 1 44 0 q17 -1 45 -2 q124 -4 144 -52 q6 -18 7 -41 l0 -29 l-9 -110 l0 -52 q1 -33 7 -87 q6 -54 3 -82 q-3 -28 -23 -51 q-20 -22 -56 -21 l-76 6 l-64 -4 q-24 -2 -54 -1 q-30 1 -60 -2 q-30 -3 -66 -32 q-59 -47 -59 -117 q0 -197 219 -194 q66 10 133 18 l17 0 q94 0 96 -125 l-4 -98 l0 -57 l8 -101 l0 -22 l2 -13 q0 -32 -31 -62 q-31 -30 -76 -41 q-45 -11 -147 -13 l-23 0 q-335 5 -478 132 q-26 24 -54 62 q-28 38 -72 94 q-44 57 -64 115 q-21 59 -37 173 Z" /><glyph glyph-name="" unicode="&#x109;" d="M903 1266 q0 -39 -76 -33 q-27 2 -41 2 l-90 0 q-29 1 -97 33 q-68 32 -103 32 q-34 0 -96 -32 q-62 -32 -115 -31 l-23 0 l-69 2 l-33 -2 l-17 0 q-31 2 -30 27 q0 24 18 42 q18 18 45 37 q111 111 156 111 l24 -2 l23 0 q20 4 39 4 l20 0 l111 -4 l137 0 q18 -2 32 -10 q13 -8 20 -12 q8 -4 26 -24 q18 -20 38 -34 q20 -14 60 -56 q41 -42 41 -50 ZM872 770 q0 -66 -24 -90 q-13 -16 -31 -16 l-184 -5 q-67 1 -97 -35 q-30 -36 -30 -91 q0 -92 106 -99 l60 -2 l65 -4 l64 6 q31 0 50 -22 q19 -22 19 -54 l-8 -137 q-2 -18 6 -80 l4 -41 q6 -68 -79 -102 q-37 -12 -144 -12 q-107 0 -139 7 q-34 7 -56 9 q-22 2 -82 20 q-60 18 -118 66 q-25 18 -39 36 q-14 18 -61 57 q-114 97 -134 286 q-6 68 -6 125 q0 57 25 119 q25 62 31 82 l14 28 q16 29 64 91 q48 62 80 92 q30 30 83 57 q96 53 281 53 l160 0 q118 0 116 -78 l-2 -168 l6 -75 l0 -23 Z" /><glyph glyph-name="" unicode="&#x10c;" d="M393 1677 l23 0 q52 1 114 -31 q62 -32 95 -32 q33 0 103 32 q70 32 99 33 l91 0 q14 0 40 2 q76 6 76 -32 q0 -8 -45 -55 q-45 -47 -60 -56 q-15 -8 -33 -28 q-18 -20 -31 -27 q-12 -6 -20 -12 q-9 -6 -28 -9 l-137 0 l-111 -4 l-20 0 q-18 0 -39 4 l-23 0 l-24 -2 q-45 0 -156 111 q-47 35 -55 51 q-8 16 -8 29 q0 25 30 26 l17 0 l33 -2 q18 -2 40 0 q22 2 29 2 ZM38 564 q-15 114 -15 190 q0 76 34 180 q61 164 125 235 q90 95 199 149 q109 54 350 54 q8 0 35 1 q27 1 44 0 q17 -1 45 -2 q124 -4 144 -52 q6 -18 7 -41 l0 -29 l-9 -110 l0 -52 q1 -33 7 -87 q6 -54 3 -82 q-3 -28 -23 -51 q-20 -22 -56 -21 l-76 6 l-64 -4 q-24 -2 -54 -1 q-30 1 -60 -2 q-30 -3 -66 -32 q-59 -47 -59 -117 q0 -197 219 -194 q66 10 133 18 l17 0 q94 0 96 -125 l-4 -98 l0 -57 l8 -101 l0 -22 l2 -13 q0 -32 -31 -62 q-31 -30 -76 -41 q-45 -11 -147 -13 l-23 0 q-335 5 -478 132 q-26 24 -54 62 q-28 38 -72 94 q-44 57 -64 115 q-21 59 -37 173 Z" /><glyph glyph-name="" unicode="&#x10d;" d="M285 1450 l22 0 q53 0 115 -32 q62 -32 93 -32 q31 0 103 33 q72 33 101 33 l90 0 q14 0 41 2 q74 5 76 -33 q0 -8 -48 -57 q-48 -49 -65 -55 q-9 -7 -27 -27 q-39 -43 -77 -47 l-138 0 l-110 -4 l-21 0 q-18 0 -39 4 l-22 0 l-25 -2 q-45 0 -155 110 q-9 7 -23 19 q-14 12 -28 24 q-14 12 -13 37 q0 25 31 27 l16 0 l33 -2 q18 -2 40 0 q22 2 30 2 ZM872 770 q0 -66 -24 -90 q-13 -16 -31 -16 l-184 -5 q-67 1 -97 -35 q-30 -36 -30 -91 q0 -92 106 -99 l60 -2 l65 -4 l64 6 q31 0 50 -22 q19 -22 19 -54 l-8 -137 q-2 -18 6 -80 l4 -41 q6 -68 -79 -102 q-37 -12 -144 -12 q-107 0 -139 7 q-34 7 -56 9 q-22 2 -82 20 q-60 18 -118 66 q-25 18 -39 36 q-14 18 -61 57 q-114 97 -134 286 q-6 68 -6 125 q0 57 25 119 q25 62 31 82 l14 28 q16 29 64 91 q48 62 80 92 q30 30 83 57 q96 53 281 53 l160 0 q118 0 116 -78 l-2 -168 l6 -75 l0 -23 Z" /><glyph glyph-name="" unicode="&#x10e;" d="M489 1675 l23 0 q53 1 115 -31 q62 -32 95 -32 q33 0 103 32 q70 32 99 33 l90 0 q14 0 41 2 q75 6 75 -32 q0 -8 -45 -55 q-45 -47 -60 -56 q-15 -8 -44 -40 q-29 -32 -58 -35 q-30 -3 -53 -3 l-94 2 l-110 -4 l-21 0 q-18 0 -39 4 l-22 0 l-25 -2 q-45 0 -156 111 q-47 35 -55 51 q-8 16 -8 29 q0 25 31 26 l16 0 l33 -2 q18 -2 40 0 q22 2 29 2 ZM606 588 q0 -46 14 -66 q14 -20 48 -24 l8 0 q12 2 46 11 q34 9 62 9 q8 4 21 4 l12 6 l4 0 l15 4 q81 23 86 152 q0 78 -50 123 q-50 45 -104 45 l-90 10 q-36 0 -60 -32 q-24 -32 -18 -91 l6 -75 l2 -29 l-2 -31 l0 -16 ZM387 1367 q31 5 157 5 q126 0 249 -16 q123 -16 159 -32 q36 -16 70 -37 q43 -28 108 -55 q66 -26 102 -63 q36 -37 98 -119 q62 -82 75 -108 q45 -90 45 -242 q0 -152 -43 -266 q-84 -223 -285 -317 q-141 -65 -243 -91 q-102 -26 -261 -26 l-182 4 l-43 0 q-29 0 -57 -2 l-80 -4 q-115 0 -154 39 q-30 37 -28 73 q2 36 7 64 q5 28 5 188 l0 101 l-12 235 l0 97 l8 231 l-4 207 q0 76 33 104 q31 31 75 29 l131 -4 q39 0 70 5 Z" /><glyph glyph-name="" unicode="&#x10f;" d="M1531 810 q-7 11 -7 21 q0 10 7 25 q7 15 10 28 q3 13 12 31 q26 51 -15 64 q0 4 -31 0 l-28 0 q-18 0 -39 17 q-21 17 -21 81 l0 10 l8 78 l-8 99 q0 104 62 104 l108 -2 l144 0 q47 -2 67 -28 q20 -26 21 -60 l-6 -166 l2 -29 l0 -69 l2 -25 q1 -17 -11 -39 q-12 -22 -20 -46 q-8 -24 -30 -60 q-22 -37 -38 -43 q-16 -6 -41 -6 l-37 2 l-43 2 q-60 0 -68 11 ZM568 646 q-50 -38 -50 -96 q0 -58 60 -91 q49 -31 99 -31 q50 0 106 25 q57 25 57 89 q0 64 -31 95 q-31 31 -66 35 l-73 12 q-52 0 -102 -38 ZM823 1075 q29 0 29 35 l0 94 l-8 80 q0 40 25 66 q25 26 75 26 l100 -6 l46 0 l61 4 l70 0 l49 2 q35 0 54 -26 q19 -26 19 -64 l0 -31 q0 -29 -7 -86 q-7 -57 -7 -125 l0 -24 l6 -80 l4 -47 l0 -37 l-2 -29 l-2 -55 q-2 -62 -2 -106 q0 -44 -2 -76 l0 -19 l4 -67 q2 -51 -1 -75 q-3 -23 -1 -61 q2 -38 2 -60 q0 -22 -2 -69 q-2 -46 0 -71 l2 -33 l0 -12 l2 -43 q0 -90 -80 -90 l-55 4 q-78 0 -102 2 l-53 4 q-25 2 -45 -4 q-20 -6 -58 -6 l-6 0 q-56 0 -69 26 q-3 8 -3 23 l0 12 q0 25 -18 25 q-8 0 -60 -47 l-10 -4 q-48 -27 -64 -29 q-16 -2 -34 -3 q-18 -1 -35 -3 l-29 -4 q-86 -12 -190 18 l-41 12 q-72 23 -90 41 l-62 60 q-4 4 -32 26 q-28 22 -74 90 l-57 93 q-56 96 -56 189 q0 163 72 319 q29 58 93 122 q121 122 243 150 q16 4 147 14 l62 4 q12 0 88 -14 l35 -8 q20 -4 40 -16 q20 -12 29 -11 Z" /><glyph glyph-name="" unicode="&#x110;" d="M848 743 l0 -22 q-2 -15 -2 -31 l0 -37 q0 -53 -64 -53 l-104 4 q-35 0 -64 -4 q-16 -4 -16 -31 q0 -90 18 -104 q18 -14 82 -14 q103 0 162 22 q125 76 125 236 q0 61 -46 119 q-45 58 -81 74 q-36 15 -90 18 q-51 8 -86 8 q-35 0 -55 -15 q-29 -16 -29 -86 q0 -18 5 -23 q5 -5 77 -5 l82 4 q86 0 86 -60 ZM90 909 q6 13 6 67 q0 54 -6 161 q4 150 10 166 q25 63 121 63 q4 0 74 -4 l207 10 l2 0 l45 -6 l201 0 q46 0 120 -17 q74 -17 94 -25 q20 -8 50 -24 q30 -16 44 -24 q14 -8 91 -46 q75 -38 99 -62 q24 -24 95 -119 q66 -80 80 -117 q39 -90 39 -221 q0 -131 -12 -181 q-28 -104 -54 -160 q-26 -56 -62 -94 q-36 -36 -51 -54 q-16 -18 -24 -29 q-8 -11 -9 -12 q-1 -1 -7 -5 q-6 -4 -8 -6 q-2 -2 -119 -59 q-117 -57 -141 -65 q-24 -8 -144 -26 l-63 -12 q-76 -10 -127 -10 l-215 8 l-84 -6 q-43 -2 -96 -2 q-156 0 -156 133 l12 168 l-2 66 l0 149 q0 72 -14 84 q-12 6 -43 6 l-55 -4 q-39 0 -39 41 l4 55 l0 68 q0 39 33 39 l69 -6 q37 -1 37 32 l-2 76 l0 4 Z" /><glyph glyph-name="" unicode="&#x111;" d="M568 646 q-50 -38 -50 -96 q0 -58 60 -91 q49 -31 99 -31 q50 0 106 25 q57 25 57 89 q0 64 -31 95 q-31 31 -66 35 l-73 12 q-52 0 -102 -38 ZM14 523 q0 51 24 135 q24 84 40 120 q16 36 66 88 q97 106 209 156 q91 37 247 37 q62 0 88 -7 q26 -8 60 -12 q33 -4 48 -12 q15 -8 27 -8 q31 0 29 36 q-2 36 -64 42 l-47 4 q-37 4 -155 -2 q-45 -4 -45 28 l4 62 q2 12 0 20 q-2 8 -2 13 q0 35 104 20 l41 -2 l96 0 q37 0 46 7 q9 7 14 36 l4 29 q2 19 24 41 q22 22 72 22 l100 -6 l46 0 l61 4 l70 0 l49 2 q35 0 54 -26 q19 -26 19 -64 l0 -22 q0 -18 11 -19 l6 0 q43 0 35 -47 l-2 -14 l0 -54 q-3 -30 -39 -30 l-8 0 q-12 0 -13 -10 l-2 -21 l-2 -16 l0 -54 l10 -106 l0 -37 l-2 -29 l-2 -55 q-2 -62 -2 -106 q0 -44 -2 -76 l0 -19 l4 -67 q2 -51 -1 -75 q-3 -23 -1 -61 q2 -38 2 -60 q0 -22 -2 -69 q-2 -46 0 -71 l2 -33 l0 -12 l2 -43 q0 -90 -80 -90 l-55 4 q-27 0 -102 2 l-53 2 l-103 -8 l-6 0 q-56 0 -69 26 q-3 8 -3 23 l0 12 q0 25 -18 25 q-8 0 -60 -47 l-10 -4 q-48 -27 -64 -29 q-16 -2 -34 -3 q-18 -1 -35 -3 l-29 -4 q-86 -12 -190 18 l-41 12 q-57 16 -90 41 l-59 43 q-8 6 -28 30 q-20 24 -52 48 q-34 25 -50 62 l-36 86 l-13 16 q-11 16 -27 74 q-16 58 -16 107 Z" /><glyph glyph-name="" unicode="&#x112;" d="M932 1679 q35 0 44 -10 q9 -10 9 -47 l-6 -59 l4 -56 q0 -42 -28 -47 q-11 -2 -36 -2 l-69 0 l-111 -2 l-73 6 l-66 -4 l-94 2 l-55 -4 l-107 6 l-84 -4 q-47 0 -47 29 l0 2 q0 8 4 20 l0 50 l2 34 l-2 31 l0 23 q4 33 51 32 l107 -4 q43 0 63 3 q20 3 72 1 l164 -4 l221 4 l37 0 ZM1053 430 q39 0 59 -18 q39 -35 39 -103 l0 -22 l-2 -14 l0 -27 l2 -39 q8 -125 -10 -165 q-18 -40 -72 -44 l-47 0 l-59 6 l-31 0 q-29 0 -32 -5 q-3 -5 -81 -5 l-31 -2 l-90 8 l-57 0 q-35 -2 -133 -2 l-170 2 l-162 -8 l-10 0 q-92 0 -90 88 l2 29 q2 16 2 49 l6 225 l6 98 q0 85 -6 143 q-6 58 -4 91 q2 33 0 53 l-8 170 l8 123 l0 59 l-8 127 q-2 66 35 99 q37 33 104 32 l104 -10 l160 4 l80 -2 l39 0 l53 -2 l25 0 l88 -2 l88 4 l37 0 l104 6 q113 0 113 -98 l-2 -43 l0 -82 l8 -94 q0 -98 -82 -96 l-61 4 l-15 0 l-30 -2 l-7 0 q-29 0 -59 4 l-27 4 q-16 2 -49 -2 q-33 -4 -45 -4 l-78 4 q-59 0 -59 -51 q0 -27 18 -40 q18 -13 95 -14 l34 0 l56 6 l106 0 l94 7 q55 0 73 -29 q18 -29 18 -55 l4 -113 l6 -82 q0 -72 -66 -74 l-41 0 q-37 0 -79 -5 q-42 -5 -89 -3 l-94 2 l-20 0 q-10 -1 -38 0 q-28 2 -46 -16 q-31 -42 8 -68 q23 -18 70 -18 l206 10 l86 0 l33 2 l21 0 Z" /><glyph glyph-name="" unicode="&#x113;" d="M944 1454 q35 0 44 -10 q9 -10 9 -47 l-6 -60 l4 -55 q0 -42 -27 -47 q-11 -2 -36 -2 l-70 0 l-110 -2 l-74 6 l-66 -4 l-94 2 l-55 -4 l-107 6 l-84 -4 q-47 0 -47 29 l0 2 q0 8 4 20 l0 49 l2 35 l-2 31 l0 22 q4 33 52 33 l106 -4 q43 0 63 3 q20 3 72 1 l164 -4 l221 4 l37 0 ZM610 805 q-129 1 -129 -45 q0 -50 51 -51 l70 2 l66 4 l32 -4 l17 0 q17 0 35 11 q18 12 18 28 q0 16 -26 36 q-26 20 -91 23 l-6 0 l-14 -2 l-4 0 l-19 -2 ZM1180 787 q20 -75 20 -99 q0 -24 6 -61 l6 -49 q4 -25 -5 -59 q-19 -73 -87 -73 l-92 -2 l-147 -8 l-19 0 q-53 0 -80 4 q-27 4 -39 4 l-36 -4 l-58 0 l-76 2 q-66 2 -65 -41 q0 -19 35 -41 q35 -22 94 -22 l65 0 l99 -8 l133 0 q51 0 92 10 l45 10 q41 10 61 -12 q20 -22 19 -40 q0 -18 -4 -53 q-4 -34 -2 -61 l6 -78 q6 -74 -31 -92 q-47 -27 -153 -32 l-72 -5 l-158 -8 q-47 0 -129 15 l-39 6 q-98 16 -148 34 q-50 18 -124 56 q-133 72 -225 244 q-57 106 -58 237 q0 37 12 86 q16 67 26 117 q11 51 38 92 q26 41 74 99 q48 59 76 74 q28 15 58 25 q30 10 51 23 q21 12 45 21 q24 8 34 10 q10 2 21 6 l22 6 q51 14 131 14 q80 0 277 -44 q49 -10 151 -86 q31 -23 81 -82 q49 -59 69 -135 Z" /><glyph glyph-name="" unicode="&#x116;" d="M539 1466 q-14 0 -39 -4 l-23 -2 l-49 4 l-6 0 q-16 4 -26 20 q-10 16 -11 27 l2 23 l0 20 l6 80 l0 8 q0 10 6 19 q20 27 64 27 l90 -5 l37 0 l69 -2 l70 2 q45 0 65 -16 q20 -16 19 -89 q0 -73 -14 -88 q-14 -16 -31 -24 q-17 -8 -63 -8 l-43 4 l-44 0 l-65 4 l-14 0 ZM1053 430 q39 0 59 -18 q39 -35 39 -103 l0 -22 l-2 -14 l0 -27 l2 -39 q8 -125 -10 -165 q-18 -40 -72 -44 l-47 0 l-59 6 l-31 0 q-29 0 -32 -5 q-3 -5 -81 -5 l-31 -2 l-90 8 l-57 0 q-35 -2 -133 -2 l-170 2 l-162 -8 l-10 0 q-92 0 -90 88 l2 29 q2 16 2 49 l6 225 l6 98 q0 85 -6 143 q-6 58 -4 91 q2 33 0 53 l-8 170 l8 123 l0 59 l-8 127 q-2 66 35 99 q37 33 104 32 l104 -10 l160 4 l80 -2 l39 0 l53 -2 l25 0 l88 -2 l88 4 l37 0 l104 6 q113 0 113 -98 l-2 -43 l0 -82 l8 -94 q0 -98 -82 -96 l-61 4 l-15 0 l-30 -2 l-7 0 q-29 0 -59 4 l-27 4 q-16 2 -49 -2 q-33 -4 -45 -4 l-78 4 q-59 0 -59 -51 q0 -27 18 -40 q18 -13 95 -14 l34 0 l56 6 l106 0 l94 7 q55 0 73 -29 q18 -29 18 -55 l4 -113 l6 -82 q0 -72 -66 -74 l-41 0 q-37 0 -79 -5 q-42 -5 -89 -3 l-94 2 l-20 0 q-10 -1 -38 0 q-28 2 -46 -16 q-31 -42 8 -68 q23 -18 70 -18 l206 10 l86 0 l33 2 l21 0 Z" /><glyph glyph-name="" unicode="&#x117;" d="M551 1241 q-14 0 -39 -4 l-23 -2 l-49 4 l-6 0 q-16 3 -26 19 q-10 16 -11 28 l2 23 l0 20 l4 51 q0 17 3 29 l0 8 q0 10 6 19 q20 27 63 26 l90 -4 l37 0 l70 -2 l69 2 q45 0 65 -16 q20 -16 19 -89 q0 -73 -14 -89 q-14 -16 -31 -23 q-17 -8 -63 -8 l-43 4 l-43 0 l-66 4 l-14 0 ZM610 805 q-129 1 -129 -45 q0 -50 51 -51 l70 2 l66 4 l32 -4 l17 0 q17 0 35 11 q18 12 18 28 q0 16 -26 36 q-26 20 -91 23 l-6 0 l-14 -2 l-4 0 l-19 -2 ZM1180 787 q20 -75 20 -99 q0 -24 6 -61 l6 -49 q4 -25 -5 -59 q-19 -73 -87 -73 l-92 -2 l-147 -8 l-19 0 q-53 0 -80 4 q-27 4 -39 4 l-36 -4 l-58 0 l-76 2 q-66 2 -65 -41 q0 -19 35 -41 q35 -22 94 -22 l65 0 l99 -8 l133 0 q51 0 92 10 l45 10 q41 10 61 -12 q20 -22 19 -40 q0 -18 -4 -53 q-4 -34 -2 -61 l6 -78 q6 -74 -31 -92 q-47 -27 -153 -32 l-72 -5 l-158 -8 q-47 0 -129 15 l-39 6 q-98 16 -148 34 q-50 18 -124 56 q-133 72 -225 244 q-57 106 -58 237 q0 37 12 86 q16 67 26 117 q11 51 38 92 q26 41 74 99 q48 59 76 74 q28 15 58 25 q30 10 51 23 q21 12 45 21 q24 8 34 10 q10 2 21 6 l22 6 q51 14 131 14 q80 0 277 -44 q49 -10 151 -86 q31 -23 81 -82 q49 -59 69 -135 Z" /><glyph glyph-name="" unicode="&#x118;" d="M1053 430 q39 0 59 -18 q39 -35 39 -103 l0 -22 l-2 -14 l0 -27 l2 -39 q2 -53 2 -99 q0 -46 -20 -78 q-20 -32 -64 -32 l-25 0 q-46 0 -76 -31 q-30 -31 -30 -57 q0 -26 14 -39 q14 -14 30 -14 q27 0 54 10 q27 10 62 10 q47 0 47 -56 q0 -56 -35 -87 q-52 -41 -178 -41 q-126 0 -176 40 q-50 40 -51 92 q0 52 56 124 q13 15 13 28 q0 18 -76 23 l-57 0 q-47 -2 -133 -2 l-170 2 l-162 -8 l-10 0 q-92 0 -90 88 l2 29 q2 16 2 49 l6 225 l6 98 q0 85 -6 143 q-6 58 -4 91 q2 33 0 53 l-8 170 l8 123 l0 59 l-8 127 q-2 66 35 99 q37 33 104 32 l104 -10 l160 4 l80 -2 l39 0 l53 -2 l25 0 l88 -2 l88 4 l37 2 q53 2 69 3 q16 1 35 1 q113 0 113 -98 l-2 -43 l0 -82 l8 -94 q0 -98 -82 -96 l-61 4 l-15 0 l-30 -2 l-7 0 q-29 0 -59 4 l-27 4 q-16 2 -49 -2 q-33 -4 -45 -4 l-78 4 q-59 0 -59 -51 q0 -27 18 -40 q18 -13 95 -14 l34 0 l56 6 l106 0 l94 7 q55 0 73 -29 q18 -29 18 -55 l4 -113 l6 -82 q0 -72 -66 -74 l-41 0 q-37 0 -79 -5 q-42 -5 -89 -3 l-94 2 l-20 0 q-10 -1 -38 0 q-28 2 -46 -16 q-31 -42 8 -68 q23 -18 70 -18 l206 10 l86 0 l33 2 l21 0 Z" /><glyph glyph-name="" unicode="&#x119;" d="M610 805 q-129 1 -129 -45 q0 -50 51 -51 l70 2 l66 4 l32 -4 l17 0 q17 0 35 11 q18 12 18 28 q0 16 -26 36 q-26 20 -91 23 l-6 0 l-14 -2 l-4 0 l-19 -2 ZM1120 -121 q47 0 47 -56 q-1 -56 -43 -90 q-42 -34 -162 -34 q-120 0 -178 41 q-49 39 -49 92 q0 53 30 84 q30 31 58 53 l-86 0 q-16 0 -129 15 l-39 6 q-98 16 -148 34 q-50 18 -124 56 q-133 72 -225 244 q-57 106 -58 237 q0 37 12 87 q12 50 17 80 q16 80 41 122 q25 42 76 105 q52 63 80 78 q28 15 58 25 q30 10 54 26 q24 14 45 20 q21 6 31 8 q10 2 21 6 l22 6 q127 34 408 -30 q49 -10 151 -86 q31 -23 80 -81 q50 -58 70 -137 q20 -78 20 -102 q0 -24 6 -61 l6 -49 q4 -25 -5 -59 q-19 -73 -87 -73 l-92 -2 l-147 -8 l-19 0 q-53 0 -80 4 q-27 4 -39 4 l-36 -4 l-58 0 l-76 2 q-66 2 -65 -41 q0 -19 35 -41 q35 -22 94 -22 l65 0 l99 -8 l133 0 q51 0 92 10 l45 10 q41 10 61 -12 q20 -22 19 -40 q0 -18 -4 -53 q-4 -34 -2 -61 l6 -78 q6 -74 -26 -90 q-31 -16 -75 -26 q-44 -10 -65 -28 q-21 -18 -21 -46 q0 -28 15 -43 q13 -14 33 -14 q20 0 51 10 q31 10 57 10 Z" /><glyph glyph-name="" unicode="&#x11a;" d="M354 1675 l23 0 q53 1 115 -31 q62 -32 94 -32 q33 0 103 32 q70 32 99 33 l91 0 q14 0 41 2 q75 6 75 -32 q0 -8 -45 -55 q-45 -47 -60 -56 q-16 -8 -34 -28 q-18 -20 -36 -33 q-25 -17 -85 -17 l-94 2 l-111 -4 l-20 0 q-18 0 -39 4 l-22 0 l-25 -2 q-45 0 -156 111 q-47 35 -55 51 q-8 16 -8 29 q0 25 31 26 l16 0 l33 -2 q18 -2 40 0 q22 2 29 2 ZM1053 430 q39 0 59 -18 q39 -35 39 -103 l0 -22 l-2 -14 l0 -27 l2 -39 q8 -125 -10 -165 q-18 -40 -72 -44 l-47 0 l-59 6 l-31 0 q-29 0 -32 -5 q-3 -5 -81 -5 l-31 -2 l-90 8 l-57 0 q-35 -2 -133 -2 l-170 2 l-162 -8 l-10 0 q-92 0 -90 88 l2 29 q2 16 2 49 l6 225 l6 98 q0 85 -6 143 q-6 58 -4 91 q2 33 0 53 l-8 170 l8 123 l0 59 l-8 127 q-2 66 35 99 q37 33 104 32 l104 -10 l160 4 l80 -2 l39 0 l53 -2 l25 0 l88 -2 l88 4 l37 0 l104 6 q113 0 113 -98 l-2 -43 l0 -82 l8 -94 q0 -98 -82 -96 l-61 4 l-15 0 l-30 -2 l-7 0 q-29 0 -59 4 l-27 4 q-16 2 -49 -2 q-33 -4 -45 -4 l-78 4 q-59 0 -59 -51 q0 -27 18 -40 q18 -13 95 -14 l34 0 l56 6 l106 0 l94 7 q55 0 73 -29 q18 -29 18 -55 l4 -113 l6 -82 q0 -72 -66 -74 l-41 0 q-37 0 -79 -5 q-42 -5 -89 -3 l-94 2 l-20 0 q-10 -1 -38 0 q-28 2 -46 -16 q-31 -42 8 -68 q23 -18 70 -18 l206 10 l86 0 l33 2 l21 0 Z" /><glyph glyph-name="" unicode="&#x11b;" d="M367 1450 l22 0 q53 0 115 -32 q62 -32 93 -32 q31 0 103 33 q72 33 101 33 l90 0 q14 0 41 2 q74 5 76 -33 q0 -8 -46 -55 q-46 -47 -61 -55 q-14 -8 -34 -30 q-20 -22 -31 -28 q-11 -6 -22 -13 q-11 -7 -66 -7 l-95 2 l-110 -4 l-21 0 q-18 0 -39 4 l-22 0 l-25 -2 q-45 0 -155 110 q-9 7 -23 19 q-14 12 -28 24 q-14 12 -13 37 q0 25 31 27 l16 0 l33 -2 q18 -2 40 0 q22 2 30 2 ZM610 805 q-129 1 -129 -45 q0 -50 51 -51 l70 2 l66 4 l32 -4 l17 0 q17 0 35 11 q18 12 18 28 q0 16 -26 36 q-26 20 -91 23 l-6 0 l-14 -2 l-4 0 l-19 -2 ZM1180 787 q20 -75 20 -99 q0 -24 6 -61 l6 -49 q4 -25 -5 -59 q-19 -73 -87 -73 l-92 -2 l-147 -8 l-19 0 q-53 0 -80 4 q-27 4 -39 4 l-36 -4 l-58 0 l-76 2 q-66 2 -65 -41 q0 -19 35 -41 q35 -22 94 -22 l65 0 l99 -8 l133 0 q51 0 92 10 l45 10 q41 10 61 -12 q20 -22 19 -40 q0 -18 -4 -53 q-4 -34 -2 -61 l6 -78 q6 -74 -31 -92 q-47 -27 -153 -32 l-72 -5 l-158 -8 q-47 0 -129 15 l-39 6 q-98 16 -148 34 q-50 18 -124 56 q-133 72 -225 244 q-57 106 -58 237 q0 37 12 86 q16 67 26 117 q11 51 38 92 q26 41 74 99 q48 59 76 74 q28 15 58 25 q30 10 51 23 q21 12 45 21 q24 8 34 10 q10 2 21 6 l22 6 q51 14 131 14 q80 0 277 -44 q49 -10 151 -86 q31 -23 81 -82 q49 -59 69 -135 Z" /><glyph glyph-name="" unicode="&#x11c;" d="M1083 1489 q0 -39 -75 -33 q-27 2 -41 2 l-90 0 q-29 0 -99 33 q-70 33 -104 33 q-32 0 -94 -32 q-62 -32 -115 -32 l-23 0 l-69 2 l-33 -2 l-16 0 q-31 2 -31 26 q0 24 13 38 q14 12 28 24 q14 12 36 33 q98 96 142 96 l25 -2 l22 0 q20 4 39 4 l20 0 l111 -4 l137 0 q18 -2 26 -7 q8 -5 18 -9 q9 -4 30 -27 q22 -24 38 -34 q16 -10 60 -55 q45 -46 45 -54 ZM964 901 q-40 0 -63 2 l-82 6 q-90 0 -180 -73 q-51 -38 -63 -86 q-12 -48 -13 -88 q0 -98 90 -175 q53 -43 148 -43 q33 0 49 14 q16 14 16 27 q0 13 -8 23 q-8 10 -20 10 l-58 0 q-18 0 -34 16 q-16 16 -15 29 l0 12 l2 21 l0 6 q0 8 2 28 q2 20 0 42 l-2 47 l2 43 q1 11 11 19 q10 7 22 17 q12 10 53 11 l23 0 q16 0 49 -4 l31 -2 l90 -2 l49 -2 l141 4 q37 0 77 -33 q40 -33 40 -106 q0 -20 -4 -66 l-2 -31 l0 -88 l2 -30 q2 -35 2 -103 l0 -119 l2 -90 q0 -80 -37 -113 q-37 -33 -88 -32 l-47 0 q-18 0 -45 5 q-27 5 -43 3 l-131 -8 q-23 -2 -42 0 q-18 2 -38 2 q-20 0 -54 -2 q-34 -2 -71 0 q-264 4 -351 76 q-10 8 -30 22 q-20 14 -43 32 q-23 18 -45 32 q-22 16 -25 18 q-53 42 -111 150 q-58 108 -78 172 q-20 64 -19 159 l14 127 q1 82 25 161 q24 81 60 131 q36 50 102 116 q66 66 119 92 q52 26 172 60 q120 34 329 34 l96 -2 q70 0 96 2 l51 2 q131 4 166 -63 q19 -35 15 -125 l-4 -92 l8 -107 q0 -47 -25 -69 q-25 -22 -110 -23 l-111 4 l-62 0 Z" /><glyph glyph-name="" unicode="&#x11d;" d="M1067 1264 q0 -39 -76 -33 q-27 2 -41 2 l-90 0 q-29 1 -97 33 q-68 32 -103 32 q-34 0 -96 -32 q-62 -32 -115 -31 l-23 0 l-70 2 l-32 -2 l-17 0 q-31 2 -31 26 q0 37 64 80 q111 111 156 111 l24 -2 l23 0 q20 4 39 4 l20 0 l111 -4 l94 2 q70 0 90 -20 q12 -8 31 -29 q19 -21 41 -37 q22 -16 60 -55 q38 -39 38 -47 ZM661 549 q81 0 115 39 q18 20 18 52 q0 32 -45 56 q-46 24 -69 25 l-86 4 q-55 0 -78 -29 q-23 -29 -22 -57 q0 -55 43 -73 q43 -18 124 -17 ZM805 -176 l-71 -8 q-29 0 -59 2 q-30 2 -115 5 q-85 3 -152 13 l-70 12 q-28 4 -34 6 q-6 3 -8 4 q-3 1 -8 4 q-5 3 -62 17 q-56 13 -82 39 q-26 26 -27 46 q0 20 7 79 q7 60 6 76 q-1 16 -1 28 q0 12 13 32 q14 20 48 20 q34 0 74 -15 l90 -30 q63 -23 97 -25 l67 -4 l84 -8 l76 8 q70 6 83 17 q13 11 13 24 q0 33 -35 35 l-10 0 q-6 0 -11 -1 q-5 -1 -39 -4 q-34 -3 -53 -6 q-18 -4 -46 3 l-45 2 q-70 3 -168 31 q-211 61 -293 192 q-60 94 -60 182 q0 88 6 131 q6 43 8 65 q0 22 26 71 q26 49 44 67 l39 41 q58 60 94 84 q14 6 42 14 q28 8 75 31 q25 10 149 10 q125 0 155 -5 q30 -5 67 -24 l35 -18 q14 -7 38 -29 q24 -22 32 -22 q10 0 14 24 q4 24 6 27 q16 35 74 35 l8 0 l114 -8 l23 0 l55 6 q25 4 45 4 q74 0 101 -39 q23 -29 22 -59 l-6 -129 q-2 -17 2 -61 q4 -44 4 -64 l2 -41 q2 -41 -3 -77 q-5 -36 -5 -63 l0 -28 q0 -14 2 -42 q2 -28 4 -65 l2 -51 l-4 -127 l0 -45 q0 -90 -8 -126 q-8 -37 -24 -63 q-16 -26 -40 -58 q-23 -32 -26 -38 q-36 -44 -89 -66 q-57 -24 -97 -26 q-40 -3 -140 -8 l-55 -4 Z" /><glyph glyph-name="" unicode="&#x11e;" d="M627 1683 q29 -45 139 -45 q110 0 141 39 l17 21 q12 12 28 12 q16 0 28 -3 q12 -3 30 -1 l55 2 l47 4 q31 2 31 -26 l0 -13 q-6 -43 -31 -78 q-68 -96 -184 -122 q-60 -15 -190 -15 q-130 0 -216 45 q-51 25 -80 64 q-49 67 -49 105 q0 38 29 38 q12 0 49 -4 l31 -2 l84 6 q26 0 34 -12 q8 -12 7 -15 ZM964 901 q-40 0 -63 2 l-82 6 q-90 0 -180 -73 q-51 -38 -63 -86 q-12 -48 -13 -88 q0 -98 90 -175 q53 -43 148 -43 q33 0 49 14 q16 14 16 27 q0 13 -8 23 q-8 10 -20 10 l-58 0 q-18 0 -34 16 q-16 16 -15 29 l0 12 l2 21 l0 6 q0 8 2 28 q2 20 0 42 l-2 47 l2 43 q1 11 11 19 q10 7 22 17 q12 10 53 11 l23 0 q16 0 49 -4 l31 -2 l90 -2 l49 -2 l141 4 q37 0 77 -33 q40 -33 40 -106 q0 -20 -4 -66 l-2 -31 l0 -88 l2 -30 q2 -35 2 -103 l0 -119 l2 -90 q0 -80 -37 -113 q-37 -33 -88 -32 l-47 0 q-18 0 -45 5 q-27 5 -43 3 l-131 -8 q-23 -2 -42 0 q-18 2 -38 2 q-20 0 -54 -2 q-34 -2 -71 0 q-264 4 -351 76 q-10 8 -30 22 q-20 14 -43 32 q-23 18 -45 32 q-22 16 -25 18 q-53 42 -111 150 q-58 108 -78 172 q-20 64 -19 159 l14 127 q1 82 25 161 q24 81 60 131 q36 50 102 116 q66 66 119 92 q52 26 172 60 q120 34 329 34 l96 -2 q70 0 96 2 l51 2 q131 4 166 -63 q19 -35 15 -125 l-4 -92 l8 -107 q0 -47 -25 -69 q-25 -22 -110 -23 l-111 4 l-62 0 Z" /><glyph glyph-name="" unicode="&#x11f;" d="M530 1456 q29 -45 139 -45 q110 0 142 39 l16 20 q19 19 45 13 q26 -6 41 -4 l56 2 l47 4 q31 2 31 -27 l0 -12 q-6 -43 -31 -78 q-68 -96 -185 -123 q-61 -14 -190 -14 q-129 0 -215 45 q-51 25 -80 63 q-49 68 -49 106 q0 38 29 38 q12 0 49 -4 l31 -2 l83 6 q30 0 38 -19 q3 -6 3 -8 ZM661 549 q81 0 115 39 q18 20 18 52 q0 32 -45 56 q-46 24 -69 25 l-86 4 q-55 0 -78 -29 q-23 -29 -22 -57 q0 -55 43 -73 q43 -18 124 -17 ZM805 -176 l-71 -8 q-29 0 -59 2 q-30 2 -115 5 q-85 3 -152 13 l-70 12 q-28 4 -34 6 q-6 3 -8 4 q-3 1 -8 4 q-5 3 -62 17 q-56 13 -82 39 q-26 26 -27 46 q0 20 7 79 q7 60 6 76 q-1 16 -1 28 q0 12 13 32 q14 20 48 20 q34 0 74 -15 l90 -30 q63 -23 97 -25 l67 -4 l84 -8 l76 8 q70 6 83 17 q13 11 13 24 q0 33 -35 35 l-10 0 q-6 0 -11 -1 q-5 -1 -39 -4 q-34 -3 -53 -6 q-18 -4 -46 3 l-45 2 q-70 3 -168 31 q-211 61 -293 192 q-60 94 -60 182 q0 88 6 131 q6 43 8 65 q0 22 26 71 q26 49 44 67 l39 41 q58 60 94 84 q14 6 42 14 q28 8 75 31 q25 10 149 10 q125 0 155 -5 q30 -5 67 -24 l35 -18 q14 -7 38 -29 q24 -22 32 -22 q10 0 14 24 q4 24 6 27 q16 35 74 35 l8 0 l114 -8 l23 0 l55 6 q25 4 45 4 q74 0 101 -39 q23 -29 22 -59 l-6 -129 q-2 -17 2 -61 q4 -44 4 -64 l2 -41 q2 -41 -3 -77 q-5 -36 -5 -63 l0 -28 q0 -14 2 -42 q2 -28 4 -65 l2 -51 l-4 -127 l0 -45 q0 -90 -8 -126 q-8 -37 -24 -63 q-16 -26 -40 -58 q-23 -32 -26 -38 q-36 -44 -89 -66 q-57 -24 -97 -26 q-40 -3 -140 -8 l-55 -4 Z" /><glyph glyph-name="" unicode="&#x122;" d="M1014 -119 l0 -41 l-2 -47 q-4 -100 -84 -188 q-62 -63 -82 -71 q-20 -8 -29 -11 q-9 -4 -18 -4 l-27 0 l-84 -2 l-53 0 q-31 0 -40 2 q-9 2 -9 19 q0 17 33 38 q33 22 64 55 q31 33 31 44 q0 11 -12 15 q-12 4 -72 5 q-60 0 -61 45 l2 20 l-2 47 l0 68 q2 37 26 52 q24 15 81 16 l45 -4 l45 0 l117 -2 q131 0 131 -56 ZM964 901 q-40 0 -63 2 l-82 6 q-90 0 -180 -73 q-51 -38 -63 -86 q-12 -48 -13 -88 q0 -98 90 -175 q53 -43 148 -43 q33 0 49 14 q16 14 16 27 q0 13 -8 23 q-8 10 -20 10 l-58 0 q-18 0 -34 16 q-16 16 -15 29 l0 12 l2 21 l0 6 q0 8 2 28 q2 20 0 42 l-2 47 l2 43 q1 11 11 19 q10 7 22 17 q12 10 53 11 l23 0 q16 0 49 -4 l31 -2 l90 -2 l49 -2 l141 4 q37 0 77 -33 q40 -33 40 -106 q0 -20 -4 -66 l-2 -31 l0 -88 l2 -30 q2 -35 2 -103 l0 -119 l2 -90 q0 -80 -37 -113 q-37 -33 -88 -32 l-47 0 q-18 0 -45 5 q-27 5 -43 3 l-131 -8 q-23 -2 -42 0 q-18 2 -38 2 q-20 0 -54 -2 q-34 -2 -71 0 q-264 4 -351 76 q-10 8 -30 22 q-20 14 -43 32 q-23 18 -45 32 q-22 16 -25 18 q-53 42 -111 150 q-58 108 -78 172 q-20 64 -19 159 l14 127 q1 82 25 161 q24 81 60 131 q36 50 102 116 q66 66 119 92 q52 26 172 60 q120 34 329 34 l96 -2 q70 0 96 2 l51 2 q131 4 166 -63 q19 -35 15 -125 l-4 -92 l8 -107 q0 -47 -25 -69 q-25 -22 -110 -23 l-111 4 l-62 0 Z" /><glyph glyph-name="" unicode="&#x123;" d="M838 1681 q0 -18 -10 -29 q-10 -11 -9 -26 q-20 -40 -20 -49 q0 -20 24 -29 l60 0 q20 0 40 -16 q20 -16 19 -72 l0 -10 l-8 -70 l8 -88 q0 -94 -61 -94 q-72 0 -109 2 l-143 0 l-27 2 q-26 0 -44 24 q-18 24 -17 52 l6 149 l-2 27 l0 62 l-2 22 q0 23 10 38 q10 15 17 34 q7 19 25 45 q17 26 18 28 q1 1 9 11 q17 20 60 20 l37 -2 l43 -2 q76 0 76 -29 ZM661 549 q81 0 115 39 q18 20 18 52 q0 32 -45 56 q-46 24 -69 25 l-86 4 q-55 0 -78 -29 q-23 -29 -22 -57 q0 -55 43 -73 q43 -18 124 -17 ZM805 -176 l-71 -8 q-29 0 -59 2 q-30 2 -115 5 q-85 3 -152 13 l-70 12 q-28 4 -34 6 q-6 3 -8 4 q-3 1 -8 4 q-5 3 -62 17 q-56 13 -82 39 q-26 26 -27 46 q0 20 7 79 q7 60 6 76 q-1 16 -1 28 q0 12 13 32 q14 20 48 20 q34 0 74 -15 l90 -30 q63 -23 97 -25 l67 -4 l84 -8 l76 8 q70 6 83 17 q13 11 13 24 q0 33 -35 35 l-10 0 q-6 0 -11 -1 q-5 -1 -39 -4 q-34 -3 -53 -6 q-18 -4 -46 3 l-45 2 q-70 3 -168 31 q-211 61 -293 192 q-60 94 -60 182 q0 88 6 131 q6 43 8 65 q0 22 26 71 q26 49 44 67 l39 41 q58 60 94 84 q14 6 42 14 q28 9 73 29 q45 20 173 20 q128 0 200 -37 l35 -18 q14 -7 38 -29 q24 -22 33 -22 q10 0 13 28 q3 28 6 33 q16 35 74 35 l8 0 l114 -8 l23 0 l55 6 q25 4 45 4 q74 0 101 -39 q23 -29 22 -69 l-6 -129 q-2 -17 2 -61 q4 -44 4 -64 l2 -41 q2 -41 -3 -77 q-5 -36 -5 -63 l0 -28 q0 -14 2 -42 q2 -28 4 -65 l2 -51 l-4 -127 l0 -45 q0 -90 -8 -126 q-8 -37 -24 -63 q-16 -26 -40 -58 q-23 -32 -26 -38 q-36 -44 -89 -66 q-57 -24 -97 -26 q-40 -3 -140 -8 l-55 -4 Z" /><glyph glyph-name="" unicode="&#x124;" d="M1147 1489 q0 -39 -76 -33 q-27 2 -41 2 l-90 0 q-29 0 -99 33 q-70 33 -103 33 q-32 0 -94 -32 q-62 -32 -116 -32 l-22 0 l-70 2 l-33 -2 l-16 0 q-31 2 -31 27 q0 25 14 37 q38 33 50 43 q110 110 155 110 l25 -2 l23 0 q20 4 39 4 l20 0 l111 -4 l137 0 q18 -2 26 -7 q8 -5 18 -9 q9 -4 30 -27 q22 -24 40 -36 q18 -12 60 -56 q42 -44 43 -51 ZM76 408 l0 165 q0 47 5 77 q5 30 3 79 l-2 51 l0 144 l2 108 q0 14 2 21 l0 49 l-12 164 q0 42 22 68 q22 26 54 26 l36 0 l95 6 q57 2 113 0 q56 -2 79 2 l53 4 q39 2 65 -19 q26 -21 25 -67 l-12 -90 l0 -16 l6 -39 l0 -13 l-2 -88 q0 -41 28 -57 q28 -16 95 -20 l57 -5 q55 -4 97 37 q14 15 16 27 q2 12 2 61 l0 203 q0 40 25 62 q25 22 55 22 l43 -2 q4 0 20 -2 q16 -2 58 1 q42 3 54 0 q12 -3 30 -2 q18 1 33 1 l45 0 l80 6 q41 0 65 -29 q20 -20 19 -55 l-3 -35 l-6 -41 q0 -66 -2 -102 l-2 -41 q-2 -23 4 -89 q6 -66 0 -156 q-6 -90 -6 -117 l0 -95 q4 -45 4 -85 l0 -50 l2 -71 q0 -12 2 -35 q2 -23 0 -55 q-2 -32 -2 -52 l0 -108 l6 -56 l0 -8 q-1 -40 -27 -68 q-26 -28 -59 -28 l-104 2 l-68 -2 l-94 4 q-16 2 -48 0 q-32 -2 -46 -2 q-80 0 -82 84 l2 68 l0 14 l-4 49 q-4 16 -2 43 q2 27 2 35 l0 37 q0 66 -64 89 q-11 3 -25 1 q-14 -2 -17 -2 l-58 2 q-20 2 -44 -6 l-27 -9 q-22 0 -38 -14 q-16 -14 -16 -41 l0 -160 l2 -86 l0 -10 q0 -94 -90 -96 l-20 0 q-37 4 -60 4 l-153 0 l-60 -2 l-47 0 q-108 0 -106 88 l2 84 l0 39 l6 59 q2 18 -2 68 q-4 50 -4 72 Z" /><glyph glyph-name="" unicode="&#x125;" d="M813 1473 q0 -39 -76 -33 q-27 2 -41 2 l-90 0 q-29 0 -99 32 q-70 32 -103 33 q-32 1 -94 -31 q-62 -32 -115 -32 l-23 0 l-70 2 l-32 -2 l-17 0 q-31 2 -30 26 q0 27 13 38 q13 11 58 51 q45 40 83 71 q38 31 65 31 l24 -2 l23 0 q20 4 39 4 l20 0 l111 -4 l137 0 q37 -4 47 -19 q12 -8 31 -29 q19 -21 41 -36 q22 -16 60 -55 q38 -39 38 -47 ZM229 1376 q49 0 87 -5 q38 -5 59 -3 l94 8 q53 4 73 -28 q20 -32 19 -64 l-2 -45 l2 -35 q0 -10 -3 -28 q-3 -18 -2 -30 q1 -12 1 -28 l-4 -53 q0 -31 22 -31 q12 0 34 16 q21 16 43 25 q22 9 40 19 q39 22 105 22 l28 -2 q106 0 142 -14 q36 -14 51 -21 q14 -8 18 -10 q4 -2 14 -8 q10 -6 22 -20 q13 -13 29 -24 q15 -11 49 -83 q34 -72 45 -138 q11 -66 13 -212 l2 -90 l2 -56 l-8 -53 l0 -94 l-6 -70 l0 -14 l12 -96 l2 -25 q6 -45 -22 -70 q-28 -25 -72 -24 l-108 8 l-35 0 l-103 -6 q-158 0 -159 74 l0 4 l6 41 l0 82 l6 69 l0 23 l-8 55 l2 141 q0 66 -39 107 q-18 22 -55 22 q-37 0 -49 -24 q-12 -24 -20 -68 q-7 -44 -5 -59 l4 -39 l2 -64 q0 -14 -7 -87 q-7 -73 1 -115 l4 -31 q-2 -25 3 -42 q5 -17 -3 -31 q-8 -14 -9 -22 q-2 -10 -14 -16 q-12 -6 -19 -10 q-7 -4 -27 -4 l-39 0 l-218 0 l-30 -2 l-19 0 l-24 -2 q-55 0 -74 33 q-20 41 -14 143 l4 61 q2 35 2 56 l-2 51 l0 10 l-4 96 q0 27 4 65 q4 38 2 56 l-8 172 q-2 43 6 123 l0 70 l4 108 l-2 103 l-2 35 l2 47 l0 35 l-2 34 q0 35 18 59 q18 24 78 23 l61 0 Z" /><glyph glyph-name="" unicode="&#x12a;" d="M690 1679 q35 0 44 -10 q9 -10 9 -47 l-6 -59 l4 -56 q0 -42 -27 -47 q-11 -2 -36 -2 l-70 0 l-110 -2 l-74 6 l-66 -4 l-94 2 l-55 -4 l-107 6 l-84 -4 q-47 0 -47 29 l0 2 q0 8 4 20 l0 50 l2 34 l-2 31 l0 23 q4 33 52 32 l106 -4 q43 0 63 3 q20 3 72 1 l164 -4 l221 4 l37 0 ZM629 1227 l0 -33 l-8 -135 q-2 -27 4 -97 q6 -70 6 -106 l-10 -170 l0 -176 l6 -125 l0 -55 l-6 -92 q0 -8 5 -53 q5 -45 6 -55 q1 -10 3 -9 q2 0 2 -17 l0 -18 q-6 -49 -31 -70 q-25 -21 -74 -20 l-38 2 l-33 0 l-27 2 l-98 0 l-139 -6 q-63 -4 -97 29 q-18 18 -18 69 l6 92 q2 27 0 60 q-2 33 -2 57 l0 78 q0 6 5 85 q5 79 0 133 q-5 54 -5 108 l0 274 l2 72 l-2 65 l-6 154 q-2 49 25 76 q27 27 73 26 l125 -10 q49 0 86 6 l39 4 q115 10 158 -24 q43 -34 43 -121 Z" /><glyph glyph-name="" unicode="&#x12b;" d="M649 1454 q35 0 44 -10 q9 -10 9 -47 l-6 -60 l4 -55 q0 -42 -27 -47 q-11 -2 -36 -2 l-70 0 l-110 -2 l-74 6 l-66 -4 l-94 2 l-55 -4 l-107 6 l-84 -4 q-47 0 -47 29 l0 2 q0 8 4 20 l0 49 q0 17 3 35 l-3 31 l0 22 q4 33 52 33 l106 -4 q44 0 64 3 q20 3 71 1 l164 -4 l221 4 l37 0 ZM334 0 q-117 0 -191 -6 l-10 0 q-18 4 -44 30 q-26 26 -26 101 l7 131 l-2 47 q-4 90 2 137 q6 47 6 154 l-6 149 l6 220 l0 79 q6 70 102 70 l45 -2 l33 0 l96 -4 l117 8 l10 0 q47 0 67 -27 q20 -27 21 -104 l-4 -369 l0 -32 l-6 -111 l0 -201 l-2 -73 l6 -84 q0 -119 -119 -119 l-12 0 l-63 6 l-33 0 Z" /></font>
</defs>
</svg>
